<svg xmlns="http://www.w3.org/2000/svg" xmlns:xlink="http://www.w3.org/1999/xlink" width="500" zoomAndPan="magnify" viewBox="0 0 375 374.999991" height="500" preserveAspectRatio="xMidYMid meet" version="1.0"><path fill="#ffffff" d="M 194.105469 251.050781 L 194.105469 270.976562 L 211.007812 277.175781 L 211.007812 257.25 Z M 194.105469 212.160156 L 194.105469 232.085938 L 211.007812 238.28125 L 211.007812 218.355469 Z M 278.507812 189.015625 L 241.382812 213.144531 L 241.382812 312.746094 C 254.003906 314.167969 266.402344 316.089844 278.507812 318.503906 Z M 194.105469 173.292969 L 194.105469 193.191406 L 211.007812 199.390625 L 211.007812 179.488281 Z M 88.726562 167.707031 L 51.582031 191.835938 L 51.582031 329.957031 C 63.457031 326.144531 75.882812 322.847656 88.726562 320.097656 Z M 227.730469 146.753906 L 227.730469 166.652344 L 244.632812 172.855469 L 244.632812 152.957031 Z M 194.105469 134.40625 L 194.105469 154.332031 L 211.007812 160.53125 L 211.007812 140.605469 Z M 227.730469 107.863281 L 227.730469 127.792969 L 244.632812 133.964844 L 244.632812 114.066406 Z M 194.105469 95.519531 L 194.105469 115.441406 L 211.007812 121.640625 L 211.007812 101.710938 Z M 227.730469 68.976562 L 227.730469 88.902344 L 244.632812 95.101562 L 244.632812 75.175781 Z M 194.105469 56.628906 L 194.105469 76.554688 L 211.007812 82.75 L 211.007812 62.824219 Z M 171.671875 37.542969 L 134.53125 61.671875 L 134.53125 312.621094 C 146.777344 311.316406 159.179688 310.453125 171.671875 310.089844 Z M 179.441406 23.171875 L 259.042969 52.367188 L 259.042969 175.460938 L 222.175781 199.441406 L 222.175781 311.070312 C 225.957031 311.292969 229.773438 311.585938 233.5625 311.910156 L 233.5625 208.910156 L 286.304688 174.648438 L 331.21875 203.851562 L 331.21875 332.492188 C 346.984375 337.957031 361.648438 344.277344 374.925781 351.386719 L 0.0742188 351.386719 C 13.355469 344.328125 28.019531 338.035156 43.761719 332.621094 L 43.761719 187.613281 L 96.503906 153.34375 L 126.730469 172.972656 L 126.730469 57.464844 Z M 179.441406 23.171875 " fill-opacity="1" fill-rule="evenodd"/></svg>