<svg xmlns="http://www.w3.org/2000/svg" xmlns:xlink="http://www.w3.org/1999/xlink" width="500" zoomAndPan="magnify" viewBox="0 0 375 374.999991" height="500" preserveAspectRatio="xMidYMid meet" version="1.0"><path fill="#ffffff" d="M 148.4375 156.25 C 144.125 156.25 140.625 152.75 140.625 148.4375 L 140.625 7.8125 C 140.625 3.5 144.125 0 148.4375 0 C 152.75 0 156.25 3.5 156.25 7.8125 L 156.25 148.4375 C 156.25 152.75 152.75 156.25 148.4375 156.25 Z M 148.4375 156.25 " fill-opacity="1" fill-rule="nonzero"/><path fill="#ffffff" d="M 101.5625 156.25 L 7.8125 156.25 C 3.5 156.25 0 152.75 0 148.4375 C 0 144.125 3.5 140.625 7.8125 140.625 L 101.5625 140.625 C 105.875 140.625 109.375 144.125 109.375 148.4375 C 109.375 152.75 105.875 156.25 101.5625 156.25 Z M 101.5625 156.25 " fill-opacity="1" fill-rule="nonzero"/><path fill="#ffffff" d="M 257.8125 78.125 L 39.0625 78.125 C 34.75 78.125 31.25 74.625 31.25 70.3125 C 31.25 66 34.75 62.5 39.0625 62.5 L 257.8125 62.5 C 262.125 62.5 265.625 66 265.625 70.3125 C 265.625 74.625 262.125 78.125 257.8125 78.125 Z M 257.8125 78.125 " fill-opacity="1" fill-rule="nonzero"/><path fill="#ffffff" d="M 85.9375 234.375 L 39.0625 234.375 C 34.75 234.375 31.25 230.875 31.25 226.5625 C 31.25 222.25 34.75 218.75 39.0625 218.75 L 85.9375 218.75 C 90.25 218.75 93.75 222.25 93.75 226.5625 C 93.75 230.875 90.25 234.375 85.9375 234.375 Z M 85.9375 234.375 " fill-opacity="1" fill-rule="nonzero"/><path fill="#ffffff" d="M 85.9375 240.375 C 82.890625 240.375 79.96875 238.5625 78.71875 235.5625 C 68.109375 210.03125 62.5 179.90625 62.5 148.4375 C 62.5 65.203125 100.25 0 148.4375 0 C 196.625 0 234.375 65.203125 234.375 148.4375 C 234.375 152.75 230.875 156.25 226.5625 156.25 C 222.25 156.25 218.75 152.75 218.75 148.4375 C 218.75 76.453125 186.546875 15.625 148.4375 15.625 C 110.328125 15.625 78.125 76.453125 78.125 148.4375 C 78.125 177.875 83.328125 205.921875 93.15625 229.5625 C 94.796875 233.546875 92.921875 238.109375 88.9375 239.78125 C 87.953125 240.1875 86.9375 240.375 85.9375 240.375 Z M 85.9375 240.375 " fill-opacity="1" fill-rule="nonzero"/><path fill="#ffffff" d="M 85.9375 282.09375 C 84.765625 282.09375 83.578125 281.828125 82.453125 281.28125 C 31.59375 255.953125 0 205.0625 0 148.4375 C 0 66.59375 66.59375 0 148.4375 0 C 230.28125 0 296.875 66.59375 296.875 148.4375 C 296.875 152.75 293.375 156.25 289.0625 156.25 C 284.75 156.25 281.25 152.75 281.25 148.4375 C 281.25 75.203125 221.671875 15.625 148.4375 15.625 C 75.203125 15.625 15.625 75.203125 15.625 148.4375 C 15.625 199.09375 43.90625 244.625 89.421875 267.28125 C 93.28125 269.203125 94.859375 273.890625 92.9375 277.75 C 91.5625 280.5 88.8125 282.09375 85.9375 282.09375 Z M 85.9375 282.09375 " fill-opacity="1" fill-rule="nonzero"/><path fill="#ffffff" d="M 335.9375 343.75 L 117.1875 343.75 C 95.640625 343.75 78.125 326.21875 78.125 304.6875 L 78.125 179.6875 C 78.125 158.15625 95.640625 140.625 117.1875 140.625 L 335.9375 140.625 C 357.484375 140.625 375 158.15625 375 179.6875 L 375 304.6875 C 375 326.21875 357.484375 343.75 335.9375 343.75 Z M 117.1875 156.25 C 104.265625 156.25 93.75 166.765625 93.75 179.6875 L 93.75 304.6875 C 93.75 317.609375 104.265625 328.125 117.1875 328.125 L 335.9375 328.125 C 348.859375 328.125 359.375 317.609375 359.375 304.6875 L 359.375 179.6875 C 359.375 166.765625 348.859375 156.25 335.9375 156.25 Z M 117.1875 156.25 " fill-opacity="1" fill-rule="nonzero"/><path fill="#ffffff" d="M 367.1875 296.875 L 85.9375 296.875 C 81.625 296.875 78.125 293.375 78.125 289.0625 C 78.125 284.75 81.625 281.25 85.9375 281.25 L 367.1875 281.25 C 371.5 281.25 375 284.75 375 289.0625 C 375 293.375 371.5 296.875 367.1875 296.875 Z M 367.1875 296.875 " fill-opacity="1" fill-rule="nonzero"/><path fill="#ffffff" d="M 226.5625 375 C 222.25 375 218.75 371.5 218.75 367.1875 L 218.75 335.9375 C 218.75 331.625 222.25 328.125 226.5625 328.125 C 230.875 328.125 234.375 331.625 234.375 335.9375 L 234.375 367.1875 C 234.375 371.5 230.875 375 226.5625 375 Z M 226.5625 375 " fill-opacity="1" fill-rule="nonzero"/><path fill="#ffffff" d="M 289.0625 375 L 164.0625 375 C 159.75 375 156.25 371.5 156.25 367.1875 C 156.25 362.875 159.75 359.375 164.0625 359.375 L 289.0625 359.375 C 293.375 359.375 296.875 362.875 296.875 367.1875 C 296.875 371.5 293.375 375 289.0625 375 Z M 289.0625 375 " fill-opacity="1" fill-rule="nonzero"/></svg>