<svg xmlns="http://www.w3.org/2000/svg" xmlns:xlink="http://www.w3.org/1999/xlink" width="500" zoomAndPan="magnify" viewBox="0 0 375 374.999991" height="500" preserveAspectRatio="xMidYMid meet" version="1.0"><defs><clipPath id="972505ef4d"><path d="M 27 190.519531 L 348.195312 190.519531 L 348.195312 375 L 27 375 Z M 27 190.519531 " clip-rule="nonzero"/></clipPath><clipPath id="261b88904c"><path d="M 0 360.402344 L 375 360.402344 L 375 375 L 0 375 Z M 0 360.402344 " clip-rule="nonzero"/></clipPath><clipPath id="c850d013d8"><path d="M 65.054688 333 L 310 333 L 310 375 L 65.054688 375 Z M 65.054688 333 " clip-rule="nonzero"/></clipPath></defs><path fill="#ffffff" d="M 248.910156 96.085938 C 246.90625 96.085938 244.957031 95.261719 243.570312 93.796875 C 242.453125 92.621094 241.777344 91.265625 240.644531 89.023438 C 238.699219 85.148438 235.082031 77.949219 227.605469 68.476562 C 224.511719 64.558594 223.292969 63.242188 222.433594 62.398438 C 221.847656 61.832031 220.480469 60.546875 218.515625 59.03125 C 216.707031 60.996094 214.675781 62.683594 212.449219 64.078125 C 204.816406 68.839844 197.097656 68.652344 191.46875 68.515625 L 191.066406 68.503906 C 190.890625 68.5 173.316406 68.101562 154.5625 69.398438 L 153.664062 69.460938 C 147.59375 69.871094 141.3125 70.304688 136.601562 72.8125 C 132.113281 75.207031 129.472656 80.238281 127.785156 89.648438 C 127.28125 92.410156 125.34375 94.699219 122.714844 95.628906 C 119.503906 96.761719 116.074219 95.6875 113.972656 92.898438 C 110.359375 88.09375 109.65625 81.707031 109.144531 77.042969 L 109.125 76.886719 C 108.402344 70.308594 107 54.339844 109.597656 48.15625 C 111 44.8125 115.21875 36.105469 124.039062 27.582031 C 141.367188 10.839844 169.878906 4.257812 175.421875 3.109375 C 186.238281 0.863281 196.585938 0.0625 206.171875 0.730469 C 212.921875 1.195312 218.636719 2.042969 223.640625 3.308594 C 230.34375 5.007812 235.601562 8.304688 238.855469 12.847656 C 240.539062 15.195312 241.570312 17.601562 242.472656 19.722656 C 243.308594 21.679688 244.03125 23.367188 245.019531 24.417969 C 246.390625 25.886719 248.257812 27.214844 250.234375 28.625 C 252.433594 30.195312 254.925781 31.96875 257.171875 34.257812 C 262.65625 39.851562 268.855469 49.222656 269.816406 58.75 C 270.710938 67.65625 266.84375 75.359375 263.386719 81.074219 C 262.988281 81.726562 261.074219 84.699219 259.171875 87.488281 C 255.3125 93.128906 253.449219 95.640625 249.679688 96.046875 C 249.425781 96.070312 249.164062 96.085938 248.910156 96.085938 Z M 216.941406 42.4375 C 220.1875 42.4375 222.867188 44.3125 224.570312 45.503906 L 224.734375 45.617188 C 228.5625 48.28125 231.285156 50.785156 232.570312 52.039062 C 233.964844 53.398438 235.585938 55.195312 238.984375 59.496094 C 243.933594 65.773438 247.378906 71.15625 249.8125 75.398438 C 250.335938 74.605469 250.75 73.945312 250.988281 73.558594 C 254.394531 67.933594 255.75 63.8125 255.390625 60.199219 C 254.925781 55.574219 251.402344 49.078125 246.820312 44.40625 C 245.472656 43.03125 243.703125 41.769531 241.824219 40.433594 C 239.464844 38.75 236.796875 36.847656 234.4375 34.328125 C 231.707031 31.414062 230.289062 28.089844 229.148438 25.421875 C 228.441406 23.769531 227.832031 22.347656 227.074219 21.285156 C 225.855469 19.589844 223.378906 18.195312 220.082031 17.363281 C 215.925781 16.308594 211.042969 15.597656 205.164062 15.191406 C 196.902344 14.617188 187.886719 15.324219 178.371094 17.300781 C 164.960938 20.082031 145.324219 27.175781 134.113281 38.007812 C 127.195312 44.695312 123.933594 51.488281 123.019531 53.632812 C 122.71875 54.78125 122.414062 58.835938 122.742188 65.511719 C 124.664062 63.394531 126.980469 61.511719 129.785156 60.019531 C 137.230469 56.050781 145.441406 55.488281 152.679688 54.996094 L 153.566406 54.9375 C 173.015625 53.589844 190.667969 53.996094 191.410156 54.015625 L 191.824219 54.023438 C 196.65625 54.140625 200.824219 54.242188 204.773438 51.777344 C 206.828125 50.496094 208.589844 48.65625 210.019531 46.308594 C 211.167969 44.40625 212.996094 43.101562 215.171875 42.628906 C 215.777344 42.496094 216.367188 42.4375 216.941406 42.4375 Z M 222.460938 53.75 C 222.453125 53.765625 222.441406 53.789062 222.429688 53.804688 C 222.441406 53.789062 222.453125 53.765625 222.460938 53.75 Z M 222.460938 53.75 " fill-opacity="1" fill-rule="evenodd"/><path fill="#ffffff" d="M 188.214844 195.191406 C 184.136719 195.191406 179.496094 194.796875 174.5 193.695312 C 170.046875 192.710938 158.460938 189.425781 147.09375 180.113281 C 141.644531 175.652344 131.652344 165.804688 125.976562 150.011719 C 124.53125 145.996094 123.554688 141.707031 122.964844 138.59375 C 119.148438 136.773438 115.640625 134.132812 112.652344 130.789062 C 108.640625 126.308594 105.84375 120.875 104.5625 115.089844 C 101.953125 103.285156 105.949219 91.71875 115.535156 83.355469 C 118.546875 80.722656 123.128906 81.03125 125.757812 84.046875 C 128.394531 87.0625 128.082031 91.644531 125.066406 94.273438 C 117.957031 100.476562 117.691406 107.3125 118.71875 111.960938 C 120.207031 118.695312 125.449219 124.617188 131.460938 126.363281 C 134.21875 127.164062 136.238281 129.511719 136.621094 132.355469 C 137.070312 135.632812 138.117188 140.9375 139.617188 145.105469 C 144.28125 158.082031 152.824219 166.070312 156.277344 168.894531 C 165.226562 176.226562 174.1875 178.78125 177.621094 179.539062 C 187.398438 181.695312 195.460938 180.277344 198.46875 179.5625 C 206.683594 177.625 212.242188 173.800781 214.617188 172.164062 C 216.332031 170.992188 220.804688 167.667969 225.378906 162.253906 C 231.980469 154.441406 236.867188 143.773438 239.5 131.410156 C 240.121094 128.503906 242.453125 126.269531 245.382812 125.773438 C 250.070312 124.984375 256.035156 116.882812 256.703125 107.617188 C 257.167969 101.230469 255.023438 97.222656 250.328125 95.714844 C 246.519531 94.488281 244.421875 90.40625 245.648438 86.59375 C 246.875 82.785156 250.953125 80.6875 254.769531 81.914062 C 260.742188 83.832031 265.386719 87.660156 268.207031 92.988281 C 270.5625 97.429688 271.578125 102.851562 271.160156 108.660156 C 270.300781 120.582031 263.339844 133.878906 252.707031 138.582031 C 249.386719 151.667969 243.929688 162.761719 236.449219 171.613281 C 230.953125 178.117188 225.558594 182.238281 222.832031 184.109375 C 220.042969 186.027344 212.65625 191.109375 201.800781 193.671875 C 198.878906 194.363281 194.132812 195.191406 188.214844 195.191406 " fill-opacity="1" fill-rule="evenodd"/><path fill="#ffffff" d="M 150.089844 218.507812 C 149.007812 218.507812 147.914062 218.269531 146.875 217.753906 C 143.292969 215.972656 141.828125 211.628906 143.605469 208.039062 C 145.488281 204.238281 148.679688 196.625 148.902344 188.273438 C 148.984375 185.074219 148.566406 183.59375 147.867188 181.140625 C 147.671875 180.449219 147.449219 179.660156 147.230469 178.796875 C 146.230469 174.917969 148.570312 170.972656 152.449219 169.976562 C 156.324219 168.980469 160.277344 171.320312 161.269531 175.191406 C 161.445312 175.882812 161.628906 176.515625 161.8125 177.183594 C 162.660156 180.164062 163.535156 183.246094 163.390625 188.65625 C 163.101562 199.785156 159.007812 209.617188 156.589844 214.484375 C 155.324219 217.035156 152.757812 218.507812 150.089844 218.507812 " fill-opacity="1" fill-rule="evenodd"/><path fill="#ffffff" d="M 224.800781 220.769531 C 222.265625 220.769531 219.804688 219.433594 218.472656 217.0625 C 214.8125 210.53125 210.386719 200.300781 210.074219 188.65625 C 209.9375 183.238281 210.808594 180.164062 211.648438 177.1875 C 211.726562 176.910156 211.804688 176.628906 211.890625 176.34375 C 212.960938 172.484375 216.957031 170.222656 220.8125 171.296875 C 224.667969 172.367188 226.925781 176.363281 225.855469 180.222656 C 225.769531 180.53125 225.683594 180.835938 225.597656 181.132812 C 224.90625 183.589844 224.484375 185.070312 224.566406 188.277344 C 224.796875 196.960938 228.253906 204.867188 231.117188 209.976562 C 233.074219 213.464844 231.832031 217.886719 228.335938 219.839844 C 227.214844 220.472656 226 220.769531 224.800781 220.769531 " fill-opacity="1" fill-rule="evenodd"/><g clip-path="url(#972505ef4d)"><path fill="#ffffff" d="M 340.785156 375.109375 L 34.253906 375.109375 C 30.261719 375.109375 27.019531 371.878906 27.007812 367.890625 C 26.941406 346.042969 27.957031 291.4375 38.859375 256.296875 C 41.765625 246.910156 45.300781 239.25 49.980469 232.179688 C 53.894531 226.257812 65.183594 211.355469 85.390625 201.089844 C 103.878906 191.691406 121.566406 190.285156 133.148438 190.765625 C 134.886719 190.835938 136.542969 191.53125 137.8125 192.722656 L 169.875 222.824219 C 172.796875 225.566406 172.9375 230.15625 170.199219 233.074219 C 167.460938 235.988281 162.875 236.136719 159.957031 233.394531 L 129.902344 205.183594 C 120.109375 205.085938 106.308594 206.71875 91.964844 214.011719 C 74.839844 222.71875 65.355469 235.207031 62.070312 240.171875 C 58.121094 246.148438 55.230469 252.445312 52.703125 260.589844 C 43.328125 290.8125 41.738281 338.558594 41.53125 360.613281 L 333.515625 360.613281 C 333.308594 338.558594 331.714844 290.808594 322.335938 260.589844 C 319.816406 252.445312 316.925781 246.148438 312.972656 240.175781 C 309.691406 235.207031 300.207031 222.71875 283.082031 214.011719 C 268.683594 206.691406 254.835938 205.089844 245.035156 205.183594 L 213.253906 233.523438 C 210.265625 236.1875 205.691406 235.921875 203.023438 232.9375 C 200.355469 229.949219 200.621094 225.367188 203.605469 222.703125 L 237.371094 192.59375 C 238.625 191.480469 240.222656 190.828125 241.898438 190.761719 C 253.480469 190.285156 271.167969 191.691406 289.652344 201.089844 C 309.863281 211.355469 321.148438 226.257812 325.066406 232.179688 C 329.742188 239.25 333.273438 246.910156 336.183594 256.296875 C 347.085938 291.4375 348.105469 346.039062 348.035156 367.890625 C 348.019531 371.878906 344.78125 375.109375 340.785156 375.109375 " fill-opacity="1" fill-rule="evenodd"/></g><g clip-path="url(#261b88904c)"><path fill="#ffffff" d="M 412.21875 375.113281 L -37.171875 375.113281 C -41.179688 375.113281 -44.425781 371.871094 -44.425781 367.863281 C -44.425781 363.863281 -41.179688 360.617188 -37.171875 360.617188 L 412.21875 360.617188 C 416.226562 360.617188 419.46875 363.863281 419.46875 367.863281 C 419.46875 371.871094 416.226562 375.113281 412.21875 375.113281 " fill-opacity="1" fill-rule="evenodd"/></g><g clip-path="url(#c850d013d8)"><path fill="#ffffff" d="M 279.4375 375.113281 L 95.601562 375.113281 C 78.761719 375.113281 65.054688 361.410156 65.054688 344.566406 L 65.054688 341.152344 C 65.054688 337.152344 68.300781 333.90625 72.304688 333.90625 L 302.738281 333.90625 C 306.746094 333.90625 309.988281 337.152344 309.988281 341.152344 L 309.988281 344.566406 C 309.988281 361.410156 296.285156 375.113281 279.4375 375.113281 Z M 80.015625 348.402344 C 81.738281 355.410156 88.074219 360.617188 95.601562 360.617188 L 279.4375 360.617188 C 286.96875 360.617188 293.304688 355.402344 295.027344 348.402344 L 80.015625 348.402344 " fill-opacity="1" fill-rule="evenodd"/></g><path fill="#ffffff" d="M 286.921875 348.402344 L 88.125 348.402344 C 84.125 348.402344 80.878906 345.160156 80.878906 341.152344 L 80.878906 240.191406 C 80.878906 229.535156 89.550781 220.863281 100.207031 220.863281 L 274.839844 220.863281 C 285.496094 220.863281 294.167969 229.535156 294.167969 240.191406 L 294.167969 341.152344 C 294.167969 345.160156 290.921875 348.402344 286.921875 348.402344 Z M 95.375 333.90625 L 279.671875 333.90625 L 279.671875 240.191406 C 279.671875 237.527344 277.503906 235.359375 274.839844 235.359375 L 100.207031 235.359375 C 97.542969 235.359375 95.375 237.527344 95.375 240.191406 L 95.375 333.90625 " fill-opacity="1" fill-rule="evenodd"/><path fill="#ffffff" d="M 158.902344 312.296875 C 157.371094 312.296875 155.828125 311.8125 154.515625 310.808594 L 127.777344 290.390625 C 125.984375 289.019531 124.925781 286.890625 124.925781 284.632812 C 124.925781 282.371094 125.984375 280.246094 127.777344 278.871094 L 154.515625 258.453125 C 157.695312 256.023438 162.242188 256.632812 164.671875 259.816406 C 167.101562 262.996094 166.492188 267.546875 163.308594 269.976562 L 144.117188 284.632812 L 163.3125 299.292969 C 166.492188 301.71875 167.101562 306.265625 164.671875 309.453125 C 163.246094 311.316406 161.085938 312.296875 158.902344 312.296875 " fill-opacity="1" fill-rule="evenodd"/><path fill="#ffffff" d="M 216.136719 312.296875 C 213.953125 312.296875 211.800781 311.316406 210.371094 309.449219 C 207.941406 306.265625 208.550781 301.71875 211.730469 299.292969 L 230.921875 284.632812 L 211.730469 269.976562 C 208.550781 267.546875 207.941406 262.996094 210.371094 259.816406 C 212.804688 256.632812 217.351562 256.023438 220.53125 258.453125 L 247.265625 278.871094 C 249.0625 280.246094 250.113281 282.371094 250.113281 284.632812 C 250.113281 286.890625 249.0625 289.019531 247.265625 290.390625 L 220.53125 310.808594 C 219.21875 311.8125 217.671875 312.296875 216.136719 312.296875 " fill-opacity="1" fill-rule="evenodd"/><path fill="#ffffff" d="M 178.792969 323.140625 C 178.144531 323.140625 177.488281 323.054688 176.835938 322.871094 C 172.984375 321.796875 170.730469 317.792969 171.800781 313.941406 L 189.277344 251.425781 C 190.355469 247.566406 194.351562 245.3125 198.210938 246.390625 C 202.0625 247.472656 204.3125 251.46875 203.238281 255.320312 L 185.769531 317.84375 C 184.875 321.042969 181.957031 323.140625 178.792969 323.140625 " fill-opacity="1" fill-rule="evenodd"/></svg>