<svg xmlns="http://www.w3.org/2000/svg" xmlns:xlink="http://www.w3.org/1999/xlink" width="500" zoomAndPan="magnify" viewBox="0 0 375 374.999991" height="500" preserveAspectRatio="xMidYMid meet" version="1.0"><defs><clipPath id="fca434fe75"><path d="M 161 105 L 220 105 L 220 362.953125 L 161 362.953125 Z M 161 105 " clip-rule="nonzero"/></clipPath><clipPath id="00fd071ae9"><path d="M 97 282 L 318 282 L 318 362.953125 L 97 362.953125 Z M 97 282 " clip-rule="nonzero"/></clipPath></defs><path fill="#ffffff" d="M 61.75 48.5 C 48.375 49.5 16.875 44.5 0 36 C 56.5 185.5 152.5 187.75 179.5 156 C 163.625 141.125 134.75 118.125 97.625 105.875 C 39.5 86.5 36.75 73.875 36.75 73.875 C 36.75 73.875 69 92 103.875 95 C 133.625 97.5 165.875 114 188.125 131.75 C 190.375 95.375 160.5 41.375 61.75 48.5 Z M 61.75 48.5 " fill-opacity="1" fill-rule="evenodd"/><path fill="#ffffff" d="M 323.625 22.375 C 334.625 23.25 361 19 375 12 C 327.875 136.5 248 138.5 225.375 112 C 238.625 99.625 262.625 80.5 293.625 70.25 C 342.125 54.125 344.375 43.625 344.375 43.625 C 344.375 43.625 317.5 58.625 288.375 61.125 C 263.625 63.25 236.75 77 218.125 91.875 C 216.375 61.5 241.25 16.5 323.625 22.375 Z M 323.625 22.375 " fill-opacity="1" fill-rule="evenodd"/><g clip-path="url(#fca434fe75)"><path fill="#ffffff" d="M 189.25 363 L 194.375 170 C 194.625 162.125 186.875 141.25 161.875 128.75 C 161.875 128.75 195 147 198.125 150.875 C 201.25 154.75 204.5 120.125 219.125 105.125 C 219.125 105.125 209.125 128.125 210.75 185 C 212.375 241.75 217.25 361.125 217.25 361.125 Z M 189.25 363 " fill-opacity="1" fill-rule="evenodd"/></g><g clip-path="url(#00fd071ae9)"><path fill="#ffffff" d="M 207.625 282.125 C 268.5 282.125 317.75 318.375 317.75 363 L 97.625 363 C 97.625 318.375 146.875 282.125 207.625 282.125 Z M 207.625 282.125 " fill-opacity="1" fill-rule="evenodd"/></g></svg>