<svg xmlns="http://www.w3.org/2000/svg" xmlns:xlink="http://www.w3.org/1999/xlink" width="500" zoomAndPan="magnify" viewBox="0 0 375 374.999991" height="500" preserveAspectRatio="xMidYMid meet" version="1.0"><defs><clipPath id="dad31b3f3c"><path d="M 348 161 L 372.84375 161 L 372.84375 184 L 348 184 Z M 348 161 " clip-rule="nonzero"/></clipPath><clipPath id="3d1ba39eb1"><path d="M 2.34375 162 L 25 162 L 25 185 L 2.34375 185 Z M 2.34375 162 " clip-rule="nonzero"/></clipPath></defs><path fill="#ffffff" d="M 343.996094 183.09375 C 341.945312 189.6875 337.332031 194.121094 331.519531 197.359375 C 319.46875 204.066406 306.402344 205.195312 292.941406 204.148438 C 277.144531 202.921875 261.667969 204.160156 246.898438 210.5 C 239.097656 213.847656 231.195312 220.261719 227.6875 226.523438 C 230.992188 225.957031 234.019531 225.476562 237.035156 224.925781 C 244.484375 223.574219 251.316406 225.570312 257.847656 228.875 C 262.230469 231.089844 266.539062 233.46875 270.757812 235.976562 C 283 243.25 295.8125 245.667969 309.847656 241.925781 C 317.722656 239.824219 326.089844 240.109375 334.058594 237.921875 C 331.914062 240.417969 329.179688 241.996094 326.238281 242.585938 C 316.289062 244.585938 306.382812 246.765625 296.128906 247.089844 C 284.261719 247.46875 273.304688 244.492188 262.667969 239.679688 C 260.28125 238.597656 257.871094 237.550781 255.421875 236.621094 C 239.695312 230.65625 220.355469 237.046875 211.195312 251.210938 C 204.042969 262.265625 201.75 274.238281 204.003906 287.230469 C 206.695312 302.765625 209.109375 318.347656 209.976562 334.117188 C 210.082031 336.058594 210.960938 337.609375 212.019531 339.105469 C 216.96875 346.082031 223.578125 351.066406 231.132812 354.886719 C 241.957031 360.363281 253.683594 362.804688 265.464844 365.046875 C 268.460938 365.617188 271.460938 366.148438 274.425781 366.867188 C 254.242188 367.496094 234.507812 365.664062 216.074219 356.46875 C 213.15625 355.015625 210.164062 354.292969 206.804688 355.136719 C 204.171875 355.796875 204.191406 356.6875 205.820312 358.449219 C 210.839844 363.878906 216.71875 368.183594 223.082031 371.875 C 224.355469 372.613281 225.640625 373.332031 227.109375 374.167969 C 225.859375 374.988281 224.867188 374.488281 223.863281 374.234375 C 213.566406 371.65625 204.152344 367.265625 197.011719 359.289062 C 190.914062 352.476562 182.695312 353.71875 177.304688 359.335938 C 169.003906 367.984375 158.378906 372.523438 146.695312 374.859375 C 155.113281 369.621094 163.546875 364.4375 170.136719 356.457031 C 167.585938 354.855469 165.039062 354.25 162.304688 355.113281 C 160.027344 355.835938 157.738281 356.621094 155.59375 357.664062 C 137.988281 366.25 119.113281 367.101562 100.058594 366.960938 C 110.175781 365.085938 120.3125 363.347656 130.136719 360.222656 C 136.6875 358.136719 142.988281 355.46875 148.835938 351.804688 C 158.613281 345.671875 165.335938 337.921875 165.367188 325.375 C 165.394531 313.234375 168.34375 301.355469 170.578125 289.464844 C 173.617188 273.316406 170.816406 258.617188 159.945312 246.195312 C 149.992188 234.816406 131.636719 231.472656 117.898438 237.625 C 110.191406 241.078125 102.582031 244.878906 94.136719 246.1875 C 82.015625 248.058594 69.988281 247.210938 58.039062 244.570312 C 51.855469 243.199219 45.375 242.746094 40.117188 237.949219 C 41.542969 237.410156 42.695312 237.992188 43.773438 238.265625 C 54.089844 240.894531 64.722656 241.617188 75.175781 243.441406 C 85.058594 245.164062 94.082031 241.777344 102.644531 237.089844 C 107.851562 234.238281 112.96875 231.214844 118.253906 228.511719 C 126.511719 224.289062 135.148438 223.175781 144.144531 225.988281 C 145.398438 226.382812 146.65625 227.023438 148.34375 226.714844 C 142.597656 217.320312 134.109375 211.964844 124.132812 208.5 C 110.8125 203.871094 97.089844 203.191406 83.199219 204.21875 C 69.53125 205.226562 56.28125 204.058594 43.914062 197.496094 C 37.691406 194.191406 32.777344 189.726562 30.554688 182.726562 C 32.191406 184.234375 33.789062 185.78125 35.472656 187.234375 C 43.824219 194.476562 53.796875 197.09375 64.585938 197.527344 C 72.632812 197.847656 80.507812 196.570312 88.457031 195.625 C 104.332031 193.730469 120.175781 194.152344 135.742188 198.253906 C 138.34375 198.941406 139.035156 198.539062 138.347656 195.878906 C 130.992188 167.394531 114.144531 147.972656 85.164062 140.164062 C 77.820312 138.183594 70.1875 138.570312 62.707031 137.722656 C 54.484375 136.789062 46.5 134.972656 39.5625 130.101562 C 38.1875 129.132812 36.671875 128.238281 35.867188 126.351562 C 37.855469 126.585938 39.363281 127.632812 40.933594 128.4375 C 48.59375 132.375 56.707031 134.324219 65.316406 134.429688 C 74.914062 134.554688 84.535156 134.671875 93.898438 137.203125 C 105.875 140.433594 116.042969 146.8125 124.984375 155.28125 C 135.792969 165.515625 143.417969 177.921875 149.519531 191.351562 C 155.554688 204.636719 162.460938 217.34375 173.238281 227.515625 C 173.90625 228.144531 174.527344 228.816406 175.199219 229.441406 C 175.335938 229.566406 175.605469 229.554688 176.082031 229.671875 C 176.933594 223.847656 175.898438 218.101562 175.464844 212.410156 C 174.175781 195.59375 170.652344 179.273438 164.28125 163.550781 C 157.082031 145.777344 145.085938 132.148438 129.703125 121.085938 C 115.523438 110.886719 99.699219 103.730469 84.285156 95.792969 C 81.984375 94.609375 79.824219 93.160156 77.722656 91.464844 C 80.945312 90.984375 83.816406 92.253906 86.746094 93.03125 C 89.828125 93.851562 92.882812 94.800781 95.917969 95.78125 C 98.953125 96.765625 101.976562 97.820312 104.972656 98.921875 C 107.949219 100.011719 110.886719 101.195312 114.429688 102.566406 C 109.625 88.34375 106.5 74.546875 111.796875 60.347656 C 112.726562 65.824219 112.453125 71.382812 113.625 76.847656 C 117.105469 93.105469 125.015625 106.992188 138.097656 116.957031 C 155.960938 130.574219 169.976562 146.984375 179.78125 167.101562 C 179.921875 167.394531 180.183594 167.625 180.859375 168.472656 C 181.140625 163.066406 181.566406 158.246094 181.613281 153.421875 C 181.78125 136.65625 179.195312 120.433594 171.65625 105.261719 C 167.175781 96.246094 162.925781 87.15625 160.9375 77.191406 C 158.78125 66.382812 154.953125 56.144531 150.320312 46.183594 C 149.378906 44.160156 148.410156 42.152344 147.289062 39.785156 C 149.609375 40.296875 150.628906 41.710938 151.761719 42.898438 C 159.164062 50.644531 163.34375 60.164062 165.867188 70.335938 C 168.46875 80.832031 173.777344 89.71875 180.378906 98.019531 C 182.871094 101.152344 185.53125 104.15625 187.882812 107.390625 C 189.234375 109.242188 189.769531 108.78125 190.988281 107.257812 C 200.703125 95.15625 208.003906 82.011719 210.761719 66.449219 C 212.214844 58.285156 216.046875 50.917969 221.507812 44.523438 C 223.050781 42.71875 224.683594 41.039062 226.980469 39.476562 C 226.621094 41.953125 225.402344 43.640625 224.558594 45.449219 C 219.996094 55.226562 216.660156 65.378906 214.839844 76.027344 C 213.304688 85.015625 210.015625 93.308594 205.445312 101.234375 C 197.296875 115.363281 193.136719 130.652344 193.277344 147.046875 C 193.335938 154.09375 193.285156 161.140625 194.074219 168.375 C 194.828125 167.058594 195.613281 165.761719 196.328125 164.425781 C 206.023438 146.324219 218.933594 131.050781 235.285156 118.496094 C 249.75 107.394531 258.953125 92.628906 262.445312 74.621094 C 263.371094 69.855469 263.359375 64.902344 263.785156 59.917969 C 266.398438 63.625 266.902344 67.707031 266.257812 80.804688 C 265.898438 88.070312 263.308594 94.792969 260.636719 101.988281 C 272.886719 98.03125 284.351562 92.960938 297.433594 90.738281 C 295.546875 93.398438 293.296875 94.203125 291.242188 95.207031 C 278.71875 101.304688 265.980469 107.019531 254.328125 114.71875 C 238.546875 125.148438 224.089844 137.003906 215.046875 154.148438 C 207.496094 168.460938 203.492188 183.914062 201.09375 199.792969 C 199.628906 209.484375 198.488281 219.238281 199.023438 229.777344 C 204.269531 224.671875 208.898438 219.757812 212.71875 214.113281 C 217.347656 207.277344 220.925781 199.867188 224.332031 192.378906 C 230.921875 177.878906 239.226562 164.570312 251.148438 153.808594 C 264.066406 142.148438 279.148438 135.609375 296.675781 134.867188 C 304.769531 134.523438 312.90625 134.902344 320.917969 133.039062 C 326.738281 131.683594 332.023438 129.046875 337.632812 126.996094 C 335.988281 129.445312 333.601562 130.960938 331.058594 132.261719 C 322.628906 136.570312 313.519531 137.902344 304.210938 138.304688 C 272.234375 139.695312 245.992188 160.519531 237.300781 191.421875 C 235.128906 199.132812 235.136719 199.160156 242.742188 197.507812 C 259.59375 193.847656 276.457031 193.789062 293.460938 196.671875 C 303.199219 198.320312 313.066406 198.113281 322.757812 195.863281 C 331.140625 193.90625 337.957031 189.207031 343.996094 183.09375 Z M 343.996094 183.09375 " fill-opacity="1" fill-rule="nonzero"/><path fill="#ffffff" d="M 280.347656 208.816406 C 284.875 208.914062 289.222656 209.761719 293.386719 211.453125 C 294.789062 212.023438 295.933594 212.855469 294.125 214.339844 C 283.796875 222.816406 272.304688 226.410156 259.078125 222.675781 C 258.425781 222.492188 257.8125 222.171875 257.175781 221.921875 C 255.4375 221.238281 255.308594 220.433594 256.628906 219.003906 C 263.042969 212.050781 270.996094 208.808594 280.347656 208.816406 Z M 280.347656 208.816406 " fill-opacity="1" fill-rule="nonzero"/><path fill="#ffffff" d="M 94.691406 208.914062 C 103.292969 208.898438 110.828125 211.558594 116.832031 217.941406 C 119.269531 220.53125 119.195312 220.890625 115.730469 222.144531 C 105.164062 225.964844 95.296875 224.21875 86 218.273438 C 84.851562 217.523438 83.753906 216.703125 82.707031 215.808594 C 81.859375 215.101562 80.378906 214.554688 80.566406 213.363281 C 80.792969 211.921875 82.347656 211.429688 83.628906 210.957031 C 87.195312 209.640625 90.847656 208.777344 94.691406 208.914062 Z M 94.691406 208.914062 " fill-opacity="1" fill-rule="nonzero"/><path fill="#ffffff" d="M 147.53125 83.878906 C 154.136719 90.21875 157.546875 97.621094 158.382812 106.160156 C 158.824219 110.683594 158.894531 115.242188 157.394531 119.71875 C 156.578125 122.152344 155.632812 122.257812 153.878906 120.785156 C 146.902344 114.917969 144.015625 107.207031 144.261719 98.34375 C 144.390625 93.601562 145.074219 88.835938 147.53125 83.878906 Z M 147.53125 83.878906 " fill-opacity="1" fill-rule="nonzero"/><path fill="#ffffff" d="M 289.585938 172.03125 C 290.15625 172.03125 290.738281 171.949219 291.296875 172.046875 C 292.929688 172.320312 295.304688 171.289062 296.050781 172.925781 C 296.945312 174.882812 294.777344 176.363281 293.601562 177.804688 C 286.210938 186.859375 276.824219 190.421875 265.304688 187.777344 C 261.816406 186.976562 261.605469 186.445312 263.824219 183.632812 C 270.382812 175.316406 279.164062 171.816406 289.585938 172.03125 Z M 289.585938 172.03125 " fill-opacity="1" fill-rule="nonzero"/><path fill="#ffffff" d="M 176.363281 50.515625 C 183.859375 55.960938 187.1875 63.40625 188.570312 71.851562 C 189.175781 75.570312 189.015625 79.394531 188.578125 83.15625 C 188.222656 86.199219 187.453125 86.578125 184.898438 84.800781 C 177.996094 80.007812 174.984375 73.042969 174.363281 64.933594 C 173.992188 60.140625 174.53125 55.410156 176.363281 50.515625 Z M 176.363281 50.515625 " fill-opacity="1" fill-rule="nonzero"/><path fill="#ffffff" d="M 85.796875 172.121094 C 96.4375 172 105.039062 175.910156 111.234375 184.804688 C 112.652344 186.839844 112.105469 187.40625 109.992188 187.914062 C 98.453125 190.6875 85.890625 185.28125 80.0625 175.019531 C 78.878906 172.941406 79.335938 172.082031 81.691406 172.121094 C 83.058594 172.140625 84.429688 172.121094 85.796875 172.121094 Z M 85.796875 172.121094 " fill-opacity="1" fill-rule="nonzero"/><path fill="#ffffff" d="M 216.128906 110.085938 C 215.832031 101.824219 218.707031 95.363281 224.023438 89.867188 C 225.71875 88.113281 226.867188 87.550781 228.050781 90.519531 C 232.164062 100.8125 229.933594 112.234375 222.304688 118.75 C 219.128906 121.464844 218.230469 121.238281 217.074219 117.3125 C 216.332031 114.792969 216.003906 112.199219 216.128906 110.085938 Z M 216.128906 110.085938 " fill-opacity="1" fill-rule="nonzero"/><path fill="#ffffff" d="M 223.144531 68.144531 C 224.347656 62.121094 227.828125 57.558594 232.507812 53.960938 C 237.71875 49.953125 243.910156 48.414062 250.371094 47.878906 C 251.707031 47.769531 252.859375 47.667969 252.117188 49.828125 C 248.308594 60.855469 234.761719 69.546875 223.144531 68.144531 Z M 223.144531 68.144531 " fill-opacity="1" fill-rule="nonzero"/><g clip-path="url(#dad31b3f3c)"><path fill="#ffffff" d="M 352.957031 183.871094 C 348.398438 183.929688 348.296875 183.902344 349.457031 179.507812 C 352.40625 168.363281 361.734375 163.417969 371.144531 161.917969 C 372.152344 161.753906 372.660156 162.195312 372.554688 163.246094 C 371.484375 173.632812 363.300781 184.078125 352.957031 183.871094 Z M 352.957031 183.871094 " fill-opacity="1" fill-rule="nonzero"/></g><path fill="#ffffff" d="M 136.207031 41.554688 C 128.113281 41.523438 118.351562 34.878906 115.398438 27.660156 C 114.714844 25.988281 114.976562 25.363281 116.898438 24.960938 C 126.257812 23.003906 137.882812 28.03125 142.546875 36.230469 C 144.28125 39.28125 144.066406 39.863281 140.648438 40.898438 C 139.121094 41.363281 137.554688 41.699219 136.207031 41.554688 Z M 136.207031 41.554688 " fill-opacity="1" fill-rule="nonzero"/><path fill="#ffffff" d="M 331.046875 155.203125 C 324.265625 165.203125 310.875 168.851562 300.625 163.484375 C 297.289062 161.734375 297.363281 161.382812 300.152344 158.808594 C 308.269531 151.335938 322.761719 151.539062 331.046875 155.203125 Z M 331.046875 155.203125 " fill-opacity="1" fill-rule="nonzero"/><path fill="#ffffff" d="M 124.90625 48.050781 C 136.890625 48.597656 146.601562 55.054688 150.101562 64.808594 C 151.480469 68.648438 151.132812 69.066406 146.992188 68.457031 C 135.789062 66.8125 128.179688 60.480469 123.523438 50.363281 C 122.507812 48.164062 122.699219 47.949219 124.90625 48.050781 Z M 124.90625 48.050781 " fill-opacity="1" fill-rule="nonzero"/><path fill="#ffffff" d="M 292.015625 63.28125 C 295.160156 74.863281 287.984375 87.160156 276.464844 90.097656 C 274.601562 90.570312 274.078125 90.085938 273.925781 88.253906 C 273.09375 77.980469 281.722656 66 292.015625 63.28125 Z M 292.015625 63.28125 " fill-opacity="1" fill-rule="nonzero"/><path fill="#ffffff" d="M 63.921875 165.910156 C 56.613281 165.640625 50.492188 163.03125 45.671875 157.625 C 44.832031 156.691406 43.285156 155.28125 45.769531 154.617188 C 56.039062 151.863281 66.027344 151.292969 74.882812 158.800781 C 76.902344 160.515625 77.097656 161.777344 74.578125 162.96875 C 71.167969 164.589844 67.648438 165.855469 63.921875 165.910156 Z M 63.921875 165.910156 " fill-opacity="1" fill-rule="nonzero"/><g clip-path="url(#3d1ba39eb1)"><path fill="#ffffff" d="M 22.5 184.351562 C 11.226562 183.921875 3.25 174.027344 2.457031 163.800781 C 2.347656 162.382812 2.761719 161.832031 4.417969 162.070312 C 14.816406 163.546875 23.027344 171.386719 24.824219 181.367188 C 25.304688 184.023438 24.558594 184.722656 22.5 184.351562 Z M 22.5 184.351562 " fill-opacity="1" fill-rule="nonzero"/></g><path fill="#ffffff" d="M 252.71875 24.902344 C 254.539062 25 257.386719 24.09375 258.308594 25.78125 C 259.316406 27.636719 257.296875 29.769531 256.09375 31.554688 C 250.980469 39.140625 242.632812 42.523438 233.765625 40.820312 C 231.089844 40.304688 230.695312 39.089844 231.746094 36.808594 C 235.101562 29.515625 241.285156 26.398438 248.765625 25.191406 C 250 24.992188 251.265625 25 252.71875 24.902344 Z M 252.71875 24.902344 " fill-opacity="1" fill-rule="nonzero"/><path fill="#ffffff" d="M 96.386719 130.09375 C 96.53125 132.019531 95.21875 131.347656 94.144531 131.101562 C 88.144531 129.714844 83.15625 126.699219 79.613281 121.625 C 76.78125 117.566406 74.941406 113.066406 74.464844 108.058594 C 74.320312 106.554688 74.515625 105.902344 76.238281 106.285156 C 85.828125 108.417969 95.816406 119.964844 96.328125 129.578125 C 96.332031 129.699219 96.351562 129.808594 96.386719 130.09375 Z M 96.386719 130.09375 " fill-opacity="1" fill-rule="nonzero"/><path fill="#ffffff" d="M 289.625 114.136719 C 289.15625 124.535156 281.847656 132.335938 271.929688 133.40625 C 270.296875 133.582031 269.761719 133.15625 269.710938 131.445312 C 269.433594 122.613281 277.71875 112.554688 286.472656 111.105469 C 289.410156 110.621094 290.207031 111.78125 289.625 114.136719 Z M 289.625 114.136719 " fill-opacity="1" fill-rule="nonzero"/><path fill="#ffffff" d="M 99.644531 85.820312 C 99.839844 90.136719 99.296875 90.53125 94.8125 88.738281 C 85.988281 85.214844 81.25 76.84375 82.59375 67.421875 C 82.980469 64.714844 84.011719 64.285156 86.394531 65.441406 C 94.691406 69.472656 99.492188 75.765625 99.644531 85.820312 Z M 99.644531 85.820312 " fill-opacity="1" fill-rule="nonzero"/><path fill="#ffffff" d="M 135.859375 86.757812 C 135.921875 90.039062 134.984375 93.046875 133.628906 95.976562 C 132.796875 97.777344 131.804688 97.953125 130.203125 96.832031 C 124.214844 92.640625 123.019531 86.589844 123.605469 79.90625 C 123.855469 77.070312 124.851562 74.371094 125.773438 71.667969 C 126.425781 69.746094 127.28125 69.804688 128.667969 70.875 C 133.882812 74.914062 135.777344 80.425781 135.859375 86.757812 Z M 135.859375 86.757812 " fill-opacity="1" fill-rule="nonzero"/><path fill="#ffffff" d="M 350.671875 134.359375 C 351.550781 134.359375 351.667969 134.351562 351.78125 134.359375 C 354.292969 134.574219 357.980469 133.609375 358.675781 136.375 C 359.230469 138.582031 355.855469 140.167969 353.738281 141.398438 C 346.597656 145.53125 338.929688 146.300781 330.980469 144.40625 C 329.597656 144.078125 327.59375 143.726562 327.371094 142.269531 C 327.171875 140.957031 329.125 140.4375 330.222656 139.691406 C 336.640625 135.328125 344.011719 134.722656 350.671875 134.359375 Z M 350.671875 134.359375 " fill-opacity="1" fill-rule="nonzero"/><path fill="#ffffff" d="M 270.777344 163.84375 C 273.308594 163.820312 275.757812 164.25 278.125 165.132812 C 280.132812 165.882812 280.648438 166.707031 278.816406 168.398438 C 275.644531 171.332031 271.964844 173.441406 267.871094 174.414062 C 262.457031 175.703125 256.925781 176.414062 251.285156 175.578125 C 248.972656 175.234375 249.171875 174.578125 250.378906 173.140625 C 255.703125 166.785156 262.601562 163.917969 270.777344 163.84375 Z M 270.777344 163.84375 " fill-opacity="1" fill-rule="nonzero"/><path fill="#ffffff" d="M 304.238281 79.230469 C 304.257812 70.917969 306.9375 64.6875 313.183594 60.210938 C 314.203125 59.484375 315.269531 58.445312 316.019531 60.496094 C 319.035156 68.746094 317.425781 79.695312 308.613281 84.441406 C 305.410156 86.167969 305.128906 86.0625 304.59375 82.535156 C 304.390625 81.1875 304.300781 79.824219 304.238281 79.230469 Z M 304.238281 79.230469 " fill-opacity="1" fill-rule="nonzero"/><path fill="#ffffff" d="M 239.382812 87.554688 C 239.382812 81.375 241.691406 76.273438 246.378906 72.207031 C 248.035156 70.769531 249.0625 70.3125 249.863281 72.988281 C 252.152344 80.601562 252.992188 88.003906 247.417969 94.683594 C 246.179688 96.164062 244.679688 98.113281 242.769531 97.746094 C 240.972656 97.402344 240.808594 94.949219 240.15625 93.277344 C 239.429688 91.414062 239.441406 89.488281 239.382812 87.554688 Z M 239.382812 87.554688 " fill-opacity="1" fill-rule="nonzero"/><path fill="#ffffff" d="M 318.074219 100.269531 C 319.378906 110.117188 318.191406 119.183594 310.351562 126.214844 C 308.808594 127.597656 306.78125 129.277344 304.996094 128.441406 C 303.445312 127.714844 304.238281 125.121094 304.335938 123.355469 C 304.871094 113.339844 311.015625 106.585938 318.074219 100.269531 Z M 318.074219 100.269531 " fill-opacity="1" fill-rule="nonzero"/><path fill="#ffffff" d="M 56.796875 68.105469 C 56.875 67.117188 56.785156 65.699219 57.148438 64.40625 C 57.621094 62.714844 57.332031 60.179688 59.191406 59.671875 C 60.675781 59.269531 62.160156 61.125 63.351562 62.28125 C 69.488281 68.230469 70.945312 75.476562 69.074219 83.628906 C 68.597656 85.707031 67.5 85.378906 66.171875 84.675781 C 59.664062 81.234375 56.734375 75.734375 56.796875 68.105469 Z M 56.796875 68.105469 " fill-opacity="1" fill-rule="nonzero"/><path fill="#ffffff" d="M 116.957031 175.804688 C 109.335938 175.582031 102.320312 173.699219 96.253906 168.863281 C 94.648438 167.582031 94.109375 166.742188 96.429688 165.578125 C 104.765625 161.394531 119.117188 165.273438 124.144531 173.082031 C 125.179688 174.695312 124.40625 175.152344 123.097656 175.320312 C 121.0625 175.582031 119.003906 175.652344 116.957031 175.804688 Z M 116.957031 175.804688 " fill-opacity="1" fill-rule="nonzero"/><path fill="#ffffff" d="M 47.269531 142.070312 C 38.554688 147.695312 22.886719 145.441406 16.542969 138.003906 C 14.964844 136.148438 15.890625 135.496094 17.648438 134.941406 C 21.742188 133.652344 25.800781 134.753906 29.871094 135.042969 C 36.332031 135.496094 41.933594 138.027344 47.269531 142.070312 Z M 47.269531 142.070312 " fill-opacity="1" fill-rule="nonzero"/><path fill="#ffffff" d="M 49.710938 173.117188 C 60.417969 175.925781 70.734375 177.828125 76.539062 188.222656 C 77.949219 190.738281 76.621094 190.929688 74.890625 190.960938 C 67.914062 191.082031 62.113281 188.089844 56.933594 183.757812 C 53.761719 181.101562 51.355469 177.824219 49.710938 173.117188 Z M 49.710938 173.117188 " fill-opacity="1" fill-rule="nonzero"/><path fill="#ffffff" d="M 324.324219 173.398438 C 321.636719 183.480469 308.578125 192.136719 299.007812 190.667969 C 297.304688 190.40625 297.164062 189.925781 297.929688 188.523438 C 300.292969 184.1875 303.445312 180.691406 307.980469 178.5625 C 313.054688 176.175781 318.398438 174.664062 324.324219 173.398438 Z M 324.324219 173.398438 " fill-opacity="1" fill-rule="nonzero"/><path fill="#ffffff" d="M 28.347656 208.765625 C 21.238281 208.683594 15.441406 204.832031 11.253906 198.230469 C 10.023438 196.296875 10.414062 195.34375 12.90625 195.015625 C 22.171875 193.785156 29.976562 197.511719 34.335938 205.121094 C 35.726562 207.550781 35.183594 208.296875 32.679688 208.441406 C 31.542969 208.511719 30.410156 208.613281 28.347656 208.765625 Z M 28.347656 208.765625 " fill-opacity="1" fill-rule="nonzero"/><path fill="#ffffff" d="M 324.320312 94.445312 C 319.0625 94.429688 314.871094 93.257812 311.234375 90.339844 C 310.382812 89.65625 309.433594 89.222656 310.925781 88.152344 C 318.71875 82.546875 328.539062 81.761719 336.195312 87.09375 C 338.097656 88.414062 337.578125 89.175781 336.074219 90.300781 C 332.375 93.074219 328.292969 94.550781 324.320312 94.445312 Z M 324.320312 94.445312 " fill-opacity="1" fill-rule="nonzero"/><path fill="#ffffff" d="M 64.492188 89.183594 C 56.804688 95.675781 46.179688 96.140625 38.820312 90.640625 C 35.765625 88.355469 35.761719 88 38.996094 86.175781 C 45.207031 82.671875 51.570312 82.519531 57.976562 85.546875 C 60.125 86.5625 62.136719 87.859375 64.492188 89.183594 Z M 64.492188 89.183594 " fill-opacity="1" fill-rule="nonzero"/><path fill="#ffffff" d="M 344.730469 208.707031 C 342.863281 208.363281 340.234375 209.21875 339.53125 207.585938 C 338.753906 205.78125 340.570312 203.824219 341.792969 202.230469 C 346.015625 196.734375 355.5 193.710938 362.25 195.394531 C 364.621094 195.984375 363.476562 197.125 362.9375 198.078125 C 358.914062 205.164062 352.734375 208.589844 344.730469 208.707031 Z M 344.730469 208.707031 " fill-opacity="1" fill-rule="nonzero"/><path fill="#ffffff" d="M 95.339844 55.269531 C 87.339844 55.144531 79.070312 47.59375 78.246094 39.652344 C 78.136719 38.628906 77.851562 37.441406 79.601562 37.691406 C 88.074219 38.914062 95.972656 43.136719 98.265625 51.488281 C 99.269531 55.132812 99.183594 55.332031 95.339844 55.269531 Z M 95.339844 55.269531 " fill-opacity="1" fill-rule="nonzero"/><path fill="#ffffff" d="M 39.726562 173.625 C 39.734375 173.738281 39.734375 173.851562 39.726562 173.964844 C 39.496094 175.808594 40.527344 178.578125 38.839844 179.273438 C 36.832031 180.101562 34.945312 177.933594 33.402344 176.460938 C 27.507812 170.828125 26.136719 163.84375 27.488281 156.082031 C 27.941406 153.480469 29.371094 154.066406 30.867188 155.078125 C 37.441406 159.523438 39.808594 165.992188 39.726562 173.625 Z M 39.726562 173.625 " fill-opacity="1" fill-rule="nonzero"/><path fill="#ffffff" d="M 111.121094 41.375 C 111.101562 43.089844 110.96875 44.777344 110.5 46.453125 C 109.160156 51.207031 108.214844 51.53125 104.523438 48.378906 C 99.207031 43.824219 97.753906 32.652344 101.617188 26.894531 C 102.796875 25.136719 103.710938 26.078125 104.609375 26.894531 C 108.871094 30.769531 111.121094 35.574219 111.121094 41.375 Z M 111.121094 41.375 " fill-opacity="1" fill-rule="nonzero"/><path fill="#ffffff" d="M 275.382812 34.921875 C 275.480469 41.484375 273.5 46.179688 268.792969 49.632812 C 267.253906 50.761719 266.332031 50.734375 265.332031 48.9375 C 261.625 42.261719 264.386719 30.78125 270.753906 26.449219 C 272.15625 25.5 272.980469 25.605469 273.605469 27.15625 C 274.726562 29.925781 275.476562 32.761719 275.382812 34.921875 Z M 275.382812 34.921875 " fill-opacity="1" fill-rule="nonzero"/><path fill="#ffffff" d="M 335.585938 172.132812 C 335.460938 165.125 338.226562 159.542969 343.882812 155.386719 C 345.515625 154.191406 346.460938 154.152344 347.070312 156.5 C 349.039062 164.09375 346.402344 173.363281 340.808594 177.726562 C 339.636719 178.640625 338.25 179.941406 336.90625 179.457031 C 335.457031 178.929688 335.710938 176.980469 335.605469 175.558594 C 335.519531 174.421875 335.585938 173.273438 335.585938 172.132812 Z M 335.585938 172.132812 " fill-opacity="1" fill-rule="nonzero"/><path fill="#ffffff" d="M 278.96875 55.25 C 276.460938 55.710938 276.089844 54.214844 276.664062 52.027344 C 278.773438 44.003906 284.84375 40.394531 292.195312 38.371094 C 293.375 38.046875 294.980469 36.890625 295.988281 38.128906 C 296.867188 39.199219 295.988281 40.789062 295.617188 42.042969 C 293.390625 49.683594 286.503906 55.175781 278.96875 55.25 Z M 278.96875 55.25 " fill-opacity="1" fill-rule="nonzero"/><path fill="#ffffff" d="M 213.410156 184.171875 C 213.195312 175.558594 217.761719 170.109375 223.074219 165.066406 C 224.191406 164.003906 224.921875 164.296875 224.898438 165.886719 C 224.765625 175.015625 223.765625 183.886719 217.550781 191.265625 C 216.261719 192.796875 215.5 193.1875 214.625 190.871094 C 213.710938 188.457031 213.347656 186.039062 213.410156 184.171875 Z M 213.410156 184.171875 " fill-opacity="1" fill-rule="nonzero"/><path fill="#ffffff" d="M 150.921875 164.039062 C 159.609375 169.679688 163.265625 180.714844 160.097656 190.011719 C 159.28125 192.40625 158.40625 192.753906 156.726562 190.800781 C 154.371094 188.066406 152.804688 184.9375 152.03125 181.414062 C 150.738281 175.679688 150.367188 169.886719 150.921875 164.039062 Z M 150.921875 164.039062 " fill-opacity="1" fill-rule="nonzero"/><path fill="#ffffff" d="M 75.953125 225.28125 C 82.226562 225.613281 88.0625 227.164062 92.035156 232.679688 C 94.148438 235.609375 93.925781 236.167969 90.484375 236.800781 C 83.8125 238.027344 78.054688 236.171875 73.289062 231.34375 C 71.933594 229.972656 69.957031 228.371094 70.828125 226.460938 C 71.613281 224.738281 74.09375 225.5625 75.953125 225.28125 Z M 75.953125 225.28125 " fill-opacity="1" fill-rule="nonzero"/><path fill="#ffffff" d="M 196.351562 68.476562 C 196.203125 63.460938 197.886719 59.089844 201.121094 55.328125 C 202 54.308594 203.503906 53 204.09375 55.367188 C 206.035156 63.207031 207.199219 71.027344 201.914062 78.261719 C 200.4375 80.289062 199.664062 80.300781 198.542969 78.03125 C 197.042969 74.992188 196.410156 71.8125 196.351562 68.476562 Z M 196.351562 68.476562 " fill-opacity="1" fill-rule="nonzero"/><path fill="#ffffff" d="M 189.34375 44.738281 C 189.933594 36.222656 193.910156 30.09375 200.890625 25.835938 C 202.039062 25.132812 203.160156 24.480469 203.632812 26.570312 C 205.136719 33.289062 199.023438 44.25 192.554688 46.433594 C 190.625 47.085938 188.804688 47.734375 189.34375 44.738281 Z M 189.34375 44.738281 " fill-opacity="1" fill-rule="nonzero"/><path fill="#ffffff" d="M 312.980469 209.34375 C 323.136719 206.742188 332.625 206.480469 341.136719 213.503906 C 334.480469 219.152344 319.039062 216.878906 312.980469 209.34375 Z M 312.980469 209.34375 " fill-opacity="1" fill-rule="nonzero"/><path fill="#ffffff" d="M 47.933594 100.339844 C 55.019531 107.15625 60.195312 113.839844 59.050781 123.714844 C 58.71875 126.566406 57.699219 126.269531 55.839844 125.285156 C 52.507812 123.523438 50.550781 120.660156 49.292969 117.246094 C 47.351562 111.988281 47.625 106.582031 47.933594 100.339844 Z M 47.933594 100.339844 " fill-opacity="1" fill-rule="nonzero"/><path fill="#ffffff" d="M 245.039062 140.074219 C 245.195312 146.632812 243.726562 152.730469 239.832031 158.140625 C 238.59375 159.859375 237.878906 159.917969 236.871094 157.890625 C 233.285156 150.6875 235.628906 140.246094 242.105469 135.25 C 242.800781 134.710938 243.535156 133.75 244.4375 134.164062 C 245.378906 134.597656 244.941406 135.792969 245.015625 136.652344 C 245.113281 137.785156 245.039062 138.933594 245.039062 140.074219 Z M 245.039062 140.074219 " fill-opacity="1" fill-rule="nonzero"/><path fill="#ffffff" d="M 61.457031 209.285156 C 54.417969 216.757812 41.027344 218.753906 33.378906 213.589844 C 41.816406 206.273438 51.320312 207.003906 61.457031 209.285156 Z M 61.457031 209.285156 " fill-opacity="1" fill-rule="nonzero"/><path fill="#ffffff" d="M 341.75 254.425781 C 337.136719 254.296875 333.304688 253.515625 330 250.941406 C 328.25 249.582031 328.140625 248.554688 330.265625 247.46875 C 337.320312 243.863281 344.183594 243.851562 350.964844 248.214844 C 353.074219 249.574219 352.910156 250.527344 350.9375 251.832031 C 347.953125 253.804688 344.632812 254.277344 341.75 254.425781 Z M 341.75 254.425781 " fill-opacity="1" fill-rule="nonzero"/><path fill="#ffffff" d="M 286.644531 236.917969 C 284.804688 236.628906 281.777344 237.402344 281.113281 235.628906 C 280.320312 233.492188 282.734375 231.558594 284.4375 230.140625 C 289.457031 225.96875 295.441406 224.980469 301.746094 225.539062 C 304.78125 225.8125 303.476562 227.617188 302.570312 228.851562 C 298.675781 234.140625 293.402344 236.847656 286.644531 236.917969 Z M 286.644531 236.917969 " fill-opacity="1" fill-rule="nonzero"/><path fill="#ffffff" d="M 200.980469 0.015625 C 201.261719 9.257812 200.695312 17.578125 193.347656 23.785156 C 191.464844 25.378906 190.46875 25.640625 189.980469 22.609375 C 188.613281 14.125 192.199219 6.21875 200.980469 0.015625 Z M 200.980469 0.015625 " fill-opacity="1" fill-rule="nonzero"/><path fill="#ffffff" d="M 139.28125 150.054688 C 139.363281 152.457031 138.878906 155.132812 137.734375 157.675781 C 136.863281 159.609375 135.839844 159.671875 134.539062 157.976562 C 131.339844 153.816406 130.339844 148.914062 129.820312 143.894531 C 129.574219 141.515625 129.738281 139.101562 129.710938 136.703125 C 129.679688 134.109375 130.734375 134.078125 132.605469 135.347656 C 136.574219 138.039062 139.296875 143.769531 139.28125 150.054688 Z M 139.28125 150.054688 " fill-opacity="1" fill-rule="nonzero"/><path fill="#ffffff" d="M 33.035156 254.386719 C 28.890625 254.28125 25.449219 253.742188 22.460938 251.550781 C 21.011719 250.484375 20.925781 249.621094 22.425781 248.390625 C 27.753906 244.023438 38.507812 243.734375 44.019531 247.785156 C 45.667969 248.992188 44.984375 249.789062 43.917969 250.675781 C 40.597656 253.417969 36.679688 254.363281 33.035156 254.386719 Z M 33.035156 254.386719 " fill-opacity="1" fill-rule="nonzero"/><path fill="#ffffff" d="M 316.644531 236.691406 C 315.25 236.261719 313.277344 237.289062 312.597656 235.902344 C 311.953125 234.597656 313.371094 233.183594 314.199219 231.992188 C 316.523438 228.644531 319.933594 226.867188 323.734375 225.820312 C 326.574219 225.039062 329.480469 224.476562 332.371094 223.886719 C 333.195312 223.71875 334.296875 223.109375 334.835938 224.066406 C 335.292969 224.871094 334.640625 225.824219 334.160156 226.597656 C 330.128906 233.105469 324.179688 236.273438 316.644531 236.691406 Z M 316.644531 236.691406 " fill-opacity="1" fill-rule="nonzero"/><path fill="#ffffff" d="M 73.585938 142.007812 C 78.894531 142.277344 83.984375 143.507812 88.300781 147.125 C 89.855469 148.425781 89.917969 149.25 88.113281 150.378906 C 82.414062 153.941406 69.207031 150.519531 66.058594 144.59375 C 65.464844 143.472656 65.3125 142.6875 66.984375 142.582031 C 69.140625 142.449219 71.292969 142.214844 73.585938 142.007812 Z M 73.585938 142.007812 " fill-opacity="1" fill-rule="nonzero"/><path fill="#ffffff" d="M 61.851562 235.691406 C 52.421875 238.0625 42.429688 232.828125 39.269531 223.863281 C 51.625 224.617188 59.800781 227.949219 61.851562 235.691406 Z M 61.851562 235.691406 " fill-opacity="1" fill-rule="nonzero"/><path fill="#ffffff" d="M 293.347656 151.609375 C 290.929688 151.511719 286.507812 151.851562 286 149.199219 C 285.453125 146.320312 289.621094 144.820312 292.414062 143.699219 C 297.433594 141.683594 302.714844 142.167969 307.925781 142.636719 C 310.628906 142.878906 309.242188 144.371094 308.492188 145.425781 C 305.914062 149.011719 300.207031 151.390625 293.347656 151.609375 Z M 293.347656 151.609375 " fill-opacity="1" fill-rule="nonzero"/><path fill="#ffffff" d="M 330.675781 120.53125 C 331.125 112.585938 335.261719 107.429688 341.882812 103.960938 C 342.9375 103.40625 343.660156 103.050781 344.101562 104.660156 C 345.800781 110.898438 339.964844 120.929688 333.632812 122.75 C 331.1875 123.449219 330.074219 123.023438 330.675781 120.53125 Z M 330.675781 120.53125 " fill-opacity="1" fill-rule="nonzero"/><path fill="#ffffff" d="M 71.910156 255.140625 C 72.203125 255.140625 72.898438 255.050781 73.566406 255.160156 C 74.746094 255.347656 76.484375 254.539062 77 255.703125 C 77.554688 256.960938 76.261719 258.21875 75.3125 259.152344 C 69.988281 264.390625 63.664062 266.367188 56.308594 264.738281 C 54.074219 264.242188 53.925781 263.261719 55.402344 261.5625 C 59.6875 256.625 65.175781 254.828125 71.910156 255.140625 Z M 71.910156 255.140625 " fill-opacity="1" fill-rule="nonzero"/><path fill="#ffffff" d="M 209.960938 32.347656 C 209.835938 28.320312 210.667969 24.839844 212.800781 21.734375 C 213.863281 20.179688 214.832031 19.765625 216.128906 21.660156 C 220.332031 27.820312 219.828125 36.859375 214.933594 42.226562 C 213.726562 43.554688 213.054688 43.824219 212.164062 41.898438 C 210.714844 38.746094 209.710938 35.550781 209.960938 32.347656 Z M 209.960938 32.347656 " fill-opacity="1" fill-rule="nonzero"/><path fill="#ffffff" d="M 43.054688 119.59375 C 43.109375 123.449219 42.519531 123.816406 38.960938 122.140625 C 33.34375 119.496094 28.835938 111.128906 29.707031 105.089844 C 29.917969 103.636719 30.367188 103.132812 31.925781 103.6875 C 37.902344 105.832031 42.953125 112.964844 43.054688 119.59375 Z M 43.054688 119.59375 " fill-opacity="1" fill-rule="nonzero"/><path fill="#ffffff" d="M 174.019531 24.5625 C 166.679688 21.117188 162.363281 11.226562 164.90625 3.800781 C 165.433594 2.253906 166.238281 2.203125 167.449219 2.96875 C 173.796875 6.984375 177.050781 17.664062 174.019531 24.5625 Z M 174.019531 24.5625 " fill-opacity="1" fill-rule="nonzero"/><path fill="#ffffff" d="M 183.710938 42.824219 C 180.066406 39.832031 178.082031 36.316406 177.789062 32.011719 C 177.511719 27.914062 177.261719 23.785156 178.191406 19.714844 C 178.390625 18.855469 178.421875 17.699219 179.457031 17.492188 C 180.320312 17.320312 180.796875 18.269531 181.230469 18.910156 C 186.332031 26.289062 187.804688 34.066406 183.710938 42.824219 Z M 183.710938 42.824219 " fill-opacity="1" fill-rule="nonzero"/><path fill="#ffffff" d="M 303.230469 255.167969 C 309.59375 254.796875 314.421875 256.945312 318.496094 261.054688 C 320.570312 263.144531 319.957031 264.109375 317.328125 264.835938 C 311.191406 266.53125 302.3125 263.507812 299.007812 258.378906 C 298.488281 257.574219 297.402344 256.726562 298.113281 255.65625 C 298.652344 254.84375 299.792969 255.253906 300.664062 255.1875 C 301.6875 255.109375 302.722656 255.167969 303.230469 255.167969 Z M 303.230469 255.167969 " fill-opacity="1" fill-rule="nonzero"/><path fill="#ffffff" d="M 167.476562 53.300781 C 161.324219 46.652344 161.246094 36.742188 166.890625 30.339844 C 168.441406 28.582031 169.175781 29.140625 169.984375 30.882812 C 172.511719 36.363281 171.242188 41.8125 169.800781 47.222656 C 169.28125 49.171875 168.367188 51.015625 167.476562 53.300781 Z M 167.476562 53.300781 " fill-opacity="1" fill-rule="nonzero"/><path fill="#ffffff" d="M 18.742188 213.5 C 24.5 214.753906 29.585938 216.242188 33.511719 220.105469 C 35.652344 222.214844 38.042969 225.878906 36.648438 227.769531 C 35.195312 229.730469 31.121094 228.3125 28.480469 226.902344 C 23.234375 224.105469 19.855469 219.890625 18.742188 213.5 Z M 18.742188 213.5 " fill-opacity="1" fill-rule="nonzero"/><path fill="#ffffff" d="M 118.464844 247.585938 C 115.734375 256.5 107.171875 260.445312 98.734375 259.082031 C 97.046875 258.808594 96.671875 258 97.59375 256.515625 C 99.484375 253.460938 102.316406 251.605469 105.554688 250.359375 C 107.453125 249.625 109.449219 249.109375 111.445312 248.6875 C 113.648438 248.222656 115.902344 247.976562 118.464844 247.585938 Z M 118.464844 247.585938 " fill-opacity="1" fill-rule="nonzero"/><path fill="#ffffff" d="M 354.472656 213.339844 C 355.523438 221.199219 346.578125 229.773438 339.15625 228.398438 C 337.625 228.113281 337.601562 227.332031 337.863281 226.265625 C 338.714844 222.824219 340.496094 220.027344 343.542969 218.078125 C 346.929688 215.910156 350.8125 214.984375 354.472656 213.339844 Z M 354.472656 213.339844 " fill-opacity="1" fill-rule="nonzero"/><path fill="#ffffff" d="M 119.222656 130.394531 C 119.101562 133.6875 118.640625 136.695312 117.300781 139.554688 C 116.289062 141.714844 115.3125 141.609375 113.847656 139.933594 C 110.132812 135.671875 109.996094 130.859375 111.445312 125.757812 C 111.882812 124.226562 112.328125 122.691406 112.863281 121.1875 C 113.140625 120.402344 112.863281 119.125 114.136719 119.054688 C 115.128906 119 115.75 119.859375 116.3125 120.566406 C 118.671875 123.496094 119.066406 127.007812 119.222656 130.394531 Z M 119.222656 130.394531 " fill-opacity="1" fill-rule="nonzero"/><path fill="#ffffff" d="M 272.496094 259.28125 C 265.914062 259.035156 260.847656 256.050781 257.4375 250.292969 C 257.046875 249.628906 256.390625 248.847656 256.808594 248.082031 C 257.277344 247.21875 258.257812 247.6875 258.96875 247.808594 C 263.914062 248.625 268.882812 249.417969 273.144531 252.367188 C 273.710938 252.746094 274.25 253.167969 274.753906 253.628906 C 276.085938 254.878906 278.082031 256.4375 277.519531 258.015625 C 276.910156 259.738281 274.371094 259.136719 272.496094 259.28125 Z M 272.496094 259.28125 " fill-opacity="1" fill-rule="nonzero"/><path fill="#ffffff" d="M 255.292969 131.566406 C 255.257812 127.078125 255.980469 123.21875 258.636719 119.941406 C 259.140625 119.320312 259.753906 118.582031 260.570312 118.699219 C 261.617188 118.847656 261.335938 119.933594 261.496094 120.660156 C 262.53125 125.296875 264.40625 129.84375 262.902344 134.734375 C 262.097656 137.371094 261.144531 140.984375 258.476562 140.925781 C 256.417969 140.875 255.949219 137.035156 255.519531 134.570312 C 255.332031 133.457031 255.34375 132.300781 255.292969 131.566406 Z M 255.292969 131.566406 " fill-opacity="1" fill-rule="nonzero"/><path fill="#ffffff" d="M 231.925781 15.121094 C 231.910156 20.128906 231.101562 24.839844 226.964844 28.34375 C 225.769531 29.355469 225.203125 29.34375 224.523438 27.847656 C 222.179688 22.671875 223.210938 14.78125 226.898438 10.816406 C 227.898438 9.738281 229.023438 8.324219 230.601562 8.839844 C 232.097656 9.332031 231.792969 11.082031 231.910156 12.394531 C 231.988281 13.296875 231.925781 14.210938 231.925781 15.121094 Z M 231.925781 15.121094 " fill-opacity="1" fill-rule="nonzero"/><path fill="#ffffff" d="M 150.875 21.9375 C 150.777344 22.585938 150.652344 23.832031 150.394531 25.046875 C 150.117188 26.316406 150.449219 28.25 149 28.546875 C 147.726562 28.8125 146.777344 27.167969 145.875 26.1875 C 141.382812 21.324219 141.84375 15.308594 142.265625 9.402344 C 142.398438 7.53125 143.867188 8.246094 144.792969 8.9375 C 148.933594 12.011719 150.6875 16.289062 150.875 21.9375 Z M 150.875 21.9375 " fill-opacity="1" fill-rule="nonzero"/><path fill="#ffffff" d="M 160.566406 27.804688 C 160.722656 30.871094 159.863281 33.542969 158.175781 35.9375 C 157.25 37.25 156.390625 37.753906 155.164062 36 C 151.980469 31.441406 152.246094 23.929688 155.730469 19.652344 C 156.917969 18.195312 157.574219 18.789062 158.238281 19.867188 C 159.75 22.324219 160.847656 24.929688 160.566406 27.804688 Z M 160.566406 27.804688 " fill-opacity="1" fill-rule="nonzero"/><path fill="#ffffff" d="M 18.261719 109.132812 C 20.855469 109.253906 21.933594 110.820312 22.238281 113.054688 C 22.414062 114.34375 21.476562 114.609375 20.496094 114.429688 C 18.273438 114.019531 16.828125 112.652344 16.480469 110.425781 C 16.273438 109.082031 17.515625 109.257812 18.261719 109.132812 Z M 18.261719 109.132812 " fill-opacity="1" fill-rule="nonzero"/><path fill="#ffffff" d="M 354.035156 114.226562 C 352.015625 114.492188 351.324219 114.308594 351.375 112.992188 C 351.472656 110.582031 352.691406 109.257812 355.035156 108.960938 C 356.183594 108.816406 357.179688 109.144531 357.046875 110.519531 C 356.820312 112.875 355.269531 114.003906 354.035156 114.226562 Z M 354.035156 114.226562 " fill-opacity="1" fill-rule="nonzero"/></svg>