<svg xmlns="http://www.w3.org/2000/svg" xmlns:xlink="http://www.w3.org/1999/xlink" width="300" zoomAndPan="magnify" viewBox="0 0 224.87999 89.999999" height="120" preserveAspectRatio="xMidYMid meet" version="1.0"><defs><g/></defs><path fill="#ffffff" d="M 40.421875 18.875 C 39.40625 18.957031 38.441406 19.277344 37.65625 19.800781 C 37.019531 20.222656 36.328125 20.980469 35.941406 21.679688 C 35.894531 21.765625 35.84375 21.835938 35.828125 21.835938 C 35.816406 21.835938 35.761719 21.773438 35.710938 21.695312 C 35.53125 21.425781 35.007812 20.871094 34.660156 20.578125 C 33.429688 19.542969 32.046875 19.089844 30.339844 19.15625 C 29.496094 19.1875 28.65625 19.242188 28.03125 19.308594 C 26.332031 19.484375 25.273438 19.964844 24.386719 20.96875 C 24.046875 21.355469 23.339844 22.410156 23.136719 22.832031 C 22.980469 23.164062 22.816406 23.707031 22.769531 24.050781 L 22.742188 24.222656 L 22.394531 24.289062 C 20.554688 24.632812 19.214844 25.246094 18.363281 26.136719 C 18.167969 26.34375 17.953125 26.605469 17.882812 26.71875 C 17.496094 27.375 17.277344 28.210938 17.277344 29.050781 C 17.277344 29.382812 17.367188 30.171875 17.429688 30.382812 C 17.488281 30.59375 17.476562 30.621094 17.289062 30.699219 C 16.929688 30.839844 16.203125 31.207031 15.894531 31.394531 C 14.730469 32.105469 13.933594 33.007812 13.628906 33.960938 C 13.46875 34.46875 13.4375 34.699219 13.4375 35.40625 C 13.4375 36.132812 13.511719 36.699219 13.675781 37.234375 L 13.75 37.46875 L 13.585938 37.738281 C 13.222656 38.34375 12.914062 39.292969 12.792969 40.175781 C 12.71875 40.730469 12.707031 42.050781 12.777344 42.65625 C 12.9375 44.085938 13.355469 45.792969 13.765625 46.691406 C 14.269531 47.792969 15.460938 48.730469 17.480469 49.617188 C 17.667969 49.699219 17.835938 49.777344 17.851562 49.796875 C 17.867188 49.8125 17.84375 50.015625 17.796875 50.25 C 17.722656 50.621094 17.710938 50.785156 17.710938 51.464844 C 17.714844 52.199219 17.722656 52.277344 17.816406 52.625 C 18.117188 53.742188 18.832031 54.613281 20.128906 55.4375 C 20.644531 55.765625 21.644531 56.253906 22.402344 56.546875 L 23.011719 56.78125 L 23.011719 57.109375 C 23.011719 57.757812 23.160156 58.304688 23.523438 59.019531 C 23.929688 59.820312 24.492188 60.558594 25.113281 61.105469 C 26.335938 62.1875 27.851562 62.742188 29.816406 62.828125 C 31.265625 62.890625 32.746094 62.507812 34.574219 61.59375 C 34.96875 61.398438 35.851562 60.898438 36.199219 60.675781 L 36.402344 60.546875 L 36.574219 60.714844 C 37.148438 61.261719 38.054688 61.871094 38.875 62.257812 C 39.773438 62.679688 40.503906 62.84375 41.496094 62.84375 C 44.019531 62.84375 45.933594 62.019531 47.300781 60.34375 C 47.753906 59.789062 48.289062 58.863281 48.476562 58.304688 C 48.589844 57.960938 48.6875 57.332031 48.6875 56.925781 L 48.6875 56.628906 L 49.300781 56.417969 C 50.929688 55.867188 52.132812 55.171875 52.753906 54.417969 C 53.125 53.964844 53.328125 53.457031 53.472656 52.628906 C 53.578125 52 53.554688 50.488281 53.425781 49.703125 C 53.410156 49.59375 53.429688 49.578125 53.925781 49.246094 C 54.640625 48.765625 55.1875 48.324219 55.71875 47.792969 C 56.691406 46.824219 57.097656 46.035156 57.144531 45.039062 C 57.171875 44.445312 57.082031 43.941406 56.835938 43.304688 L 56.765625 43.125 L 56.902344 42.875 C 56.976562 42.734375 57.105469 42.441406 57.1875 42.226562 C 58.175781 39.613281 58.269531 37.332031 57.492188 34.898438 C 56.785156 32.683594 55.710938 31.316406 53.972656 30.421875 L 53.605469 30.234375 L 53.671875 30.03125 C 53.960938 29.160156 53.832031 28.269531 53.203125 26.78125 C 52.640625 25.441406 51.265625 24.597656 49.378906 24.429688 L 49.078125 24.40625 L 49.070312 24.179688 C 49.042969 23.566406 48.878906 22.859375 48.648438 22.378906 C 48.527344 22.128906 47.878906 21.125 47.609375 20.773438 C 47.371094 20.464844 46.988281 20.089844 46.695312 19.878906 C 45.820312 19.257812 44.863281 19.046875 42.203125 18.894531 C 41.15625 18.835938 40.964844 18.835938 40.421875 18.875 M 40.425781 20.867188 C 39.316406 20.984375 38.429688 21.507812 37.835938 22.398438 C 37.558594 22.8125 37.414062 23.113281 37.242188 23.628906 L 37.125 23.992188 L 37.125 26.597656 C 37.128906 28.03125 37.140625 30.761719 37.160156 32.671875 L 37.1875 36.140625 L 37.625 36.320312 C 38.859375 36.832031 40.007812 37.550781 40.648438 38.21875 C 41.164062 38.757812 41.425781 39.199219 41.59375 39.824219 C 41.6875 40.160156 41.691406 40.238281 41.691406 40.988281 C 41.691406 41.75 41.6875 41.828125 41.574219 42.359375 C 41.4375 43 41.28125 43.492188 41.140625 43.714844 C 40.8125 44.238281 40.113281 44.332031 39.695312 43.910156 C 39.359375 43.574219 39.339844 43.246094 39.613281 42.402344 C 40.015625 41.152344 39.957031 40.230469 39.429688 39.621094 C 39.214844 39.375 38.839844 39.066406 38.453125 38.816406 C 38.089844 38.585938 37.261719 38.160156 37.230469 38.191406 C 37.210938 38.210938 37.257812 44.179688 37.367188 55.4375 L 37.398438 58.773438 L 37.691406 59.050781 C 38.441406 59.761719 39.296875 60.328125 40.039062 60.605469 C 40.539062 60.792969 40.941406 60.863281 41.546875 60.859375 C 43.265625 60.851562 44.476562 60.417969 45.425781 59.46875 C 45.945312 58.953125 46.476562 58.113281 46.628906 57.574219 C 46.707031 57.296875 46.695312 56.253906 46.609375 55.777344 C 46.511719 55.222656 46.238281 54.320312 46.066406 53.972656 C 45.777344 53.382812 45.675781 53.097656 45.675781 52.832031 C 45.671875 52.519531 45.738281 52.335938 45.925781 52.128906 C 46.148438 51.890625 46.332031 51.804688 46.625 51.804688 C 46.953125 51.804688 47.121094 51.871094 47.332031 52.082031 C 47.601562 52.351562 47.894531 53.019531 48.257812 54.191406 C 48.382812 54.601562 48.402344 54.632812 48.476562 54.609375 C 49.191406 54.390625 50.234375 53.917969 50.710938 53.59375 C 51.238281 53.234375 51.363281 53.058594 51.488281 52.484375 C 51.609375 51.917969 51.550781 50.113281 51.390625 49.515625 C 51.355469 49.378906 50.691406 48.867188 49.640625 48.167969 C 48.449219 47.375 47.515625 46.871094 46.816406 46.644531 C 46.191406 46.445312 45.316406 46.425781 44.492188 46.597656 C 43.304688 46.839844 42.199219 47.589844 41.515625 48.617188 C 40.953125 49.472656 40.792969 50.050781 40.890625 50.921875 C 40.953125 51.515625 41.03125 51.800781 41.25 52.253906 C 41.589844 52.964844 41.6875 53.234375 41.707031 53.554688 C 41.730469 53.917969 41.65625 54.128906 41.433594 54.351562 C 41.035156 54.75 40.363281 54.722656 39.96875 54.285156 C 39.667969 53.953125 39.222656 52.800781 39.035156 51.878906 C 38.753906 50.464844 38.859375 49.398438 39.398438 48.324219 C 40.246094 46.632812 41.605469 45.445312 43.382812 44.855469 C 44.171875 44.589844 44.585938 44.53125 45.667969 44.53125 C 46.558594 44.53125 46.625 44.535156 46.980469 44.628906 C 48.300781 44.976562 50.300781 46.089844 52.160156 47.519531 L 52.539062 47.8125 L 52.964844 47.507812 C 54.175781 46.640625 54.949219 45.84375 55.113281 45.285156 C 55.164062 45.125 55.195312 44.585938 55.15625 44.585938 C 55.148438 44.585938 54.929688 44.691406 54.671875 44.8125 C 53.554688 45.347656 51.757812 45.78125 51.246094 45.640625 C 50.8125 45.523438 50.484375 45.101562 50.484375 44.667969 C 50.488281 44.253906 50.761719 43.886719 51.1875 43.726562 C 51.296875 43.683594 51.648438 43.617188 51.964844 43.578125 C 53.363281 43.398438 54.710938 42.710938 55.152344 41.949219 C 55.375 41.558594 55.757812 40.300781 55.925781 39.398438 C 56.050781 38.738281 56.046875 37.503906 55.925781 36.816406 C 55.773438 35.964844 55.5 35.078125 55.167969 34.367188 C 54.746094 33.453125 54.007812 32.667969 53.164062 32.230469 C 52.695312 31.988281 52.738281 31.984375 52.386719 32.316406 C 51.738281 32.929688 50.429688 33.808594 49.574219 34.207031 C 49.351562 34.3125 49.289062 34.324219 49.097656 34.308594 C 48.546875 34.257812 48.183594 33.867188 48.183594 33.324219 C 48.179688 32.824219 48.335938 32.644531 49.210938 32.148438 C 49.964844 31.722656 50.578125 31.289062 51.007812 30.882812 L 51.332031 30.578125 L 51.574219 30 C 51.8125 29.429688 51.816406 29.425781 51.816406 29.070312 C 51.816406 28.757812 51.796875 28.664062 51.675781 28.304688 C 51.449219 27.652344 51.257812 27.277344 51.046875 27.082031 C 50.796875 26.847656 50.421875 26.65625 49.980469 26.542969 C 49.660156 26.460938 48.957031 26.351562 48.929688 26.382812 C 48.921875 26.386719 48.863281 26.652344 48.800781 26.972656 C 48.640625 27.769531 48.425781 28.613281 48.214844 29.257812 C 47.90625 30.210938 47.804688 30.386719 47.445312 30.566406 C 47.019531 30.777344 46.582031 30.691406 46.265625 30.335938 C 45.960938 29.988281 45.949219 29.683594 46.214844 28.921875 C 46.484375 28.152344 46.5625 27.894531 46.714844 27.234375 C 46.976562 26.105469 47.074219 25.351562 47.074219 24.507812 C 47.074219 23.601562 47.015625 23.433594 46.378906 22.476562 C 45.8125 21.625 45.515625 21.371094 44.898438 21.203125 C 44.308594 21.042969 43.671875 20.972656 42.09375 20.882812 C 41.023438 20.820312 40.875 20.820312 40.425781 20.867188 M 29.589844 21.164062 C 26.886719 21.324219 26.277344 21.582031 25.378906 22.941406 C 24.777344 23.851562 24.699219 24.101562 24.699219 25.089844 C 24.699219 26.128906 24.941406 27.476562 25.335938 28.636719 C 25.519531 29.179688 25.472656 29.542969 25.175781 29.851562 C 24.914062 30.125 24.484375 30.230469 24.148438 30.101562 C 23.941406 30.019531 23.671875 29.785156 23.578125 29.597656 C 23.507812 29.457031 23.246094 28.695312 23.21875 28.542969 C 23.207031 28.492188 23.144531 28.199219 23.070312 27.890625 C 22.933594 27.300781 22.789062 26.5 22.789062 26.347656 C 22.789062 26.234375 22.742188 26.234375 22.234375 26.355469 C 21.722656 26.472656 21.082031 26.683594 20.746094 26.84375 C 19.621094 27.371094 19.214844 28.035156 19.277344 29.238281 C 19.304688 29.761719 19.375 30.117188 19.453125 30.164062 C 19.484375 30.179688 20.074219 30.429688 20.765625 30.714844 C 22.257812 31.332031 23.636719 31.96875 24.242188 32.316406 C 24.484375 32.457031 24.707031 32.566406 24.742188 32.566406 C 24.863281 32.558594 25.59375 32.316406 26.085938 32.117188 C 27.164062 31.6875 27.953125 31.179688 28.414062 30.625 C 28.925781 30.011719 29.238281 28.835938 29.128906 27.957031 C 29.0625 27.449219 29.074219 27.132812 29.164062 26.933594 C 29.316406 26.59375 29.617188 26.378906 29.980469 26.34375 C 30.601562 26.289062 31.015625 26.707031 31.105469 27.476562 C 31.238281 28.609375 31.011719 30.023438 30.546875 30.949219 C 30.164062 31.714844 29.480469 32.46875 28.671875 33.003906 C 28.136719 33.359375 27.136719 33.859375 26.484375 34.097656 C 26.058594 34.253906 26.042969 34.261719 26.0625 34.355469 C 26.074219 34.40625 26.105469 34.582031 26.132812 34.742188 C 26.25 35.492188 25.898438 36.339844 25.167969 37.074219 C 24.625 37.621094 23.984375 37.964844 22.699219 38.402344 C 21.894531 38.675781 21.355469 38.910156 21.070312 39.105469 C 20.785156 39.300781 20.496094 39.609375 20.394531 39.828125 C 20.203125 40.242188 20.253906 41.207031 20.5 41.75 C 20.703125 42.210938 20.808594 42.597656 20.789062 42.820312 C 20.734375 43.351562 20.3125 43.730469 19.769531 43.738281 C 19.191406 43.742188 18.867188 43.351562 18.554688 42.261719 C 18.347656 41.539062 18.308594 41.257812 18.3125 40.519531 C 18.3125 39.953125 18.328125 39.800781 18.394531 39.558594 C 18.714844 38.394531 19.578125 37.515625 20.984375 36.925781 C 21.203125 36.835938 21.703125 36.648438 22.09375 36.511719 C 23.113281 36.152344 23.449219 35.980469 23.757812 35.671875 C 24.003906 35.425781 24.175781 35.15625 24.175781 35.007812 C 24.175781 34.925781 23.957031 34.546875 23.792969 34.339844 C 23.601562 34.101562 22.261719 33.472656 19.585938 32.367188 L 19.066406 32.152344 L 18.761719 32.253906 C 17.636719 32.636719 16.585938 33.21875 16.050781 33.753906 C 15.632812 34.171875 15.453125 34.574219 15.417969 35.183594 C 15.390625 35.570312 15.429688 36.117188 15.480469 36.117188 C 15.496094 36.117188 15.625 36.046875 15.765625 35.960938 C 16.386719 35.582031 17.636719 35.042969 18.085938 34.957031 C 18.675781 34.847656 19.222656 35.300781 19.226562 35.898438 C 19.226562 36.121094 19.160156 36.359375 19.050781 36.511719 C 18.953125 36.648438 18.644531 36.839844 18.363281 36.941406 C 17.5 37.25 16.804688 37.613281 15.914062 38.21875 C 15.546875 38.464844 15.398438 38.589844 15.324219 38.710938 C 15.046875 39.167969 14.875 39.675781 14.761719 40.390625 C 14.691406 40.835938 14.703125 42.113281 14.78125 42.734375 C 14.933594 43.914062 15.359375 45.527344 15.648438 46.03125 C 15.765625 46.230469 16.105469 46.558594 16.460938 46.8125 C 16.976562 47.175781 18.089844 47.757812 18.761719 48.011719 L 19.023438 48.113281 L 20.804688 47.246094 C 21.78125 46.765625 22.847656 46.246094 23.175781 46.089844 L 23.773438 45.804688 L 23.78125 41.570312 L 23.871094 41.371094 C 23.976562 41.140625 24.234375 40.894531 24.433594 40.839844 C 24.648438 40.78125 25 40.796875 25.167969 40.871094 C 25.355469 40.957031 25.539062 41.136719 25.648438 41.339844 C 25.730469 41.492188 25.730469 41.519531 25.75 43.574219 L 25.765625 45.652344 L 26.648438 45.9375 C 27.597656 46.246094 28.066406 46.429688 28.449219 46.640625 C 29.964844 47.476562 30.917969 48.730469 31.347656 50.464844 C 31.507812 51.101562 31.539062 51.445312 31.539062 52.441406 C 31.535156 53.535156 31.484375 53.9375 31.285156 54.332031 C 31.09375 54.714844 30.71875 54.925781 30.296875 54.882812 C 29.964844 54.847656 29.671875 54.640625 29.511719 54.332031 C 29.410156 54.128906 29.402344 53.738281 29.492188 53.222656 C 29.6875 52.105469 29.53125 50.867188 29.085938 49.984375 C 28.816406 49.453125 28.511719 49.085938 28.0625 48.742188 C 27.566406 48.371094 27.042969 48.144531 25.460938 47.628906 L 24.886719 47.445312 L 22.441406 48.640625 C 21.097656 49.300781 19.976562 49.863281 19.949219 49.898438 C 19.882812 49.984375 19.71875 50.710938 19.679688 51.101562 C 19.613281 51.730469 19.730469 52.308594 19.996094 52.710938 C 20.402344 53.320312 21.414062 54 22.753906 54.554688 C 23.054688 54.679688 23.320312 54.78125 23.339844 54.78125 C 23.359375 54.78125 23.40625 54.683594 23.441406 54.566406 C 23.546875 54.226562 23.824219 53.597656 24.03125 53.222656 C 24.355469 52.628906 24.648438 52.40625 25.09375 52.410156 C 25.640625 52.414062 26.039062 52.78125 26.078125 53.316406 C 26.097656 53.636719 26.023438 53.855469 25.660156 54.503906 C 25.074219 55.542969 24.828125 56.890625 25.078125 57.667969 C 25.226562 58.121094 25.710938 58.882812 26.152344 59.355469 C 27.035156 60.296875 28.222656 60.773438 29.875 60.84375 C 30.515625 60.871094 30.972656 60.820312 31.59375 60.660156 C 32.558594 60.410156 34.027344 59.722656 35.203125 58.964844 L 35.421875 58.824219 L 35.398438 57.113281 C 35.375 55.355469 35.230469 39.269531 35.230469 38.429688 L 35.230469 37.960938 L 34.902344 38.089844 C 33.941406 38.476562 33.0625 38.996094 32.585938 39.46875 C 32.089844 39.964844 31.984375 40.277344 32.023438 41.195312 C 32.046875 41.828125 32.09375 42.085938 32.285156 42.726562 C 32.496094 43.414062 32.460938 43.761719 32.152344 44.050781 C 31.808594 44.375 31.277344 44.371094 30.945312 44.039062 C 30.714844 43.808594 30.554688 43.34375 30.375 42.394531 C 30.277344 41.882812 30.265625 41.757812 30.269531 41.007812 C 30.269531 40.238281 30.273438 40.160156 30.367188 39.824219 C 30.539062 39.1875 30.820312 38.734375 31.378906 38.195312 C 32.15625 37.4375 33.355469 36.753906 34.796875 36.242188 L 35.203125 36.097656 L 35.179688 33.117188 C 35.167969 31.480469 35.144531 28.855469 35.132812 27.289062 L 35.109375 24.441406 L 34.976562 24.199219 C 34.804688 23.886719 34.222656 23.007812 33.992188 22.714844 C 33.566406 22.175781 32.863281 21.640625 32.292969 21.421875 C 31.628906 21.164062 30.847656 21.089844 29.589844 21.164062 M 64.242188 21.539062 C 62.832031 22.070312 59.105469 23.460938 57.476562 24.058594 C 56.863281 24.285156 56.699219 24.410156 56.652344 24.675781 C 56.617188 24.882812 56.746094 25.160156 56.921875 25.261719 C 57.160156 25.394531 57.261719 25.367188 59.011719 24.710938 C 60.054688 24.320312 61.097656 23.929688 62.140625 23.542969 C 64.835938 22.542969 65.644531 22.238281 65.730469 22.183594 C 65.824219 22.121094 65.964844 21.851562 65.964844 21.726562 C 65.964844 21.59375 65.828125 21.34375 65.714844 21.257812 C 65.65625 21.214844 65.535156 21.183594 65.425781 21.175781 C 65.257812 21.164062 65.101562 21.214844 64.242188 21.539062 M 3.65625 21.871094 C 3.40625 22.023438 3.300781 22.261719 3.375 22.507812 C 3.460938 22.792969 3.542969 22.835938 5.023438 23.386719 C 7.027344 24.132812 10.125 25.285156 11.09375 25.648438 C 11.652344 25.855469 11.992188 25.964844 12.097656 25.964844 C 12.613281 25.96875 12.855469 25.351562 12.476562 24.996094 C 12.425781 24.949219 11.800781 24.695312 11.019531 24.402344 C 3.75 21.683594 4.066406 21.800781 3.886719 21.800781 C 3.820312 21.800781 3.714844 21.832031 3.65625 21.871094 M 41.152344 26.179688 C 40.714844 26.324219 40.527344 26.582031 40.113281 27.609375 C 39.832031 28.316406 39.726562 28.734375 39.703125 29.257812 C 39.683594 29.621094 39.695312 29.742188 39.761719 30.007812 C 40.019531 31.035156 40.84375 32.023438 41.996094 32.683594 C 42.335938 32.875 42.84375 33.085938 43.785156 33.417969 C 44.585938 33.703125 45.125 33.960938 45.359375 34.175781 C 45.519531 34.320312 45.546875 34.367188 45.613281 34.628906 C 45.734375 35.121094 45.773438 35.675781 45.753906 36.636719 C 45.730469 37.542969 45.695312 37.855469 45.515625 38.757812 C 45.378906 39.425781 45.378906 39.75 45.507812 40 C 45.6875 40.34375 46.011719 40.539062 46.40625 40.539062 C 46.667969 40.539062 46.824219 40.480469 47.011719 40.316406 C 47.308594 40.054688 47.371094 39.863281 47.558594 38.648438 C 47.734375 37.46875 47.761719 37.105469 47.738281 36.0625 C 47.699219 34.34375 47.484375 33.546875 46.890625 32.921875 C 46.371094 32.375 45.804688 32.042969 44.714844 31.65625 C 42.976562 31.039062 42.574219 30.820312 42.066406 30.226562 C 41.558594 29.628906 41.554688 29.207031 42.035156 28.226562 C 42.167969 27.960938 42.3125 27.613281 42.355469 27.460938 C 42.429688 27.210938 42.433594 27.15625 42.390625 26.964844 C 42.335938 26.6875 42.15625 26.421875 41.929688 26.285156 C 41.792969 26.199219 41.699219 26.171875 41.5 26.164062 C 41.359375 26.15625 41.203125 26.164062 41.152344 26.179688 M 1.816406 37.503906 C 1.640625 37.578125 1.460938 37.851562 1.460938 38.050781 C 1.460938 38.195312 1.601562 38.4375 1.734375 38.515625 C 1.851562 38.589844 1.953125 38.589844 6.199219 38.589844 C 10.503906 38.589844 10.542969 38.589844 10.664062 38.515625 C 10.734375 38.472656 10.824219 38.363281 10.871094 38.269531 C 10.96875 38.066406 10.945312 37.855469 10.804688 37.6875 C 10.605469 37.453125 10.910156 37.464844 6.195312 37.46875 C 3.828125 37.46875 1.859375 37.484375 1.816406 37.503906 M 60.117188 37.492188 C 60.03125 37.523438 59.855469 37.699219 59.796875 37.8125 C 59.679688 38.035156 59.773438 38.347656 60.007812 38.507812 L 60.128906 38.59375 L 64.5 38.582031 C 68.800781 38.574219 68.871094 38.570312 68.972656 38.496094 C 69.027344 38.457031 69.109375 38.351562 69.152344 38.261719 C 69.25 38.066406 69.226562 37.855469 69.085938 37.6875 C 68.886719 37.453125 69.191406 37.464844 64.476562 37.46875 C 62.109375 37.472656 60.148438 37.480469 60.117188 37.492188 M 57.597656 50.253906 C 57.414062 50.363281 57.289062 50.609375 57.316406 50.8125 C 57.359375 51.125 57.398438 51.148438 59.019531 51.90625 C 62.683594 53.617188 64.40625 54.375 64.671875 54.398438 C 64.902344 54.414062 65.082031 54.332031 65.207031 54.144531 C 65.28125 54.039062 65.292969 53.980469 65.28125 53.816406 C 65.246094 53.398438 65.492188 53.527344 60.304688 51.203125 C 57.757812 50.0625 57.859375 50.097656 57.597656 50.253906 M 11.300781 50.730469 C 10.886719 50.914062 9.976562 51.316406 9.277344 51.632812 C 8.574219 51.949219 7.773438 52.304688 7.496094 52.429688 C 6.066406 53.0625 5.054688 53.546875 4.933594 53.652344 C 4.664062 53.894531 4.707031 54.335938 5.019531 54.546875 C 5.269531 54.71875 5.4375 54.667969 6.953125 53.996094 C 7.933594 53.558594 9.222656 52.96875 10.214844 52.507812 C 10.585938 52.332031 11.242188 52.027344 11.671875 51.828125 C 12.105469 51.625 12.503906 51.417969 12.558594 51.363281 C 12.6875 51.230469 12.757812 51.027344 12.726562 50.863281 C 12.679688 50.617188 12.40625 50.394531 12.152344 50.398438 C 12.097656 50.398438 11.710938 50.546875 11.300781 50.730469 M 27.257812 63.574219 C 26.980469 63.648438 26.851562 63.722656 26.648438 63.921875 C 26.390625 64.179688 26.292969 64.410156 26.292969 64.753906 C 26.292969 65.183594 26.460938 65.484375 26.847656 65.738281 C 27.253906 66.007812 26.539062 65.988281 36.210938 65.988281 C 45.683594 65.988281 45.074219 66 45.445312 65.785156 C 45.789062 65.582031 46.0625 65.140625 46.0625 64.785156 C 46.0625 64.214844 45.695312 63.75 45.09375 63.570312 C 44.832031 63.488281 27.550781 63.492188 27.257812 63.574219 M 28.511719 66.53125 C 28.1875 66.644531 27.898438 66.925781 27.785156 67.238281 C 27.722656 67.410156 27.726562 67.785156 27.792969 67.988281 C 27.871094 68.210938 28.125 68.492188 28.359375 68.613281 L 28.542969 68.707031 L 36.167969 68.714844 C 44.765625 68.726562 43.988281 68.753906 44.351562 68.421875 C 44.613281 68.183594 44.71875 67.945312 44.71875 67.597656 C 44.71875 67.171875 44.480469 66.785156 44.089844 66.585938 L 43.90625 66.496094 L 36.28125 66.488281 C 29.933594 66.480469 28.628906 66.488281 28.511719 66.53125 M 30.078125 69.160156 C 29.902344 69.253906 29.683594 69.476562 29.605469 69.644531 C 29.527344 69.808594 29.515625 70.09375 29.570312 70.300781 C 29.625 70.488281 29.847656 70.734375 30.0625 70.84375 L 30.242188 70.9375 L 42.273438 70.9375 L 42.472656 70.828125 C 43.160156 70.453125 43.152344 69.542969 42.460938 69.191406 L 42.28125 69.101562 L 36.234375 69.101562 C 30.808594 69.101562 30.179688 69.109375 30.078125 69.160156 M 31.992188 71.332031 C 31.691406 71.441406 31.523438 71.714844 31.578125 72.007812 C 31.714844 72.730469 33.605469 73.96875 35.179688 74.363281 C 36.265625 74.636719 37.429688 74.386719 38.746094 73.589844 C 39.460938 73.160156 40.253906 72.464844 40.414062 72.128906 C 40.546875 71.847656 40.464844 71.515625 40.230469 71.359375 C 40.132812 71.296875 39.910156 71.292969 36.132812 71.285156 C 32.707031 71.277344 32.117188 71.285156 31.992188 71.332031 " fill-opacity="1" fill-rule="evenodd"/><g fill="#ffffff" fill-opacity="1"><g transform="translate(70.039946, 43.506857)"><g><path d="M 7.21875 -6.015625 C 7.21875 -5.546875 7.101562 -5.109375 6.875 -4.703125 C 6.65625 -4.296875 6.3125 -3.96875 5.84375 -3.71875 C 5.375 -3.46875 4.78125 -3.34375 4.0625 -3.34375 L 2.609375 -3.34375 L 2.609375 0 L 0.859375 0 L 0.859375 -8.71875 L 4.0625 -8.71875 C 4.738281 -8.71875 5.3125 -8.597656 5.78125 -8.359375 C 6.257812 -8.128906 6.617188 -7.8125 6.859375 -7.40625 C 7.097656 -7 7.21875 -6.535156 7.21875 -6.015625 Z M 4 -4.75 C 4.476562 -4.75 4.832031 -4.859375 5.0625 -5.078125 C 5.300781 -5.304688 5.421875 -5.617188 5.421875 -6.015625 C 5.421875 -6.867188 4.945312 -7.296875 4 -7.296875 L 2.609375 -7.296875 L 2.609375 -4.75 Z M 4 -4.75 "/></g></g></g><g fill="#ffffff" fill-opacity="1"><g transform="translate(77.631109, 43.506857)"><g><path d="M 2.609375 -9.234375 L 2.609375 0 L 0.859375 0 L 0.859375 -9.234375 Z M 2.609375 -9.234375 "/></g></g></g><g fill="#ffffff" fill-opacity="1"><g transform="translate(81.102069, 43.506857)"><g><path d="M 0.40625 -3.484375 C 0.40625 -4.179688 0.546875 -4.800781 0.828125 -5.34375 C 1.109375 -5.882812 1.488281 -6.300781 1.96875 -6.59375 C 2.445312 -6.882812 2.984375 -7.03125 3.578125 -7.03125 C 4.085938 -7.03125 4.535156 -6.925781 4.921875 -6.71875 C 5.304688 -6.507812 5.617188 -6.25 5.859375 -5.9375 L 5.859375 -6.921875 L 7.609375 -6.921875 L 7.609375 0 L 5.859375 0 L 5.859375 -1.015625 C 5.628906 -0.691406 5.316406 -0.421875 4.921875 -0.203125 C 4.523438 0.00390625 4.070312 0.109375 3.5625 0.109375 C 2.976562 0.109375 2.445312 -0.0351562 1.96875 -0.328125 C 1.488281 -0.628906 1.109375 -1.050781 0.828125 -1.59375 C 0.546875 -2.144531 0.40625 -2.773438 0.40625 -3.484375 Z M 5.859375 -3.453125 C 5.859375 -3.878906 5.773438 -4.242188 5.609375 -4.546875 C 5.441406 -4.847656 5.210938 -5.082031 4.921875 -5.25 C 4.640625 -5.414062 4.335938 -5.5 4.015625 -5.5 C 3.691406 -5.5 3.390625 -5.414062 3.109375 -5.25 C 2.835938 -5.09375 2.617188 -4.863281 2.453125 -4.5625 C 2.285156 -4.257812 2.203125 -3.898438 2.203125 -3.484375 C 2.203125 -3.066406 2.285156 -2.703125 2.453125 -2.390625 C 2.617188 -2.078125 2.84375 -1.835938 3.125 -1.671875 C 3.40625 -1.503906 3.703125 -1.421875 4.015625 -1.421875 C 4.335938 -1.421875 4.640625 -1.5 4.921875 -1.65625 C 5.210938 -1.820312 5.441406 -2.054688 5.609375 -2.359375 C 5.773438 -2.671875 5.859375 -3.035156 5.859375 -3.453125 Z M 5.859375 -3.453125 "/></g></g></g><g fill="#ffffff" fill-opacity="1"><g transform="translate(89.567209, 43.506857)"><g><path d="M 2.890625 -5.484375 L 2.890625 -2.140625 C 2.890625 -1.898438 2.945312 -1.726562 3.0625 -1.625 C 3.175781 -1.519531 3.367188 -1.46875 3.640625 -1.46875 L 4.4375 -1.46875 L 4.4375 0 L 3.34375 0 C 1.875 0 1.140625 -0.710938 1.140625 -2.140625 L 1.140625 -5.484375 L 0.3125 -5.484375 L 0.3125 -6.921875 L 1.140625 -6.921875 L 1.140625 -8.625 L 2.890625 -8.625 L 2.890625 -6.921875 L 4.4375 -6.921875 L 4.4375 -5.484375 Z M 2.890625 -5.484375 "/></g></g></g><g fill="#ffffff" fill-opacity="1"><g transform="translate(94.411563, 43.506857)"><g><path d="M 0.40625 -3.484375 C 0.40625 -4.179688 0.546875 -4.800781 0.828125 -5.34375 C 1.109375 -5.882812 1.488281 -6.300781 1.96875 -6.59375 C 2.445312 -6.882812 2.984375 -7.03125 3.578125 -7.03125 C 4.085938 -7.03125 4.535156 -6.925781 4.921875 -6.71875 C 5.304688 -6.507812 5.617188 -6.25 5.859375 -5.9375 L 5.859375 -6.921875 L 7.609375 -6.921875 L 7.609375 0 L 5.859375 0 L 5.859375 -1.015625 C 5.628906 -0.691406 5.316406 -0.421875 4.921875 -0.203125 C 4.523438 0.00390625 4.070312 0.109375 3.5625 0.109375 C 2.976562 0.109375 2.445312 -0.0351562 1.96875 -0.328125 C 1.488281 -0.628906 1.109375 -1.050781 0.828125 -1.59375 C 0.546875 -2.144531 0.40625 -2.773438 0.40625 -3.484375 Z M 5.859375 -3.453125 C 5.859375 -3.878906 5.773438 -4.242188 5.609375 -4.546875 C 5.441406 -4.847656 5.210938 -5.082031 4.921875 -5.25 C 4.640625 -5.414062 4.335938 -5.5 4.015625 -5.5 C 3.691406 -5.5 3.390625 -5.414062 3.109375 -5.25 C 2.835938 -5.09375 2.617188 -4.863281 2.453125 -4.5625 C 2.285156 -4.257812 2.203125 -3.898438 2.203125 -3.484375 C 2.203125 -3.066406 2.285156 -2.703125 2.453125 -2.390625 C 2.617188 -2.078125 2.84375 -1.835938 3.125 -1.671875 C 3.40625 -1.503906 3.703125 -1.421875 4.015625 -1.421875 C 4.335938 -1.421875 4.640625 -1.5 4.921875 -1.65625 C 5.210938 -1.820312 5.441406 -2.054688 5.609375 -2.359375 C 5.773438 -2.671875 5.859375 -3.035156 5.859375 -3.453125 Z M 5.859375 -3.453125 "/></g></g></g><g fill="#ffffff" fill-opacity="1"><g transform="translate(102.876703, 43.506857)"><g><path d="M 4.03125 -5.484375 L 2.828125 -5.484375 L 2.828125 0 L 1.046875 0 L 1.046875 -5.484375 L 0.265625 -5.484375 L 0.265625 -6.921875 L 1.046875 -6.921875 L 1.046875 -7.265625 C 1.046875 -8.117188 1.285156 -8.742188 1.765625 -9.140625 C 2.253906 -9.535156 2.984375 -9.722656 3.953125 -9.703125 L 3.953125 -8.234375 C 3.535156 -8.234375 3.242188 -8.160156 3.078125 -8.015625 C 2.910156 -7.867188 2.828125 -7.597656 2.828125 -7.203125 L 2.828125 -6.921875 L 4.03125 -6.921875 Z M 4.03125 -5.484375 "/></g></g></g><g fill="#ffffff" fill-opacity="1"><g transform="translate(107.18418, 43.506857)"><g><path d="M 3.9375 0.109375 C 3.269531 0.109375 2.664062 -0.0351562 2.125 -0.328125 C 1.59375 -0.628906 1.175781 -1.046875 0.875 -1.578125 C 0.570312 -2.117188 0.421875 -2.742188 0.421875 -3.453125 C 0.421875 -4.160156 0.578125 -4.785156 0.890625 -5.328125 C 1.203125 -5.867188 1.628906 -6.285156 2.171875 -6.578125 C 2.710938 -6.878906 3.316406 -7.03125 3.984375 -7.03125 C 4.648438 -7.03125 5.253906 -6.878906 5.796875 -6.578125 C 6.335938 -6.285156 6.765625 -5.867188 7.078125 -5.328125 C 7.390625 -4.785156 7.546875 -4.160156 7.546875 -3.453125 C 7.546875 -2.742188 7.382812 -2.117188 7.0625 -1.578125 C 6.738281 -1.046875 6.300781 -0.628906 5.75 -0.328125 C 5.207031 -0.0351562 4.601562 0.109375 3.9375 0.109375 Z M 3.9375 -1.40625 C 4.25 -1.40625 4.546875 -1.484375 4.828125 -1.640625 C 5.109375 -1.796875 5.332031 -2.023438 5.5 -2.328125 C 5.664062 -2.640625 5.75 -3.015625 5.75 -3.453125 C 5.75 -4.109375 5.570312 -4.613281 5.21875 -4.96875 C 4.875 -5.320312 4.453125 -5.5 3.953125 -5.5 C 3.453125 -5.5 3.035156 -5.320312 2.703125 -4.96875 C 2.367188 -4.613281 2.203125 -4.109375 2.203125 -3.453125 C 2.203125 -2.796875 2.363281 -2.289062 2.6875 -1.9375 C 3.019531 -1.582031 3.4375 -1.40625 3.9375 -1.40625 Z M 3.9375 -1.40625 "/></g></g></g><g fill="#ffffff" fill-opacity="1"><g transform="translate(115.149904, 43.506857)"><g><path d="M 2.609375 -5.84375 C 2.835938 -6.207031 3.128906 -6.492188 3.484375 -6.703125 C 3.847656 -6.910156 4.265625 -7.015625 4.734375 -7.015625 L 4.734375 -5.1875 L 4.265625 -5.1875 C 3.722656 -5.1875 3.3125 -5.054688 3.03125 -4.796875 C 2.75 -4.535156 2.609375 -4.085938 2.609375 -3.453125 L 2.609375 0 L 0.859375 0 L 0.859375 -6.921875 L 2.609375 -6.921875 Z M 2.609375 -5.84375 "/></g></g></g><g fill="#ffffff" fill-opacity="1"><g transform="translate(120.194033, 43.506857)"><g><path d="M 9.453125 -7.015625 C 10.296875 -7.015625 10.976562 -6.753906 11.5 -6.234375 C 12.019531 -5.710938 12.28125 -4.988281 12.28125 -4.0625 L 12.28125 0 L 10.53125 0 L 10.53125 -3.8125 C 10.53125 -4.351562 10.394531 -4.769531 10.125 -5.0625 C 9.851562 -5.351562 9.476562 -5.5 9 -5.5 C 8.53125 -5.5 8.15625 -5.351562 7.875 -5.0625 C 7.59375 -4.769531 7.453125 -4.351562 7.453125 -3.8125 L 7.453125 0 L 5.703125 0 L 5.703125 -3.8125 C 5.703125 -4.351562 5.5625 -4.769531 5.28125 -5.0625 C 5.007812 -5.351562 4.640625 -5.5 4.171875 -5.5 C 3.691406 -5.5 3.3125 -5.351562 3.03125 -5.0625 C 2.75 -4.769531 2.609375 -4.351562 2.609375 -3.8125 L 2.609375 0 L 0.859375 0 L 0.859375 -6.921875 L 2.609375 -6.921875 L 2.609375 -6.078125 C 2.835938 -6.367188 3.125 -6.597656 3.46875 -6.765625 C 3.820312 -6.929688 4.210938 -7.015625 4.640625 -7.015625 C 5.179688 -7.015625 5.664062 -6.898438 6.09375 -6.671875 C 6.519531 -6.441406 6.847656 -6.113281 7.078125 -5.6875 C 7.304688 -6.09375 7.632812 -6.414062 8.0625 -6.65625 C 8.488281 -6.894531 8.953125 -7.015625 9.453125 -7.015625 Z M 9.453125 -7.015625 "/></g></g></g><g fill="#ffffff" fill-opacity="1"><g transform="translate(133.278793, 43.506857)"><g><path d="M 0.40625 -3.484375 C 0.40625 -4.179688 0.546875 -4.800781 0.828125 -5.34375 C 1.109375 -5.882812 1.488281 -6.300781 1.96875 -6.59375 C 2.445312 -6.882812 2.984375 -7.03125 3.578125 -7.03125 C 4.085938 -7.03125 4.535156 -6.925781 4.921875 -6.71875 C 5.304688 -6.507812 5.617188 -6.25 5.859375 -5.9375 L 5.859375 -6.921875 L 7.609375 -6.921875 L 7.609375 0 L 5.859375 0 L 5.859375 -1.015625 C 5.628906 -0.691406 5.316406 -0.421875 4.921875 -0.203125 C 4.523438 0.00390625 4.070312 0.109375 3.5625 0.109375 C 2.976562 0.109375 2.445312 -0.0351562 1.96875 -0.328125 C 1.488281 -0.628906 1.109375 -1.050781 0.828125 -1.59375 C 0.546875 -2.144531 0.40625 -2.773438 0.40625 -3.484375 Z M 5.859375 -3.453125 C 5.859375 -3.878906 5.773438 -4.242188 5.609375 -4.546875 C 5.441406 -4.847656 5.210938 -5.082031 4.921875 -5.25 C 4.640625 -5.414062 4.335938 -5.5 4.015625 -5.5 C 3.691406 -5.5 3.390625 -5.414062 3.109375 -5.25 C 2.835938 -5.09375 2.617188 -4.863281 2.453125 -4.5625 C 2.285156 -4.257812 2.203125 -3.898438 2.203125 -3.484375 C 2.203125 -3.066406 2.285156 -2.703125 2.453125 -2.390625 C 2.617188 -2.078125 2.84375 -1.835938 3.125 -1.671875 C 3.40625 -1.503906 3.703125 -1.421875 4.015625 -1.421875 C 4.335938 -1.421875 4.640625 -1.5 4.921875 -1.65625 C 5.210938 -1.820312 5.441406 -2.054688 5.609375 -2.359375 C 5.773438 -2.671875 5.859375 -3.035156 5.859375 -3.453125 Z M 5.859375 -3.453125 "/></g></g></g><g fill="#ffffff" fill-opacity="1"><g transform="translate(141.743933, 43.506857)"><g/></g></g><g fill="#ffffff" fill-opacity="1"><g transform="translate(144.715477, 43.506857)"><g><path d="M 0.40625 -3.484375 C 0.40625 -4.179688 0.546875 -4.800781 0.828125 -5.34375 C 1.109375 -5.882812 1.488281 -6.300781 1.96875 -6.59375 C 2.457031 -6.882812 2.992188 -7.03125 3.578125 -7.03125 C 4.023438 -7.03125 4.453125 -6.929688 4.859375 -6.734375 C 5.273438 -6.535156 5.601562 -6.273438 5.84375 -5.953125 L 5.84375 -9.234375 L 7.609375 -9.234375 L 7.609375 0 L 5.84375 0 L 5.84375 -1.03125 C 5.625 -0.6875 5.316406 -0.410156 4.921875 -0.203125 C 4.535156 0.00390625 4.085938 0.109375 3.578125 0.109375 C 2.992188 0.109375 2.457031 -0.0351562 1.96875 -0.328125 C 1.488281 -0.628906 1.109375 -1.050781 0.828125 -1.59375 C 0.546875 -2.144531 0.40625 -2.773438 0.40625 -3.484375 Z M 5.859375 -3.453125 C 5.859375 -3.878906 5.773438 -4.242188 5.609375 -4.546875 C 5.441406 -4.847656 5.210938 -5.082031 4.921875 -5.25 C 4.640625 -5.414062 4.335938 -5.5 4.015625 -5.5 C 3.691406 -5.5 3.390625 -5.414062 3.109375 -5.25 C 2.835938 -5.09375 2.617188 -4.863281 2.453125 -4.5625 C 2.285156 -4.257812 2.203125 -3.898438 2.203125 -3.484375 C 2.203125 -3.066406 2.285156 -2.703125 2.453125 -2.390625 C 2.617188 -2.078125 2.84375 -1.835938 3.125 -1.671875 C 3.40625 -1.503906 3.703125 -1.421875 4.015625 -1.421875 C 4.335938 -1.421875 4.640625 -1.5 4.921875 -1.65625 C 5.210938 -1.820312 5.441406 -2.054688 5.609375 -2.359375 C 5.773438 -2.671875 5.859375 -3.035156 5.859375 -3.453125 Z M 5.859375 -3.453125 "/></g></g></g><g fill="#ffffff" fill-opacity="1"><g transform="translate(153.180617, 43.506857)"><g><path d="M 3.9375 0.109375 C 3.269531 0.109375 2.664062 -0.0351562 2.125 -0.328125 C 1.59375 -0.628906 1.175781 -1.046875 0.875 -1.578125 C 0.570312 -2.117188 0.421875 -2.742188 0.421875 -3.453125 C 0.421875 -4.160156 0.578125 -4.785156 0.890625 -5.328125 C 1.203125 -5.867188 1.628906 -6.285156 2.171875 -6.578125 C 2.710938 -6.878906 3.316406 -7.03125 3.984375 -7.03125 C 4.648438 -7.03125 5.253906 -6.878906 5.796875 -6.578125 C 6.335938 -6.285156 6.765625 -5.867188 7.078125 -5.328125 C 7.390625 -4.785156 7.546875 -4.160156 7.546875 -3.453125 C 7.546875 -2.742188 7.382812 -2.117188 7.0625 -1.578125 C 6.738281 -1.046875 6.300781 -0.628906 5.75 -0.328125 C 5.207031 -0.0351562 4.601562 0.109375 3.9375 0.109375 Z M 3.9375 -1.40625 C 4.25 -1.40625 4.546875 -1.484375 4.828125 -1.640625 C 5.109375 -1.796875 5.332031 -2.023438 5.5 -2.328125 C 5.664062 -2.640625 5.75 -3.015625 5.75 -3.453125 C 5.75 -4.109375 5.570312 -4.613281 5.21875 -4.96875 C 4.875 -5.320312 4.453125 -5.5 3.953125 -5.5 C 3.453125 -5.5 3.035156 -5.320312 2.703125 -4.96875 C 2.367188 -4.613281 2.203125 -4.109375 2.203125 -3.453125 C 2.203125 -2.796875 2.363281 -2.289062 2.6875 -1.9375 C 3.019531 -1.582031 3.4375 -1.40625 3.9375 -1.40625 Z M 3.9375 -1.40625 "/></g></g></g><g fill="#ffffff" fill-opacity="1"><g transform="translate(161.14634, 43.506857)"><g><path d="M 3.515625 0.109375 C 2.941406 0.109375 2.429688 0.0078125 1.984375 -0.1875 C 1.535156 -0.394531 1.179688 -0.671875 0.921875 -1.015625 C 0.660156 -1.367188 0.515625 -1.757812 0.484375 -2.1875 L 2.25 -2.1875 C 2.28125 -1.914062 2.410156 -1.691406 2.640625 -1.515625 C 2.867188 -1.347656 3.15625 -1.265625 3.5 -1.265625 C 3.832031 -1.265625 4.09375 -1.328125 4.28125 -1.453125 C 4.46875 -1.585938 4.5625 -1.757812 4.5625 -1.96875 C 4.5625 -2.195312 4.445312 -2.363281 4.21875 -2.46875 C 3.988281 -2.582031 3.625 -2.707031 3.125 -2.84375 C 2.601562 -2.96875 2.175781 -3.097656 1.84375 -3.234375 C 1.519531 -3.367188 1.238281 -3.570312 1 -3.84375 C 0.769531 -4.113281 0.65625 -4.484375 0.65625 -4.953125 C 0.65625 -5.335938 0.765625 -5.6875 0.984375 -6 C 1.203125 -6.320312 1.515625 -6.570312 1.921875 -6.75 C 2.335938 -6.9375 2.828125 -7.03125 3.390625 -7.03125 C 4.210938 -7.03125 4.867188 -6.820312 5.359375 -6.40625 C 5.847656 -6 6.117188 -5.445312 6.171875 -4.75 L 4.5 -4.75 C 4.46875 -5.019531 4.347656 -5.234375 4.140625 -5.390625 C 3.941406 -5.554688 3.671875 -5.640625 3.328125 -5.640625 C 3.015625 -5.640625 2.769531 -5.582031 2.59375 -5.46875 C 2.425781 -5.351562 2.34375 -5.191406 2.34375 -4.984375 C 2.34375 -4.742188 2.457031 -4.5625 2.6875 -4.4375 C 2.925781 -4.320312 3.289062 -4.203125 3.78125 -4.078125 C 4.28125 -3.953125 4.691406 -3.820312 5.015625 -3.6875 C 5.335938 -3.5625 5.617188 -3.359375 5.859375 -3.078125 C 6.097656 -2.796875 6.222656 -2.425781 6.234375 -1.96875 C 6.234375 -1.570312 6.117188 -1.210938 5.890625 -0.890625 C 5.671875 -0.578125 5.351562 -0.332031 4.9375 -0.15625 C 4.53125 0.0195312 4.054688 0.109375 3.515625 0.109375 Z M 3.515625 0.109375 "/></g></g></g><g fill="#ffffff" fill-opacity="1"><g transform="translate(167.950913, 43.506857)"><g/></g></g><g fill="#ff914d" fill-opacity="1"><g transform="translate(170.931412, 43.506857)"><g><path d="M 7.21875 -6.015625 C 7.21875 -5.546875 7.101562 -5.109375 6.875 -4.703125 C 6.65625 -4.296875 6.3125 -3.96875 5.84375 -3.71875 C 5.375 -3.46875 4.78125 -3.34375 4.0625 -3.34375 L 2.609375 -3.34375 L 2.609375 0 L 0.859375 0 L 0.859375 -8.71875 L 4.0625 -8.71875 C 4.738281 -8.71875 5.3125 -8.597656 5.78125 -8.359375 C 6.257812 -8.128906 6.617188 -7.8125 6.859375 -7.40625 C 7.097656 -7 7.21875 -6.535156 7.21875 -6.015625 Z M 4 -4.75 C 4.476562 -4.75 4.832031 -4.859375 5.0625 -5.078125 C 5.300781 -5.304688 5.421875 -5.617188 5.421875 -6.015625 C 5.421875 -6.867188 4.945312 -7.296875 4 -7.296875 L 2.609375 -7.296875 L 2.609375 -4.75 Z M 4 -4.75 "/></g></g></g><g fill="#ff914d" fill-opacity="1"><g transform="translate(178.522575, 43.506857)"><g><path d="M 2.609375 -5.84375 C 2.835938 -6.207031 3.128906 -6.492188 3.484375 -6.703125 C 3.847656 -6.910156 4.265625 -7.015625 4.734375 -7.015625 L 4.734375 -5.1875 L 4.265625 -5.1875 C 3.722656 -5.1875 3.3125 -5.054688 3.03125 -4.796875 C 2.75 -4.535156 2.609375 -4.085938 2.609375 -3.453125 L 2.609375 0 L 0.859375 0 L 0.859375 -6.921875 L 2.609375 -6.921875 Z M 2.609375 -5.84375 "/></g></g></g><g fill="#ff914d" fill-opacity="1"><g transform="translate(183.566705, 43.506857)"><g><path d="M 3.9375 0.109375 C 3.269531 0.109375 2.664062 -0.0351562 2.125 -0.328125 C 1.59375 -0.628906 1.175781 -1.046875 0.875 -1.578125 C 0.570312 -2.117188 0.421875 -2.742188 0.421875 -3.453125 C 0.421875 -4.160156 0.578125 -4.785156 0.890625 -5.328125 C 1.203125 -5.867188 1.628906 -6.285156 2.171875 -6.578125 C 2.710938 -6.878906 3.316406 -7.03125 3.984375 -7.03125 C 4.648438 -7.03125 5.253906 -6.878906 5.796875 -6.578125 C 6.335938 -6.285156 6.765625 -5.867188 7.078125 -5.328125 C 7.390625 -4.785156 7.546875 -4.160156 7.546875 -3.453125 C 7.546875 -2.742188 7.382812 -2.117188 7.0625 -1.578125 C 6.738281 -1.046875 6.300781 -0.628906 5.75 -0.328125 C 5.207031 -0.0351562 4.601562 0.109375 3.9375 0.109375 Z M 3.9375 -1.40625 C 4.25 -1.40625 4.546875 -1.484375 4.828125 -1.640625 C 5.109375 -1.796875 5.332031 -2.023438 5.5 -2.328125 C 5.664062 -2.640625 5.75 -3.015625 5.75 -3.453125 C 5.75 -4.109375 5.570312 -4.613281 5.21875 -4.96875 C 4.875 -5.320312 4.453125 -5.5 3.953125 -5.5 C 3.453125 -5.5 3.035156 -5.320312 2.703125 -4.96875 C 2.367188 -4.613281 2.203125 -4.109375 2.203125 -3.453125 C 2.203125 -2.796875 2.363281 -2.289062 2.6875 -1.9375 C 3.019531 -1.582031 3.4375 -1.40625 3.9375 -1.40625 Z M 3.9375 -1.40625 "/></g></g></g><g fill="#ff914d" fill-opacity="1"><g transform="translate(191.532428, 43.506857)"><g><path d="M 1.75 -7.734375 C 1.425781 -7.734375 1.160156 -7.832031 0.953125 -8.03125 C 0.753906 -8.226562 0.65625 -8.472656 0.65625 -8.765625 C 0.65625 -9.054688 0.753906 -9.296875 0.953125 -9.484375 C 1.160156 -9.679688 1.425781 -9.78125 1.75 -9.78125 C 2.050781 -9.78125 2.300781 -9.679688 2.5 -9.484375 C 2.707031 -9.296875 2.8125 -9.054688 2.8125 -8.765625 C 2.8125 -8.472656 2.707031 -8.226562 2.5 -8.03125 C 2.300781 -7.832031 2.050781 -7.734375 1.75 -7.734375 Z M 2.609375 1.140625 C 2.609375 1.898438 2.414062 2.445312 2.03125 2.78125 C 1.65625 3.125 1.113281 3.296875 0.40625 3.296875 L -0.359375 3.296875 L -0.359375 1.8125 L 0.140625 1.8125 C 0.398438 1.8125 0.582031 1.757812 0.6875 1.65625 C 0.800781 1.550781 0.859375 1.382812 0.859375 1.15625 L 0.859375 -6.921875 L 2.609375 -6.921875 Z M 2.609375 1.140625 "/></g></g></g><g fill="#ff914d" fill-opacity="1"><g transform="translate(195.003388, 43.506857)"><g><path d="M 7.296875 -3.609375 C 7.296875 -3.359375 7.273438 -3.132812 7.234375 -2.9375 L 2.1875 -2.9375 C 2.226562 -2.4375 2.398438 -2.039062 2.703125 -1.75 C 3.015625 -1.46875 3.394531 -1.328125 3.84375 -1.328125 C 4.488281 -1.328125 4.953125 -1.609375 5.234375 -2.171875 L 7.109375 -2.171875 C 6.910156 -1.503906 6.53125 -0.957031 5.96875 -0.53125 C 5.40625 -0.101562 4.707031 0.109375 3.875 0.109375 C 3.21875 0.109375 2.625 -0.0351562 2.09375 -0.328125 C 1.5625 -0.628906 1.144531 -1.046875 0.84375 -1.578125 C 0.550781 -2.117188 0.40625 -2.742188 0.40625 -3.453125 C 0.40625 -4.171875 0.550781 -4.800781 0.84375 -5.34375 C 1.132812 -5.882812 1.539062 -6.300781 2.0625 -6.59375 C 2.59375 -6.882812 3.195312 -7.03125 3.875 -7.03125 C 4.539062 -7.03125 5.128906 -6.890625 5.640625 -6.609375 C 6.160156 -6.328125 6.566406 -5.925781 6.859375 -5.40625 C 7.148438 -4.882812 7.296875 -4.285156 7.296875 -3.609375 Z M 5.484375 -4.109375 C 5.472656 -4.554688 5.304688 -4.914062 4.984375 -5.1875 C 4.671875 -5.457031 4.285156 -5.59375 3.828125 -5.59375 C 3.398438 -5.59375 3.035156 -5.460938 2.734375 -5.203125 C 2.441406 -4.941406 2.265625 -4.578125 2.203125 -4.109375 Z M 5.484375 -4.109375 "/></g></g></g><g fill="#ff914d" fill-opacity="1"><g transform="translate(202.706919, 43.506857)"><g><path d="M 2.890625 -5.484375 L 2.890625 -2.140625 C 2.890625 -1.898438 2.945312 -1.726562 3.0625 -1.625 C 3.175781 -1.519531 3.367188 -1.46875 3.640625 -1.46875 L 4.4375 -1.46875 L 4.4375 0 L 3.34375 0 C 1.875 0 1.140625 -0.710938 1.140625 -2.140625 L 1.140625 -5.484375 L 0.3125 -5.484375 L 0.3125 -6.921875 L 1.140625 -6.921875 L 1.140625 -8.625 L 2.890625 -8.625 L 2.890625 -6.921875 L 4.4375 -6.921875 L 4.4375 -5.484375 Z M 2.890625 -5.484375 "/></g></g></g><g fill="#ff914d" fill-opacity="1"><g transform="translate(207.551272, 43.506857)"><g><path d="M 3.9375 0.109375 C 3.269531 0.109375 2.664062 -0.0351562 2.125 -0.328125 C 1.59375 -0.628906 1.175781 -1.046875 0.875 -1.578125 C 0.570312 -2.117188 0.421875 -2.742188 0.421875 -3.453125 C 0.421875 -4.160156 0.578125 -4.785156 0.890625 -5.328125 C 1.203125 -5.867188 1.628906 -6.285156 2.171875 -6.578125 C 2.710938 -6.878906 3.316406 -7.03125 3.984375 -7.03125 C 4.648438 -7.03125 5.253906 -6.878906 5.796875 -6.578125 C 6.335938 -6.285156 6.765625 -5.867188 7.078125 -5.328125 C 7.390625 -4.785156 7.546875 -4.160156 7.546875 -3.453125 C 7.546875 -2.742188 7.382812 -2.117188 7.0625 -1.578125 C 6.738281 -1.046875 6.300781 -0.628906 5.75 -0.328125 C 5.207031 -0.0351562 4.601562 0.109375 3.9375 0.109375 Z M 3.9375 -1.40625 C 4.25 -1.40625 4.546875 -1.484375 4.828125 -1.640625 C 5.109375 -1.796875 5.332031 -2.023438 5.5 -2.328125 C 5.664062 -2.640625 5.75 -3.015625 5.75 -3.453125 C 5.75 -4.109375 5.570312 -4.613281 5.21875 -4.96875 C 4.875 -5.320312 4.453125 -5.5 3.953125 -5.5 C 3.453125 -5.5 3.035156 -5.320312 2.703125 -4.96875 C 2.367188 -4.613281 2.203125 -4.109375 2.203125 -3.453125 C 2.203125 -2.796875 2.363281 -2.289062 2.6875 -1.9375 C 3.019531 -1.582031 3.4375 -1.40625 3.9375 -1.40625 Z M 3.9375 -1.40625 "/></g></g></g><g fill="#ff914d" fill-opacity="1"><g transform="translate(215.516995, 43.506857)"><g><path d="M 3.515625 0.109375 C 2.941406 0.109375 2.429688 0.0078125 1.984375 -0.1875 C 1.535156 -0.394531 1.179688 -0.671875 0.921875 -1.015625 C 0.660156 -1.367188 0.515625 -1.757812 0.484375 -2.1875 L 2.25 -2.1875 C 2.28125 -1.914062 2.410156 -1.691406 2.640625 -1.515625 C 2.867188 -1.347656 3.15625 -1.265625 3.5 -1.265625 C 3.832031 -1.265625 4.09375 -1.328125 4.28125 -1.453125 C 4.46875 -1.585938 4.5625 -1.757812 4.5625 -1.96875 C 4.5625 -2.195312 4.445312 -2.363281 4.21875 -2.46875 C 3.988281 -2.582031 3.625 -2.707031 3.125 -2.84375 C 2.601562 -2.96875 2.175781 -3.097656 1.84375 -3.234375 C 1.519531 -3.367188 1.238281 -3.570312 1 -3.84375 C 0.769531 -4.113281 0.65625 -4.484375 0.65625 -4.953125 C 0.65625 -5.335938 0.765625 -5.6875 0.984375 -6 C 1.203125 -6.320312 1.515625 -6.570312 1.921875 -6.75 C 2.335938 -6.9375 2.828125 -7.03125 3.390625 -7.03125 C 4.210938 -7.03125 4.867188 -6.820312 5.359375 -6.40625 C 5.847656 -6 6.117188 -5.445312 6.171875 -4.75 L 4.5 -4.75 C 4.46875 -5.019531 4.347656 -5.234375 4.140625 -5.390625 C 3.941406 -5.554688 3.671875 -5.640625 3.328125 -5.640625 C 3.015625 -5.640625 2.769531 -5.582031 2.59375 -5.46875 C 2.425781 -5.351562 2.34375 -5.191406 2.34375 -4.984375 C 2.34375 -4.742188 2.457031 -4.5625 2.6875 -4.4375 C 2.925781 -4.320312 3.289062 -4.203125 3.78125 -4.078125 C 4.28125 -3.953125 4.691406 -3.820312 5.015625 -3.6875 C 5.335938 -3.5625 5.617188 -3.359375 5.859375 -3.078125 C 6.097656 -2.796875 6.222656 -2.425781 6.234375 -1.96875 C 6.234375 -1.570312 6.117188 -1.210938 5.890625 -0.890625 C 5.671875 -0.578125 5.351562 -0.332031 4.9375 -0.15625 C 4.53125 0.0195312 4.054688 0.109375 3.515625 0.109375 Z M 3.515625 0.109375 "/></g></g></g><g fill="#f652ff" fill-opacity="1"><g transform="translate(70.039946, 54.001256)"><g><path d="M 2.609375 -8.71875 L 2.609375 0 L 0.859375 0 L 0.859375 -8.71875 Z M 2.609375 -8.71875 "/></g></g></g><g fill="#f652ff" fill-opacity="1"><g transform="translate(73.510906, 54.001256)"><g><path d="M 4.6875 -7.015625 C 5.519531 -7.015625 6.1875 -6.753906 6.6875 -6.234375 C 7.195312 -5.710938 7.453125 -4.988281 7.453125 -4.0625 L 7.453125 0 L 5.703125 0 L 5.703125 -3.8125 C 5.703125 -4.363281 5.5625 -4.785156 5.28125 -5.078125 C 5.007812 -5.378906 4.640625 -5.53125 4.171875 -5.53125 C 3.691406 -5.53125 3.3125 -5.378906 3.03125 -5.078125 C 2.75 -4.785156 2.609375 -4.363281 2.609375 -3.8125 L 2.609375 0 L 0.859375 0 L 0.859375 -6.921875 L 2.609375 -6.921875 L 2.609375 -6.0625 C 2.835938 -6.351562 3.132812 -6.582031 3.5 -6.75 C 3.863281 -6.925781 4.257812 -7.015625 4.6875 -7.015625 Z M 4.6875 -7.015625 "/></g></g></g><g fill="#f652ff" fill-opacity="1"><g transform="translate(81.763791, 54.001256)"><g><path d="M 2.890625 -5.484375 L 2.890625 -2.140625 C 2.890625 -1.898438 2.945312 -1.726562 3.0625 -1.625 C 3.175781 -1.519531 3.367188 -1.46875 3.640625 -1.46875 L 4.4375 -1.46875 L 4.4375 0 L 3.34375 0 C 1.875 0 1.140625 -0.710938 1.140625 -2.140625 L 1.140625 -5.484375 L 0.3125 -5.484375 L 0.3125 -6.921875 L 1.140625 -6.921875 L 1.140625 -8.625 L 2.890625 -8.625 L 2.890625 -6.921875 L 4.4375 -6.921875 L 4.4375 -5.484375 Z M 2.890625 -5.484375 "/></g></g></g><g fill="#f652ff" fill-opacity="1"><g transform="translate(86.608145, 54.001256)"><g><path d="M 7.296875 -3.609375 C 7.296875 -3.359375 7.273438 -3.132812 7.234375 -2.9375 L 2.1875 -2.9375 C 2.226562 -2.4375 2.398438 -2.039062 2.703125 -1.75 C 3.015625 -1.46875 3.394531 -1.328125 3.84375 -1.328125 C 4.488281 -1.328125 4.953125 -1.609375 5.234375 -2.171875 L 7.109375 -2.171875 C 6.910156 -1.503906 6.53125 -0.957031 5.96875 -0.53125 C 5.40625 -0.101562 4.707031 0.109375 3.875 0.109375 C 3.21875 0.109375 2.625 -0.0351562 2.09375 -0.328125 C 1.5625 -0.628906 1.144531 -1.046875 0.84375 -1.578125 C 0.550781 -2.117188 0.40625 -2.742188 0.40625 -3.453125 C 0.40625 -4.171875 0.550781 -4.800781 0.84375 -5.34375 C 1.132812 -5.882812 1.539062 -6.300781 2.0625 -6.59375 C 2.59375 -6.882812 3.195312 -7.03125 3.875 -7.03125 C 4.539062 -7.03125 5.128906 -6.890625 5.640625 -6.609375 C 6.160156 -6.328125 6.566406 -5.925781 6.859375 -5.40625 C 7.148438 -4.882812 7.296875 -4.285156 7.296875 -3.609375 Z M 5.484375 -4.109375 C 5.472656 -4.554688 5.304688 -4.914062 4.984375 -5.1875 C 4.671875 -5.457031 4.285156 -5.59375 3.828125 -5.59375 C 3.398438 -5.59375 3.035156 -5.460938 2.734375 -5.203125 C 2.441406 -4.941406 2.265625 -4.578125 2.203125 -4.109375 Z M 5.484375 -4.109375 "/></g></g></g><g fill="#f652ff" fill-opacity="1"><g transform="translate(94.311675, 54.001256)"><g><path d="M 3.578125 -7.03125 C 4.085938 -7.03125 4.535156 -6.925781 4.921875 -6.71875 C 5.316406 -6.519531 5.628906 -6.257812 5.859375 -5.9375 L 5.859375 -6.921875 L 7.609375 -6.921875 L 7.609375 0.046875 C 7.609375 0.691406 7.476562 1.265625 7.21875 1.765625 C 6.96875 2.265625 6.582031 2.660156 6.0625 2.953125 C 5.550781 3.253906 4.925781 3.40625 4.1875 3.40625 C 3.207031 3.40625 2.40625 3.175781 1.78125 2.71875 C 1.15625 2.257812 0.800781 1.632812 0.71875 0.84375 L 2.453125 0.84375 C 2.535156 1.164062 2.726562 1.421875 3.03125 1.609375 C 3.34375 1.796875 3.710938 1.890625 4.140625 1.890625 C 4.648438 1.890625 5.0625 1.734375 5.375 1.421875 C 5.695312 1.117188 5.859375 0.660156 5.859375 0.046875 L 5.859375 -1.03125 C 5.628906 -0.695312 5.316406 -0.421875 4.921875 -0.203125 C 4.523438 0.00390625 4.078125 0.109375 3.578125 0.109375 C 2.992188 0.109375 2.457031 -0.0351562 1.96875 -0.328125 C 1.488281 -0.628906 1.109375 -1.050781 0.828125 -1.59375 C 0.546875 -2.144531 0.40625 -2.773438 0.40625 -3.484375 C 0.40625 -4.179688 0.546875 -4.800781 0.828125 -5.34375 C 1.109375 -5.882812 1.488281 -6.300781 1.96875 -6.59375 C 2.445312 -6.882812 2.984375 -7.03125 3.578125 -7.03125 Z M 5.859375 -3.453125 C 5.859375 -3.878906 5.773438 -4.242188 5.609375 -4.546875 C 5.441406 -4.847656 5.210938 -5.082031 4.921875 -5.25 C 4.640625 -5.414062 4.335938 -5.5 4.015625 -5.5 C 3.691406 -5.5 3.390625 -5.414062 3.109375 -5.25 C 2.835938 -5.09375 2.617188 -4.863281 2.453125 -4.5625 C 2.285156 -4.257812 2.203125 -3.898438 2.203125 -3.484375 C 2.203125 -3.066406 2.285156 -2.703125 2.453125 -2.390625 C 2.617188 -2.078125 2.84375 -1.835938 3.125 -1.671875 C 3.40625 -1.503906 3.703125 -1.421875 4.015625 -1.421875 C 4.335938 -1.421875 4.640625 -1.5 4.921875 -1.65625 C 5.210938 -1.820312 5.441406 -2.054688 5.609375 -2.359375 C 5.773438 -2.671875 5.859375 -3.035156 5.859375 -3.453125 Z M 5.859375 -3.453125 "/></g></g></g><g fill="#f652ff" fill-opacity="1"><g transform="translate(102.776815, 54.001256)"><g><path d="M 2.609375 -5.84375 C 2.835938 -6.207031 3.128906 -6.492188 3.484375 -6.703125 C 3.847656 -6.910156 4.265625 -7.015625 4.734375 -7.015625 L 4.734375 -5.1875 L 4.265625 -5.1875 C 3.722656 -5.1875 3.3125 -5.054688 3.03125 -4.796875 C 2.75 -4.535156 2.609375 -4.085938 2.609375 -3.453125 L 2.609375 0 L 0.859375 0 L 0.859375 -6.921875 L 2.609375 -6.921875 Z M 2.609375 -5.84375 "/></g></g></g><g fill="#f652ff" fill-opacity="1"><g transform="translate(107.820945, 54.001256)"><g><path d="M 0.40625 -3.484375 C 0.40625 -4.179688 0.546875 -4.800781 0.828125 -5.34375 C 1.109375 -5.882812 1.488281 -6.300781 1.96875 -6.59375 C 2.445312 -6.882812 2.984375 -7.03125 3.578125 -7.03125 C 4.085938 -7.03125 4.535156 -6.925781 4.921875 -6.71875 C 5.304688 -6.507812 5.617188 -6.25 5.859375 -5.9375 L 5.859375 -6.921875 L 7.609375 -6.921875 L 7.609375 0 L 5.859375 0 L 5.859375 -1.015625 C 5.628906 -0.691406 5.316406 -0.421875 4.921875 -0.203125 C 4.523438 0.00390625 4.070312 0.109375 3.5625 0.109375 C 2.976562 0.109375 2.445312 -0.0351562 1.96875 -0.328125 C 1.488281 -0.628906 1.109375 -1.050781 0.828125 -1.59375 C 0.546875 -2.144531 0.40625 -2.773438 0.40625 -3.484375 Z M 5.859375 -3.453125 C 5.859375 -3.878906 5.773438 -4.242188 5.609375 -4.546875 C 5.441406 -4.847656 5.210938 -5.082031 4.921875 -5.25 C 4.640625 -5.414062 4.335938 -5.5 4.015625 -5.5 C 3.691406 -5.5 3.390625 -5.414062 3.109375 -5.25 C 2.835938 -5.09375 2.617188 -4.863281 2.453125 -4.5625 C 2.285156 -4.257812 2.203125 -3.898438 2.203125 -3.484375 C 2.203125 -3.066406 2.285156 -2.703125 2.453125 -2.390625 C 2.617188 -2.078125 2.84375 -1.835938 3.125 -1.671875 C 3.40625 -1.503906 3.703125 -1.421875 4.015625 -1.421875 C 4.335938 -1.421875 4.640625 -1.5 4.921875 -1.65625 C 5.210938 -1.820312 5.441406 -2.054688 5.609375 -2.359375 C 5.773438 -2.671875 5.859375 -3.035156 5.859375 -3.453125 Z M 5.859375 -3.453125 "/></g></g></g><g fill="#f652ff" fill-opacity="1"><g transform="translate(116.286085, 54.001256)"><g><path d="M 0.40625 -3.484375 C 0.40625 -4.179688 0.546875 -4.800781 0.828125 -5.34375 C 1.109375 -5.882812 1.488281 -6.300781 1.96875 -6.59375 C 2.457031 -6.882812 2.992188 -7.03125 3.578125 -7.03125 C 4.023438 -7.03125 4.453125 -6.929688 4.859375 -6.734375 C 5.273438 -6.535156 5.601562 -6.273438 5.84375 -5.953125 L 5.84375 -9.234375 L 7.609375 -9.234375 L 7.609375 0 L 5.84375 0 L 5.84375 -1.03125 C 5.625 -0.6875 5.316406 -0.410156 4.921875 -0.203125 C 4.535156 0.00390625 4.085938 0.109375 3.578125 0.109375 C 2.992188 0.109375 2.457031 -0.0351562 1.96875 -0.328125 C 1.488281 -0.628906 1.109375 -1.050781 0.828125 -1.59375 C 0.546875 -2.144531 0.40625 -2.773438 0.40625 -3.484375 Z M 5.859375 -3.453125 C 5.859375 -3.878906 5.773438 -4.242188 5.609375 -4.546875 C 5.441406 -4.847656 5.210938 -5.082031 4.921875 -5.25 C 4.640625 -5.414062 4.335938 -5.5 4.015625 -5.5 C 3.691406 -5.5 3.390625 -5.414062 3.109375 -5.25 C 2.835938 -5.09375 2.617188 -4.863281 2.453125 -4.5625 C 2.285156 -4.257812 2.203125 -3.898438 2.203125 -3.484375 C 2.203125 -3.066406 2.285156 -2.703125 2.453125 -2.390625 C 2.617188 -2.078125 2.84375 -1.835938 3.125 -1.671875 C 3.40625 -1.503906 3.703125 -1.421875 4.015625 -1.421875 C 4.335938 -1.421875 4.640625 -1.5 4.921875 -1.65625 C 5.210938 -1.820312 5.441406 -2.054688 5.609375 -2.359375 C 5.773438 -2.671875 5.859375 -3.035156 5.859375 -3.453125 Z M 5.859375 -3.453125 "/></g></g></g><g fill="#f652ff" fill-opacity="1"><g transform="translate(124.751225, 54.001256)"><g><path d="M 3.9375 0.109375 C 3.269531 0.109375 2.664062 -0.0351562 2.125 -0.328125 C 1.59375 -0.628906 1.175781 -1.046875 0.875 -1.578125 C 0.570312 -2.117188 0.421875 -2.742188 0.421875 -3.453125 C 0.421875 -4.160156 0.578125 -4.785156 0.890625 -5.328125 C 1.203125 -5.867188 1.628906 -6.285156 2.171875 -6.578125 C 2.710938 -6.878906 3.316406 -7.03125 3.984375 -7.03125 C 4.648438 -7.03125 5.253906 -6.878906 5.796875 -6.578125 C 6.335938 -6.285156 6.765625 -5.867188 7.078125 -5.328125 C 7.390625 -4.785156 7.546875 -4.160156 7.546875 -3.453125 C 7.546875 -2.742188 7.382812 -2.117188 7.0625 -1.578125 C 6.738281 -1.046875 6.300781 -0.628906 5.75 -0.328125 C 5.207031 -0.0351562 4.601562 0.109375 3.9375 0.109375 Z M 3.9375 -1.40625 C 4.25 -1.40625 4.546875 -1.484375 4.828125 -1.640625 C 5.109375 -1.796875 5.332031 -2.023438 5.5 -2.328125 C 5.664062 -2.640625 5.75 -3.015625 5.75 -3.453125 C 5.75 -4.109375 5.570312 -4.613281 5.21875 -4.96875 C 4.875 -5.320312 4.453125 -5.5 3.953125 -5.5 C 3.453125 -5.5 3.035156 -5.320312 2.703125 -4.96875 C 2.367188 -4.613281 2.203125 -4.109375 2.203125 -3.453125 C 2.203125 -2.796875 2.363281 -2.289062 2.6875 -1.9375 C 3.019531 -1.582031 3.4375 -1.40625 3.9375 -1.40625 Z M 3.9375 -1.40625 "/></g></g></g><g fill="#f652ff" fill-opacity="1"><g transform="translate(132.716948, 54.001256)"><g><path d="M 2.609375 -5.84375 C 2.835938 -6.207031 3.128906 -6.492188 3.484375 -6.703125 C 3.847656 -6.910156 4.265625 -7.015625 4.734375 -7.015625 L 4.734375 -5.1875 L 4.265625 -5.1875 C 3.722656 -5.1875 3.3125 -5.054688 3.03125 -4.796875 C 2.75 -4.535156 2.609375 -4.085938 2.609375 -3.453125 L 2.609375 0 L 0.859375 0 L 0.859375 -6.921875 L 2.609375 -6.921875 Z M 2.609375 -5.84375 "/></g></g></g><g fill="#f652ff" fill-opacity="1"><g transform="translate(137.761077, 54.001256)"><g><path d="M 7.296875 -3.609375 C 7.296875 -3.359375 7.273438 -3.132812 7.234375 -2.9375 L 2.1875 -2.9375 C 2.226562 -2.4375 2.398438 -2.039062 2.703125 -1.75 C 3.015625 -1.46875 3.394531 -1.328125 3.84375 -1.328125 C 4.488281 -1.328125 4.953125 -1.609375 5.234375 -2.171875 L 7.109375 -2.171875 C 6.910156 -1.503906 6.53125 -0.957031 5.96875 -0.53125 C 5.40625 -0.101562 4.707031 0.109375 3.875 0.109375 C 3.21875 0.109375 2.625 -0.0351562 2.09375 -0.328125 C 1.5625 -0.628906 1.144531 -1.046875 0.84375 -1.578125 C 0.550781 -2.117188 0.40625 -2.742188 0.40625 -3.453125 C 0.40625 -4.171875 0.550781 -4.800781 0.84375 -5.34375 C 1.132812 -5.882812 1.539062 -6.300781 2.0625 -6.59375 C 2.59375 -6.882812 3.195312 -7.03125 3.875 -7.03125 C 4.539062 -7.03125 5.128906 -6.890625 5.640625 -6.609375 C 6.160156 -6.328125 6.566406 -5.925781 6.859375 -5.40625 C 7.148438 -4.882812 7.296875 -4.285156 7.296875 -3.609375 Z M 5.484375 -4.109375 C 5.472656 -4.554688 5.304688 -4.914062 4.984375 -5.1875 C 4.671875 -5.457031 4.285156 -5.59375 3.828125 -5.59375 C 3.398438 -5.59375 3.035156 -5.460938 2.734375 -5.203125 C 2.441406 -4.941406 2.265625 -4.578125 2.203125 -4.109375 Z M 5.484375 -4.109375 "/></g></g></g><g fill="#f652ff" fill-opacity="1"><g transform="translate(145.464608, 54.001256)"><g><path d="M 3.515625 0.109375 C 2.941406 0.109375 2.429688 0.0078125 1.984375 -0.1875 C 1.535156 -0.394531 1.179688 -0.671875 0.921875 -1.015625 C 0.660156 -1.367188 0.515625 -1.757812 0.484375 -2.1875 L 2.25 -2.1875 C 2.28125 -1.914062 2.410156 -1.691406 2.640625 -1.515625 C 2.867188 -1.347656 3.15625 -1.265625 3.5 -1.265625 C 3.832031 -1.265625 4.09375 -1.328125 4.28125 -1.453125 C 4.46875 -1.585938 4.5625 -1.757812 4.5625 -1.96875 C 4.5625 -2.195312 4.445312 -2.363281 4.21875 -2.46875 C 3.988281 -2.582031 3.625 -2.707031 3.125 -2.84375 C 2.601562 -2.96875 2.175781 -3.097656 1.84375 -3.234375 C 1.519531 -3.367188 1.238281 -3.570312 1 -3.84375 C 0.769531 -4.113281 0.65625 -4.484375 0.65625 -4.953125 C 0.65625 -5.335938 0.765625 -5.6875 0.984375 -6 C 1.203125 -6.320312 1.515625 -6.570312 1.921875 -6.75 C 2.335938 -6.9375 2.828125 -7.03125 3.390625 -7.03125 C 4.210938 -7.03125 4.867188 -6.820312 5.359375 -6.40625 C 5.847656 -6 6.117188 -5.445312 6.171875 -4.75 L 4.5 -4.75 C 4.46875 -5.019531 4.347656 -5.234375 4.140625 -5.390625 C 3.941406 -5.554688 3.671875 -5.640625 3.328125 -5.640625 C 3.015625 -5.640625 2.769531 -5.582031 2.59375 -5.46875 C 2.425781 -5.351562 2.34375 -5.191406 2.34375 -4.984375 C 2.34375 -4.742188 2.457031 -4.5625 2.6875 -4.4375 C 2.925781 -4.320312 3.289062 -4.203125 3.78125 -4.078125 C 4.28125 -3.953125 4.691406 -3.820312 5.015625 -3.6875 C 5.335938 -3.5625 5.617188 -3.359375 5.859375 -3.078125 C 6.097656 -2.796875 6.222656 -2.425781 6.234375 -1.96875 C 6.234375 -1.570312 6.117188 -1.210938 5.890625 -0.890625 C 5.671875 -0.578125 5.351562 -0.332031 4.9375 -0.15625 C 4.53125 0.0195312 4.054688 0.109375 3.515625 0.109375 Z M 3.515625 0.109375 "/></g></g></g></svg>