<svg xmlns="http://www.w3.org/2000/svg" xmlns:xlink="http://www.w3.org/1999/xlink" width="500" zoomAndPan="magnify" viewBox="0 0 375 374.999991" height="500" preserveAspectRatio="xMidYMid meet" version="1.0"><defs><clipPath id="e65eb39c24"><path d="M 49.949219 42.445312 L 325.199219 42.445312 L 325.199219 317.695312 L 49.949219 317.695312 Z M 49.949219 42.445312 " clip-rule="nonzero"/></clipPath></defs><g clip-path="url(#e65eb39c24)"><path fill="#ff914d" d="M 187.5 42.445312 C 111.65625 42.445312 49.949219 104.148438 49.949219 179.992188 C 49.949219 255.839844 111.65625 317.542969 187.5 317.542969 C 263.34375 317.542969 325.046875 255.839844 325.046875 179.992188 C 325.046875 104.148438 263.34375 42.445312 187.5 42.445312 Z M 274.527344 261.335938 C 256.589844 230.6875 223.695312 211.484375 187.496094 211.484375 C 151.304688 211.484375 118.414062 230.6875 100.46875 261.339844 C 80.53125 240.019531 68.289062 211.417969 68.289062 179.992188 C 68.289062 114.261719 121.765625 60.785156 187.5 60.785156 C 253.230469 60.785156 306.707031 114.261719 306.707031 179.992188 C 306.707031 211.417969 294.46875 240.019531 274.527344 261.335938 Z M 274.527344 261.335938 " fill-opacity="1" fill-rule="nonzero"/></g><path fill="#ff914d" d="M 187.5 83.105469 C 156.582031 83.105469 131.429688 108.261719 131.429688 139.179688 C 131.429688 170.097656 156.582031 195.253906 187.5 195.253906 C 218.417969 195.253906 243.574219 170.097656 243.574219 139.179688 C 243.574219 108.261719 218.417969 83.105469 187.5 83.105469 Z M 187.5 83.105469 " fill-opacity="1" fill-rule="nonzero"/></svg>