<svg xmlns="http://www.w3.org/2000/svg" xmlns:xlink="http://www.w3.org/1999/xlink" width="500" zoomAndPan="magnify" viewBox="0 0 375 374.999991" height="500" preserveAspectRatio="xMidYMid meet" version="1.0"><path fill="#ffffff" d="M 194.953125 259.207031 L 194.953125 281.691406 L 214.023438 288.683594 L 214.023438 266.199219 Z M 194.953125 215.324219 L 194.953125 237.804688 L 214.023438 244.796875 L 214.023438 222.316406 Z M 290.183594 189.210938 L 248.296875 216.4375 L 248.296875 328.820312 C 262.539062 330.425781 276.527344 332.59375 290.183594 335.316406 Z M 194.953125 171.46875 L 194.953125 193.921875 L 214.023438 200.917969 L 214.023438 178.460938 Z M 76.046875 165.164062 L 34.136719 192.390625 L 34.136719 348.242188 C 47.535156 343.941406 61.558594 340.222656 76.046875 337.113281 Z M 232.890625 141.527344 L 232.890625 163.976562 L 251.964844 170.972656 L 251.964844 148.523438 Z M 194.953125 127.589844 L 194.953125 150.074219 L 214.023438 157.070312 L 214.023438 134.585938 Z M 232.890625 97.640625 L 232.890625 120.128906 L 251.964844 127.09375 L 251.964844 104.644531 Z M 194.953125 83.714844 L 194.953125 106.195312 L 214.023438 113.1875 L 214.023438 90.703125 Z M 232.890625 53.765625 L 232.890625 76.25 L 251.964844 83.242188 L 251.964844 60.757812 Z M 194.953125 39.832031 L 194.953125 62.316406 L 214.023438 69.304688 L 214.023438 46.824219 Z M 169.640625 18.296875 L 127.734375 45.523438 L 127.734375 328.679688 C 141.550781 327.207031 155.546875 326.230469 169.640625 325.820312 Z M 178.40625 2.078125 L 268.222656 35.023438 L 268.222656 173.917969 L 226.625 200.972656 L 226.625 326.929688 C 230.894531 327.179688 235.199219 327.511719 239.472656 327.878906 L 239.472656 211.65625 L 298.984375 173 L 349.664062 205.949219 L 349.664062 351.101562 C 367.453125 357.269531 383.996094 364.398438 398.976562 372.417969 L -23.980469 372.417969 C -8.996094 364.457031 7.550781 357.355469 25.3125 351.246094 L 25.3125 187.628906 L 84.824219 148.960938 L 118.929688 171.109375 L 118.929688 40.773438 Z M 178.40625 2.078125 " fill-opacity="1" fill-rule="evenodd"/></svg>