<?xml version="1.0" encoding="UTF-8" standalone="no"?>
<svg
   width="500"
   zoomAndPan="magnify"
   viewBox="0 0 375 374.999991"
   height="500"
   preserveAspectRatio="xMidYMid meet"
   version="1.0"
   id="svg1"
   xmlns:xlink="http://www.w3.org/1999/xlink"
   xmlns="http://www.w3.org/2000/svg"
   xmlns:svg="http://www.w3.org/2000/svg">
  <defs
     id="defs1">
    <linearGradient
       id="linearGradient1">
      <stop
         style="stop-color:#ff914d;stop-opacity:1;"
         offset="0"
         id="stop1" />
      <stop
         style="stop-color:#f652ff;stop-opacity:1;"
         offset="1"
         id="stop2" />
    </linearGradient>
    <linearGradient
       xlink:href="#linearGradient1"
       id="linearGradient2"
       x1="254.18178"
       y1="230.7623"
       x2="93.629341"
       y2="135.61775"
       gradientUnits="userSpaceOnUse"
       gradientTransform="matrix(1.2880837,0,0,1.2880837,-57.026727,-57.323133)" />
  </defs>
  <path
     fill="#ffffff"
     d="m 215.46343,34.724537 c -5.58004,0.437765 -10.89337,2.208853 -15.20559,5.071833 -3.50696,2.324595 -7.30565,6.485706 -9.4292,10.329835 -0.26653,0.483031 -0.54799,0.875492 -0.62386,0.875492 -0.0747,0 -0.3721,-0.347174 -0.65398,-0.769838 -0.99123,-1.489337 -3.86461,-4.548535 -5.76628,-6.143559 -6.78253,-5.690708 -14.38029,-8.196435 -23.76414,-7.834165 -4.63397,0.176122 -9.25301,0.483061 -12.70491,0.840283 -9.32829,0.961024 -15.15996,3.617711 -20.0254,9.127277 -1.87684,2.123322 -5.77136,7.939834 -6.87323,10.254354 -0.86039,1.821444 -1.76613,4.800122 -2.03272,6.702059 l -0.1358,0.940908 -1.9171,0.357231 c -10.1286,1.89189 -17.49484,5.273088 -22.174099,10.17888 -1.066744,1.122036 -2.254159,2.561019 -2.631429,3.195074 -2.138421,3.602852 -3.331039,8.191325 -3.331039,12.830513 0,1.811364 0.488045,6.163623 0.820114,7.315873 0.337191,1.157215 0.266733,1.313272 -0.769708,1.731001 -1.962432,0.790072 -5.967484,2.792292 -7.66815,3.833622 -6.405259,3.91506 -10.767638,8.86631 -12.443054,14.1188 -0.89066,2.79263 -1.061692,4.05557 -1.056693,7.93511 0.004,4.00018 0.407601,7.10945 1.313217,10.04795 l 0.392442,1.29302 -0.89567,1.48937 c -1.997501,3.33594 -3.693136,8.54365 -4.357287,13.40915 -0.417516,3.05413 -0.467999,10.30982 -0.09073,13.64051 0.88557,7.84425 3.190005,17.24343 5.444132,22.18902 2.757454,6.04817 9.313616,11.20559 20.428307,16.08127 1.031412,0.44776 1.947227,0.89049 2.037735,0.98148 0.0909,0.0856 -0.04935,1.21712 -0.311966,2.50538 -0.40745,2.02771 -0.472934,2.93847 -0.462874,6.67687 0.01228,4.0306 0.05005,4.47306 0.568685,6.39008 1.655406,6.13818 5.595111,10.92359 12.729987,15.46213 2.82763,1.8014 8.33711,4.48337 12.50333,6.09317 l 3.35091,1.29831 v 1.78594 c 0,3.57262 0.80512,6.58642 2.80258,10.5162 2.24413,4.40251 5.34358,8.47298 8.73968,11.4719 6.7224,5.9373 15.06486,8.99143 25.86754,9.46937 7.98005,0.35245 16.12125,-1.75586 26.17419,-6.78746 2.16866,-1.08177 7.01933,-3.8241 8.92109,-5.04175 l 1.12208,-0.71937 0.9559,0.91559 c 3.1548,3.02401 8.13115,6.36002 12.65454,8.49839 4.9409,2.32457 8.9611,3.22532 14.40545,3.22016 13.88197,-0.008 24.39298,-4.5334 31.92538,-13.74106 2.49555,-3.0493 5.42389,-8.14097 6.45522,-11.22555 0.62912,-1.88162 1.15742,-5.34848 1.15742,-7.56741 v -1.65036 l 3.37117,-1.14224 c 8.97125,-3.03904 15.58275,-6.87294 18.99923,-11.01937 2.04284,-2.47526 3.16486,-5.27289 3.94489,-9.83659 0.58351,-3.44663 0.45768,-11.76373 -0.24672,-16.07575 -0.0954,-0.59381 0.004,-0.68902 2.73216,-2.5158 3.93472,-2.63664 6.93854,-5.072 9.8669,-7.98522 5.34364,-5.32836 7.59771,-9.67065 7.85442,-15.16006 0.1508,-3.25547 -0.34729,-6.03796 -1.71085,-9.52981 l -0.37736,-0.97616 0.74962,-1.39375 c 0.40763,-0.76473 1.11719,-2.36481 1.56492,-3.55741 5.42897,-14.38014 5.95228,-26.91881 1.68054,-40.29785 -3.89449,-12.18136 -9.80661,-19.70359 -19.35139,-24.60947 l -2.02279,-1.036333 0.36729,-1.11219 c 1.57993,-4.789969 0.87059,-9.700715 -2.58102,-17.88215 -3.10468,-7.36138 -10.65196,-12.000302 -21.02706,-12.921048 l -1.65032,-0.145932 -0.0501,-1.232727 c -0.14592,-3.376176 -1.05694,-7.255514 -2.3245,-9.897107 -0.6644,-1.378667 -4.23173,-6.89829 -5.721,-8.835449 -1.29817,-1.700674 -3.40638,-3.758583 -5.02653,-4.915826 -4.80521,-3.431571 -10.05805,-4.583799 -24.69526,-5.41401 -5.75584,-0.327051 -6.79738,-0.337109 -9.79106,-0.10035 m 0.0293,10.938651 c -6.11865,0.649065 -10.99914,3.532162 -14.25972,8.42788 -1.50952,2.269239 -2.30922,3.934701 -3.25055,6.772511 l -0.65887,1.992534 0.0118,14.324943 c 0.004,7.873979 0.0849,22.908383 0.17619,33.404263 l 0.17088,19.07475 2.39543,0.99112 c 6.78766,2.79762 13.10727,6.7675 16.63441,10.44573 2.83778,2.96348 4.26662,5.39377 5.19755,8.82536 0.50321,1.83649 0.53831,2.27413 0.53831,6.40001 0,4.18635 -0.0345,4.6041 -0.65407,7.52234 -0.74471,3.52708 -1.61009,6.24418 -2.38497,7.47186 -1.81138,2.86796 -5.64037,3.38116 -7.95487,1.06661 -1.84162,-1.84658 -1.9371,-3.64278 -0.44279,-8.28175 2.2187,-6.8783 1.88676,-11.95525 -1.00662,-15.29103 -1.18726,-1.37376 -3.24008,-3.0644 -5.36332,-4.43295 -2.00263,-1.283 -6.56629,-3.61227 -6.7374,-3.44155 -0.1,0.1 0.16115,32.93665 0.74476,94.84028 l 0.17578,18.34514 1.62044,1.52946 c 4.1159,3.89447 8.82024,7.00899 12.89599,8.53858 2.7522,1.03644 4.98129,1.41381 8.30202,1.39884 9.45935,-0.0393 16.11104,-2.42509 21.34376,-7.64812 2.83809,-2.83274 5.76641,-7.45675 6.6016,-10.41529 0.43268,-1.52971 0.37235,-7.26027 -0.1,-9.89206 -0.5484,-3.02927 -2.04293,-8.00002 -2.9939,-9.92218 -1.59002,-3.23034 -2.13341,-4.81024 -2.15353,-6.25923 -0.0177,-1.72571 0.34218,-2.73214 1.3836,-3.86444 1.21775,-1.31817 2.22413,-1.78583 3.84431,-1.78583 1.81124,0 2.7219,0.35686 3.88928,1.51912 1.4945,1.49451 3.10447,5.16752 5.09192,11.61292 0.69443,2.24908 0.78502,2.41494 1.1926,2.29437 3.93458,-1.20765 9.68569,-3.81882 12.29723,-5.58993 2.90804,-1.9725 3.58746,-2.94353 4.26664,-6.09328 0.6742,-3.11471 0.35235,-13.04181 -0.52838,-16.33257 -0.20106,-0.75975 -3.8491,-3.56732 -9.61523,-7.40619 -6.5562,-4.36269 -11.69847,-7.13508 -15.54757,-8.37284 -3.42144,-1.10201 -8.23677,-1.20757 -12.76511,-0.27669 -6.54612,1.3484 -12.62425,5.47422 -16.36775,11.11979 -3.10947,4.69439 -3.98021,7.87442 -3.45171,12.66457 0.35732,3.27548 0.77995,4.83019 1.97741,7.32046 1.88185,3.91506 2.40529,5.39919 2.51592,7.16536 0.12518,1.9925 -0.27176,3.15983 -1.49473,4.37754 -2.19353,2.19882 -5.90181,2.03274 -8.06026,-0.35732 -1.66555,-1.84151 -4.11578,-8.16629 -5.13234,-13.24784 -1.55989,-7.77906 -0.96098,-13.64084 1.9874,-19.53293 4.66443,-9.31841 12.14129,-15.83429 21.91766,-19.09472 4.34209,-1.44914 6.62182,-1.76622 12.57393,-1.76622 4.90064,0 5.25307,0.0238 7.2151,0.53855 7.26573,1.90173 18.25488,8.03553 28.47396,15.88489 l 2.0931,1.60972 2.33462,-1.67051 c 6.66675,-4.75973 10.91337,-9.1527 11.82412,-12.21655 0.26173,-0.88541 0.44285,-3.83908 0.23144,-3.83908 -0.0392,0 -1.24295,0.55851 -2.6717,1.24279 -6.13854,2.93339 -16.02051,5.32339 -18.82313,4.5535 -2.38993,-0.66402 -4.19623,-2.96354 -4.19112,-5.35351 0.004,-2.28442 1.50429,-4.30709 3.85899,-5.18255 0.60892,-0.23149 2.5309,-0.59885 4.2668,-0.8202 7.70333,-0.97588 15.09987,-4.75476 17.52501,-8.95612 1.23779,-2.13838 3.3409,-9.06697 4.26677,-14.03317 0.67415,-3.61744 0.67415,-10.40017 -0.004,-14.18396 -0.83523,-4.68948 -2.33995,-9.56506 -4.16113,-13.47948 -2.32937,-5.02665 -6.38499,-9.34376 -11.02415,-11.73371 -2.58095,-1.33341 -2.33963,-1.35855 -4.27674,0.46796 -3.5624,3.3611 -10.75245,8.19102 -15.47204,10.39989 -1.22789,0.57365 -1.55485,0.64433 -2.61156,0.54885 -3.02403,-0.27644 -5.02136,-2.41513 -5.03662,-5.40895 -0.0117,-2.7423 0.85007,-3.73379 5.66072,-6.45564 4.14089,-2.34966 7.52712,-4.73464 9.88692,-6.97367 l 1.77112,-1.680721 1.33338,-3.15967 c 1.32292,-3.144725 1.32833,-3.174783 1.32833,-5.122016 -0.004,-1.72092 -0.0954,-2.229085 -0.77994,-4.206528 -1.23774,-3.60251 -2.28436,-5.650397 -3.44162,-6.737321 -1.37344,-1.287903 -3.43135,-2.329478 -5.86176,-2.958506 -1.76602,-0.457901 -5.63536,-1.051581 -5.79618,-0.890379 -0.0292,0.0345 -0.34713,1.494051 -0.69953,3.250229 -0.88063,4.392507 -2.06285,9.021503 -3.21018,12.568789 -1.69563,5.243207 -2.26913,6.20891 -4.24662,7.200147 -2.33979,1.167386 -4.75487,0.689276 -6.48566,-1.277884 -1.68568,-1.912177 -1.74102,-3.572568 -0.27176,-7.773862 1.479,-4.231409 1.90179,-5.650383 2.73722,-9.273254 1.43896,-6.208908 1.98738,-10.35988 1.98233,-14.983774 -0.004,-4.991274 -0.32194,-5.912056 -3.82903,-11.185139 -3.11431,-4.689427 -4.72952,-6.078149 -8.12604,-6.993899 -3.24533,-0.875488 -6.76236,-1.278015 -15.42705,-1.771118 -5.88668,-0.337112 -6.71686,-0.342142 -9.16698,-0.08554 m -59.59406,1.640284 c -14.86821,0.880521 -18.22938,2.299441 -23.16038,9.781381 -3.30073,5.001398 -3.7385,6.380057 -3.7385,11.804083 0,5.720805 1.32833,13.127372 3.49698,19.512504 1.01142,2.978637 0.74978,4.97115 -0.88059,6.676928 -1.43393,1.499339 -3.7937,2.073069 -5.64035,1.368508 -1.14704,-0.43769 -2.63151,-1.745848 -3.14472,-2.767425 -0.39235,-0.779835 -1.81139,-4.956024 -1.97244,-5.796334 -0.055,-0.276627 -0.41772,-1.89183 -0.81,-3.592614 -0.74994,-3.240253 -1.55964,-7.642921 -1.55964,-8.478182 0,-0.628814 -0.24671,-0.623826 -3.03924,0.02971 -2.81769,0.659225 -6.33976,1.816451 -8.19137,2.691906 -6.17881,2.90835 -8.412767,6.561224 -8.065467,13.177697 0.150778,2.863046 0.523262,4.8304 0.955997,5.081983 0.17111,0.0957 3.41628,1.458956 7.21004,3.028986 8.20671,3.396291 15.79419,6.893371 19.12504,8.810251 1.32837,0.75978 2.56124,1.37869 2.74731,1.3686 0.66913,-0.0398 4.68929,-1.37857 7.39653,-2.46047 5.93209,-2.37484 10.27432,-5.15732 12.80516,-8.206422 2.80765,-3.375894 4.53837,-9.856814 3.9197,-14.672128 -0.35729,-2.797523 -0.30171,-4.543446 0.19119,-5.630363 0.85031,-1.871654 2.49559,-3.059151 4.50321,-3.240246 3.42191,-0.30698 5.69073,1.982558 6.18885,6.229019 0.7246,6.219135 -0.52844,14.007913 -3.06911,19.08484 -2.10847,4.22141 -5.88212,8.35231 -10.31994,11.30077 -2.93826,1.9524 -8.43284,4.69948 -12.02043,6.01285 -2.34452,0.8553 -2.43018,0.91056 -2.31954,1.4139 0.0651,0.28664 0.23156,1.24777 0.36733,2.13344 0.64912,4.13078 -1.27295,8.78506 -5.29313,12.82038 -2.98885,3.00383 -6.5009,4.89574 -13.57553,7.30577 -4.4274,1.51464 -7.40147,2.79747 -8.96589,3.86939 -1.55485,1.06648 -3.15508,2.78237 -3.70308,3.97 -1.06192,2.28925 -0.77507,7.58754 0.56323,10.58142 1.13709,2.5256 1.71579,4.65913 1.59505,5.87169 -0.28678,2.91827 -2.62144,5.02151 -5.60521,5.04667 -3.179814,0.0285 -4.950927,-2.1284 -6.666794,-8.11583 -1.137158,-3.97021 -1.35883,-5.52475 -1.343455,-9.57014 0.008,-3.11457 0.07955,-3.96491 0.447735,-5.29326 1.766327,-6.41023 6.516104,-11.23046 14.254584,-14.46558 1.19746,-0.50329 3.9396,-1.5348 6.09354,-2.29454 5.60996,-1.97732 7.45626,-2.90827 9.15205,-4.60395 1.35346,-1.34828 2.28951,-2.84785 2.28951,-3.66802 0,-0.44266 -1.19764,-2.52576 -2.10296,-3.65787 -1.05193,-1.3182 -8.41309,-4.77008 -23.12032,-10.85326 l -2.862919,-1.1823 -1.6757,0.56858 c -6.183803,2.09812 -11.960097,5.28816 -14.903534,8.23136 -2.309427,2.30988 -3.290498,4.51862 -3.496885,7.86455 -0.130805,2.12343 0.0704,5.13725 0.342149,5.13725 0.08985,0 0.800086,-0.3871 1.579816,-0.86043 3.406259,-2.07292 10.294651,-5.05162 12.760134,-5.5145 3.230278,-0.60383 6.254245,1.88683 6.269518,5.16224 0.004,1.24303 -0.36742,2.54607 -0.96639,3.38147 -0.538195,0.74973 -2.233758,1.81633 -3.768533,2.36448 -4.769871,1.706 -8.573727,3.68342 -13.489572,7.01423 -2.017798,1.36862 -2.827748,2.04774 -3.235292,2.71218 -1.534584,2.50568 -2.475596,5.31837 -3.089448,9.23785 -0.387306,2.44508 -0.32695,9.48446 0.105642,12.88088 0.83522,6.49072 3.169888,15.36639 4.769828,18.13883 0.634134,1.09686 2.510641,2.89293 4.473294,4.29188 2.822524,2.00741 8.946097,5.20273 12.639556,6.60146 l 1.45383,0.54841 9.776056,-4.76996 c 5.37901,-2.62144 11.25593,-5.47932 13.05217,-6.34471 l 3.27552,-1.58025 0.0504,-23.27599 0.49308,-1.08664 c 0.57357,-1.27299 2.00278,-2.62652 3.08941,-2.92826 1.18244,-0.32744 3.11963,-0.24668 4.0454,0.176 1.0214,0.463 2.03264,1.44902 2.63152,2.57593 0.45285,0.8405 0.45775,0.98135 0.55865,12.27733 l 0.10464,11.42669 4.84019,1.57496 c 5.22802,1.70048 7.79446,2.70188 9.89734,3.85913 8.35237,4.59888 13.58019,11.49211 15.95508,21.04719 0.86548,3.48688 1.04662,5.37863 1.04156,10.84787 -0.008,6.03295 -0.30687,8.24682 -1.38852,10.41043 -1.0567,2.1132 -3.12474,3.26558 -5.43419,3.02899 -1.82152,-0.18636 -3.45176,-1.32854 -4.31216,-3.02899 -0.56846,-1.12208 -0.60897,-3.26049 -0.11534,-6.11334 1.06143,-6.13345 0.20611,-12.94633 -2.24427,-17.79662 -1.47427,-2.92363 -3.14451,-4.94623 -5.63037,-6.82805 -2.71697,-2.05289 -5.59004,-3.28046 -14.30462,-6.11818 l -3.13974,-1.01647 -13.4546,6.58129 c -7.39631,3.61757 -13.56004,6.72219 -13.6958,6.89822 -0.37229,0.48783 -1.26808,4.47315 -1.49436,6.63166 -0.3573,3.45172 0.27171,6.62157 1.74588,8.85052 2.22397,3.35106 7.80403,7.07951 15.16501,10.13352 1.66074,0.68947 3.10462,1.24806 3.21025,1.24806 0.10521,0 0.3623,-0.53345 0.56866,-1.18248 0.58365,-1.86177 2.10823,-5.3385 3.24033,-7.40147 1.79112,-3.25548 3.39129,-4.47838 5.8367,-4.45807 3.01383,0.0232 5.2076,2.04284 5.41396,4.99146 0.12098,1.761 -0.29686,2.9583 -2.29955,6.51577 -3.22007,5.72584 -4.57351,13.12241 -3.18499,17.40926 0.80508,2.49568 3.47177,6.68177 5.90202,9.27821 4.85049,5.18257 11.39158,7.79393 20.46346,8.17643 3.53717,0.14583 6.04827,-0.12109 9.46452,-1.00135 5.29314,-1.36862 13.37859,-5.16235 19.84946,-9.32359 l 1.1974,-0.76971 -0.12542,-9.41429 c -0.13092,-9.67564 -0.92597,-98.12065 -0.92597,-102.74953 v -2.57638 l -1.8062,0.71959 c -5.29821,2.11841 -10.11857,4.99121 -12.7451,7.58756 -2.7371,2.712 -3.29568,4.42779 -3.09455,9.48933 0.13601,3.47211 0.3827,4.90086 1.44931,8.40794 1.14719,3.78365 0.95588,5.69585 -0.72955,7.29577 -1.88692,1.78629 -4.8201,1.75628 -6.64674,-0.0704 -1.26808,-1.26805 -2.15356,-3.81904 -3.13962,-9.04186 -0.53345,-2.81262 -0.58383,-3.50202 -0.58383,-7.62284 0.004,-4.23639 0.0394,-4.6642 0.54346,-6.51095 0.95104,-3.50194 2.49599,-5.99257 5.5549,-8.96623 4.28688,-4.15636 10.88832,-7.9246 18.80273,-10.7273 l 2.24438,-0.79495 -0.13091,-16.38784 c -0.0752,-9.01157 -0.19107,-23.432105 -0.26162,-32.051149 l -0.12548,-15.663357 -0.72958,-1.338401 c -0.94089,-1.720811 -4.14089,-6.536033 -5.42407,-8.161213 -2.34464,-2.958587 -6.19892,-5.897008 -9.33865,-7.114649 -3.64281,-1.408861 -7.95483,-1.816396 -14.85822,-1.408861 m 190.5457,2.062841 c -7.74348,2.928387 -28.24216,10.56128 -37.20337,13.856962 -3.36131,1.232754 -4.2768,1.922067 -4.52841,3.401363 -0.19115,1.137133 0.5082,2.641565 1.48939,3.20011 1.30315,0.744671 1.86665,0.598744 11.48708,-3.013951 5.73591,-2.148487 11.47212,-4.291942 17.21305,-6.425329 14.81796,-5.494476 19.26589,-7.180044 19.72377,-7.476923 0.53335,-0.342144 1.29826,-1.826464 1.29826,-2.52081 0,-0.719532 -0.74981,-2.10824 -1.37873,-2.566111 -0.32705,-0.236491 -0.97615,-0.422657 -1.595,-0.462895 -0.90569,-0.0554 -1.77116,0.211311 -6.50599,2.007584 m -333.168729,1.81705 c -1.358529,0.840312 -1.932134,2.153544 -1.529569,3.507019 0.472937,1.569843 0.925772,1.816415 9.051773,4.835366 11.019151,4.09571 28.061102,10.440478 33.389542,12.432981 3.06926,1.147273 4.93597,1.735982 5.514611,1.74103 2.847874,0.02991 4.176189,-3.366184 2.078046,-5.318419 -0.276599,-0.256684 -3.713152,-1.660495 -8.005083,-3.26556 C 13.802799,50.166444 15.533654,50.795377 14.562567,50.800394 c -0.367298,0 -0.950969,0.171105 -1.288071,0.382422 M 219.48363,74.886592 c -2.42025,0.789928 -3.44165,2.198627 -5.71088,7.859391 -1.56009,3.884312 -2.13833,6.18879 -2.26927,9.071874 -0.0963,1.992489 -0.0391,2.656595 0.32712,4.120862 1.42887,5.645441 5.96234,11.069441 12.29199,14.697241 1.86179,1.0715 4.64939,2.21891 9.83167,4.06048 4.40281,1.55982 7.38152,2.98867 8.6695,4.15089 0.88053,0.80023 1.0213,1.06177 1.38378,2.50077 0.67924,2.70187 0.89047,5.76117 0.76947,11.03942 -0.11536,4.98613 -0.31161,6.70197 -1.31297,11.67316 -0.7446,3.6732 -0.74944,5.44912 -0.0238,6.82788 0.99116,1.89191 2.76743,2.9636 4.92078,2.9636 1.44408,0 2.29942,-0.31725 3.35116,-1.24284 1.63021,-1.42892 1.97233,-2.47547 2.98868,-9.16743 0.98633,-6.4807 1.1269,-8.48338 0.99639,-14.20417 -0.20645,-9.45437 -1.39386,-13.84189 -4.66933,-17.28852 -2.8479,-3.00391 -5.97262,-4.81509 -11.96506,-6.9537 -9.54493,-3.40127 -11.75382,-4.5938 -14.54642,-7.864301 -2.79744,-3.275589 -2.83265,-5.600099 -0.18092,-10.984034 0.72417,-1.474102 1.51914,-3.376352 1.7611,-4.226449 0.39749,-1.373616 0.41736,-1.675468 0.20083,-2.73214 -0.3167,-1.519445 -1.3029,-2.973541 -2.5307,-3.728333 -0.76985,-0.478026 -1.27291,-0.618928 -2.36987,-0.674177 -0.7698,-0.0349 -1.6301,0.004 -1.91199,0.100063 M 3.1760187,137.14719 c -0.9861984,0.40744 -1.9572627,1.91203 -1.9572627,3.01897 0,0.79506 0.7748768,2.11825 1.499423,2.56096 0.6490942,0.39753 1.2025475,0.4026 24.544022,0.40755 23.673555,0 23.88991,-0.004 24.564149,-0.4227 0.382402,-0.23639 0.875516,-0.82503 1.127082,-1.33823 0.543382,-1.12707 0.417623,-2.27939 -0.357247,-3.20017 -1.096875,-1.30308 0.578637,-1.22259 -25.349082,-1.21257 -13.011661,0.008 -23.8446373,0.0915 -24.0710843,0.18619 m 320.5969313,-0.0497 c -0.47798,0.17118 -1.44909,1.1323 -1.77105,1.75107 -0.64412,1.23268 -0.12556,2.94843 1.15727,3.82401 l 0.6792,0.46792 24.03081,-0.0549 c 23.65856,-0.0555 24.03586,-0.0606 24.59428,-0.46805 0.30712,-0.22632 0.75483,-0.80511 0.99638,-1.28798 0.53332,-1.07672 0.39754,-2.24416 -0.36735,-3.1547 -1.09709,-1.30326 0.5786,-1.22771 -25.34896,-1.20756 -13.01682,0.008 -23.79947,0.0648 -23.97058,0.13059 m -13.86199,70.17041 c -1.01637,0.60403 -1.69061,1.94738 -1.53973,3.07932 0.23162,1.70101 0.44797,1.84161 9.35383,6.00274 20.16678,9.41399 29.62603,13.58494 31.09008,13.70092 1.27265,0.10036 2.2643,-0.36226 2.94852,-1.38358 0.40245,-0.5938 0.47296,-0.91582 0.40245,-1.81163 -0.18615,-2.29424 1.16234,-1.58489 -27.36183,-14.36493 -14.01781,-6.27955 -13.45432,-6.08327 -14.89332,-5.22284 m -254.592724,2.62092 c -2.264202,1.00138 -7.275692,3.23551 -11.129849,4.96123 -3.85418,1.73084 -8.256794,3.70332 -9.786424,4.38244 -7.859296,3.48692 -13.439321,6.14865 -14.088379,6.72701 -1.494403,1.31846 -1.257909,3.75385 0.47294,4.92117 1.378657,0.93075 2.29438,0.66911 10.626695,-3.03415 5.388823,-2.39999 12.493402,-5.64047 17.927508,-8.18631 2.042822,-0.95562 5.650469,-2.63655 8.02538,-3.73373 2.389974,-1.10661 4.563627,-2.24882 4.875603,-2.56091 0.714445,-0.71432 1.091825,-1.83132 0.920828,-2.74201 -0.251585,-1.3538 -1.756102,-2.57618 -3.149842,-2.56109 -0.311938,0.004 -2.425179,0.82508 -4.69446,1.82635 m 87.745584,70.62312 c -1.52447,0.41278 -2.23422,0.82013 -3.33086,1.91703 -1.42401,1.42386 -1.96219,2.67681 -1.96219,4.56869 0,2.36974 0.92577,4.01519 3.04401,5.4243 2.2288,1.47902 -1.69583,1.37337 51.4932,1.37337 52.0919,-0.004 48.74103,0.0699 50.76852,-1.11698 1.90193,-1.11698 3.4065,-3.54232 3.4065,-5.49434 0,-3.14496 -2.03289,-5.69597 -5.32849,-6.69714 -1.43907,-0.43266 -96.46534,-0.41266 -98.09069,0.0242 m 6.89838,16.26208 c -1.77123,0.63389 -3.36609,2.18386 -3.99014,3.8894 -0.35203,0.9509 -0.32693,3.00889 0.0499,4.12087 0.42291,1.23774 1.82153,2.78748 3.09958,3.44172 l 1.00633,0.51309 41.93819,0.0555 c 47.29199,0.0547 43.01506,0.21122 45.01236,-1.61534 1.42903,-1.30306 2.01775,-2.63169 2.01775,-4.5283 0,-2.3447 -1.32364,-4.46789 -3.47173,-5.56478 l -0.99125,-0.50831 -41.94334,-0.0387 c -34.89881,-0.0347 -42.07413,0 -42.72795,0.23646 m 8.614,14.47094 c -0.96101,0.50286 -2.17336,1.7409 -2.59639,2.64648 -0.41768,0.9057 -0.49806,2.48057 -0.18116,3.62274 0.28165,1.02644 1.5096,2.37981 2.6919,2.98369 l 1.00135,0.50319 h 66.15524 l 1.09184,-0.59371 c 3.779,-2.06304 3.74353,-7.06959 -0.0608,-8.99643 l -1.00115,-0.5083 -33.23872,0.008 c -29.8422,0.004 -33.30366,0.0399 -33.86244,0.33206 m 10.5211,11.93991 c -1.65046,0.60873 -2.56084,2.10331 -2.25937,3.70824 0.74467,3.97522 11.14504,10.77771 19.80442,12.96132 5.97273,1.50459 12.37265,0.11546 19.60805,-4.25666 3.9347,-2.37482 8.29688,-6.19888 9.16747,-8.03053 0.72955,-1.53966 0.28687,-3.38115 -1.01623,-4.23646 -0.53847,-0.35217 -1.74604,-0.37239 -22.52661,-0.40734 -18.82812,-0.0348 -22.07843,0.004 -22.77773,0.26143"
     fill-opacity="1"
     fill-rule="evenodd"
     id="path1"
     style="fill:url(#linearGradient2);fill-opacity:1;stroke-width:1.28817" />
</svg>
