<svg xmlns="http://www.w3.org/2000/svg" xmlns:xlink="http://www.w3.org/1999/xlink" width="500" zoomAndPan="magnify" viewBox="0 0 375 374.999991" height="500" preserveAspectRatio="xMidYMid meet" version="1.0"><path fill="#ffffff" d="M 211.546875 71.460938 C 207.214844 71.800781 203.089844 73.175781 199.742188 75.398438 C 197.019531 77.203125 194.070312 80.433594 192.421875 83.417969 C 192.214844 83.792969 191.996094 84.097656 191.9375 84.097656 C 191.878906 84.097656 191.648438 83.828125 191.429688 83.5 C 190.660156 82.34375 188.429688 79.96875 186.953125 78.730469 C 181.6875 74.3125 175.789062 72.367188 168.503906 72.648438 C 164.90625 72.785156 161.320312 73.023438 158.640625 73.300781 C 151.398438 74.046875 146.871094 76.109375 143.09375 80.386719 C 141.636719 82.035156 138.613281 86.550781 137.757812 88.347656 C 137.089844 89.761719 136.386719 92.074219 136.179688 93.550781 L 136.074219 94.28125 L 134.585938 94.558594 C 126.722656 96.027344 121.003906 98.652344 117.371094 102.460938 C 116.542969 103.332031 115.621094 104.449219 115.328125 104.941406 C 113.667969 107.738281 112.742188 111.300781 112.742188 114.902344 C 112.742188 116.308594 113.121094 119.6875 113.378906 120.582031 C 113.640625 121.480469 113.585938 121.601562 112.78125 121.925781 C 111.257812 122.539062 108.148438 124.09375 106.828125 124.902344 C 101.855469 127.941406 98.46875 131.785156 97.167969 135.863281 C 96.476562 138.03125 96.34375 139.011719 96.347656 142.023438 C 96.351562 145.128906 96.664062 147.542969 97.367188 149.824219 L 97.671875 150.828125 L 96.976562 151.984375 C 95.425781 154.574219 94.109375 158.617188 93.59375 162.394531 C 93.269531 164.765625 93.230469 170.398438 93.523438 172.984375 C 94.210938 179.074219 96 186.371094 97.75 190.210938 C 99.890625 194.90625 104.980469 198.910156 113.609375 202.695312 C 114.410156 203.042969 115.121094 203.386719 115.191406 203.457031 C 115.261719 203.523438 115.152344 204.402344 114.949219 205.402344 C 114.632812 206.976562 114.582031 207.683594 114.589844 210.585938 C 114.601562 213.714844 114.628906 214.058594 115.03125 215.546875 C 116.316406 220.3125 119.375 224.027344 124.914062 227.550781 C 127.109375 228.949219 131.386719 231.03125 134.621094 232.28125 L 137.222656 233.289062 L 137.222656 234.675781 C 137.222656 237.449219 137.847656 239.789062 139.398438 242.839844 C 141.140625 246.257812 143.546875 249.417969 146.183594 251.746094 C 151.402344 256.355469 157.878906 258.726562 166.265625 259.097656 C 172.460938 259.371094 178.78125 257.734375 186.585938 253.828125 C 188.269531 252.988281 192.035156 250.859375 193.511719 249.914062 L 194.382812 249.355469 L 195.125 250.066406 C 197.574219 252.414062 201.4375 255.003906 204.949219 256.664062 C 208.785156 258.46875 211.90625 259.167969 216.132812 259.164062 C 226.910156 259.15625 235.070312 255.644531 240.917969 248.496094 C 242.855469 246.128906 245.128906 242.175781 245.929688 239.78125 C 246.417969 238.320312 246.828125 235.628906 246.828125 233.90625 L 246.828125 232.625 L 249.445312 231.738281 C 256.410156 229.378906 261.542969 226.402344 264.195312 223.183594 C 265.78125 221.261719 266.652344 219.089844 267.257812 215.546875 C 267.710938 212.871094 267.613281 206.414062 267.066406 203.066406 C 266.992188 202.605469 267.070312 202.53125 269.1875 201.113281 C 272.242188 199.066406 274.574219 197.175781 276.847656 194.914062 C 280.996094 190.777344 282.746094 187.40625 282.945312 183.144531 C 283.0625 180.617188 282.675781 178.457031 281.617188 175.746094 L 281.324219 174.988281 L 281.90625 173.90625 C 282.222656 173.3125 282.773438 172.070312 283.121094 171.144531 C 287.335938 159.980469 287.742188 150.246094 284.425781 139.859375 C 281.402344 130.402344 276.8125 124.5625 269.402344 120.753906 L 267.832031 119.949219 L 268.117188 119.085938 C 269.34375 115.367188 268.792969 111.554688 266.113281 105.203125 C 263.703125 99.488281 257.84375 95.886719 249.789062 95.171875 L 248.507812 95.058594 L 248.46875 94.101562 C 248.355469 91.480469 247.648438 88.46875 246.664062 86.417969 C 246.148438 85.347656 243.378906 81.0625 242.222656 79.558594 C 241.214844 78.238281 239.578125 76.640625 238.320312 75.742188 C 234.589844 73.078125 230.511719 72.183594 219.148438 71.539062 C 214.679688 71.285156 213.871094 71.277344 211.546875 71.460938 M 211.570312 79.953125 C 206.820312 80.457031 203.03125 82.695312 200.5 86.496094 C 199.328125 88.257812 198.707031 89.550781 197.976562 91.753906 L 197.464844 93.300781 L 197.476562 104.421875 C 197.480469 110.535156 197.542969 122.207031 197.613281 130.355469 L 197.746094 145.164062 L 199.605469 145.933594 C 204.875 148.105469 209.78125 151.1875 212.519531 154.042969 C 214.722656 156.34375 215.832031 158.230469 216.554688 160.894531 C 216.945312 162.320312 216.972656 162.660156 216.972656 165.863281 C 216.972656 169.113281 216.945312 169.4375 216.464844 171.703125 C 215.886719 174.441406 215.214844 176.550781 214.613281 177.503906 C 213.207031 179.730469 210.234375 180.128906 208.4375 178.332031 C 207.007812 176.898438 206.933594 175.503906 208.09375 171.902344 C 209.816406 166.5625 209.558594 162.621094 207.3125 160.03125 C 206.390625 158.964844 204.796875 157.652344 203.148438 156.589844 C 201.59375 155.59375 198.050781 153.785156 197.917969 153.917969 C 197.839844 153.996094 198.042969 179.488281 198.496094 227.546875 L 198.632812 241.789062 L 199.890625 242.976562 C 203.085938 246 206.738281 248.417969 209.902344 249.605469 C 212.039062 250.410156 213.769531 250.703125 216.347656 250.691406 C 223.691406 250.660156 228.855469 248.808594 232.917969 244.753906 C 235.121094 242.554688 237.394531 238.964844 238.042969 236.667969 C 238.378906 235.480469 238.332031 231.03125 237.964844 228.988281 C 237.539062 226.636719 236.378906 222.777344 235.640625 221.285156 C 234.40625 218.777344 233.984375 217.550781 233.96875 216.425781 C 233.953125 215.085938 234.234375 214.304688 235.042969 213.425781 C 235.988281 212.402344 236.769531 212.039062 238.027344 212.039062 C 239.433594 212.039062 240.140625 212.316406 241.046875 213.21875 C 242.207031 214.378906 243.457031 217.230469 245 222.234375 C 245.539062 223.980469 245.609375 224.109375 245.925781 224.015625 C 248.980469 223.078125 253.445312 221.050781 255.472656 219.675781 C 257.730469 218.144531 258.257812 217.390625 258.785156 214.945312 C 259.308594 212.527344 259.058594 204.820312 258.375 202.265625 C 258.21875 201.675781 255.386719 199.496094 250.910156 196.515625 C 245.820312 193.128906 241.828125 190.976562 238.839844 190.015625 C 236.183594 189.160156 232.445312 189.078125 228.929688 189.800781 C 223.847656 190.847656 219.128906 194.050781 216.222656 198.433594 C 213.808594 202.078125 213.132812 204.546875 213.542969 208.265625 C 213.820312 210.808594 214.148438 212.015625 215.078125 213.949219 C 216.539062 216.988281 216.945312 218.140625 217.03125 219.511719 C 217.128906 221.058594 216.820312 221.964844 215.871094 222.910156 C 214.167969 224.617188 211.289062 224.488281 209.613281 222.632812 C 208.320312 221.203125 206.417969 216.292969 205.628906 212.347656 C 204.417969 206.308594 204.882812 201.757812 207.171875 197.183594 C 210.792969 189.949219 216.597656 184.890625 224.1875 182.359375 C 227.558594 181.234375 229.328125 180.988281 233.949219 180.988281 C 237.753906 180.988281 238.027344 181.007812 239.550781 181.40625 C 245.191406 182.882812 253.722656 187.644531 261.65625 193.738281 L 263.28125 194.988281 L 265.09375 193.691406 C 270.269531 189.996094 273.566406 186.585938 274.273438 184.207031 C 274.476562 183.519531 274.617188 181.226562 274.453125 181.226562 C 274.421875 181.226562 273.488281 181.660156 272.378906 182.191406 C 267.613281 184.46875 259.941406 186.324219 257.765625 185.726562 C 255.910156 185.210938 254.507812 183.425781 254.511719 181.570312 C 254.515625 179.796875 255.679688 178.226562 257.507812 177.546875 C 257.980469 177.367188 259.472656 177.082031 260.820312 176.910156 C 266.800781 176.152344 272.542969 173.21875 274.425781 169.957031 C 275.386719 168.296875 277.019531 162.917969 277.738281 159.0625 C 278.261719 156.253906 278.261719 150.988281 277.734375 148.050781 C 277.085938 144.410156 275.917969 140.625 274.503906 137.585938 C 272.695312 133.683594 269.546875 130.332031 265.945312 128.476562 C 263.941406 127.441406 264.128906 127.421875 262.625 128.839844 C 259.859375 131.449219 254.277344 135.199219 250.613281 136.914062 C 249.660156 137.359375 249.40625 137.414062 248.585938 137.339844 C 246.238281 137.125 244.6875 135.464844 244.675781 133.140625 C 244.664062 131.011719 245.335938 130.242188 249.070312 128.128906 C 252.285156 126.304688 254.914062 124.453125 256.746094 122.714844 L 258.121094 121.410156 L 259.15625 118.957031 C 260.183594 116.515625 260.1875 116.492188 260.1875 114.980469 C 260.183594 113.644531 260.113281 113.25 259.582031 111.714844 C 258.621094 108.917969 257.808594 107.328125 256.910156 106.484375 C 255.84375 105.484375 254.246094 104.675781 252.359375 104.1875 C 250.988281 103.832031 247.984375 103.371094 247.859375 103.496094 C 247.835938 103.523438 247.589844 104.65625 247.316406 106.019531 C 246.632812 109.429688 245.714844 113.023438 244.824219 115.777344 C 243.507812 119.847656 243.0625 120.597656 241.527344 121.367188 C 239.710938 122.273438 237.835938 121.902344 236.492188 120.375 C 235.183594 118.890625 235.140625 117.601562 236.28125 114.339844 C 237.429688 111.054688 237.757812 109.953125 238.40625 107.140625 C 239.523438 102.320312 239.949219 99.097656 239.945312 95.507812 C 239.941406 91.632812 239.695312 90.917969 236.972656 86.824219 C 234.554688 83.183594 233.300781 82.105469 230.664062 81.394531 C 228.144531 80.714844 225.414062 80.402344 218.6875 80.019531 C 214.117188 79.757812 213.472656 79.753906 211.570312 79.953125 M 165.304688 81.226562 C 153.761719 81.910156 151.152344 83.011719 147.324219 88.820312 C 144.761719 92.703125 144.421875 93.773438 144.421875 97.984375 C 144.421875 102.425781 145.453125 108.175781 147.136719 113.132812 C 147.921875 115.445312 147.71875 116.992188 146.453125 118.316406 C 145.339844 119.480469 143.507812 119.925781 142.074219 119.378906 C 141.183594 119.039062 140.03125 118.023438 139.632812 117.230469 C 139.328125 116.625 138.226562 113.382812 138.101562 112.730469 C 138.058594 112.515625 137.777344 111.261719 137.472656 109.941406 C 136.890625 107.425781 136.261719 104.007812 136.261719 103.359375 C 136.261719 102.871094 136.070312 102.875 133.902344 103.382812 C 131.714844 103.894531 128.980469 104.792969 127.542969 105.472656 C 122.746094 107.730469 121.011719 110.566406 121.28125 115.703125 C 121.398438 117.925781 121.6875 119.453125 122.023438 119.648438 C 122.15625 119.722656 124.675781 120.78125 127.621094 122 C 133.992188 124.636719 139.882812 127.351562 142.46875 128.839844 C 143.5 129.429688 144.457031 129.910156 144.601562 129.902344 C 145.121094 129.871094 148.242188 128.832031 150.34375 127.992188 C 154.949219 126.148438 158.320312 123.988281 160.285156 121.621094 C 162.464844 119 163.808594 113.96875 163.328125 110.230469 C 163.050781 108.058594 163.09375 106.703125 163.476562 105.859375 C 164.136719 104.40625 165.414062 103.484375 166.972656 103.34375 C 169.628906 103.105469 171.390625 104.882812 171.777344 108.179688 C 172.339844 113.007812 171.367188 119.054688 169.394531 122.996094 C 167.757812 126.273438 164.828125 129.480469 161.382812 131.769531 C 159.101562 133.285156 154.835938 135.417969 152.050781 136.4375 C 150.230469 137.101562 150.164062 137.144531 150.25 137.535156 C 150.300781 137.757812 150.429688 138.503906 150.535156 139.191406 C 151.039062 142.398438 149.546875 146.011719 146.425781 149.144531 C 144.105469 151.476562 141.378906 152.945312 135.886719 154.816406 C 132.449219 155.992188 130.140625 156.988281 128.925781 157.820312 C 127.71875 158.648438 126.476562 159.980469 126.050781 160.902344 C 125.226562 162.679688 125.449219 166.792969 126.488281 169.117188 C 127.371094 171.078125 127.820312 172.734375 127.726562 173.675781 C 127.503906 175.941406 125.691406 177.574219 123.375 177.59375 C 120.90625 177.617188 119.53125 175.941406 118.199219 171.292969 C 117.316406 168.210938 117.144531 167.003906 117.15625 163.863281 C 117.164062 161.445312 117.21875 160.785156 117.503906 159.753906 C 118.875 154.777344 122.5625 151.035156 128.570312 148.523438 C 129.5 148.132812 131.628906 147.332031 133.300781 146.742188 C 137.65625 145.207031 139.089844 144.484375 140.40625 143.167969 C 141.457031 142.121094 142.183594 140.957031 142.183594 140.320312 C 142.183594 139.976562 141.253906 138.359375 140.550781 137.480469 C 139.734375 136.457031 134.019531 133.777344 122.601562 129.054688 L 120.378906 128.136719 L 119.078125 128.578125 C 114.277344 130.207031 109.792969 132.683594 107.507812 134.96875 C 105.714844 136.761719 104.953125 138.476562 104.792969 141.074219 C 104.691406 142.722656 104.847656 145.0625 105.058594 145.0625 C 105.128906 145.0625 105.679688 144.761719 106.285156 144.394531 C 108.929688 142.785156 114.277344 140.472656 116.191406 140.113281 C 118.699219 139.644531 121.046875 141.578125 121.058594 144.121094 C 121.0625 145.085938 120.773438 146.097656 120.308594 146.746094 C 119.890625 147.328125 118.574219 148.15625 117.382812 148.582031 C 113.679688 149.90625 110.726562 151.441406 106.910156 154.027344 C 105.34375 155.089844 104.714844 155.617188 104.398438 156.132812 C 103.207031 158.078125 102.476562 160.261719 102 163.304688 C 101.699219 165.203125 101.746094 170.667969 102.082031 173.304688 C 102.730469 178.34375 104.542969 185.234375 105.785156 187.386719 C 106.277344 188.238281 107.734375 189.632812 109.257812 190.71875 C 111.449219 192.277344 116.203125 194.757812 119.070312 195.84375 L 120.199219 196.269531 L 127.789062 192.566406 C 131.964844 190.53125 136.527344 188.3125 137.921875 187.640625 L 140.464844 186.414062 L 140.503906 168.34375 L 140.886719 167.5 C 141.332031 166.511719 142.441406 165.460938 143.285156 165.226562 C 144.203125 164.972656 145.707031 165.035156 146.425781 165.363281 C 147.21875 165.722656 148.003906 166.488281 148.46875 167.363281 C 148.820312 168.015625 148.824219 168.125 148.902344 176.894531 L 148.984375 185.765625 L 152.742188 186.988281 C 156.800781 188.308594 158.792969 189.085938 160.425781 189.984375 C 166.910156 193.554688 170.96875 198.90625 172.8125 206.324219 C 173.484375 209.03125 173.625 210.5 173.621094 214.746094 C 173.613281 219.429688 173.382812 221.148438 172.542969 222.828125 C 171.722656 224.46875 170.117188 225.363281 168.324219 225.179688 C 166.910156 225.035156 165.644531 224.148438 164.976562 222.828125 C 164.535156 221.957031 164.503906 220.296875 164.886719 218.082031 C 165.710938 213.320312 165.046875 208.03125 163.144531 204.265625 C 162 201.996094 160.703125 200.425781 158.773438 198.964844 C 156.664062 197.371094 154.433594 196.417969 147.667969 194.214844 L 145.230469 193.425781 L 134.785156 198.535156 C 129.042969 201.34375 124.257812 203.753906 124.152344 203.890625 C 123.863281 204.269531 123.167969 207.363281 122.992188 209.039062 C 122.714844 211.71875 123.203125 214.179688 124.347656 215.910156 C 126.074219 218.511719 130.40625 221.40625 136.121094 223.777344 C 137.410156 224.3125 138.53125 224.746094 138.613281 224.746094 C 138.695312 224.746094 138.894531 224.332031 139.054688 223.828125 C 139.507812 222.382812 140.691406 219.683594 141.570312 218.082031 C 142.960938 215.554688 144.203125 214.605469 146.101562 214.621094 C 148.441406 214.640625 150.144531 216.207031 150.304688 218.496094 C 150.398438 219.863281 150.074219 220.792969 148.519531 223.554688 C 146.019531 228 144.96875 233.742188 146.046875 237.070312 C 146.671875 239.007812 148.742188 242.257812 150.628906 244.273438 C 154.394531 248.296875 159.472656 250.324219 166.515625 250.621094 C 169.261719 250.734375 171.210938 250.527344 173.863281 249.84375 C 177.972656 248.78125 184.25 245.835938 189.273438 242.605469 L 190.203125 242.007812 L 190.105469 234.699219 C 190.003906 227.1875 189.386719 158.523438 189.386719 154.929688 L 189.386719 152.929688 L 187.984375 153.488281 C 183.871094 155.132812 180.128906 157.363281 178.089844 159.378906 C 175.964844 161.484375 175.53125 162.816406 175.6875 166.746094 C 175.792969 169.441406 175.984375 170.550781 176.8125 173.273438 C 177.703125 176.210938 177.554688 177.695312 176.246094 178.9375 C 174.78125 180.324219 172.503906 180.300781 171.085938 178.882812 C 170.101562 177.898438 169.414062 175.917969 168.648438 171.863281 C 168.234375 169.679688 168.195312 169.144531 168.195312 165.945312 C 168.199219 162.65625 168.226562 162.324219 168.617188 160.890625 C 169.355469 158.171875 170.554688 156.238281 172.929688 153.929688 C 176.257812 150.703125 181.382812 147.777344 187.527344 145.601562 L 189.269531 144.984375 L 189.167969 132.261719 C 189.109375 125.265625 189.019531 114.070312 188.964844 107.378906 L 188.867188 95.21875 L 188.300781 94.179688 C 187.570312 92.84375 185.085938 89.105469 184.089844 87.84375 C 182.269531 85.546875 179.277344 83.265625 176.839844 82.320312 C 174.011719 81.226562 170.664062 80.910156 165.304688 81.226562 M 313.234375 82.828125 C 307.222656 85.101562 291.308594 91.027344 284.351562 93.585938 C 281.742188 94.542969 281.03125 95.078125 280.835938 96.226562 C 280.6875 97.109375 281.230469 98.277344 281.992188 98.710938 C 283.003906 99.289062 283.441406 99.175781 290.910156 96.371094 C 295.363281 94.703125 299.816406 93.039062 304.273438 91.382812 C 315.777344 87.117188 319.230469 85.808594 319.585938 85.578125 C 320 85.3125 320.59375 84.160156 320.59375 83.621094 C 320.59375 83.0625 320.011719 81.984375 319.523438 81.628906 C 319.269531 81.445312 318.765625 81.300781 318.285156 81.269531 C 317.582031 81.226562 316.910156 81.433594 313.234375 82.828125 M 54.578125 84.238281 C 53.523438 84.890625 53.078125 85.910156 53.390625 86.960938 C 53.757812 88.179688 54.109375 88.371094 60.417969 90.714844 C 68.972656 93.894531 82.203125 98.820312 86.339844 100.367188 C 88.722656 101.257812 90.171875 101.714844 90.621094 101.71875 C 92.832031 101.742188 93.863281 99.105469 92.234375 97.589844 C 92.019531 97.390625 89.351562 96.300781 86.019531 95.054688 C 54.988281 83.449219 56.332031 83.9375 55.578125 83.941406 C 55.292969 83.941406 54.839844 84.074219 54.578125 84.238281 M 214.667969 102.640625 C 212.789062 103.253906 211.996094 104.347656 210.234375 108.742188 C 209.023438 111.757812 208.574219 113.546875 208.472656 115.785156 C 208.398438 117.332031 208.441406 117.847656 208.726562 118.984375 C 209.835938 123.367188 213.355469 127.578125 218.269531 130.394531 C 219.714844 131.226562 221.878906 132.117188 225.902344 133.546875 C 229.320312 134.757812 231.632812 135.867188 232.632812 136.769531 C 233.316406 137.390625 233.425781 137.59375 233.707031 138.710938 C 234.234375 140.808594 234.398438 143.183594 234.304688 147.28125 C 234.214844 151.152344 234.0625 152.484375 233.285156 156.34375 C 232.707031 159.195312 232.703125 160.574219 233.265625 161.644531 C 234.035156 163.113281 235.414062 163.945312 237.085938 163.945312 C 238.207031 163.945312 238.871094 163.699219 239.6875 162.980469 C 240.953125 161.871094 241.21875 161.058594 242.007812 155.863281 C 242.773438 150.832031 242.882812 149.277344 242.78125 144.835938 C 242.621094 137.496094 241.699219 134.089844 239.15625 131.414062 C 236.945312 129.082031 234.519531 127.675781 229.867188 126.015625 C 222.457031 123.375 220.742188 122.449219 218.574219 119.910156 C 216.402344 117.367188 216.375 115.5625 218.433594 111.382812 C 218.996094 110.238281 219.613281 108.761719 219.800781 108.101562 C 220.109375 107.035156 220.125 106.800781 219.957031 105.980469 C 219.710938 104.800781 218.945312 103.671875 217.992188 103.085938 C 217.394531 102.714844 217.003906 102.605469 216.152344 102.5625 C 215.554688 102.535156 214.886719 102.566406 214.667969 102.640625 M 46.738281 150.976562 C 45.972656 151.292969 45.21875 152.460938 45.21875 153.320312 C 45.21875 153.9375 45.820312 154.964844 46.382812 155.308594 C 46.886719 155.617188 47.316406 155.621094 65.4375 155.625 C 83.816406 155.625 83.984375 155.621094 84.507812 155.296875 C 84.804688 155.113281 85.1875 154.65625 85.382812 154.257812 C 85.804688 153.382812 85.707031 152.488281 85.105469 151.773438 C 84.253906 150.761719 85.554688 150.824219 65.425781 150.832031 C 55.324219 150.839844 46.914062 150.902344 46.738281 150.976562 M 295.632812 150.9375 C 295.261719 151.070312 294.507812 151.816406 294.257812 152.296875 C 293.757812 153.253906 294.160156 154.585938 295.15625 155.265625 L 295.683594 155.628906 L 314.339844 155.585938 C 332.707031 155.542969 333 155.539062 333.433594 155.222656 C 333.671875 155.046875 334.019531 154.597656 334.207031 154.222656 C 334.621094 153.386719 334.515625 152.480469 333.921875 151.773438 C 333.070312 150.761719 334.371094 150.820312 314.242188 150.835938 C 304.136719 150.84375 295.765625 150.886719 295.632812 150.9375 M 284.871094 205.414062 C 284.082031 205.882812 283.558594 206.925781 283.675781 207.804688 C 283.855469 209.125 284.023438 209.234375 290.9375 212.464844 C 306.59375 219.773438 313.9375 223.011719 315.074219 223.101562 C 316.0625 223.179688 316.832031 222.820312 317.363281 222.027344 C 317.675781 221.566406 317.730469 221.316406 317.675781 220.621094 C 317.53125 218.839844 318.578125 219.390625 296.433594 209.46875 C 285.550781 204.59375 285.988281 204.746094 284.871094 205.414062 M 87.21875 207.449219 C 85.460938 208.226562 81.570312 209.960938 78.578125 211.300781 C 75.585938 212.644531 72.167969 214.175781 70.980469 214.703125 C 64.878906 217.410156 60.546875 219.476562 60.042969 219.925781 C 58.882812 220.949219 59.066406 222.839844 60.410156 223.746094 C 61.480469 224.46875 62.191406 224.265625 68.660156 221.390625 C 72.84375 219.527344 78.359375 217.011719 82.578125 215.035156 C 84.164062 214.292969 86.964844 212.988281 88.808594 212.136719 C 90.664062 211.277344 92.351562 210.390625 92.59375 210.148438 C 93.148438 209.59375 93.441406 208.726562 93.308594 208.019531 C 93.113281 206.96875 91.945312 206.019531 90.863281 206.03125 C 90.621094 206.035156 88.980469 206.671875 87.21875 207.449219 M 155.339844 262.277344 C 154.15625 262.597656 153.605469 262.914062 152.753906 263.765625 C 151.648438 264.871094 151.230469 265.84375 151.230469 267.3125 C 151.230469 269.152344 151.949219 270.429688 153.59375 271.523438 C 155.324219 272.671875 152.277344 272.589844 193.570312 272.589844 C 234.011719 272.585938 231.410156 272.644531 232.984375 271.722656 C 234.460938 270.855469 235.628906 268.972656 235.628906 267.457031 C 235.628906 265.015625 234.050781 263.035156 231.492188 262.257812 C 230.375 261.921875 156.601562 261.9375 155.339844 262.277344 M 160.695312 274.902344 C 159.320312 275.394531 158.082031 276.597656 157.597656 277.921875 C 157.324219 278.660156 157.34375 280.257812 157.636719 281.121094 C 157.964844 282.082031 159.050781 283.285156 160.042969 283.792969 L 160.824219 284.191406 L 193.382812 284.234375 C 230.097656 284.277344 226.777344 284.398438 228.328125 282.980469 C 229.4375 281.96875 229.894531 280.9375 229.894531 279.464844 C 229.894531 277.644531 228.867188 275.996094 227.199219 275.144531 L 226.429688 274.75 L 193.867188 274.71875 C 166.773438 274.691406 161.203125 274.71875 160.695312 274.902344 M 167.382812 286.136719 C 166.636719 286.527344 165.695312 287.488281 165.367188 288.191406 C 165.042969 288.894531 164.980469 290.117188 165.226562 291.003906 C 165.445312 291.800781 166.398438 292.851562 167.316406 293.320312 L 168.09375 293.710938 L 219.453125 293.710938 L 220.300781 293.25 C 223.234375 291.648438 223.207031 287.761719 220.253906 286.265625 L 219.476562 285.871094 L 193.671875 285.878906 C 170.503906 285.882812 167.816406 285.910156 167.382812 286.136719 M 175.550781 295.40625 C 174.269531 295.878906 173.5625 297.039062 173.796875 298.285156 C 174.375 301.371094 182.449219 306.652344 189.171875 308.347656 C 193.808594 309.515625 198.777344 308.4375 204.394531 305.042969 C 207.449219 303.199219 210.835938 300.230469 211.511719 298.808594 C 212.078125 297.613281 211.734375 296.183594 210.722656 295.519531 C 210.304688 295.246094 209.367188 295.230469 193.234375 295.203125 C 178.617188 295.175781 176.09375 295.207031 175.550781 295.40625 " fill-opacity="1" fill-rule="evenodd"/></svg>