<svg xmlns="http://www.w3.org/2000/svg" xmlns:xlink="http://www.w3.org/1999/xlink" width="300" zoomAndPan="magnify" viewBox="0 0 224.87999 89.999999" height="120" preserveAspectRatio="xMidYMid meet" version="1.0"><defs><g/><clipPath id="69e11667fd"><path d="M 1.757812 17 L 69.96875 17 L 69.96875 73 L 1.757812 73 Z M 1.757812 17 " clip-rule="nonzero"/></clipPath><clipPath id="80f6ef4a91"><path d="M 40.949219 17.175781 C 39.933594 17.253906 38.96875 17.578125 38.183594 18.097656 C 37.546875 18.519531 36.855469 19.277344 36.46875 19.976562 C 36.421875 20.066406 36.371094 20.136719 36.355469 20.136719 C 36.34375 20.136719 36.289062 20.074219 36.238281 19.996094 C 36.054688 19.726562 35.535156 19.167969 35.1875 18.878906 C 33.953125 17.84375 32.570312 17.386719 30.863281 17.453125 C 30.023438 17.484375 29.183594 17.542969 28.554688 17.605469 C 26.855469 17.78125 25.796875 18.265625 24.910156 19.265625 C 24.570312 19.652344 23.863281 20.710938 23.660156 21.132812 C 23.503906 21.464844 23.339844 22.003906 23.292969 22.351562 L 23.265625 22.523438 L 22.917969 22.585938 C 21.074219 22.929688 19.734375 23.546875 18.882812 24.4375 C 18.691406 24.644531 18.472656 24.90625 18.40625 25.019531 C 18.015625 25.675781 17.800781 26.507812 17.800781 27.355469 C 17.800781 27.683594 17.890625 28.476562 17.949219 28.683594 C 18.011719 28.894531 17.996094 28.921875 17.808594 29 C 17.453125 29.144531 16.722656 29.507812 16.414062 29.695312 C 15.25 30.410156 14.457031 31.308594 14.152344 32.265625 C 13.988281 32.773438 13.957031 33.003906 13.957031 33.707031 C 13.960938 34.4375 14.03125 35 14.199219 35.535156 L 14.269531 35.769531 L 14.105469 36.042969 C 13.742188 36.648438 13.433594 37.597656 13.3125 38.480469 C 13.238281 39.035156 13.226562 40.355469 13.296875 40.960938 C 13.457031 42.390625 13.878906 44.097656 14.289062 45 C 14.789062 46.097656 15.980469 47.039062 18.003906 47.925781 C 18.191406 48.003906 18.355469 48.085938 18.375 48.101562 C 18.390625 48.117188 18.363281 48.324219 18.316406 48.558594 C 18.242188 48.925781 18.230469 49.09375 18.234375 49.773438 C 18.234375 50.507812 18.242188 50.585938 18.335938 50.933594 C 18.636719 52.050781 19.355469 52.921875 20.652344 53.746094 C 21.167969 54.074219 22.167969 54.5625 22.925781 54.855469 L 23.535156 55.09375 L 23.535156 55.417969 C 23.535156 56.066406 23.683594 56.617188 24.046875 57.332031 C 24.453125 58.132812 25.019531 58.871094 25.636719 59.417969 C 26.859375 60.496094 28.375 61.050781 30.339844 61.140625 C 31.792969 61.203125 33.273438 60.820312 35.101562 59.90625 C 35.496094 59.707031 36.378906 59.210938 36.726562 58.988281 L 36.929688 58.855469 L 37.101562 59.023438 C 37.675781 59.574219 38.582031 60.179688 39.40625 60.570312 C 40.304688 60.992188 41.035156 61.15625 42.023438 61.15625 C 44.550781 61.152344 46.460938 60.332031 47.832031 58.65625 C 48.285156 58.101562 48.820312 57.175781 49.007812 56.613281 C 49.121094 56.269531 49.21875 55.640625 49.21875 55.238281 L 49.21875 54.9375 L 49.832031 54.730469 C 51.460938 54.175781 52.664062 53.480469 53.285156 52.722656 C 53.65625 52.273438 53.863281 51.765625 54.003906 50.933594 C 54.109375 50.308594 54.085938 48.796875 53.960938 48.011719 C 53.941406 47.902344 53.960938 47.886719 54.457031 47.554688 C 55.171875 47.074219 55.71875 46.628906 56.25 46.101562 C 57.222656 45.132812 57.632812 44.339844 57.679688 43.34375 C 57.707031 42.75 57.617188 42.246094 57.367188 41.609375 L 57.300781 41.433594 L 57.4375 41.179688 C 57.511719 41.039062 57.640625 40.75 57.722656 40.53125 C 58.707031 37.914062 58.804688 35.636719 58.027344 33.203125 C 57.316406 30.984375 56.242188 29.617188 54.507812 28.726562 L 54.136719 28.535156 L 54.207031 28.332031 C 54.492188 27.460938 54.363281 26.570312 53.734375 25.082031 C 53.171875 23.742188 51.796875 22.898438 49.910156 22.730469 L 49.609375 22.703125 L 49.601562 22.480469 C 49.574219 21.867188 49.410156 21.160156 49.179688 20.679688 C 49.058594 20.429688 48.410156 19.425781 48.136719 19.074219 C 47.902344 18.761719 47.519531 18.390625 47.222656 18.179688 C 46.347656 17.554688 45.394531 17.34375 42.730469 17.191406 C 41.683594 17.132812 41.496094 17.132812 40.949219 17.175781 M 40.957031 19.164062 C 39.84375 19.28125 38.953125 19.808594 38.363281 20.699219 C 38.085938 21.109375 37.941406 21.414062 37.769531 21.929688 L 37.652344 22.292969 L 37.652344 24.898438 C 37.652344 26.332031 37.667969 29.066406 37.683594 30.972656 L 37.714844 34.445312 L 38.152344 34.625 C 39.386719 35.132812 40.535156 35.855469 41.175781 36.523438 C 41.695312 37.0625 41.953125 37.503906 42.125 38.128906 C 42.214844 38.464844 42.222656 38.542969 42.222656 39.292969 C 42.222656 40.054688 42.214844 40.132812 42.101562 40.664062 C 41.964844 41.304688 41.808594 41.796875 41.667969 42.023438 C 41.339844 42.542969 40.640625 42.636719 40.222656 42.214844 C 39.886719 41.878906 39.867188 41.554688 40.140625 40.710938 C 40.542969 39.457031 40.484375 38.535156 39.957031 37.925781 C 39.742188 37.679688 39.367188 37.371094 38.980469 37.121094 C 38.617188 36.886719 37.789062 36.464844 37.757812 36.496094 C 37.738281 36.511719 37.785156 42.488281 37.890625 53.746094 L 37.925781 57.085938 L 38.21875 57.363281 C 38.96875 58.070312 39.824219 58.636719 40.566406 58.914062 C 41.066406 59.105469 41.46875 59.171875 42.074219 59.167969 C 43.796875 59.164062 45.003906 58.730469 45.957031 57.777344 C 46.472656 57.261719 47.007812 56.421875 47.15625 55.882812 C 47.238281 55.605469 47.226562 54.5625 47.140625 54.085938 C 47.039062 53.535156 46.769531 52.628906 46.59375 52.28125 C 46.304688 51.691406 46.207031 51.40625 46.203125 51.140625 C 46.199219 50.828125 46.265625 50.644531 46.457031 50.4375 C 46.675781 50.199219 46.859375 50.113281 47.15625 50.113281 C 47.484375 50.113281 47.648438 50.179688 47.863281 50.390625 C 48.132812 50.660156 48.425781 51.328125 48.789062 52.503906 C 48.914062 52.910156 48.929688 52.941406 49.003906 52.917969 C 49.722656 52.699219 50.765625 52.226562 51.242188 51.902344 C 51.769531 51.542969 51.894531 51.367188 52.019531 50.792969 C 52.140625 50.226562 52.082031 48.421875 51.921875 47.824219 C 51.886719 47.683594 51.222656 47.175781 50.171875 46.476562 C 48.980469 45.683594 48.046875 45.179688 47.34375 44.953125 C 46.722656 44.753906 45.847656 44.734375 45.023438 44.902344 C 43.832031 45.148438 42.726562 45.898438 42.046875 46.925781 C 41.480469 47.78125 41.320312 48.359375 41.417969 49.230469 C 41.484375 49.824219 41.558594 50.109375 41.777344 50.5625 C 42.121094 51.273438 42.214844 51.542969 42.234375 51.863281 C 42.257812 52.226562 42.183594 52.4375 41.964844 52.660156 C 41.5625 53.058594 40.890625 53.03125 40.496094 52.59375 C 40.195312 52.261719 39.75 51.109375 39.5625 50.1875 C 39.28125 48.769531 39.386719 47.703125 39.925781 46.632812 C 40.773438 44.9375 42.132812 43.753906 43.910156 43.160156 C 44.703125 42.894531 45.117188 42.839844 46.199219 42.839844 C 47.089844 42.839844 47.15625 42.84375 47.511719 42.9375 C 48.832031 43.28125 50.832031 44.398438 52.691406 45.824219 L 53.070312 46.117188 L 53.496094 45.8125 C 54.707031 44.949219 55.480469 44.148438 55.648438 43.59375 C 55.695312 43.429688 55.726562 42.894531 55.6875 42.894531 C 55.683594 42.894531 55.464844 42.996094 55.203125 43.121094 C 54.085938 43.652344 52.289062 44.089844 51.777344 43.949219 C 51.34375 43.828125 51.015625 43.410156 51.015625 42.972656 C 51.015625 42.558594 51.289062 42.191406 51.71875 42.03125 C 51.828125 41.988281 52.179688 41.921875 52.496094 41.882812 C 53.894531 41.703125 55.242188 41.015625 55.683594 40.253906 C 55.90625 39.863281 56.289062 38.605469 56.457031 37.699219 C 56.582031 37.042969 56.582031 35.808594 56.457031 35.121094 C 56.304688 34.265625 56.03125 33.378906 55.703125 32.667969 C 55.277344 31.753906 54.539062 30.96875 53.695312 30.535156 C 53.226562 30.292969 53.269531 30.285156 52.917969 30.621094 C 52.269531 31.230469 50.960938 32.109375 50.105469 32.511719 C 49.878906 32.617188 49.820312 32.628906 49.628906 32.609375 C 49.078125 32.5625 48.714844 32.171875 48.710938 31.628906 C 48.710938 31.128906 48.867188 30.949219 49.742188 30.453125 C 50.496094 30.023438 51.109375 29.589844 51.539062 29.183594 L 51.863281 28.878906 L 52.105469 28.304688 C 52.347656 27.730469 52.347656 27.726562 52.347656 27.371094 C 52.347656 27.058594 52.328125 26.964844 52.203125 26.605469 C 51.980469 25.953125 51.789062 25.578125 51.578125 25.382812 C 51.328125 25.148438 50.953125 24.957031 50.511719 24.84375 C 50.191406 24.761719 49.488281 24.652344 49.457031 24.679688 C 49.453125 24.6875 49.394531 24.953125 49.332031 25.273438 C 49.171875 26.070312 48.957031 26.914062 48.746094 27.558594 C 48.4375 28.511719 48.335938 28.6875 47.976562 28.867188 C 47.550781 29.082031 47.109375 28.992188 46.796875 28.636719 C 46.488281 28.289062 46.476562 27.984375 46.746094 27.222656 C 47.015625 26.453125 47.089844 26.195312 47.242188 25.535156 C 47.503906 24.40625 47.605469 23.652344 47.605469 22.808594 C 47.601562 21.902344 47.546875 21.734375 46.90625 20.773438 C 46.339844 19.921875 46.046875 19.667969 45.429688 19.503906 C 44.839844 19.34375 44.199219 19.269531 42.625 19.179688 C 41.550781 19.117188 41.402344 19.117188 40.957031 19.164062 M 30.117188 19.464844 C 27.410156 19.625 26.800781 19.882812 25.902344 21.242188 C 25.300781 22.152344 25.222656 22.402344 25.222656 23.390625 C 25.222656 24.429688 25.464844 25.777344 25.859375 26.9375 C 26.042969 27.480469 25.996094 27.84375 25.699219 28.152344 C 25.4375 28.425781 25.007812 28.53125 24.671875 28.402344 C 24.464844 28.324219 24.195312 28.085938 24.101562 27.898438 C 24.027344 27.757812 23.769531 26.996094 23.742188 26.84375 C 23.730469 26.792969 23.664062 26.5 23.59375 26.191406 C 23.457031 25.601562 23.308594 24.800781 23.308594 24.648438 C 23.308594 24.535156 23.265625 24.535156 22.757812 24.65625 C 22.246094 24.773438 21.605469 24.984375 21.265625 25.144531 C 20.144531 25.671875 19.738281 26.335938 19.800781 27.542969 C 19.828125 28.0625 19.894531 28.417969 19.972656 28.464844 C 20.003906 28.484375 20.59375 28.730469 21.285156 29.015625 C 22.777344 29.632812 24.160156 30.269531 24.765625 30.621094 C 25.007812 30.757812 25.230469 30.871094 25.265625 30.867188 C 25.386719 30.859375 26.117188 30.617188 26.609375 30.421875 C 27.6875 29.988281 28.480469 29.484375 28.9375 28.929688 C 29.449219 28.3125 29.765625 27.136719 29.652344 26.257812 C 29.585938 25.75 29.597656 25.433594 29.6875 25.234375 C 29.839844 24.894531 30.140625 24.679688 30.507812 24.644531 C 31.128906 24.589844 31.542969 25.007812 31.632812 25.777344 C 31.761719 26.910156 31.535156 28.328125 31.074219 29.25 C 30.691406 30.019531 30.003906 30.769531 29.195312 31.304688 C 28.660156 31.660156 27.664062 32.160156 27.011719 32.398438 C 26.582031 32.554688 26.566406 32.566406 26.585938 32.65625 C 26.601562 32.707031 26.628906 32.882812 26.65625 33.042969 C 26.773438 33.796875 26.421875 34.644531 25.691406 35.375 C 25.148438 35.921875 24.507812 36.265625 23.222656 36.707031 C 22.417969 36.980469 21.875 37.214844 21.589844 37.410156 C 21.308594 37.605469 21.015625 37.914062 20.917969 38.132812 C 20.726562 38.546875 20.777344 39.511719 21.019531 40.054688 C 21.226562 40.515625 21.332031 40.902344 21.308594 41.125 C 21.257812 41.65625 20.832031 42.039062 20.289062 42.042969 C 19.710938 42.046875 19.390625 41.65625 19.078125 40.566406 C 18.871094 39.84375 18.832031 39.5625 18.832031 38.824219 C 18.835938 38.257812 18.847656 38.105469 18.914062 37.863281 C 19.238281 36.695312 20.101562 35.820312 21.507812 35.230469 C 21.726562 35.140625 22.226562 34.953125 22.617188 34.8125 C 23.636719 34.453125 23.972656 34.285156 24.28125 33.976562 C 24.527344 33.730469 24.699219 33.457031 24.699219 33.308594 C 24.699219 33.230469 24.480469 32.851562 24.316406 32.644531 C 24.125 32.402344 22.785156 31.777344 20.109375 30.667969 L 19.589844 30.453125 L 19.285156 30.558594 C 18.160156 30.941406 17.109375 31.519531 16.574219 32.054688 C 16.152344 32.476562 15.972656 32.878906 15.9375 33.484375 C 15.914062 33.871094 15.949219 34.421875 16 34.421875 C 16.015625 34.421875 16.144531 34.351562 16.285156 34.265625 C 16.90625 33.886719 18.160156 33.34375 18.609375 33.261719 C 19.195312 33.152344 19.746094 33.605469 19.75 34.199219 C 19.75 34.425781 19.679688 34.664062 19.574219 34.816406 C 19.472656 34.953125 19.167969 35.144531 18.886719 35.246094 C 18.019531 35.554688 17.328125 35.914062 16.433594 36.519531 C 16.066406 36.769531 15.917969 36.894531 15.84375 37.015625 C 15.566406 37.46875 15.394531 37.980469 15.28125 38.695312 C 15.210938 39.140625 15.222656 40.417969 15.300781 41.039062 C 15.453125 42.21875 15.878906 43.832031 16.167969 44.335938 C 16.285156 44.535156 16.625 44.863281 16.984375 45.117188 C 17.496094 45.484375 18.609375 46.0625 19.28125 46.320312 L 19.546875 46.417969 L 21.324219 45.550781 C 22.304688 45.074219 23.371094 44.554688 23.699219 44.398438 L 24.296875 44.109375 L 24.304688 39.875 L 24.394531 39.675781 C 24.5 39.445312 24.757812 39.199219 24.957031 39.144531 C 25.171875 39.085938 25.523438 39.101562 25.691406 39.175781 C 25.878906 39.261719 26.0625 39.441406 26.171875 39.644531 C 26.253906 39.796875 26.253906 39.824219 26.273438 41.878906 L 26.292969 43.957031 L 27.171875 44.242188 C 28.121094 44.554688 28.589844 44.734375 28.972656 44.945312 C 30.492188 45.78125 31.441406 47.035156 31.875 48.773438 C 32.03125 49.410156 32.066406 49.753906 32.0625 50.746094 C 32.0625 51.84375 32.007812 52.246094 31.8125 52.640625 C 31.617188 53.027344 31.242188 53.234375 30.824219 53.191406 C 30.492188 53.160156 30.195312 52.949219 30.039062 52.640625 C 29.933594 52.4375 29.925781 52.046875 30.015625 51.527344 C 30.210938 50.414062 30.054688 49.175781 29.609375 48.292969 C 29.339844 47.761719 29.035156 47.390625 28.585938 47.050781 C 28.089844 46.675781 27.566406 46.453125 25.984375 45.9375 L 25.410156 45.753906 L 22.964844 46.949219 C 21.617188 47.605469 20.496094 48.171875 20.472656 48.203125 C 20.40625 48.292969 20.242188 49.019531 20.199219 49.410156 C 20.136719 50.039062 20.25 50.613281 20.519531 51.019531 C 20.921875 51.628906 21.9375 52.308594 23.277344 52.863281 C 23.578125 52.988281 23.84375 53.089844 23.859375 53.089844 C 23.878906 53.089844 23.925781 52.992188 23.964844 52.875 C 24.070312 52.535156 24.347656 51.90625 24.554688 51.527344 C 24.878906 50.9375 25.171875 50.714844 25.617188 50.71875 C 26.164062 50.722656 26.5625 51.089844 26.601562 51.625 C 26.621094 51.945312 26.546875 52.164062 26.183594 52.8125 C 25.597656 53.851562 25.351562 55.199219 25.601562 55.976562 C 25.75 56.433594 26.234375 57.195312 26.675781 57.667969 C 27.558594 58.609375 28.75 59.082031 30.398438 59.152344 C 31.042969 59.179688 31.5 59.132812 32.121094 58.972656 C 33.082031 58.722656 34.554688 58.03125 35.730469 57.273438 L 35.949219 57.136719 L 35.925781 55.421875 C 35.902344 53.664062 35.757812 37.574219 35.757812 36.730469 L 35.757812 36.261719 L 35.429688 36.394531 C 34.464844 36.78125 33.589844 37.300781 33.109375 37.773438 C 32.613281 38.269531 32.511719 38.582031 32.546875 39.5 C 32.574219 40.132812 32.617188 40.390625 32.8125 41.03125 C 33.019531 41.71875 32.984375 42.066406 32.679688 42.355469 C 32.335938 42.683594 31.800781 42.675781 31.46875 42.34375 C 31.238281 42.113281 31.078125 41.648438 30.898438 40.699219 C 30.800781 40.1875 30.792969 40.0625 30.792969 39.3125 C 30.792969 38.542969 30.800781 38.464844 30.890625 38.128906 C 31.0625 37.492188 31.34375 37.039062 31.902344 36.496094 C 32.679688 35.742188 33.882812 35.054688 35.320312 34.546875 L 35.730469 34.402344 L 35.707031 31.421875 C 35.691406 29.78125 35.671875 27.160156 35.660156 25.589844 L 35.636719 22.742188 L 35.503906 22.5 C 35.332031 22.183594 34.75 21.308594 34.515625 21.011719 C 34.089844 20.476562 33.390625 19.941406 32.816406 19.71875 C 32.15625 19.464844 31.371094 19.390625 30.117188 19.464844 M 64.777344 19.839844 C 63.367188 20.371094 59.640625 21.757812 58.007812 22.359375 C 57.398438 22.582031 57.230469 22.707031 57.183594 22.976562 C 57.148438 23.183594 57.277344 23.457031 57.457031 23.558594 C 57.691406 23.695312 57.796875 23.667969 59.546875 23.011719 C 60.589844 22.621094 61.632812 22.230469 62.675781 21.84375 C 65.371094 20.84375 66.179688 20.535156 66.265625 20.484375 C 66.359375 20.421875 66.5 20.152344 66.5 20.023438 C 66.5 19.894531 66.363281 19.640625 66.25 19.558594 C 66.191406 19.515625 66.070312 19.480469 65.960938 19.472656 C 65.792969 19.464844 65.636719 19.511719 64.777344 19.839844 M 4.171875 20.167969 C 3.925781 20.320312 3.820312 20.5625 3.894531 20.808594 C 3.980469 21.09375 4.0625 21.136719 5.539062 21.6875 C 7.542969 22.429688 10.644531 23.585938 11.613281 23.949219 C 12.171875 24.15625 12.511719 24.265625 12.617188 24.265625 C 13.136719 24.269531 13.375 23.652344 12.996094 23.296875 C 12.945312 23.25 12.320312 22.996094 11.539062 22.703125 C 4.269531 19.984375 4.582031 20.097656 4.40625 20.097656 C 4.339844 20.097656 4.234375 20.128906 4.171875 20.167969 M 41.683594 24.480469 C 41.242188 24.625 41.054688 24.878906 40.644531 25.910156 C 40.359375 26.617188 40.253906 27.035156 40.230469 27.558594 C 40.210938 27.921875 40.222656 28.042969 40.289062 28.308594 C 40.550781 29.335938 41.375 30.324219 42.527344 30.984375 C 42.863281 31.179688 43.371094 31.386719 44.3125 31.722656 C 45.113281 32.007812 45.65625 32.265625 45.890625 32.476562 C 46.050781 32.621094 46.078125 32.671875 46.144531 32.933594 C 46.265625 33.421875 46.304688 33.980469 46.28125 34.941406 C 46.261719 35.847656 46.226562 36.160156 46.042969 37.0625 C 45.910156 37.730469 45.90625 38.054688 46.039062 38.304688 C 46.21875 38.648438 46.542969 38.84375 46.933594 38.84375 C 47.199219 38.84375 47.351562 38.785156 47.542969 38.617188 C 47.839844 38.359375 47.902344 38.167969 48.085938 36.949219 C 48.265625 35.773438 48.292969 35.40625 48.269531 34.367188 C 48.230469 32.648438 48.015625 31.847656 47.417969 31.222656 C 46.902344 30.675781 46.332031 30.347656 45.242188 29.957031 C 43.507812 29.339844 43.105469 29.121094 42.597656 28.527344 C 42.089844 27.929688 42.082031 27.507812 42.5625 26.527344 C 42.695312 26.261719 42.839844 25.914062 42.882812 25.761719 C 42.957031 25.511719 42.960938 25.457031 42.921875 25.261719 C 42.863281 24.988281 42.683594 24.722656 42.460938 24.585938 C 42.320312 24.496094 42.230469 24.472656 42.03125 24.460938 C 41.890625 24.457031 41.734375 24.464844 41.683594 24.480469 M 2.335938 35.804688 C 2.15625 35.878906 1.980469 36.152344 1.980469 36.355469 C 1.980469 36.5 2.121094 36.742188 2.25 36.820312 C 2.371094 36.894531 2.46875 36.894531 6.714844 36.894531 C 11.023438 36.894531 11.0625 36.894531 11.183594 36.816406 C 11.253906 36.773438 11.34375 36.667969 11.390625 36.574219 C 11.488281 36.371094 11.464844 36.160156 11.324219 35.992188 C 11.125 35.753906 11.429688 35.769531 6.714844 35.773438 C 4.347656 35.773438 2.375 35.789062 2.335938 35.804688 M 60.652344 35.796875 C 60.566406 35.828125 60.390625 36.003906 60.332031 36.117188 C 60.214844 36.339844 60.308594 36.652344 60.539062 36.8125 L 60.664062 36.894531 L 65.035156 36.886719 C 69.339844 36.875 69.40625 36.875 69.507812 36.800781 C 69.566406 36.761719 69.648438 36.65625 69.691406 36.566406 C 69.789062 36.371094 69.761719 36.160156 69.625 35.992188 C 69.425781 35.757812 69.730469 35.769531 65.011719 35.773438 C 62.644531 35.773438 60.683594 35.785156 60.652344 35.796875 M 58.128906 48.5625 C 57.945312 48.671875 57.824219 48.914062 57.851562 49.121094 C 57.894531 49.429688 57.933594 49.457031 59.550781 50.214844 C 63.21875 51.925781 64.941406 52.683594 65.207031 52.707031 C 65.4375 52.722656 65.621094 52.640625 65.742188 52.453125 C 65.816406 52.347656 65.828125 52.289062 65.816406 52.125 C 65.785156 51.707031 66.027344 51.835938 60.839844 49.511719 C 58.289062 48.367188 58.390625 48.40625 58.128906 48.5625 M 11.820312 49.039062 C 11.40625 49.21875 10.496094 49.625 9.796875 49.941406 C 9.09375 50.253906 8.292969 50.613281 8.015625 50.738281 C 6.585938 51.371094 5.570312 51.855469 5.453125 51.960938 C 5.179688 52.199219 5.222656 52.644531 5.539062 52.855469 C 5.789062 53.027344 5.957031 52.976562 7.472656 52.304688 C 8.453125 51.867188 9.742188 51.277344 10.730469 50.816406 C 11.105469 50.640625 11.761719 50.335938 12.191406 50.136719 C 12.625 49.933594 13.023438 49.726562 13.078125 49.671875 C 13.207031 49.539062 13.277344 49.335938 13.246094 49.171875 C 13.199219 48.925781 12.925781 48.703125 12.671875 48.707031 C 12.617188 48.707031 12.230469 48.855469 11.820312 49.039062 M 27.78125 61.882812 C 27.503906 61.960938 27.375 62.035156 27.175781 62.234375 C 26.914062 62.492188 26.816406 62.71875 26.816406 63.0625 C 26.816406 63.496094 26.988281 63.792969 27.371094 64.050781 C 27.777344 64.320312 27.0625 64.300781 36.738281 64.300781 C 46.214844 64.300781 45.605469 64.3125 45.972656 64.097656 C 46.320312 63.894531 46.59375 63.453125 46.59375 63.097656 C 46.59375 62.527344 46.222656 62.0625 45.625 61.878906 C 45.363281 61.800781 28.078125 61.804688 27.78125 61.882812 M 29.035156 64.84375 C 28.714844 64.957031 28.421875 65.238281 28.308594 65.550781 C 28.246094 65.722656 28.25 66.097656 28.320312 66.300781 C 28.394531 66.523438 28.648438 66.808594 28.882812 66.925781 L 29.066406 67.019531 L 36.695312 67.027344 C 45.296875 67.039062 44.519531 67.066406 44.882812 66.734375 C 45.140625 66.5 45.25 66.257812 45.25 65.910156 C 45.25 65.484375 45.007812 65.097656 44.617188 64.898438 L 44.4375 64.808594 L 36.808594 64.800781 C 30.460938 64.792969 29.15625 64.800781 29.035156 64.84375 M 30.601562 67.476562 C 30.425781 67.566406 30.207031 67.792969 30.128906 67.957031 C 30.054688 68.121094 30.039062 68.40625 30.097656 68.617188 C 30.148438 68.800781 30.371094 69.046875 30.585938 69.160156 L 30.769531 69.25 L 42.804688 69.25 L 43 69.140625 C 43.6875 68.765625 43.683594 67.855469 42.992188 67.503906 L 42.808594 67.414062 L 36.761719 67.414062 C 31.332031 67.414062 30.703125 67.421875 30.601562 67.476562 M 32.515625 69.648438 C 32.214844 69.757812 32.050781 70.027344 32.105469 70.320312 C 32.242188 71.042969 34.132812 72.28125 35.707031 72.679688 C 36.792969 72.953125 37.957031 72.699219 39.273438 71.90625 C 39.988281 71.472656 40.785156 70.777344 40.941406 70.445312 C 41.074219 70.164062 40.996094 69.828125 40.757812 69.671875 C 40.660156 69.609375 40.441406 69.605469 36.660156 69.597656 C 33.234375 69.59375 32.644531 69.601562 32.515625 69.648438 " clip-rule="evenodd"/></clipPath><linearGradient x1="348.254157" gradientTransform="matrix(0.234306, 0, 0, 0.234306, -8.616268, 0.43131)" y1="286.509308" x2="29.58212" gradientUnits="userSpaceOnUse" y2="97.663705" id="5a63f9c1ed"><stop stop-opacity="1" stop-color="rgb(100%, 56.898499%, 30.198669%)" offset="0"/><stop stop-opacity="1" stop-color="rgb(100%, 56.898499%, 30.198669%)" offset="0.25"/><stop stop-opacity="1" stop-color="rgb(100%, 56.898499%, 30.198669%)" offset="0.28125"/><stop stop-opacity="1" stop-color="rgb(99.993896%, 56.8573%, 30.314636%)" offset="0.296875"/><stop stop-opacity="1" stop-color="rgb(99.960327%, 56.625366%, 30.97229%)" offset="0.300781"/><stop stop-opacity="1" stop-color="rgb(99.932861%, 56.434631%, 31.513977%)" offset="0.304688"/><stop stop-opacity="1" stop-color="rgb(99.905396%, 56.242371%, 32.054138%)" offset="0.308594"/><stop stop-opacity="1" stop-color="rgb(99.879456%, 56.051636%, 32.595825%)" offset="0.3125"/><stop stop-opacity="1" stop-color="rgb(99.85199%, 55.859375%, 33.135986%)" offset="0.316406"/><stop stop-opacity="1" stop-color="rgb(99.824524%, 55.66864%, 33.677673%)" offset="0.320312"/><stop stop-opacity="1" stop-color="rgb(99.797058%, 55.476379%, 34.21936%)" offset="0.324219"/><stop stop-opacity="1" stop-color="rgb(99.771118%, 55.285645%, 34.761047%)" offset="0.328125"/><stop stop-opacity="1" stop-color="rgb(99.743652%, 55.093384%, 35.301208%)" offset="0.332031"/><stop stop-opacity="1" stop-color="rgb(99.716187%, 54.902649%, 35.842896%)" offset="0.335938"/><stop stop-opacity="1" stop-color="rgb(99.688721%, 54.710388%, 36.383057%)" offset="0.339844"/><stop stop-opacity="1" stop-color="rgb(99.661255%, 54.519653%, 36.924744%)" offset="0.34375"/><stop stop-opacity="1" stop-color="rgb(99.633789%, 54.327393%, 37.466431%)" offset="0.347656"/><stop stop-opacity="1" stop-color="rgb(99.607849%, 54.136658%, 38.008118%)" offset="0.351562"/><stop stop-opacity="1" stop-color="rgb(99.580383%, 53.944397%, 38.548279%)" offset="0.355469"/><stop stop-opacity="1" stop-color="rgb(99.552917%, 53.753662%, 39.089966%)" offset="0.359375"/><stop stop-opacity="1" stop-color="rgb(99.525452%, 53.561401%, 39.630127%)" offset="0.363281"/><stop stop-opacity="1" stop-color="rgb(99.499512%, 53.370667%, 40.171814%)" offset="0.367188"/><stop stop-opacity="1" stop-color="rgb(99.472046%, 53.178406%, 40.713501%)" offset="0.371094"/><stop stop-opacity="1" stop-color="rgb(99.44458%, 52.987671%, 41.255188%)" offset="0.375"/><stop stop-opacity="1" stop-color="rgb(99.417114%, 52.79541%, 41.795349%)" offset="0.378906"/><stop stop-opacity="1" stop-color="rgb(99.391174%, 52.604675%, 42.337036%)" offset="0.382812"/><stop stop-opacity="1" stop-color="rgb(99.363708%, 52.412415%, 42.877197%)" offset="0.386719"/><stop stop-opacity="1" stop-color="rgb(99.336243%, 52.22168%, 43.418884%)" offset="0.390625"/><stop stop-opacity="1" stop-color="rgb(99.308777%, 52.029419%, 43.960571%)" offset="0.394531"/><stop stop-opacity="1" stop-color="rgb(99.281311%, 51.838684%, 44.502258%)" offset="0.398437"/><stop stop-opacity="1" stop-color="rgb(99.253845%, 51.646423%, 45.042419%)" offset="0.402344"/><stop stop-opacity="1" stop-color="rgb(99.227905%, 51.455688%, 45.584106%)" offset="0.40625"/><stop stop-opacity="1" stop-color="rgb(99.200439%, 51.263428%, 46.124268%)" offset="0.410156"/><stop stop-opacity="1" stop-color="rgb(99.172974%, 51.072693%, 46.665955%)" offset="0.414062"/><stop stop-opacity="1" stop-color="rgb(99.145508%, 50.880432%, 47.207642%)" offset="0.417969"/><stop stop-opacity="1" stop-color="rgb(99.119568%, 50.689697%, 47.749329%)" offset="0.421875"/><stop stop-opacity="1" stop-color="rgb(99.092102%, 50.497437%, 48.28949%)" offset="0.425781"/><stop stop-opacity="1" stop-color="rgb(99.064636%, 50.305176%, 48.831177%)" offset="0.429688"/><stop stop-opacity="1" stop-color="rgb(99.03717%, 50.112915%, 49.371338%)" offset="0.433594"/><stop stop-opacity="1" stop-color="rgb(99.01123%, 49.92218%, 49.913025%)" offset="0.4375"/><stop stop-opacity="1" stop-color="rgb(98.983765%, 49.729919%, 50.454712%)" offset="0.441406"/><stop stop-opacity="1" stop-color="rgb(98.956299%, 49.539185%, 50.996399%)" offset="0.445312"/><stop stop-opacity="1" stop-color="rgb(98.928833%, 49.346924%, 51.53656%)" offset="0.449219"/><stop stop-opacity="1" stop-color="rgb(98.902893%, 49.156189%, 52.078247%)" offset="0.453125"/><stop stop-opacity="1" stop-color="rgb(98.875427%, 48.963928%, 52.618408%)" offset="0.457031"/><stop stop-opacity="1" stop-color="rgb(98.847961%, 48.773193%, 53.160095%)" offset="0.460938"/><stop stop-opacity="1" stop-color="rgb(98.820496%, 48.580933%, 53.701782%)" offset="0.464844"/><stop stop-opacity="1" stop-color="rgb(98.79303%, 48.390198%, 54.243469%)" offset="0.46875"/><stop stop-opacity="1" stop-color="rgb(98.765564%, 48.197937%, 54.78363%)" offset="0.472656"/><stop stop-opacity="1" stop-color="rgb(98.739624%, 48.007202%, 55.325317%)" offset="0.476562"/><stop stop-opacity="1" stop-color="rgb(98.712158%, 47.814941%, 55.865479%)" offset="0.480469"/><stop stop-opacity="1" stop-color="rgb(98.684692%, 47.624207%, 56.407166%)" offset="0.484375"/><stop stop-opacity="1" stop-color="rgb(98.657227%, 47.431946%, 56.948853%)" offset="0.488281"/><stop stop-opacity="1" stop-color="rgb(98.631287%, 47.241211%, 57.49054%)" offset="0.492188"/><stop stop-opacity="1" stop-color="rgb(98.603821%, 47.04895%, 58.030701%)" offset="0.496094"/><stop stop-opacity="1" stop-color="rgb(98.576355%, 46.858215%, 58.572388%)" offset="0.5"/><stop stop-opacity="1" stop-color="rgb(98.548889%, 46.665955%, 59.112549%)" offset="0.503906"/><stop stop-opacity="1" stop-color="rgb(98.522949%, 46.47522%, 59.654236%)" offset="0.507813"/><stop stop-opacity="1" stop-color="rgb(98.495483%, 46.282959%, 60.195923%)" offset="0.511719"/><stop stop-opacity="1" stop-color="rgb(98.468018%, 46.092224%, 60.73761%)" offset="0.515625"/><stop stop-opacity="1" stop-color="rgb(98.440552%, 45.899963%, 61.277771%)" offset="0.519531"/><stop stop-opacity="1" stop-color="rgb(98.413086%, 45.709229%, 61.819458%)" offset="0.523438"/><stop stop-opacity="1" stop-color="rgb(98.38562%, 45.516968%, 62.359619%)" offset="0.527344"/><stop stop-opacity="1" stop-color="rgb(98.35968%, 45.326233%, 62.901306%)" offset="0.53125"/><stop stop-opacity="1" stop-color="rgb(98.332214%, 45.133972%, 63.442993%)" offset="0.535156"/><stop stop-opacity="1" stop-color="rgb(98.304749%, 44.943237%, 63.98468%)" offset="0.539062"/><stop stop-opacity="1" stop-color="rgb(98.277283%, 44.750977%, 64.524841%)" offset="0.542969"/><stop stop-opacity="1" stop-color="rgb(98.251343%, 44.560242%, 65.066528%)" offset="0.546875"/><stop stop-opacity="1" stop-color="rgb(98.223877%, 44.367981%, 65.606689%)" offset="0.550781"/><stop stop-opacity="1" stop-color="rgb(98.196411%, 44.177246%, 66.148376%)" offset="0.554688"/><stop stop-opacity="1" stop-color="rgb(98.168945%, 43.984985%, 66.690063%)" offset="0.558594"/><stop stop-opacity="1" stop-color="rgb(98.143005%, 43.79425%, 67.23175%)" offset="0.5625"/><stop stop-opacity="1" stop-color="rgb(98.11554%, 43.60199%, 67.771912%)" offset="0.566406"/><stop stop-opacity="1" stop-color="rgb(98.088074%, 43.411255%, 68.313599%)" offset="0.570312"/><stop stop-opacity="1" stop-color="rgb(98.060608%, 43.218994%, 68.85376%)" offset="0.574219"/><stop stop-opacity="1" stop-color="rgb(98.033142%, 43.028259%, 69.395447%)" offset="0.578125"/><stop stop-opacity="1" stop-color="rgb(98.005676%, 42.835999%, 69.937134%)" offset="0.582031"/><stop stop-opacity="1" stop-color="rgb(97.979736%, 42.645264%, 70.478821%)" offset="0.585938"/><stop stop-opacity="1" stop-color="rgb(97.952271%, 42.453003%, 71.018982%)" offset="0.589844"/><stop stop-opacity="1" stop-color="rgb(97.924805%, 42.262268%, 71.560669%)" offset="0.59375"/><stop stop-opacity="1" stop-color="rgb(97.897339%, 42.070007%, 72.10083%)" offset="0.597656"/><stop stop-opacity="1" stop-color="rgb(97.871399%, 41.879272%, 72.642517%)" offset="0.601562"/><stop stop-opacity="1" stop-color="rgb(97.843933%, 41.687012%, 73.184204%)" offset="0.605469"/><stop stop-opacity="1" stop-color="rgb(97.816467%, 41.496277%, 73.725891%)" offset="0.609375"/><stop stop-opacity="1" stop-color="rgb(97.789001%, 41.304016%, 74.266052%)" offset="0.613281"/><stop stop-opacity="1" stop-color="rgb(97.763062%, 41.113281%, 74.807739%)" offset="0.617188"/><stop stop-opacity="1" stop-color="rgb(97.735596%, 40.921021%, 75.3479%)" offset="0.621094"/><stop stop-opacity="1" stop-color="rgb(97.70813%, 40.730286%, 75.889587%)" offset="0.625"/><stop stop-opacity="1" stop-color="rgb(97.680664%, 40.538025%, 76.431274%)" offset="0.628906"/><stop stop-opacity="1" stop-color="rgb(97.653198%, 40.34729%, 76.972961%)" offset="0.632812"/><stop stop-opacity="1" stop-color="rgb(97.625732%, 40.155029%, 77.513123%)" offset="0.636719"/><stop stop-opacity="1" stop-color="rgb(97.599792%, 39.964294%, 78.05481%)" offset="0.640625"/><stop stop-opacity="1" stop-color="rgb(97.572327%, 39.772034%, 78.594971%)" offset="0.644531"/><stop stop-opacity="1" stop-color="rgb(97.544861%, 39.581299%, 79.136658%)" offset="0.648438"/><stop stop-opacity="1" stop-color="rgb(97.517395%, 39.389038%, 79.678345%)" offset="0.652344"/><stop stop-opacity="1" stop-color="rgb(97.491455%, 39.198303%, 80.220032%)" offset="0.65625"/><stop stop-opacity="1" stop-color="rgb(97.463989%, 39.006042%, 80.760193%)" offset="0.660156"/><stop stop-opacity="1" stop-color="rgb(97.436523%, 38.815308%, 81.30188%)" offset="0.664062"/><stop stop-opacity="1" stop-color="rgb(97.409058%, 38.623047%, 81.842041%)" offset="0.667969"/><stop stop-opacity="1" stop-color="rgb(97.383118%, 38.432312%, 82.383728%)" offset="0.671875"/><stop stop-opacity="1" stop-color="rgb(97.355652%, 38.240051%, 82.925415%)" offset="0.675781"/><stop stop-opacity="1" stop-color="rgb(97.328186%, 38.049316%, 83.467102%)" offset="0.679688"/><stop stop-opacity="1" stop-color="rgb(97.30072%, 37.857056%, 84.007263%)" offset="0.683594"/><stop stop-opacity="1" stop-color="rgb(97.273254%, 37.666321%, 84.54895%)" offset="0.6875"/><stop stop-opacity="1" stop-color="rgb(97.245789%, 37.47406%, 85.089111%)" offset="0.691406"/><stop stop-opacity="1" stop-color="rgb(97.219849%, 37.283325%, 85.630798%)" offset="0.695312"/><stop stop-opacity="1" stop-color="rgb(97.192383%, 37.091064%, 86.172485%)" offset="0.699219"/><stop stop-opacity="1" stop-color="rgb(97.164917%, 36.90033%, 86.714172%)" offset="0.703125"/><stop stop-opacity="1" stop-color="rgb(97.137451%, 36.708069%, 87.254333%)" offset="0.707031"/><stop stop-opacity="1" stop-color="rgb(97.111511%, 36.517334%, 87.796021%)" offset="0.710937"/><stop stop-opacity="1" stop-color="rgb(97.084045%, 36.325073%, 88.336182%)" offset="0.714844"/><stop stop-opacity="1" stop-color="rgb(97.05658%, 36.134338%, 88.877869%)" offset="0.71875"/><stop stop-opacity="1" stop-color="rgb(97.029114%, 35.942078%, 89.419556%)" offset="0.722656"/><stop stop-opacity="1" stop-color="rgb(97.003174%, 35.751343%, 89.961243%)" offset="0.726562"/><stop stop-opacity="1" stop-color="rgb(96.975708%, 35.559082%, 90.501404%)" offset="0.730469"/><stop stop-opacity="1" stop-color="rgb(96.948242%, 35.368347%, 91.043091%)" offset="0.734375"/><stop stop-opacity="1" stop-color="rgb(96.920776%, 35.176086%, 91.583252%)" offset="0.738281"/><stop stop-opacity="1" stop-color="rgb(96.893311%, 34.985352%, 92.124939%)" offset="0.742187"/><stop stop-opacity="1" stop-color="rgb(96.865845%, 34.793091%, 92.666626%)" offset="0.746094"/><stop stop-opacity="1" stop-color="rgb(96.839905%, 34.602356%, 93.208313%)" offset="0.75"/><stop stop-opacity="1" stop-color="rgb(96.812439%, 34.410095%, 93.748474%)" offset="0.753906"/><stop stop-opacity="1" stop-color="rgb(96.784973%, 34.21936%, 94.290161%)" offset="0.757813"/><stop stop-opacity="1" stop-color="rgb(96.757507%, 34.0271%, 94.830322%)" offset="0.761719"/><stop stop-opacity="1" stop-color="rgb(96.731567%, 33.836365%, 95.372009%)" offset="0.765625"/><stop stop-opacity="1" stop-color="rgb(96.704102%, 33.644104%, 95.913696%)" offset="0.769531"/><stop stop-opacity="1" stop-color="rgb(96.676636%, 33.453369%, 96.455383%)" offset="0.773438"/><stop stop-opacity="1" stop-color="rgb(96.64917%, 33.261108%, 96.995544%)" offset="0.777344"/><stop stop-opacity="1" stop-color="rgb(96.62323%, 33.070374%, 97.537231%)" offset="0.78125"/><stop stop-opacity="1" stop-color="rgb(96.595764%, 32.878113%, 98.077393%)" offset="0.785156"/><stop stop-opacity="1" stop-color="rgb(96.568298%, 32.687378%, 98.61908%)" offset="0.789063"/><stop stop-opacity="1" stop-color="rgb(96.540833%, 32.495117%, 99.160767%)" offset="0.792969"/><stop stop-opacity="1" stop-color="rgb(96.514893%, 32.304382%, 99.702454%)" offset="0.796875"/><stop stop-opacity="1" stop-color="rgb(96.507263%, 32.250977%, 99.850464%)" offset="0.8125"/><stop stop-opacity="1" stop-color="rgb(96.499634%, 32.199097%, 100%)" offset="0.875"/><stop stop-opacity="1" stop-color="rgb(96.499634%, 32.199097%, 100%)" offset="1"/></linearGradient></defs><g clip-path="url(#69e11667fd)"><g clip-path="url(#80f6ef4a91)"><path fill="url(#5a63f9c1ed)" d="M 1.980469 17.132812 L 1.980469 72.953125 L 69.789062 72.953125 L 69.789062 17.132812 Z M 1.980469 17.132812 " fill-rule="nonzero"/></g></g><g fill="#ffffff" fill-opacity="1"><g transform="translate(70.039946, 43.5008)"><g><path d="M 4.703125 -8.609375 C 5.441406 -8.609375 6.085938 -8.484375 6.640625 -8.234375 C 7.191406 -7.992188 7.613281 -7.644531 7.90625 -7.1875 C 8.207031 -6.726562 8.359375 -6.179688 8.359375 -5.546875 C 8.359375 -4.921875 8.207031 -4.375 7.90625 -3.90625 C 7.613281 -3.445312 7.191406 -3.09375 6.640625 -2.84375 C 6.085938 -2.601562 5.441406 -2.484375 4.703125 -2.484375 L 2.75 -2.484375 L 2.75 0 L 1.15625 0 L 1.15625 -8.609375 Z M 4.625 -3.84375 C 5.320312 -3.84375 5.847656 -3.988281 6.203125 -4.28125 C 6.566406 -4.570312 6.75 -4.992188 6.75 -5.546875 C 6.75 -6.097656 6.566406 -6.519531 6.203125 -6.8125 C 5.847656 -7.101562 5.320312 -7.25 4.625 -7.25 L 2.75 -7.25 L 2.75 -3.84375 Z M 4.625 -3.84375 "/></g></g></g><g fill="#ffffff" fill-opacity="1"><g transform="translate(78.959849, 43.5008)"><g><path d="M 1.015625 -9.125 L 2.546875 -9.125 L 2.546875 0 L 1.015625 0 Z M 1.015625 -9.125 "/></g></g></g><g fill="#ffffff" fill-opacity="1"><g transform="translate(82.510612, 43.5008)"><g><path d="M 3.515625 -6.640625 C 4.484375 -6.640625 5.222656 -6.40625 5.734375 -5.9375 C 6.242188 -5.476562 6.5 -4.78125 6.5 -3.84375 L 6.5 0 L 5.046875 0 L 5.046875 -0.796875 C 4.859375 -0.515625 4.585938 -0.296875 4.234375 -0.140625 C 3.890625 0.015625 3.472656 0.09375 2.984375 0.09375 C 2.492188 0.09375 2.0625 0.0078125 1.6875 -0.15625 C 1.320312 -0.332031 1.039062 -0.566406 0.84375 -0.859375 C 0.644531 -1.160156 0.546875 -1.5 0.546875 -1.875 C 0.546875 -2.46875 0.765625 -2.941406 1.203125 -3.296875 C 1.640625 -3.660156 2.328125 -3.84375 3.265625 -3.84375 L 4.96875 -3.84375 L 4.96875 -3.9375 C 4.96875 -4.394531 4.828125 -4.742188 4.546875 -4.984375 C 4.273438 -5.234375 3.867188 -5.359375 3.328125 -5.359375 C 2.960938 -5.359375 2.597656 -5.300781 2.234375 -5.1875 C 1.878906 -5.070312 1.582031 -4.910156 1.34375 -4.703125 L 0.734375 -5.828125 C 1.078125 -6.085938 1.488281 -6.285156 1.96875 -6.421875 C 2.457031 -6.566406 2.972656 -6.640625 3.515625 -6.640625 Z M 3.3125 -1.03125 C 3.695312 -1.03125 4.035156 -1.117188 4.328125 -1.296875 C 4.628906 -1.472656 4.84375 -1.722656 4.96875 -2.046875 L 4.96875 -2.8125 L 3.375 -2.8125 C 2.488281 -2.8125 2.046875 -2.519531 2.046875 -1.9375 C 2.046875 -1.664062 2.15625 -1.445312 2.375 -1.28125 C 2.601562 -1.113281 2.914062 -1.03125 3.3125 -1.03125 Z M 3.3125 -1.03125 "/></g></g></g><g fill="#ffffff" fill-opacity="1"><g transform="translate(89.968431, 43.5008)"><g><path d="M 4.953125 -0.359375 C 4.773438 -0.210938 4.554688 -0.0976562 4.296875 -0.015625 C 4.035156 0.0546875 3.765625 0.09375 3.484375 0.09375 C 2.753906 0.09375 2.191406 -0.09375 1.796875 -0.46875 C 1.410156 -0.851562 1.21875 -1.40625 1.21875 -2.125 L 1.21875 -5.28125 L 0.140625 -5.28125 L 0.140625 -6.515625 L 1.21875 -6.515625 L 1.21875 -8.015625 L 2.75 -8.015625 L 2.75 -6.515625 L 4.515625 -6.515625 L 4.515625 -5.28125 L 2.75 -5.28125 L 2.75 -2.171875 C 2.75 -1.847656 2.828125 -1.601562 2.984375 -1.4375 C 3.140625 -1.269531 3.367188 -1.1875 3.671875 -1.1875 C 4.015625 -1.1875 4.300781 -1.273438 4.53125 -1.453125 Z M 4.953125 -0.359375 "/></g></g></g><g fill="#ffffff" fill-opacity="1"><g transform="translate(95.177851, 43.5008)"><g><path d="M 3.515625 -6.640625 C 4.484375 -6.640625 5.222656 -6.40625 5.734375 -5.9375 C 6.242188 -5.476562 6.5 -4.78125 6.5 -3.84375 L 6.5 0 L 5.046875 0 L 5.046875 -0.796875 C 4.859375 -0.515625 4.585938 -0.296875 4.234375 -0.140625 C 3.890625 0.015625 3.472656 0.09375 2.984375 0.09375 C 2.492188 0.09375 2.0625 0.0078125 1.6875 -0.15625 C 1.320312 -0.332031 1.039062 -0.566406 0.84375 -0.859375 C 0.644531 -1.160156 0.546875 -1.5 0.546875 -1.875 C 0.546875 -2.46875 0.765625 -2.941406 1.203125 -3.296875 C 1.640625 -3.660156 2.328125 -3.84375 3.265625 -3.84375 L 4.96875 -3.84375 L 4.96875 -3.9375 C 4.96875 -4.394531 4.828125 -4.742188 4.546875 -4.984375 C 4.273438 -5.234375 3.867188 -5.359375 3.328125 -5.359375 C 2.960938 -5.359375 2.597656 -5.300781 2.234375 -5.1875 C 1.878906 -5.070312 1.582031 -4.910156 1.34375 -4.703125 L 0.734375 -5.828125 C 1.078125 -6.085938 1.488281 -6.285156 1.96875 -6.421875 C 2.457031 -6.566406 2.972656 -6.640625 3.515625 -6.640625 Z M 3.3125 -1.03125 C 3.695312 -1.03125 4.035156 -1.117188 4.328125 -1.296875 C 4.628906 -1.472656 4.84375 -1.722656 4.96875 -2.046875 L 4.96875 -2.8125 L 3.375 -2.8125 C 2.488281 -2.8125 2.046875 -2.519531 2.046875 -1.9375 C 2.046875 -1.664062 2.15625 -1.445312 2.375 -1.28125 C 2.601562 -1.113281 2.914062 -1.03125 3.3125 -1.03125 Z M 3.3125 -1.03125 "/></g></g></g><g fill="#ffffff" fill-opacity="1"><g transform="translate(102.63567, 43.5008)"><g><path d="M 3.671875 -7.96875 C 3.023438 -7.96875 2.703125 -7.613281 2.703125 -6.90625 L 2.703125 -6.515625 L 4.515625 -6.515625 L 4.515625 -5.28125 L 2.75 -5.28125 L 2.75 0 L 1.21875 0 L 1.21875 -5.28125 L 0.140625 -5.28125 L 0.140625 -6.515625 L 1.21875 -6.515625 L 1.21875 -6.9375 C 1.21875 -7.644531 1.421875 -8.195312 1.828125 -8.59375 C 2.242188 -9 2.820312 -9.203125 3.5625 -9.203125 C 4.15625 -9.203125 4.617188 -9.085938 4.953125 -8.859375 L 4.53125 -7.703125 C 4.257812 -7.878906 3.972656 -7.96875 3.671875 -7.96875 Z M 3.671875 -7.96875 "/></g></g></g><g fill="#ffffff" fill-opacity="1"><g transform="translate(107.169334, 43.5008)"><g><path d="M 3.953125 0.09375 C 3.296875 0.09375 2.695312 -0.0507812 2.15625 -0.34375 C 1.625 -0.632812 1.207031 -1.035156 0.90625 -1.546875 C 0.613281 -2.054688 0.46875 -2.632812 0.46875 -3.28125 C 0.46875 -3.925781 0.613281 -4.503906 0.90625 -5.015625 C 1.207031 -5.523438 1.625 -5.921875 2.15625 -6.203125 C 2.695312 -6.492188 3.296875 -6.640625 3.953125 -6.640625 C 4.628906 -6.640625 5.234375 -6.492188 5.765625 -6.203125 C 6.296875 -5.921875 6.710938 -5.523438 7.015625 -5.015625 C 7.316406 -4.503906 7.46875 -3.925781 7.46875 -3.28125 C 7.46875 -2.632812 7.316406 -2.054688 7.015625 -1.546875 C 6.710938 -1.035156 6.296875 -0.632812 5.765625 -0.34375 C 5.234375 -0.0507812 4.628906 0.09375 3.953125 0.09375 Z M 3.953125 -1.234375 C 4.523438 -1.234375 4.992188 -1.421875 5.359375 -1.796875 C 5.734375 -2.171875 5.921875 -2.664062 5.921875 -3.28125 C 5.921875 -3.894531 5.734375 -4.390625 5.359375 -4.765625 C 4.992188 -5.148438 4.523438 -5.34375 3.953125 -5.34375 C 3.390625 -5.34375 2.925781 -5.148438 2.5625 -4.765625 C 2.195312 -4.390625 2.015625 -3.894531 2.015625 -3.28125 C 2.015625 -2.664062 2.195312 -2.171875 2.5625 -1.796875 C 2.925781 -1.421875 3.390625 -1.234375 3.953125 -1.234375 Z M 3.953125 -1.234375 "/></g></g></g><g fill="#ffffff" fill-opacity="1"><g transform="translate(115.094041, 43.5008)"><g><path d="M 2.46875 -5.609375 C 2.914062 -6.296875 3.695312 -6.640625 4.8125 -6.640625 L 4.8125 -5.171875 C 4.675781 -5.203125 4.554688 -5.21875 4.453125 -5.21875 C 3.847656 -5.21875 3.378906 -5.039062 3.046875 -4.6875 C 2.710938 -4.34375 2.546875 -3.84375 2.546875 -3.1875 L 2.546875 0 L 1.015625 0 L 1.015625 -6.5625 L 2.46875 -6.5625 Z M 2.46875 -5.609375 "/></g></g></g><g fill="#ffffff" fill-opacity="1"><g transform="translate(120.254311, 43.5008)"><g><path d="M 9.296875 -6.640625 C 10.117188 -6.640625 10.769531 -6.398438 11.25 -5.921875 C 11.738281 -5.441406 11.984375 -4.722656 11.984375 -3.765625 L 11.984375 0 L 10.453125 0 L 10.453125 -3.5625 C 10.453125 -4.132812 10.320312 -4.566406 10.0625 -4.859375 C 9.8125 -5.148438 9.453125 -5.296875 8.984375 -5.296875 C 8.460938 -5.296875 8.046875 -5.125 7.734375 -4.78125 C 7.421875 -4.445312 7.265625 -3.960938 7.265625 -3.328125 L 7.265625 0 L 5.734375 0 L 5.734375 -3.5625 C 5.734375 -4.132812 5.601562 -4.566406 5.34375 -4.859375 C 5.09375 -5.148438 4.726562 -5.296875 4.25 -5.296875 C 3.726562 -5.296875 3.3125 -5.128906 3 -4.796875 C 2.695312 -4.460938 2.546875 -3.972656 2.546875 -3.328125 L 2.546875 0 L 1.015625 0 L 1.015625 -6.5625 L 2.46875 -6.5625 L 2.46875 -5.734375 C 2.71875 -6.023438 3.023438 -6.25 3.390625 -6.40625 C 3.765625 -6.5625 4.175781 -6.640625 4.625 -6.640625 C 5.113281 -6.640625 5.546875 -6.546875 5.921875 -6.359375 C 6.304688 -6.179688 6.613281 -5.910156 6.84375 -5.546875 C 7.113281 -5.890625 7.457031 -6.15625 7.875 -6.34375 C 8.300781 -6.539062 8.773438 -6.640625 9.296875 -6.640625 Z M 9.296875 -6.640625 "/></g></g></g><g fill="#ffffff" fill-opacity="1"><g transform="translate(133.191853, 43.5008)"><g><path d="M 3.515625 -6.640625 C 4.484375 -6.640625 5.222656 -6.40625 5.734375 -5.9375 C 6.242188 -5.476562 6.5 -4.78125 6.5 -3.84375 L 6.5 0 L 5.046875 0 L 5.046875 -0.796875 C 4.859375 -0.515625 4.585938 -0.296875 4.234375 -0.140625 C 3.890625 0.015625 3.472656 0.09375 2.984375 0.09375 C 2.492188 0.09375 2.0625 0.0078125 1.6875 -0.15625 C 1.320312 -0.332031 1.039062 -0.566406 0.84375 -0.859375 C 0.644531 -1.160156 0.546875 -1.5 0.546875 -1.875 C 0.546875 -2.46875 0.765625 -2.941406 1.203125 -3.296875 C 1.640625 -3.660156 2.328125 -3.84375 3.265625 -3.84375 L 4.96875 -3.84375 L 4.96875 -3.9375 C 4.96875 -4.394531 4.828125 -4.742188 4.546875 -4.984375 C 4.273438 -5.234375 3.867188 -5.359375 3.328125 -5.359375 C 2.960938 -5.359375 2.597656 -5.300781 2.234375 -5.1875 C 1.878906 -5.070312 1.582031 -4.910156 1.34375 -4.703125 L 0.734375 -5.828125 C 1.078125 -6.085938 1.488281 -6.285156 1.96875 -6.421875 C 2.457031 -6.566406 2.972656 -6.640625 3.515625 -6.640625 Z M 3.3125 -1.03125 C 3.695312 -1.03125 4.035156 -1.117188 4.328125 -1.296875 C 4.628906 -1.472656 4.84375 -1.722656 4.96875 -2.046875 L 4.96875 -2.8125 L 3.375 -2.8125 C 2.488281 -2.8125 2.046875 -2.519531 2.046875 -1.9375 C 2.046875 -1.664062 2.15625 -1.445312 2.375 -1.28125 C 2.601562 -1.113281 2.914062 -1.03125 3.3125 -1.03125 Z M 3.3125 -1.03125 "/></g></g></g><g fill="#ffffff" fill-opacity="1"><g transform="translate(140.649672, 43.5008)"><g/></g></g><g fill="#ffffff" fill-opacity="1"><g transform="translate(144.040704, 43.5008)"><g><path d="M 7.4375 -9.125 L 7.4375 0 L 5.96875 0 L 5.96875 -0.84375 C 5.707031 -0.53125 5.390625 -0.296875 5.015625 -0.140625 C 4.648438 0.015625 4.238281 0.09375 3.78125 0.09375 C 3.15625 0.09375 2.585938 -0.046875 2.078125 -0.328125 C 1.578125 -0.609375 1.179688 -1.003906 0.890625 -1.515625 C 0.609375 -2.023438 0.46875 -2.613281 0.46875 -3.28125 C 0.46875 -3.945312 0.609375 -4.53125 0.890625 -5.03125 C 1.179688 -5.539062 1.578125 -5.9375 2.078125 -6.21875 C 2.585938 -6.5 3.15625 -6.640625 3.78125 -6.640625 C 4.21875 -6.640625 4.613281 -6.566406 4.96875 -6.421875 C 5.332031 -6.273438 5.644531 -6.050781 5.90625 -5.75 L 5.90625 -9.125 Z M 3.96875 -1.234375 C 4.34375 -1.234375 4.675781 -1.316406 4.96875 -1.484375 C 5.257812 -1.648438 5.488281 -1.890625 5.65625 -2.203125 C 5.832031 -2.515625 5.921875 -2.875 5.921875 -3.28125 C 5.921875 -3.6875 5.832031 -4.046875 5.65625 -4.359375 C 5.488281 -4.671875 5.257812 -4.910156 4.96875 -5.078125 C 4.675781 -5.253906 4.34375 -5.34375 3.96875 -5.34375 C 3.601562 -5.34375 3.269531 -5.253906 2.96875 -5.078125 C 2.675781 -4.910156 2.441406 -4.671875 2.265625 -4.359375 C 2.097656 -4.046875 2.015625 -3.6875 2.015625 -3.28125 C 2.015625 -2.875 2.097656 -2.515625 2.265625 -2.203125 C 2.441406 -1.890625 2.675781 -1.648438 2.96875 -1.484375 C 3.269531 -1.316406 3.601562 -1.234375 3.96875 -1.234375 Z M 3.96875 -1.234375 "/></g></g></g><g fill="#ffffff" fill-opacity="1"><g transform="translate(152.481435, 43.5008)"><g><path d="M 3.953125 0.09375 C 3.296875 0.09375 2.695312 -0.0507812 2.15625 -0.34375 C 1.625 -0.632812 1.207031 -1.035156 0.90625 -1.546875 C 0.613281 -2.054688 0.46875 -2.632812 0.46875 -3.28125 C 0.46875 -3.925781 0.613281 -4.503906 0.90625 -5.015625 C 1.207031 -5.523438 1.625 -5.921875 2.15625 -6.203125 C 2.695312 -6.492188 3.296875 -6.640625 3.953125 -6.640625 C 4.628906 -6.640625 5.234375 -6.492188 5.765625 -6.203125 C 6.296875 -5.921875 6.710938 -5.523438 7.015625 -5.015625 C 7.316406 -4.503906 7.46875 -3.925781 7.46875 -3.28125 C 7.46875 -2.632812 7.316406 -2.054688 7.015625 -1.546875 C 6.710938 -1.035156 6.296875 -0.632812 5.765625 -0.34375 C 5.234375 -0.0507812 4.628906 0.09375 3.953125 0.09375 Z M 3.953125 -1.234375 C 4.523438 -1.234375 4.992188 -1.421875 5.359375 -1.796875 C 5.734375 -2.171875 5.921875 -2.664062 5.921875 -3.28125 C 5.921875 -3.894531 5.734375 -4.390625 5.359375 -4.765625 C 4.992188 -5.148438 4.523438 -5.34375 3.953125 -5.34375 C 3.390625 -5.34375 2.925781 -5.148438 2.5625 -4.765625 C 2.195312 -4.390625 2.015625 -3.894531 2.015625 -3.28125 C 2.015625 -2.664062 2.195312 -2.171875 2.5625 -1.796875 C 2.925781 -1.421875 3.390625 -1.234375 3.953125 -1.234375 Z M 3.953125 -1.234375 "/></g></g></g><g fill="#ffffff" fill-opacity="1"><g transform="translate(160.406142, 43.5008)"><g><path d="M 3.03125 0.09375 C 2.5 0.09375 1.976562 0.0234375 1.46875 -0.109375 C 0.96875 -0.253906 0.566406 -0.4375 0.265625 -0.65625 L 0.84375 -1.8125 C 1.144531 -1.625 1.5 -1.46875 1.90625 -1.34375 C 2.320312 -1.226562 2.734375 -1.171875 3.140625 -1.171875 C 4.054688 -1.171875 4.515625 -1.410156 4.515625 -1.890625 C 4.515625 -2.117188 4.394531 -2.28125 4.15625 -2.375 C 3.925781 -2.46875 3.550781 -2.550781 3.03125 -2.625 C 2.488281 -2.707031 2.046875 -2.800781 1.703125 -2.90625 C 1.367188 -3.019531 1.078125 -3.207031 0.828125 -3.46875 C 0.578125 -3.738281 0.453125 -4.113281 0.453125 -4.59375 C 0.453125 -5.207031 0.710938 -5.703125 1.234375 -6.078125 C 1.753906 -6.453125 2.457031 -6.640625 3.34375 -6.640625 C 3.789062 -6.640625 4.238281 -6.585938 4.6875 -6.484375 C 5.144531 -6.378906 5.515625 -6.242188 5.796875 -6.078125 L 5.21875 -4.90625 C 4.65625 -5.226562 4.023438 -5.390625 3.328125 -5.390625 C 2.878906 -5.390625 2.535156 -5.320312 2.296875 -5.1875 C 2.066406 -5.0625 1.953125 -4.882812 1.953125 -4.65625 C 1.953125 -4.414062 2.078125 -4.242188 2.328125 -4.140625 C 2.578125 -4.035156 2.96875 -3.9375 3.5 -3.84375 C 4.019531 -3.757812 4.445312 -3.664062 4.78125 -3.5625 C 5.113281 -3.457031 5.398438 -3.273438 5.640625 -3.015625 C 5.890625 -2.765625 6.015625 -2.40625 6.015625 -1.9375 C 6.015625 -1.320312 5.75 -0.828125 5.21875 -0.453125 C 4.6875 -0.0859375 3.957031 0.09375 3.03125 0.09375 Z M 3.03125 0.09375 "/></g></g></g><g fill="#ffffff" fill-opacity="1"><g transform="translate(166.733625, 43.5008)"><g/></g></g><g fill="#ff914d" fill-opacity="1"><g transform="translate(170.134962, 43.5008)"><g><path d="M 4.703125 -8.609375 C 5.441406 -8.609375 6.085938 -8.484375 6.640625 -8.234375 C 7.191406 -7.992188 7.613281 -7.644531 7.90625 -7.1875 C 8.207031 -6.726562 8.359375 -6.179688 8.359375 -5.546875 C 8.359375 -4.921875 8.207031 -4.375 7.90625 -3.90625 C 7.613281 -3.445312 7.191406 -3.09375 6.640625 -2.84375 C 6.085938 -2.601562 5.441406 -2.484375 4.703125 -2.484375 L 2.75 -2.484375 L 2.75 0 L 1.15625 0 L 1.15625 -8.609375 Z M 4.625 -3.84375 C 5.320312 -3.84375 5.847656 -3.988281 6.203125 -4.28125 C 6.566406 -4.570312 6.75 -4.992188 6.75 -5.546875 C 6.75 -6.097656 6.566406 -6.519531 6.203125 -6.8125 C 5.847656 -7.101562 5.320312 -7.25 4.625 -7.25 L 2.75 -7.25 L 2.75 -3.84375 Z M 4.625 -3.84375 "/></g></g></g><g fill="#ff914d" fill-opacity="1"><g transform="translate(179.054865, 43.5008)"><g><path d="M 2.46875 -5.609375 C 2.914062 -6.296875 3.695312 -6.640625 4.8125 -6.640625 L 4.8125 -5.171875 C 4.675781 -5.203125 4.554688 -5.21875 4.453125 -5.21875 C 3.847656 -5.21875 3.378906 -5.039062 3.046875 -4.6875 C 2.710938 -4.34375 2.546875 -3.84375 2.546875 -3.1875 L 2.546875 0 L 1.015625 0 L 1.015625 -6.5625 L 2.46875 -6.5625 Z M 2.46875 -5.609375 "/></g></g></g><g fill="#ff914d" fill-opacity="1"><g transform="translate(184.215136, 43.5008)"><g><path d="M 3.953125 0.09375 C 3.296875 0.09375 2.695312 -0.0507812 2.15625 -0.34375 C 1.625 -0.632812 1.207031 -1.035156 0.90625 -1.546875 C 0.613281 -2.054688 0.46875 -2.632812 0.46875 -3.28125 C 0.46875 -3.925781 0.613281 -4.503906 0.90625 -5.015625 C 1.207031 -5.523438 1.625 -5.921875 2.15625 -6.203125 C 2.695312 -6.492188 3.296875 -6.640625 3.953125 -6.640625 C 4.628906 -6.640625 5.234375 -6.492188 5.765625 -6.203125 C 6.296875 -5.921875 6.710938 -5.523438 7.015625 -5.015625 C 7.316406 -4.503906 7.46875 -3.925781 7.46875 -3.28125 C 7.46875 -2.632812 7.316406 -2.054688 7.015625 -1.546875 C 6.710938 -1.035156 6.296875 -0.632812 5.765625 -0.34375 C 5.234375 -0.0507812 4.628906 0.09375 3.953125 0.09375 Z M 3.953125 -1.234375 C 4.523438 -1.234375 4.992188 -1.421875 5.359375 -1.796875 C 5.734375 -2.171875 5.921875 -2.664062 5.921875 -3.28125 C 5.921875 -3.894531 5.734375 -4.390625 5.359375 -4.765625 C 4.992188 -5.148438 4.523438 -5.34375 3.953125 -5.34375 C 3.390625 -5.34375 2.925781 -5.148438 2.5625 -4.765625 C 2.195312 -4.390625 2.015625 -3.894531 2.015625 -3.28125 C 2.015625 -2.664062 2.195312 -2.171875 2.5625 -1.796875 C 2.925781 -1.421875 3.390625 -1.234375 3.953125 -1.234375 Z M 3.953125 -1.234375 "/></g></g></g><g fill="#ff914d" fill-opacity="1"><g transform="translate(192.139843, 43.5008)"><g><path d="M 0.328125 2.46875 C -0.316406 2.46875 -0.804688 2.34375 -1.140625 2.09375 L -0.703125 0.953125 C -0.472656 1.117188 -0.171875 1.203125 0.203125 1.203125 C 0.484375 1.203125 0.695312 1.113281 0.84375 0.9375 C 1 0.757812 1.078125 0.5 1.078125 0.15625 L 1.078125 -6.5625 L 2.625 -6.5625 L 2.625 0.125 C 2.625 0.851562 2.421875 1.425781 2.015625 1.84375 C 1.617188 2.257812 1.054688 2.46875 0.328125 2.46875 Z M 1.84375 -7.65625 C 1.5625 -7.65625 1.328125 -7.738281 1.140625 -7.90625 C 0.953125 -8.082031 0.859375 -8.304688 0.859375 -8.578125 C 0.859375 -8.835938 0.953125 -9.054688 1.140625 -9.234375 C 1.328125 -9.410156 1.5625 -9.5 1.84375 -9.5 C 2.125 -9.5 2.359375 -9.410156 2.546875 -9.234375 C 2.734375 -9.066406 2.828125 -8.859375 2.828125 -8.609375 C 2.828125 -8.335938 2.734375 -8.109375 2.546875 -7.921875 C 2.359375 -7.742188 2.125 -7.65625 1.84375 -7.65625 Z M 1.84375 -7.65625 "/></g></g></g><g fill="#ff914d" fill-opacity="1"><g transform="translate(195.764323, 43.5008)"><g><path d="M 7.1875 -3.25 C 7.1875 -3.144531 7.175781 -2.992188 7.15625 -2.796875 L 2 -2.796875 C 2.09375 -2.304688 2.328125 -1.921875 2.703125 -1.640625 C 3.085938 -1.359375 3.5625 -1.21875 4.125 -1.21875 C 4.851562 -1.21875 5.453125 -1.457031 5.921875 -1.9375 L 6.734375 -0.984375 C 6.441406 -0.628906 6.066406 -0.359375 5.609375 -0.171875 C 5.160156 0.00390625 4.65625 0.09375 4.09375 0.09375 C 3.375 0.09375 2.738281 -0.0507812 2.1875 -0.34375 C 1.632812 -0.632812 1.207031 -1.035156 0.90625 -1.546875 C 0.613281 -2.054688 0.46875 -2.632812 0.46875 -3.28125 C 0.46875 -3.925781 0.613281 -4.503906 0.90625 -5.015625 C 1.195312 -5.523438 1.597656 -5.921875 2.109375 -6.203125 C 2.628906 -6.492188 3.210938 -6.640625 3.859375 -6.640625 C 4.503906 -6.640625 5.078125 -6.5 5.578125 -6.21875 C 6.078125 -5.9375 6.46875 -5.535156 6.75 -5.015625 C 7.039062 -4.503906 7.1875 -3.914062 7.1875 -3.25 Z M 3.859375 -5.40625 C 3.367188 -5.40625 2.953125 -5.257812 2.609375 -4.96875 C 2.273438 -4.675781 2.066406 -4.289062 1.984375 -3.8125 L 5.71875 -3.8125 C 5.65625 -4.289062 5.453125 -4.675781 5.109375 -4.96875 C 4.773438 -5.257812 4.359375 -5.40625 3.859375 -5.40625 Z M 3.859375 -5.40625 "/></g></g></g><g fill="#ff914d" fill-opacity="1"><g transform="translate(203.406443, 43.5008)"><g><path d="M 4.953125 -0.359375 C 4.773438 -0.210938 4.554688 -0.0976562 4.296875 -0.015625 C 4.035156 0.0546875 3.765625 0.09375 3.484375 0.09375 C 2.753906 0.09375 2.191406 -0.09375 1.796875 -0.46875 C 1.410156 -0.851562 1.21875 -1.40625 1.21875 -2.125 L 1.21875 -5.28125 L 0.140625 -5.28125 L 0.140625 -6.515625 L 1.21875 -6.515625 L 1.21875 -8.015625 L 2.75 -8.015625 L 2.75 -6.515625 L 4.515625 -6.515625 L 4.515625 -5.28125 L 2.75 -5.28125 L 2.75 -2.171875 C 2.75 -1.847656 2.828125 -1.601562 2.984375 -1.4375 C 3.140625 -1.269531 3.367188 -1.1875 3.671875 -1.1875 C 4.015625 -1.1875 4.300781 -1.273438 4.53125 -1.453125 Z M 4.953125 -0.359375 "/></g></g></g><g fill="#ff914d" fill-opacity="1"><g transform="translate(208.615863, 43.5008)"><g><path d="M 3.953125 0.09375 C 3.296875 0.09375 2.695312 -0.0507812 2.15625 -0.34375 C 1.625 -0.632812 1.207031 -1.035156 0.90625 -1.546875 C 0.613281 -2.054688 0.46875 -2.632812 0.46875 -3.28125 C 0.46875 -3.925781 0.613281 -4.503906 0.90625 -5.015625 C 1.207031 -5.523438 1.625 -5.921875 2.15625 -6.203125 C 2.695312 -6.492188 3.296875 -6.640625 3.953125 -6.640625 C 4.628906 -6.640625 5.234375 -6.492188 5.765625 -6.203125 C 6.296875 -5.921875 6.710938 -5.523438 7.015625 -5.015625 C 7.316406 -4.503906 7.46875 -3.925781 7.46875 -3.28125 C 7.46875 -2.632812 7.316406 -2.054688 7.015625 -1.546875 C 6.710938 -1.035156 6.296875 -0.632812 5.765625 -0.34375 C 5.234375 -0.0507812 4.628906 0.09375 3.953125 0.09375 Z M 3.953125 -1.234375 C 4.523438 -1.234375 4.992188 -1.421875 5.359375 -1.796875 C 5.734375 -2.171875 5.921875 -2.664062 5.921875 -3.28125 C 5.921875 -3.894531 5.734375 -4.390625 5.359375 -4.765625 C 4.992188 -5.148438 4.523438 -5.34375 3.953125 -5.34375 C 3.390625 -5.34375 2.925781 -5.148438 2.5625 -4.765625 C 2.195312 -4.390625 2.015625 -3.894531 2.015625 -3.28125 C 2.015625 -2.664062 2.195312 -2.171875 2.5625 -1.796875 C 2.925781 -1.421875 3.390625 -1.234375 3.953125 -1.234375 Z M 3.953125 -1.234375 "/></g></g></g><g fill="#ff914d" fill-opacity="1"><g transform="translate(216.540569, 43.5008)"><g><path d="M 3.03125 0.09375 C 2.5 0.09375 1.976562 0.0234375 1.46875 -0.109375 C 0.96875 -0.253906 0.566406 -0.4375 0.265625 -0.65625 L 0.84375 -1.8125 C 1.144531 -1.625 1.5 -1.46875 1.90625 -1.34375 C 2.320312 -1.226562 2.734375 -1.171875 3.140625 -1.171875 C 4.054688 -1.171875 4.515625 -1.410156 4.515625 -1.890625 C 4.515625 -2.117188 4.394531 -2.28125 4.15625 -2.375 C 3.925781 -2.46875 3.550781 -2.550781 3.03125 -2.625 C 2.488281 -2.707031 2.046875 -2.800781 1.703125 -2.90625 C 1.367188 -3.019531 1.078125 -3.207031 0.828125 -3.46875 C 0.578125 -3.738281 0.453125 -4.113281 0.453125 -4.59375 C 0.453125 -5.207031 0.710938 -5.703125 1.234375 -6.078125 C 1.753906 -6.453125 2.457031 -6.640625 3.34375 -6.640625 C 3.789062 -6.640625 4.238281 -6.585938 4.6875 -6.484375 C 5.144531 -6.378906 5.515625 -6.242188 5.796875 -6.078125 L 5.21875 -4.90625 C 4.65625 -5.226562 4.023438 -5.390625 3.328125 -5.390625 C 2.878906 -5.390625 2.535156 -5.320312 2.296875 -5.1875 C 2.066406 -5.0625 1.953125 -4.882812 1.953125 -4.65625 C 1.953125 -4.414062 2.078125 -4.242188 2.328125 -4.140625 C 2.578125 -4.035156 2.96875 -3.9375 3.5 -3.84375 C 4.019531 -3.757812 4.445312 -3.664062 4.78125 -3.5625 C 5.113281 -3.457031 5.398438 -3.273438 5.640625 -3.015625 C 5.890625 -2.765625 6.015625 -2.40625 6.015625 -1.9375 C 6.015625 -1.320312 5.75 -0.828125 5.21875 -0.453125 C 4.6875 -0.0859375 3.957031 0.09375 3.03125 0.09375 Z M 3.03125 0.09375 "/></g></g></g><g fill="#f652ff" fill-opacity="1"><g transform="translate(70.039946, 53.995199)"><g><path d="M 1.15625 -8.609375 L 2.75 -8.609375 L 2.75 0 L 1.15625 0 Z M 1.15625 -8.609375 "/></g></g></g><g fill="#f652ff" fill-opacity="1"><g transform="translate(73.959298, 53.995199)"><g><path d="M 4.734375 -6.640625 C 5.554688 -6.640625 6.21875 -6.394531 6.71875 -5.90625 C 7.21875 -5.425781 7.46875 -4.710938 7.46875 -3.765625 L 7.46875 0 L 5.9375 0 L 5.9375 -3.5625 C 5.9375 -4.132812 5.800781 -4.566406 5.53125 -4.859375 C 5.257812 -5.148438 4.875 -5.296875 4.375 -5.296875 C 3.8125 -5.296875 3.363281 -5.125 3.03125 -4.78125 C 2.707031 -4.445312 2.546875 -3.957031 2.546875 -3.3125 L 2.546875 0 L 1.015625 0 L 1.015625 -6.5625 L 2.46875 -6.5625 L 2.46875 -5.71875 C 2.726562 -6.019531 3.050781 -6.25 3.4375 -6.40625 C 3.820312 -6.5625 4.253906 -6.640625 4.734375 -6.640625 Z M 4.734375 -6.640625 "/></g></g></g><g fill="#f652ff" fill-opacity="1"><g transform="translate(82.375461, 53.995199)"><g><path d="M 4.953125 -0.359375 C 4.773438 -0.210938 4.554688 -0.0976562 4.296875 -0.015625 C 4.035156 0.0546875 3.765625 0.09375 3.484375 0.09375 C 2.753906 0.09375 2.191406 -0.09375 1.796875 -0.46875 C 1.410156 -0.851562 1.21875 -1.40625 1.21875 -2.125 L 1.21875 -5.28125 L 0.140625 -5.28125 L 0.140625 -6.515625 L 1.21875 -6.515625 L 1.21875 -8.015625 L 2.75 -8.015625 L 2.75 -6.515625 L 4.515625 -6.515625 L 4.515625 -5.28125 L 2.75 -5.28125 L 2.75 -2.171875 C 2.75 -1.847656 2.828125 -1.601562 2.984375 -1.4375 C 3.140625 -1.269531 3.367188 -1.1875 3.671875 -1.1875 C 4.015625 -1.1875 4.300781 -1.273438 4.53125 -1.453125 Z M 4.953125 -0.359375 "/></g></g></g><g fill="#f652ff" fill-opacity="1"><g transform="translate(87.58488, 53.995199)"><g><path d="M 7.1875 -3.25 C 7.1875 -3.144531 7.175781 -2.992188 7.15625 -2.796875 L 2 -2.796875 C 2.09375 -2.304688 2.328125 -1.921875 2.703125 -1.640625 C 3.085938 -1.359375 3.5625 -1.21875 4.125 -1.21875 C 4.851562 -1.21875 5.453125 -1.457031 5.921875 -1.9375 L 6.734375 -0.984375 C 6.441406 -0.628906 6.066406 -0.359375 5.609375 -0.171875 C 5.160156 0.00390625 4.65625 0.09375 4.09375 0.09375 C 3.375 0.09375 2.738281 -0.0507812 2.1875 -0.34375 C 1.632812 -0.632812 1.207031 -1.035156 0.90625 -1.546875 C 0.613281 -2.054688 0.46875 -2.632812 0.46875 -3.28125 C 0.46875 -3.925781 0.613281 -4.503906 0.90625 -5.015625 C 1.195312 -5.523438 1.597656 -5.921875 2.109375 -6.203125 C 2.628906 -6.492188 3.210938 -6.640625 3.859375 -6.640625 C 4.503906 -6.640625 5.078125 -6.5 5.578125 -6.21875 C 6.078125 -5.9375 6.46875 -5.535156 6.75 -5.015625 C 7.039062 -4.503906 7.1875 -3.914062 7.1875 -3.25 Z M 3.859375 -5.40625 C 3.367188 -5.40625 2.953125 -5.257812 2.609375 -4.96875 C 2.273438 -4.675781 2.066406 -4.289062 1.984375 -3.8125 L 5.71875 -3.8125 C 5.65625 -4.289062 5.453125 -4.675781 5.109375 -4.96875 C 4.773438 -5.257812 4.359375 -5.40625 3.859375 -5.40625 Z M 3.859375 -5.40625 "/></g></g></g><g fill="#f652ff" fill-opacity="1"><g transform="translate(95.227, 53.995199)"><g><path d="M 7.53125 -6.5625 L 7.53125 -1 C 7.53125 1.3125 6.347656 2.46875 3.984375 2.46875 C 3.347656 2.46875 2.75 2.382812 2.1875 2.21875 C 1.625 2.0625 1.15625 1.832031 0.78125 1.53125 L 1.46875 0.375 C 1.757812 0.613281 2.125 0.804688 2.5625 0.953125 C 3 1.097656 3.441406 1.171875 3.890625 1.171875 C 4.617188 1.171875 5.148438 1.003906 5.484375 0.671875 C 5.816406 0.347656 5.984375 -0.148438 5.984375 -0.828125 L 5.984375 -1.171875 C 5.722656 -0.878906 5.40625 -0.660156 5.03125 -0.515625 C 4.65625 -0.367188 4.238281 -0.296875 3.78125 -0.296875 C 3.164062 -0.296875 2.601562 -0.425781 2.09375 -0.6875 C 1.59375 -0.957031 1.195312 -1.332031 0.90625 -1.8125 C 0.613281 -2.300781 0.46875 -2.859375 0.46875 -3.484375 C 0.46875 -4.109375 0.613281 -4.660156 0.90625 -5.140625 C 1.195312 -5.617188 1.59375 -5.988281 2.09375 -6.25 C 2.601562 -6.507812 3.164062 -6.640625 3.78125 -6.640625 C 4.257812 -6.640625 4.691406 -6.5625 5.078125 -6.40625 C 5.472656 -6.25 5.800781 -6.007812 6.0625 -5.6875 L 6.0625 -6.5625 Z M 4.015625 -1.59375 C 4.597656 -1.59375 5.078125 -1.765625 5.453125 -2.109375 C 5.828125 -2.460938 6.015625 -2.921875 6.015625 -3.484375 C 6.015625 -4.023438 5.828125 -4.46875 5.453125 -4.8125 C 5.078125 -5.164062 4.597656 -5.34375 4.015625 -5.34375 C 3.429688 -5.34375 2.953125 -5.164062 2.578125 -4.8125 C 2.203125 -4.46875 2.015625 -4.023438 2.015625 -3.484375 C 2.015625 -2.921875 2.203125 -2.460938 2.578125 -2.109375 C 2.953125 -1.765625 3.429688 -1.59375 4.015625 -1.59375 Z M 4.015625 -1.59375 "/></g></g></g><g fill="#f652ff" fill-opacity="1"><g transform="translate(103.753734, 53.995199)"><g><path d="M 2.46875 -5.609375 C 2.914062 -6.296875 3.695312 -6.640625 4.8125 -6.640625 L 4.8125 -5.171875 C 4.675781 -5.203125 4.554688 -5.21875 4.453125 -5.21875 C 3.847656 -5.21875 3.378906 -5.039062 3.046875 -4.6875 C 2.710938 -4.34375 2.546875 -3.84375 2.546875 -3.1875 L 2.546875 0 L 1.015625 0 L 1.015625 -6.5625 L 2.46875 -6.5625 Z M 2.46875 -5.609375 "/></g></g></g><g fill="#f652ff" fill-opacity="1"><g transform="translate(108.914004, 53.995199)"><g><path d="M 3.515625 -6.640625 C 4.484375 -6.640625 5.222656 -6.40625 5.734375 -5.9375 C 6.242188 -5.476562 6.5 -4.78125 6.5 -3.84375 L 6.5 0 L 5.046875 0 L 5.046875 -0.796875 C 4.859375 -0.515625 4.585938 -0.296875 4.234375 -0.140625 C 3.890625 0.015625 3.472656 0.09375 2.984375 0.09375 C 2.492188 0.09375 2.0625 0.0078125 1.6875 -0.15625 C 1.320312 -0.332031 1.039062 -0.566406 0.84375 -0.859375 C 0.644531 -1.160156 0.546875 -1.5 0.546875 -1.875 C 0.546875 -2.46875 0.765625 -2.941406 1.203125 -3.296875 C 1.640625 -3.660156 2.328125 -3.84375 3.265625 -3.84375 L 4.96875 -3.84375 L 4.96875 -3.9375 C 4.96875 -4.394531 4.828125 -4.742188 4.546875 -4.984375 C 4.273438 -5.234375 3.867188 -5.359375 3.328125 -5.359375 C 2.960938 -5.359375 2.597656 -5.300781 2.234375 -5.1875 C 1.878906 -5.070312 1.582031 -4.910156 1.34375 -4.703125 L 0.734375 -5.828125 C 1.078125 -6.085938 1.488281 -6.285156 1.96875 -6.421875 C 2.457031 -6.566406 2.972656 -6.640625 3.515625 -6.640625 Z M 3.3125 -1.03125 C 3.695312 -1.03125 4.035156 -1.117188 4.328125 -1.296875 C 4.628906 -1.472656 4.84375 -1.722656 4.96875 -2.046875 L 4.96875 -2.8125 L 3.375 -2.8125 C 2.488281 -2.8125 2.046875 -2.519531 2.046875 -1.9375 C 2.046875 -1.664062 2.15625 -1.445312 2.375 -1.28125 C 2.601562 -1.113281 2.914062 -1.03125 3.3125 -1.03125 Z M 3.3125 -1.03125 "/></g></g></g><g fill="#f652ff" fill-opacity="1"><g transform="translate(116.371824, 53.995199)"><g><path d="M 7.4375 -9.125 L 7.4375 0 L 5.96875 0 L 5.96875 -0.84375 C 5.707031 -0.53125 5.390625 -0.296875 5.015625 -0.140625 C 4.648438 0.015625 4.238281 0.09375 3.78125 0.09375 C 3.15625 0.09375 2.585938 -0.046875 2.078125 -0.328125 C 1.578125 -0.609375 1.179688 -1.003906 0.890625 -1.515625 C 0.609375 -2.023438 0.46875 -2.613281 0.46875 -3.28125 C 0.46875 -3.945312 0.609375 -4.53125 0.890625 -5.03125 C 1.179688 -5.539062 1.578125 -5.9375 2.078125 -6.21875 C 2.585938 -6.5 3.15625 -6.640625 3.78125 -6.640625 C 4.21875 -6.640625 4.613281 -6.566406 4.96875 -6.421875 C 5.332031 -6.273438 5.644531 -6.050781 5.90625 -5.75 L 5.90625 -9.125 Z M 3.96875 -1.234375 C 4.34375 -1.234375 4.675781 -1.316406 4.96875 -1.484375 C 5.257812 -1.648438 5.488281 -1.890625 5.65625 -2.203125 C 5.832031 -2.515625 5.921875 -2.875 5.921875 -3.28125 C 5.921875 -3.6875 5.832031 -4.046875 5.65625 -4.359375 C 5.488281 -4.671875 5.257812 -4.910156 4.96875 -5.078125 C 4.675781 -5.253906 4.34375 -5.34375 3.96875 -5.34375 C 3.601562 -5.34375 3.269531 -5.253906 2.96875 -5.078125 C 2.675781 -4.910156 2.441406 -4.671875 2.265625 -4.359375 C 2.097656 -4.046875 2.015625 -3.6875 2.015625 -3.28125 C 2.015625 -2.875 2.097656 -2.515625 2.265625 -2.203125 C 2.441406 -1.890625 2.675781 -1.648438 2.96875 -1.484375 C 3.269531 -1.316406 3.601562 -1.234375 3.96875 -1.234375 Z M 3.96875 -1.234375 "/></g></g></g><g fill="#f652ff" fill-opacity="1"><g transform="translate(124.812555, 53.995199)"><g><path d="M 3.953125 0.09375 C 3.296875 0.09375 2.695312 -0.0507812 2.15625 -0.34375 C 1.625 -0.632812 1.207031 -1.035156 0.90625 -1.546875 C 0.613281 -2.054688 0.46875 -2.632812 0.46875 -3.28125 C 0.46875 -3.925781 0.613281 -4.503906 0.90625 -5.015625 C 1.207031 -5.523438 1.625 -5.921875 2.15625 -6.203125 C 2.695312 -6.492188 3.296875 -6.640625 3.953125 -6.640625 C 4.628906 -6.640625 5.234375 -6.492188 5.765625 -6.203125 C 6.296875 -5.921875 6.710938 -5.523438 7.015625 -5.015625 C 7.316406 -4.503906 7.46875 -3.925781 7.46875 -3.28125 C 7.46875 -2.632812 7.316406 -2.054688 7.015625 -1.546875 C 6.710938 -1.035156 6.296875 -0.632812 5.765625 -0.34375 C 5.234375 -0.0507812 4.628906 0.09375 3.953125 0.09375 Z M 3.953125 -1.234375 C 4.523438 -1.234375 4.992188 -1.421875 5.359375 -1.796875 C 5.734375 -2.171875 5.921875 -2.664062 5.921875 -3.28125 C 5.921875 -3.894531 5.734375 -4.390625 5.359375 -4.765625 C 4.992188 -5.148438 4.523438 -5.34375 3.953125 -5.34375 C 3.390625 -5.34375 2.925781 -5.148438 2.5625 -4.765625 C 2.195312 -4.390625 2.015625 -3.894531 2.015625 -3.28125 C 2.015625 -2.664062 2.195312 -2.171875 2.5625 -1.796875 C 2.925781 -1.421875 3.390625 -1.234375 3.953125 -1.234375 Z M 3.953125 -1.234375 "/></g></g></g><g fill="#f652ff" fill-opacity="1"><g transform="translate(132.737262, 53.995199)"><g><path d="M 2.46875 -5.609375 C 2.914062 -6.296875 3.695312 -6.640625 4.8125 -6.640625 L 4.8125 -5.171875 C 4.675781 -5.203125 4.554688 -5.21875 4.453125 -5.21875 C 3.847656 -5.21875 3.378906 -5.039062 3.046875 -4.6875 C 2.710938 -4.34375 2.546875 -3.84375 2.546875 -3.1875 L 2.546875 0 L 1.015625 0 L 1.015625 -6.5625 L 2.46875 -6.5625 Z M 2.46875 -5.609375 "/></g></g></g><g fill="#f652ff" fill-opacity="1"><g transform="translate(137.897533, 53.995199)"><g><path d="M 7.1875 -3.25 C 7.1875 -3.144531 7.175781 -2.992188 7.15625 -2.796875 L 2 -2.796875 C 2.09375 -2.304688 2.328125 -1.921875 2.703125 -1.640625 C 3.085938 -1.359375 3.5625 -1.21875 4.125 -1.21875 C 4.851562 -1.21875 5.453125 -1.457031 5.921875 -1.9375 L 6.734375 -0.984375 C 6.441406 -0.628906 6.066406 -0.359375 5.609375 -0.171875 C 5.160156 0.00390625 4.65625 0.09375 4.09375 0.09375 C 3.375 0.09375 2.738281 -0.0507812 2.1875 -0.34375 C 1.632812 -0.632812 1.207031 -1.035156 0.90625 -1.546875 C 0.613281 -2.054688 0.46875 -2.632812 0.46875 -3.28125 C 0.46875 -3.925781 0.613281 -4.503906 0.90625 -5.015625 C 1.195312 -5.523438 1.597656 -5.921875 2.109375 -6.203125 C 2.628906 -6.492188 3.210938 -6.640625 3.859375 -6.640625 C 4.503906 -6.640625 5.078125 -6.5 5.578125 -6.21875 C 6.078125 -5.9375 6.46875 -5.535156 6.75 -5.015625 C 7.039062 -4.503906 7.1875 -3.914062 7.1875 -3.25 Z M 3.859375 -5.40625 C 3.367188 -5.40625 2.953125 -5.257812 2.609375 -4.96875 C 2.273438 -4.675781 2.066406 -4.289062 1.984375 -3.8125 L 5.71875 -3.8125 C 5.65625 -4.289062 5.453125 -4.675781 5.109375 -4.96875 C 4.773438 -5.257812 4.359375 -5.40625 3.859375 -5.40625 Z M 3.859375 -5.40625 "/></g></g></g><g fill="#f652ff" fill-opacity="1"><g transform="translate(145.539652, 53.995199)"><g><path d="M 3.03125 0.09375 C 2.5 0.09375 1.976562 0.0234375 1.46875 -0.109375 C 0.96875 -0.253906 0.566406 -0.4375 0.265625 -0.65625 L 0.84375 -1.8125 C 1.144531 -1.625 1.5 -1.46875 1.90625 -1.34375 C 2.320312 -1.226562 2.734375 -1.171875 3.140625 -1.171875 C 4.054688 -1.171875 4.515625 -1.410156 4.515625 -1.890625 C 4.515625 -2.117188 4.394531 -2.28125 4.15625 -2.375 C 3.925781 -2.46875 3.550781 -2.550781 3.03125 -2.625 C 2.488281 -2.707031 2.046875 -2.800781 1.703125 -2.90625 C 1.367188 -3.019531 1.078125 -3.207031 0.828125 -3.46875 C 0.578125 -3.738281 0.453125 -4.113281 0.453125 -4.59375 C 0.453125 -5.207031 0.710938 -5.703125 1.234375 -6.078125 C 1.753906 -6.453125 2.457031 -6.640625 3.34375 -6.640625 C 3.789062 -6.640625 4.238281 -6.585938 4.6875 -6.484375 C 5.144531 -6.378906 5.515625 -6.242188 5.796875 -6.078125 L 5.21875 -4.90625 C 4.65625 -5.226562 4.023438 -5.390625 3.328125 -5.390625 C 2.878906 -5.390625 2.535156 -5.320312 2.296875 -5.1875 C 2.066406 -5.0625 1.953125 -4.882812 1.953125 -4.65625 C 1.953125 -4.414062 2.078125 -4.242188 2.328125 -4.140625 C 2.578125 -4.035156 2.96875 -3.9375 3.5 -3.84375 C 4.019531 -3.757812 4.445312 -3.664062 4.78125 -3.5625 C 5.113281 -3.457031 5.398438 -3.273438 5.640625 -3.015625 C 5.890625 -2.765625 6.015625 -2.40625 6.015625 -1.9375 C 6.015625 -1.320312 5.75 -0.828125 5.21875 -0.453125 C 4.6875 -0.0859375 3.957031 0.09375 3.03125 0.09375 Z M 3.03125 0.09375 "/></g></g></g></svg>