<svg xmlns="http://www.w3.org/2000/svg" xmlns:xlink="http://www.w3.org/1999/xlink" width="500" zoomAndPan="magnify" viewBox="0 0 375 374.999991" height="500" preserveAspectRatio="xMidYMid meet" version="1.0"><defs><g/><clipPath id="4afa22ffbc"><path d="M 71 80 L 304 80 L 304 271 L 71 271 Z M 71 80 " clip-rule="nonzero"/></clipPath><clipPath id="af6b6de9cc"><path d="M 204.890625 80.585938 C 201.417969 80.859375 198.113281 81.960938 195.429688 83.742188 C 193.25 85.1875 190.886719 87.773438 189.566406 90.167969 C 189.398438 90.464844 189.226562 90.710938 189.179688 90.710938 C 189.132812 90.710938 188.945312 90.496094 188.769531 90.230469 C 188.15625 89.304688 186.367188 87.402344 185.183594 86.410156 C 180.964844 82.871094 176.238281 81.3125 170.402344 81.539062 C 167.519531 81.648438 164.648438 81.839844 162.5 82.058594 C 156.699219 82.660156 153.070312 84.3125 150.046875 87.738281 C 148.878906 89.058594 146.457031 92.675781 145.769531 94.117188 C 145.234375 95.25 144.671875 97.101562 144.503906 98.285156 L 144.421875 98.871094 L 143.230469 99.09375 C 136.929688 100.269531 132.347656 102.371094 129.4375 105.421875 C 128.773438 106.121094 128.035156 107.015625 127.800781 107.410156 C 126.46875 109.652344 125.726562 112.503906 125.726562 115.390625 C 125.726562 116.519531 126.03125 119.226562 126.238281 119.941406 C 126.449219 120.660156 126.402344 120.757812 125.757812 121.019531 C 124.539062 121.507812 122.046875 122.753906 120.988281 123.402344 C 117.003906 125.839844 114.292969 128.917969 113.25 132.183594 C 112.695312 133.921875 112.589844 134.707031 112.59375 137.121094 C 112.59375 139.609375 112.847656 141.542969 113.410156 143.371094 L 113.652344 144.175781 L 113.097656 145.101562 C 111.855469 147.175781 110.800781 150.414062 110.386719 153.441406 C 110.125 155.339844 110.09375 159.855469 110.328125 161.925781 C 110.878906 166.804688 112.3125 172.652344 113.714844 175.726562 C 115.429688 179.488281 119.507812 182.695312 126.421875 185.730469 C 127.0625 186.007812 127.632812 186.285156 127.691406 186.339844 C 127.746094 186.394531 127.660156 187.097656 127.496094 187.898438 C 127.242188 189.160156 127.203125 189.726562 127.207031 192.050781 C 127.214844 194.558594 127.238281 194.832031 127.5625 196.027344 C 128.589844 199.84375 131.042969 202.820312 135.480469 205.644531 C 137.238281 206.765625 140.664062 208.433594 143.257812 209.433594 L 145.339844 210.242188 L 145.339844 211.351562 C 145.339844 213.574219 145.839844 215.449219 147.085938 217.894531 C 148.480469 220.632812 150.40625 223.164062 152.519531 225.027344 C 156.703125 228.722656 161.890625 230.621094 168.609375 230.917969 C 173.574219 231.136719 178.636719 229.828125 184.890625 226.695312 C 186.238281 226.023438 189.257812 224.316406 190.4375 223.5625 L 191.136719 223.113281 L 191.730469 223.683594 C 193.695312 225.5625 196.789062 227.640625 199.601562 228.96875 C 202.675781 230.414062 205.175781 230.976562 208.5625 230.972656 C 217.199219 230.96875 223.734375 228.152344 228.421875 222.425781 C 229.972656 220.527344 231.792969 217.359375 232.4375 215.441406 C 232.828125 214.273438 233.15625 212.117188 233.15625 210.734375 L 233.15625 209.710938 L 235.253906 209 C 240.832031 207.109375 244.945312 204.722656 247.070312 202.144531 C 248.339844 200.605469 249.039062 198.863281 249.523438 196.027344 C 249.886719 193.882812 249.808594 188.710938 249.371094 186.027344 C 249.3125 185.65625 249.371094 185.597656 251.070312 184.460938 C 253.515625 182.824219 255.386719 181.308594 257.207031 179.496094 C 260.53125 176.179688 261.933594 173.480469 262.09375 170.066406 C 262.1875 168.042969 261.875 166.308594 261.027344 164.136719 L 260.792969 163.53125 L 261.257812 162.664062 C 261.511719 162.1875 261.953125 161.195312 262.234375 160.453125 C 265.609375 151.507812 265.933594 143.707031 263.277344 135.386719 C 260.855469 127.808594 257.179688 123.128906 251.242188 120.078125 L 249.984375 119.433594 L 250.210938 118.742188 C 251.195312 115.761719 250.753906 112.710938 248.605469 107.621094 C 246.675781 103.042969 241.980469 100.15625 235.527344 99.582031 L 234.5 99.492188 L 234.46875 98.726562 C 234.378906 96.625 233.8125 94.214844 233.023438 92.570312 C 232.609375 91.710938 230.390625 88.277344 229.464844 87.074219 C 228.660156 86.015625 227.347656 84.738281 226.339844 84.015625 C 223.351562 81.882812 220.082031 81.164062 210.980469 80.648438 C 207.398438 80.445312 206.75 80.4375 204.890625 80.585938 M 204.90625 87.390625 C 201.101562 87.792969 198.066406 89.585938 196.039062 92.632812 C 195.097656 94.042969 194.601562 95.078125 194.015625 96.84375 L 193.605469 98.085938 L 193.613281 106.996094 C 193.617188 111.890625 193.667969 121.242188 193.722656 127.773438 L 193.828125 139.636719 L 195.320312 140.253906 C 199.539062 141.992188 203.472656 144.460938 205.664062 146.75 C 207.429688 148.59375 208.320312 150.105469 208.898438 152.238281 C 209.210938 153.382812 209.234375 153.652344 209.234375 156.21875 C 209.234375 158.824219 209.210938 159.085938 208.828125 160.898438 C 208.363281 163.09375 207.824219 164.78125 207.34375 165.546875 C 206.214844 167.332031 203.835938 167.648438 202.394531 166.210938 C 201.25 165.0625 201.191406 163.945312 202.121094 161.058594 C 203.5 156.78125 203.292969 153.621094 201.492188 151.546875 C 200.753906 150.695312 199.476562 149.640625 198.15625 148.789062 C 196.910156 147.992188 194.074219 146.542969 193.96875 146.648438 C 193.90625 146.710938 194.066406 167.136719 194.429688 205.640625 L 194.539062 217.050781 L 195.546875 218.003906 C 198.109375 220.425781 201.035156 222.363281 203.570312 223.3125 C 205.28125 223.957031 206.667969 224.191406 208.734375 224.183594 C 214.617188 224.160156 218.753906 222.675781 222.007812 219.425781 C 223.773438 217.664062 225.59375 214.789062 226.113281 212.949219 C 226.382812 211.996094 226.347656 208.433594 226.050781 206.796875 C 225.710938 204.910156 224.78125 201.820312 224.191406 200.625 C 223.203125 198.613281 222.863281 197.632812 222.851562 196.730469 C 222.839844 195.65625 223.0625 195.03125 223.710938 194.328125 C 224.46875 193.507812 225.09375 193.214844 226.101562 193.214844 C 227.230469 193.214844 227.796875 193.4375 228.523438 194.160156 C 229.453125 195.089844 230.453125 197.375 231.6875 201.382812 C 232.121094 202.78125 232.175781 202.886719 232.429688 202.8125 C 234.878906 202.058594 238.457031 200.4375 240.078125 199.335938 C 241.886719 198.109375 242.3125 197.503906 242.734375 195.542969 C 243.152344 193.605469 242.953125 187.433594 242.40625 185.386719 C 242.28125 184.914062 240.011719 183.167969 236.425781 180.777344 C 232.347656 178.066406 229.148438 176.339844 226.753906 175.570312 C 224.625 174.886719 221.628906 174.820312 218.8125 175.398438 C 214.742188 176.238281 210.960938 178.804688 208.632812 182.316406 C 206.699219 185.234375 206.15625 187.214844 206.484375 190.191406 C 206.707031 192.230469 206.972656 193.195312 207.714844 194.746094 C 208.886719 197.179688 209.210938 198.105469 209.28125 199.203125 C 209.359375 200.441406 209.113281 201.167969 208.351562 201.925781 C 206.988281 203.292969 204.679688 203.191406 203.335938 201.703125 C 202.300781 200.558594 200.777344 196.625 200.144531 193.464844 C 199.175781 188.625 199.546875 184.980469 201.382812 181.3125 C 204.28125 175.519531 208.933594 171.464844 215.015625 169.4375 C 217.714844 168.535156 219.132812 168.339844 222.835938 168.339844 C 225.882812 168.339844 226.101562 168.351562 227.324219 168.671875 C 231.84375 169.855469 238.675781 173.671875 245.035156 178.554688 L 246.335938 179.554688 L 247.789062 178.515625 C 251.933594 175.554688 254.574219 172.824219 255.140625 170.917969 C 255.304688 170.367188 255.417969 168.53125 255.285156 168.53125 C 255.261719 168.53125 254.511719 168.875 253.625 169.300781 C 249.804688 171.125 243.660156 172.613281 241.917969 172.132812 C 240.429688 171.722656 239.304688 170.292969 239.308594 168.804688 C 239.3125 167.382812 240.246094 166.125 241.710938 165.582031 C 242.089844 165.4375 243.285156 165.207031 244.363281 165.070312 C 249.15625 164.464844 253.757812 162.113281 255.265625 159.5 C 256.035156 158.171875 257.34375 153.859375 257.917969 150.773438 C 258.335938 148.523438 258.335938 144.304688 257.914062 141.949219 C 257.394531 139.03125 256.460938 136 255.328125 133.566406 C 253.878906 130.4375 251.355469 127.753906 248.46875 126.265625 C 246.867188 125.4375 247.015625 125.421875 245.8125 126.558594 C 243.59375 128.648438 239.121094 131.652344 236.1875 133.027344 C 235.421875 133.382812 235.21875 133.425781 234.5625 133.367188 C 232.679688 133.195312 231.4375 131.867188 231.429688 130.003906 C 231.421875 128.296875 231.957031 127.679688 234.949219 125.988281 C 237.527344 124.527344 239.632812 123.042969 241.101562 121.652344 L 242.203125 120.605469 L 243.03125 118.640625 C 243.855469 116.683594 243.859375 116.664062 243.859375 115.453125 C 243.855469 114.382812 243.796875 114.066406 243.371094 112.835938 C 242.601562 110.597656 241.953125 109.324219 241.230469 108.648438 C 240.378906 107.84375 239.097656 107.199219 237.585938 106.804688 C 236.488281 106.523438 234.082031 106.152344 233.980469 106.253906 C 233.960938 106.273438 233.765625 107.183594 233.546875 108.273438 C 232.996094 111.007812 232.261719 113.886719 231.546875 116.09375 C 230.492188 119.351562 230.136719 119.953125 228.90625 120.570312 C 227.453125 121.296875 225.949219 121 224.875 119.777344 C 223.824219 118.585938 223.789062 117.554688 224.703125 114.941406 C 225.625 112.308594 225.886719 111.425781 226.40625 109.171875 C 227.300781 105.3125 227.644531 102.730469 227.640625 99.851562 C 227.636719 96.746094 227.441406 96.175781 225.257812 92.894531 C 223.320312 89.980469 222.316406 89.113281 220.203125 88.546875 C 218.183594 88 215.996094 87.75 210.609375 87.445312 C 206.945312 87.234375 206.429688 87.230469 204.90625 87.390625 M 167.839844 88.410156 C 158.589844 88.957031 156.5 89.839844 153.433594 94.496094 C 151.378906 97.605469 151.109375 98.464844 151.109375 101.835938 C 151.109375 105.394531 151.933594 110.003906 153.28125 113.972656 C 153.910156 115.828125 153.75 117.066406 152.734375 118.125 C 151.84375 119.058594 150.375 119.417969 149.226562 118.976562 C 148.511719 118.707031 147.589844 117.890625 147.269531 117.257812 C 147.027344 116.769531 146.144531 114.175781 146.042969 113.652344 C 146.007812 113.480469 145.785156 112.472656 145.539062 111.417969 C 145.074219 109.402344 144.570312 106.664062 144.570312 106.144531 C 144.570312 105.753906 144.417969 105.753906 142.679688 106.160156 C 140.925781 106.570312 138.734375 107.292969 137.585938 107.835938 C 133.742188 109.644531 132.351562 111.917969 132.566406 116.03125 C 132.660156 117.8125 132.894531 119.035156 133.164062 119.195312 C 133.269531 119.253906 135.289062 120.101562 137.648438 121.078125 C 142.75 123.191406 147.472656 125.367188 149.542969 126.558594 C 150.367188 127.03125 151.136719 127.414062 151.25 127.410156 C 151.667969 127.382812 154.167969 126.550781 155.851562 125.878906 C 159.542969 124.402344 162.242188 122.671875 163.816406 120.773438 C 165.5625 118.675781 166.640625 114.644531 166.253906 111.648438 C 166.03125 109.90625 166.066406 108.820312 166.375 108.144531 C 166.902344 106.980469 167.925781 106.242188 169.175781 106.128906 C 171.304688 105.941406 172.714844 107.363281 173.023438 110.003906 C 173.476562 113.875 172.695312 118.71875 171.117188 121.875 C 169.804688 124.5 167.457031 127.070312 164.695312 128.90625 C 162.867188 130.117188 159.453125 131.828125 157.21875 132.644531 C 155.761719 133.175781 155.707031 133.210938 155.777344 133.523438 C 155.816406 133.703125 155.921875 134.300781 156.003906 134.851562 C 156.410156 137.421875 155.214844 140.316406 152.714844 142.824219 C 150.855469 144.695312 148.667969 145.871094 144.269531 147.371094 C 141.515625 148.3125 139.664062 149.109375 138.691406 149.777344 C 137.726562 150.441406 136.730469 151.507812 136.390625 152.246094 C 135.730469 153.667969 135.90625 156.964844 136.738281 158.828125 C 137.445312 160.398438 137.808594 161.726562 137.730469 162.480469 C 137.554688 164.292969 136.101562 165.601562 134.246094 165.617188 C 132.265625 165.636719 131.164062 164.292969 130.097656 160.570312 C 129.390625 158.101562 129.253906 157.132812 129.261719 154.617188 C 129.269531 152.679688 129.3125 152.152344 129.542969 151.324219 C 130.640625 147.339844 133.59375 144.339844 138.40625 142.328125 C 139.152344 142.015625 140.859375 141.375 142.199219 140.902344 C 145.6875 139.671875 146.835938 139.089844 147.890625 138.035156 C 148.730469 137.199219 149.316406 136.265625 149.316406 135.753906 C 149.316406 135.480469 148.570312 134.183594 148.007812 133.480469 C 147.351562 132.660156 142.773438 130.511719 133.625 126.730469 L 131.84375 125.996094 L 130.800781 126.347656 C 126.957031 127.652344 123.363281 129.636719 121.53125 131.46875 C 120.097656 132.90625 119.484375 134.277344 119.359375 136.359375 C 119.277344 137.679688 119.402344 139.554688 119.570312 139.554688 C 119.625 139.554688 120.066406 139.3125 120.554688 139.019531 C 122.671875 137.730469 126.957031 135.878906 128.488281 135.589844 C 130.5 135.214844 132.378906 136.761719 132.390625 138.800781 C 132.390625 139.574219 132.160156 140.382812 131.789062 140.902344 C 131.453125 141.371094 130.398438 142.035156 129.445312 142.375 C 126.476562 143.4375 124.113281 144.664062 121.054688 146.738281 C 119.796875 147.589844 119.296875 148.011719 119.042969 148.425781 C 118.085938 149.984375 117.5 151.734375 117.121094 154.171875 C 116.878906 155.691406 116.917969 160.070312 117.1875 162.183594 C 117.703125 166.21875 119.15625 171.738281 120.152344 173.464844 C 120.546875 174.148438 121.714844 175.265625 122.933594 176.132812 C 124.691406 177.382812 128.5 179.371094 130.796875 180.242188 L 131.699219 180.582031 L 137.78125 177.613281 C 141.128906 175.984375 144.78125 174.207031 145.898438 173.667969 L 147.9375 172.683594 L 147.96875 158.207031 L 148.277344 157.53125 C 148.632812 156.738281 149.519531 155.898438 150.195312 155.710938 C 150.933594 155.507812 152.136719 155.558594 152.714844 155.820312 C 153.347656 156.109375 153.976562 156.722656 154.351562 157.421875 C 154.632812 157.945312 154.636719 158.03125 154.699219 165.058594 L 154.761719 172.164062 L 157.773438 173.144531 C 161.023438 174.203125 162.621094 174.824219 163.929688 175.546875 C 169.125 178.40625 172.375 182.695312 173.851562 188.636719 C 174.390625 190.804688 174.503906 191.984375 174.5 195.382812 C 174.496094 199.136719 174.308594 200.515625 173.636719 201.859375 C 172.980469 203.175781 171.695312 203.890625 170.257812 203.742188 C 169.125 203.628906 168.109375 202.917969 167.574219 201.859375 C 167.222656 201.160156 167.195312 199.832031 167.503906 198.058594 C 168.164062 194.242188 167.632812 190.003906 166.109375 186.988281 C 165.191406 185.167969 164.152344 183.910156 162.605469 182.742188 C 160.914062 181.464844 159.128906 180.699219 153.707031 178.933594 L 151.753906 178.304688 L 143.386719 182.398438 C 138.785156 184.648438 134.953125 186.578125 134.867188 186.6875 C 134.636719 186.992188 134.078125 189.46875 133.9375 190.8125 C 133.714844 192.960938 134.105469 194.929688 135.023438 196.316406 C 136.40625 198.402344 139.878906 200.722656 144.457031 202.621094 C 145.488281 203.050781 146.386719 203.398438 146.453125 203.398438 C 146.519531 203.398438 146.679688 203.066406 146.808594 202.660156 C 147.171875 201.503906 148.117188 199.339844 148.824219 198.058594 C 149.9375 196.03125 150.933594 195.273438 152.453125 195.285156 C 154.328125 195.300781 155.691406 196.554688 155.820312 198.390625 C 155.894531 199.484375 155.636719 200.230469 154.390625 202.441406 C 152.386719 206.003906 151.546875 210.605469 152.410156 213.269531 C 152.910156 214.824219 154.570312 217.425781 156.082031 219.042969 C 159.097656 222.265625 163.164062 223.890625 168.808594 224.128906 C 171.007812 224.21875 172.570312 224.050781 174.695312 223.503906 C 177.988281 222.652344 183.015625 220.292969 187.042969 217.707031 L 187.785156 217.226562 L 187.707031 211.371094 C 187.628906 205.351562 187.132812 150.339844 187.132812 147.460938 L 187.132812 145.859375 L 186.007812 146.304688 C 182.714844 147.625 179.714844 149.410156 178.082031 151.023438 C 176.378906 152.710938 176.03125 153.777344 176.15625 156.925781 C 176.242188 159.085938 176.394531 159.976562 177.058594 162.15625 C 177.773438 164.511719 177.652344 165.699219 176.605469 166.695312 C 175.429688 167.804688 173.605469 167.789062 172.46875 166.652344 C 171.683594 165.863281 171.132812 164.277344 170.519531 161.027344 C 170.1875 159.277344 170.15625 158.847656 170.15625 156.285156 C 170.15625 153.652344 170.179688 153.386719 170.492188 152.234375 C 171.085938 150.058594 172.046875 148.507812 173.949219 146.660156 C 176.613281 144.074219 180.71875 141.730469 185.644531 139.988281 L 187.039062 139.492188 L 186.957031 129.300781 C 186.910156 123.695312 186.839844 114.722656 186.792969 109.363281 L 186.714844 99.621094 L 186.261719 98.789062 C 185.675781 97.71875 183.6875 94.722656 182.890625 93.710938 C 181.429688 91.871094 179.035156 90.042969 177.082031 89.285156 C 174.816406 88.410156 172.132812 88.15625 167.839844 88.410156 M 286.359375 89.691406 C 281.542969 91.515625 268.792969 96.261719 263.21875 98.3125 C 261.125 99.078125 260.558594 99.507812 260.402344 100.429688 C 260.28125 101.136719 260.71875 102.070312 261.328125 102.417969 C 262.136719 102.882812 262.488281 102.789062 268.472656 100.542969 C 272.039062 99.207031 275.609375 97.875 279.179688 96.546875 C 288.394531 93.128906 291.164062 92.082031 291.445312 91.898438 C 291.777344 91.683594 292.253906 90.761719 292.253906 90.328125 C 292.253906 89.882812 291.789062 89.015625 291.398438 88.734375 C 291.195312 88.585938 290.789062 88.46875 290.40625 88.445312 C 289.839844 88.410156 289.304688 88.574219 286.359375 89.691406 M 79.128906 90.824219 C 78.28125 91.347656 77.925781 92.164062 78.175781 93.003906 C 78.46875 93.980469 78.75 94.132812 83.804688 96.011719 C 90.660156 98.558594 101.261719 102.507812 104.574219 103.746094 C 106.484375 104.460938 107.644531 104.824219 108.003906 104.828125 C 109.777344 104.847656 110.601562 102.734375 109.296875 101.519531 C 109.125 101.359375 106.988281 100.488281 104.316406 99.488281 C 79.457031 90.191406 80.53125 90.582031 79.929688 90.585938 C 79.699219 90.585938 79.335938 90.691406 79.128906 90.824219 M 207.390625 105.566406 C 205.882812 106.058594 205.25 106.933594 203.835938 110.457031 C 202.867188 112.871094 202.507812 114.304688 202.425781 116.097656 C 202.367188 117.335938 202.402344 117.75 202.628906 118.660156 C 203.519531 122.171875 206.335938 125.546875 210.273438 127.804688 C 211.433594 128.46875 213.167969 129.183594 216.390625 130.328125 C 219.128906 131.300781 220.980469 132.1875 221.78125 132.910156 C 222.332031 133.410156 222.417969 133.570312 222.644531 134.464844 C 223.066406 136.148438 223.195312 138.050781 223.121094 141.332031 C 223.050781 144.433594 222.929688 145.5 222.304688 148.59375 C 221.84375 150.878906 221.839844 151.984375 222.289062 152.839844 C 222.90625 154.015625 224.011719 154.683594 225.351562 154.683594 C 226.25 154.683594 226.78125 154.488281 227.433594 153.910156 C 228.449219 153.023438 228.664062 152.371094 229.292969 148.207031 C 229.90625 144.175781 229.996094 142.933594 229.914062 139.375 C 229.785156 133.492188 229.046875 130.765625 227.011719 128.621094 C 225.238281 126.75 223.292969 125.625 219.566406 124.296875 C 213.628906 122.179688 212.257812 121.4375 210.519531 119.402344 C 208.78125 117.367188 208.757812 115.921875 210.40625 112.570312 C 210.859375 111.65625 211.351562 110.472656 211.503906 109.941406 C 211.75 109.089844 211.761719 108.898438 211.628906 108.242188 C 211.429688 107.296875 210.816406 106.394531 210.054688 105.925781 C 209.574219 105.625 209.261719 105.539062 208.578125 105.503906 C 208.101562 105.484375 207.566406 105.507812 207.390625 105.566406 M 72.847656 144.292969 C 72.234375 144.546875 71.628906 145.484375 71.628906 146.171875 C 71.628906 146.664062 72.109375 147.488281 72.5625 147.765625 C 72.964844 148.011719 73.308594 148.015625 87.828125 148.015625 C 102.550781 148.015625 102.6875 148.015625 103.105469 147.753906 C 103.34375 147.609375 103.652344 147.242188 103.808594 146.921875 C 104.144531 146.222656 104.066406 145.503906 103.585938 144.933594 C 102.902344 144.121094 103.945312 144.171875 87.816406 144.175781 C 79.726562 144.183594 72.988281 144.234375 72.847656 144.292969 M 272.257812 144.261719 C 271.960938 144.367188 271.355469 144.964844 271.15625 145.351562 C 270.753906 146.117188 271.078125 147.183594 271.875 147.730469 L 272.296875 148.019531 L 287.246094 147.988281 C 301.960938 147.953125 302.195312 147.949219 302.542969 147.695312 C 302.734375 147.554688 303.011719 147.195312 303.164062 146.894531 C 303.496094 146.226562 303.410156 145.5 302.933594 144.933594 C 302.25 144.121094 303.292969 144.167969 287.167969 144.179688 C 279.070312 144.1875 272.363281 144.222656 272.257812 144.261719 M 263.636719 187.910156 C 263.003906 188.285156 262.582031 189.121094 262.675781 189.824219 C 262.820312 190.882812 262.957031 190.96875 268.496094 193.558594 C 281.039062 199.414062 286.921875 202.007812 287.832031 202.078125 C 288.625 202.140625 289.242188 201.855469 289.667969 201.21875 C 289.917969 200.851562 289.960938 200.648438 289.917969 200.09375 C 289.800781 198.664062 290.640625 199.105469 272.898438 191.15625 C 264.179688 187.25 264.53125 187.375 263.636719 187.910156 M 105.277344 189.539062 C 103.871094 190.160156 100.753906 191.550781 98.355469 192.625 C 95.957031 193.703125 93.21875 194.929688 92.269531 195.351562 C 87.378906 197.519531 83.910156 199.175781 83.503906 199.535156 C 82.574219 200.355469 82.722656 201.871094 83.800781 202.597656 C 84.65625 203.175781 85.226562 203.011719 90.410156 200.707031 C 93.761719 199.214844 98.179688 197.199219 101.558594 195.617188 C 102.832031 195.023438 105.074219 193.976562 106.550781 193.292969 C 108.039062 192.605469 109.390625 191.894531 109.585938 191.703125 C 110.027344 191.257812 110.265625 190.5625 110.15625 189.996094 C 110 189.152344 109.066406 188.394531 108.199219 188.402344 C 108.003906 188.40625 106.691406 188.917969 105.277344 189.539062 M 159.855469 233.464844 C 158.90625 233.722656 158.464844 233.976562 157.785156 234.660156 C 156.898438 235.542969 156.5625 236.324219 156.5625 237.5 C 156.5625 238.972656 157.140625 239.996094 158.457031 240.875 C 159.84375 241.792969 157.402344 241.730469 190.484375 241.730469 C 222.886719 241.726562 220.804688 241.773438 222.0625 241.035156 C 223.246094 240.339844 224.183594 238.832031 224.183594 237.617188 C 224.183594 235.660156 222.917969 234.074219 220.867188 233.449219 C 219.972656 233.183594 160.867188 233.195312 159.855469 233.464844 M 164.148438 243.582031 C 163.046875 243.976562 162.054688 244.9375 161.664062 246 C 161.445312 246.589844 161.460938 247.871094 161.695312 248.5625 C 161.960938 249.332031 162.828125 250.296875 163.625 250.703125 L 164.25 251.023438 L 190.335938 251.058594 C 219.75 251.089844 217.089844 251.1875 218.332031 250.054688 C 219.222656 249.242188 219.589844 248.417969 219.589844 247.238281 C 219.589844 245.777344 218.765625 244.457031 217.429688 243.773438 L 216.8125 243.457031 L 190.722656 243.433594 C 169.015625 243.414062 164.554688 243.433594 164.148438 243.582031 M 169.503906 252.582031 C 168.90625 252.894531 168.152344 253.664062 167.890625 254.230469 C 167.628906 254.792969 167.578125 255.773438 167.777344 256.480469 C 167.953125 257.121094 168.714844 257.960938 169.453125 258.339844 L 170.074219 258.652344 L 211.222656 258.652344 L 211.902344 258.28125 C 214.253906 257 214.230469 253.882812 211.863281 252.6875 L 211.242188 252.371094 L 190.566406 252.375 C 172.003906 252.378906 169.851562 252.398438 169.503906 252.582031 M 176.046875 260.007812 C 175.023438 260.386719 174.457031 261.316406 174.644531 262.316406 C 175.105469 264.789062 181.574219 269.019531 186.960938 270.375 C 190.675781 271.3125 194.65625 270.449219 199.15625 267.730469 C 201.605469 266.25 204.320312 263.875 204.859375 262.734375 C 205.3125 261.777344 205.039062 260.628906 204.226562 260.097656 C 203.894531 259.878906 203.140625 259.867188 190.214844 259.84375 C 178.503906 259.824219 176.484375 259.847656 176.046875 260.007812 " clip-rule="evenodd"/></clipPath><linearGradient x1="348.254163" gradientTransform="matrix(0.801188, 0, 0, 0.801188, 35.399918, 23.332799)" y1="286.509312" x2="29.58211" gradientUnits="userSpaceOnUse" y2="97.663699" id="222d852dfd"><stop stop-opacity="1" stop-color="rgb(100%, 56.898499%, 30.198669%)" offset="0"/><stop stop-opacity="1" stop-color="rgb(100%, 56.898499%, 30.198669%)" offset="0.25"/><stop stop-opacity="1" stop-color="rgb(100%, 56.898499%, 30.198669%)" offset="0.28125"/><stop stop-opacity="1" stop-color="rgb(99.993896%, 56.8573%, 30.314636%)" offset="0.296875"/><stop stop-opacity="1" stop-color="rgb(99.960327%, 56.625366%, 30.97229%)" offset="0.300781"/><stop stop-opacity="1" stop-color="rgb(99.932861%, 56.434631%, 31.513977%)" offset="0.304688"/><stop stop-opacity="1" stop-color="rgb(99.905396%, 56.242371%, 32.054138%)" offset="0.308594"/><stop stop-opacity="1" stop-color="rgb(99.879456%, 56.051636%, 32.595825%)" offset="0.3125"/><stop stop-opacity="1" stop-color="rgb(99.85199%, 55.859375%, 33.135986%)" offset="0.316406"/><stop stop-opacity="1" stop-color="rgb(99.824524%, 55.66864%, 33.677673%)" offset="0.320312"/><stop stop-opacity="1" stop-color="rgb(99.797058%, 55.476379%, 34.21936%)" offset="0.324219"/><stop stop-opacity="1" stop-color="rgb(99.771118%, 55.285645%, 34.761047%)" offset="0.328125"/><stop stop-opacity="1" stop-color="rgb(99.743652%, 55.093384%, 35.301208%)" offset="0.332031"/><stop stop-opacity="1" stop-color="rgb(99.716187%, 54.902649%, 35.842896%)" offset="0.335938"/><stop stop-opacity="1" stop-color="rgb(99.688721%, 54.710388%, 36.383057%)" offset="0.339844"/><stop stop-opacity="1" stop-color="rgb(99.661255%, 54.519653%, 36.924744%)" offset="0.34375"/><stop stop-opacity="1" stop-color="rgb(99.633789%, 54.327393%, 37.466431%)" offset="0.347656"/><stop stop-opacity="1" stop-color="rgb(99.607849%, 54.136658%, 38.008118%)" offset="0.351562"/><stop stop-opacity="1" stop-color="rgb(99.580383%, 53.944397%, 38.548279%)" offset="0.355469"/><stop stop-opacity="1" stop-color="rgb(99.552917%, 53.753662%, 39.089966%)" offset="0.359375"/><stop stop-opacity="1" stop-color="rgb(99.525452%, 53.561401%, 39.630127%)" offset="0.363281"/><stop stop-opacity="1" stop-color="rgb(99.499512%, 53.370667%, 40.171814%)" offset="0.367188"/><stop stop-opacity="1" stop-color="rgb(99.472046%, 53.178406%, 40.713501%)" offset="0.371094"/><stop stop-opacity="1" stop-color="rgb(99.44458%, 52.987671%, 41.255188%)" offset="0.375"/><stop stop-opacity="1" stop-color="rgb(99.417114%, 52.79541%, 41.795349%)" offset="0.378906"/><stop stop-opacity="1" stop-color="rgb(99.391174%, 52.604675%, 42.337036%)" offset="0.382813"/><stop stop-opacity="1" stop-color="rgb(99.363708%, 52.412415%, 42.877197%)" offset="0.386719"/><stop stop-opacity="1" stop-color="rgb(99.336243%, 52.22168%, 43.418884%)" offset="0.390625"/><stop stop-opacity="1" stop-color="rgb(99.308777%, 52.029419%, 43.960571%)" offset="0.394531"/><stop stop-opacity="1" stop-color="rgb(99.281311%, 51.838684%, 44.502258%)" offset="0.398438"/><stop stop-opacity="1" stop-color="rgb(99.253845%, 51.646423%, 45.042419%)" offset="0.402344"/><stop stop-opacity="1" stop-color="rgb(99.227905%, 51.455688%, 45.584106%)" offset="0.40625"/><stop stop-opacity="1" stop-color="rgb(99.200439%, 51.263428%, 46.124268%)" offset="0.410156"/><stop stop-opacity="1" stop-color="rgb(99.172974%, 51.072693%, 46.665955%)" offset="0.414063"/><stop stop-opacity="1" stop-color="rgb(99.145508%, 50.880432%, 47.207642%)" offset="0.417969"/><stop stop-opacity="1" stop-color="rgb(99.119568%, 50.689697%, 47.749329%)" offset="0.421875"/><stop stop-opacity="1" stop-color="rgb(99.092102%, 50.497437%, 48.28949%)" offset="0.425781"/><stop stop-opacity="1" stop-color="rgb(99.064636%, 50.305176%, 48.831177%)" offset="0.429688"/><stop stop-opacity="1" stop-color="rgb(99.03717%, 50.112915%, 49.371338%)" offset="0.433594"/><stop stop-opacity="1" stop-color="rgb(99.01123%, 49.92218%, 49.913025%)" offset="0.4375"/><stop stop-opacity="1" stop-color="rgb(98.983765%, 49.729919%, 50.454712%)" offset="0.441406"/><stop stop-opacity="1" stop-color="rgb(98.956299%, 49.539185%, 50.996399%)" offset="0.445312"/><stop stop-opacity="1" stop-color="rgb(98.928833%, 49.346924%, 51.53656%)" offset="0.449219"/><stop stop-opacity="1" stop-color="rgb(98.902893%, 49.156189%, 52.078247%)" offset="0.453125"/><stop stop-opacity="1" stop-color="rgb(98.875427%, 48.963928%, 52.618408%)" offset="0.457031"/><stop stop-opacity="1" stop-color="rgb(98.847961%, 48.773193%, 53.160095%)" offset="0.460938"/><stop stop-opacity="1" stop-color="rgb(98.820496%, 48.580933%, 53.701782%)" offset="0.464844"/><stop stop-opacity="1" stop-color="rgb(98.79303%, 48.390198%, 54.243469%)" offset="0.46875"/><stop stop-opacity="1" stop-color="rgb(98.765564%, 48.197937%, 54.78363%)" offset="0.472656"/><stop stop-opacity="1" stop-color="rgb(98.739624%, 48.007202%, 55.325317%)" offset="0.476562"/><stop stop-opacity="1" stop-color="rgb(98.712158%, 47.814941%, 55.865479%)" offset="0.480469"/><stop stop-opacity="1" stop-color="rgb(98.684692%, 47.624207%, 56.407166%)" offset="0.484375"/><stop stop-opacity="1" stop-color="rgb(98.657227%, 47.431946%, 56.948853%)" offset="0.488281"/><stop stop-opacity="1" stop-color="rgb(98.631287%, 47.241211%, 57.49054%)" offset="0.492188"/><stop stop-opacity="1" stop-color="rgb(98.603821%, 47.04895%, 58.030701%)" offset="0.496094"/><stop stop-opacity="1" stop-color="rgb(98.576355%, 46.858215%, 58.572388%)" offset="0.5"/><stop stop-opacity="1" stop-color="rgb(98.548889%, 46.665955%, 59.112549%)" offset="0.503906"/><stop stop-opacity="1" stop-color="rgb(98.522949%, 46.47522%, 59.654236%)" offset="0.507812"/><stop stop-opacity="1" stop-color="rgb(98.495483%, 46.282959%, 60.195923%)" offset="0.511719"/><stop stop-opacity="1" stop-color="rgb(98.468018%, 46.092224%, 60.73761%)" offset="0.515625"/><stop stop-opacity="1" stop-color="rgb(98.440552%, 45.899963%, 61.277771%)" offset="0.519531"/><stop stop-opacity="1" stop-color="rgb(98.413086%, 45.709229%, 61.819458%)" offset="0.523438"/><stop stop-opacity="1" stop-color="rgb(98.38562%, 45.516968%, 62.359619%)" offset="0.527344"/><stop stop-opacity="1" stop-color="rgb(98.35968%, 45.326233%, 62.901306%)" offset="0.53125"/><stop stop-opacity="1" stop-color="rgb(98.332214%, 45.133972%, 63.442993%)" offset="0.535156"/><stop stop-opacity="1" stop-color="rgb(98.304749%, 44.943237%, 63.98468%)" offset="0.539062"/><stop stop-opacity="1" stop-color="rgb(98.277283%, 44.750977%, 64.524841%)" offset="0.542969"/><stop stop-opacity="1" stop-color="rgb(98.251343%, 44.560242%, 65.066528%)" offset="0.546875"/><stop stop-opacity="1" stop-color="rgb(98.223877%, 44.367981%, 65.606689%)" offset="0.550781"/><stop stop-opacity="1" stop-color="rgb(98.196411%, 44.177246%, 66.148376%)" offset="0.554688"/><stop stop-opacity="1" stop-color="rgb(98.168945%, 43.984985%, 66.690063%)" offset="0.558594"/><stop stop-opacity="1" stop-color="rgb(98.143005%, 43.79425%, 67.23175%)" offset="0.5625"/><stop stop-opacity="1" stop-color="rgb(98.11554%, 43.60199%, 67.771912%)" offset="0.566406"/><stop stop-opacity="1" stop-color="rgb(98.088074%, 43.411255%, 68.313599%)" offset="0.570312"/><stop stop-opacity="1" stop-color="rgb(98.060608%, 43.218994%, 68.85376%)" offset="0.574219"/><stop stop-opacity="1" stop-color="rgb(98.033142%, 43.028259%, 69.395447%)" offset="0.578125"/><stop stop-opacity="1" stop-color="rgb(98.005676%, 42.835999%, 69.937134%)" offset="0.582031"/><stop stop-opacity="1" stop-color="rgb(97.979736%, 42.645264%, 70.478821%)" offset="0.585938"/><stop stop-opacity="1" stop-color="rgb(97.952271%, 42.453003%, 71.018982%)" offset="0.589844"/><stop stop-opacity="1" stop-color="rgb(97.924805%, 42.262268%, 71.560669%)" offset="0.59375"/><stop stop-opacity="1" stop-color="rgb(97.897339%, 42.070007%, 72.10083%)" offset="0.597656"/><stop stop-opacity="1" stop-color="rgb(97.871399%, 41.879272%, 72.642517%)" offset="0.601562"/><stop stop-opacity="1" stop-color="rgb(97.843933%, 41.687012%, 73.184204%)" offset="0.605469"/><stop stop-opacity="1" stop-color="rgb(97.816467%, 41.496277%, 73.725891%)" offset="0.609375"/><stop stop-opacity="1" stop-color="rgb(97.789001%, 41.304016%, 74.266052%)" offset="0.613281"/><stop stop-opacity="1" stop-color="rgb(97.763062%, 41.113281%, 74.807739%)" offset="0.617188"/><stop stop-opacity="1" stop-color="rgb(97.735596%, 40.921021%, 75.3479%)" offset="0.621094"/><stop stop-opacity="1" stop-color="rgb(97.70813%, 40.730286%, 75.889587%)" offset="0.625"/><stop stop-opacity="1" stop-color="rgb(97.680664%, 40.538025%, 76.431274%)" offset="0.628906"/><stop stop-opacity="1" stop-color="rgb(97.653198%, 40.34729%, 76.972961%)" offset="0.632812"/><stop stop-opacity="1" stop-color="rgb(97.625732%, 40.155029%, 77.513123%)" offset="0.636719"/><stop stop-opacity="1" stop-color="rgb(97.599792%, 39.964294%, 78.05481%)" offset="0.640625"/><stop stop-opacity="1" stop-color="rgb(97.572327%, 39.772034%, 78.594971%)" offset="0.644531"/><stop stop-opacity="1" stop-color="rgb(97.544861%, 39.581299%, 79.136658%)" offset="0.648438"/><stop stop-opacity="1" stop-color="rgb(97.517395%, 39.389038%, 79.678345%)" offset="0.652344"/><stop stop-opacity="1" stop-color="rgb(97.491455%, 39.198303%, 80.220032%)" offset="0.65625"/><stop stop-opacity="1" stop-color="rgb(97.463989%, 39.006042%, 80.760193%)" offset="0.660156"/><stop stop-opacity="1" stop-color="rgb(97.436523%, 38.815308%, 81.30188%)" offset="0.664062"/><stop stop-opacity="1" stop-color="rgb(97.409058%, 38.623047%, 81.842041%)" offset="0.667969"/><stop stop-opacity="1" stop-color="rgb(97.383118%, 38.432312%, 82.383728%)" offset="0.671875"/><stop stop-opacity="1" stop-color="rgb(97.355652%, 38.240051%, 82.925415%)" offset="0.675781"/><stop stop-opacity="1" stop-color="rgb(97.328186%, 38.049316%, 83.467102%)" offset="0.679688"/><stop stop-opacity="1" stop-color="rgb(97.30072%, 37.857056%, 84.007263%)" offset="0.683594"/><stop stop-opacity="1" stop-color="rgb(97.273254%, 37.666321%, 84.54895%)" offset="0.6875"/><stop stop-opacity="1" stop-color="rgb(97.245789%, 37.47406%, 85.089111%)" offset="0.691406"/><stop stop-opacity="1" stop-color="rgb(97.219849%, 37.283325%, 85.630798%)" offset="0.695312"/><stop stop-opacity="1" stop-color="rgb(97.192383%, 37.091064%, 86.172485%)" offset="0.699219"/><stop stop-opacity="1" stop-color="rgb(97.164917%, 36.90033%, 86.714172%)" offset="0.703125"/><stop stop-opacity="1" stop-color="rgb(97.137451%, 36.708069%, 87.254333%)" offset="0.707031"/><stop stop-opacity="1" stop-color="rgb(97.111511%, 36.517334%, 87.796021%)" offset="0.710938"/><stop stop-opacity="1" stop-color="rgb(97.084045%, 36.325073%, 88.336182%)" offset="0.714844"/><stop stop-opacity="1" stop-color="rgb(97.05658%, 36.134338%, 88.877869%)" offset="0.71875"/><stop stop-opacity="1" stop-color="rgb(97.029114%, 35.942078%, 89.419556%)" offset="0.722656"/><stop stop-opacity="1" stop-color="rgb(97.003174%, 35.751343%, 89.961243%)" offset="0.726562"/><stop stop-opacity="1" stop-color="rgb(96.975708%, 35.559082%, 90.501404%)" offset="0.730469"/><stop stop-opacity="1" stop-color="rgb(96.948242%, 35.368347%, 91.043091%)" offset="0.734375"/><stop stop-opacity="1" stop-color="rgb(96.920776%, 35.176086%, 91.583252%)" offset="0.738281"/><stop stop-opacity="1" stop-color="rgb(96.893311%, 34.985352%, 92.124939%)" offset="0.742188"/><stop stop-opacity="1" stop-color="rgb(96.865845%, 34.793091%, 92.666626%)" offset="0.746094"/><stop stop-opacity="1" stop-color="rgb(96.839905%, 34.602356%, 93.208313%)" offset="0.75"/><stop stop-opacity="1" stop-color="rgb(96.812439%, 34.410095%, 93.748474%)" offset="0.753906"/><stop stop-opacity="1" stop-color="rgb(96.784973%, 34.21936%, 94.290161%)" offset="0.757812"/><stop stop-opacity="1" stop-color="rgb(96.757507%, 34.0271%, 94.830322%)" offset="0.761719"/><stop stop-opacity="1" stop-color="rgb(96.731567%, 33.836365%, 95.372009%)" offset="0.765625"/><stop stop-opacity="1" stop-color="rgb(96.704102%, 33.644104%, 95.913696%)" offset="0.769531"/><stop stop-opacity="1" stop-color="rgb(96.676636%, 33.453369%, 96.455383%)" offset="0.773438"/><stop stop-opacity="1" stop-color="rgb(96.64917%, 33.261108%, 96.995544%)" offset="0.777344"/><stop stop-opacity="1" stop-color="rgb(96.62323%, 33.070374%, 97.537231%)" offset="0.78125"/><stop stop-opacity="1" stop-color="rgb(96.595764%, 32.878113%, 98.077393%)" offset="0.785156"/><stop stop-opacity="1" stop-color="rgb(96.568298%, 32.687378%, 98.61908%)" offset="0.789062"/><stop stop-opacity="1" stop-color="rgb(96.540833%, 32.495117%, 99.160767%)" offset="0.792969"/><stop stop-opacity="1" stop-color="rgb(96.514893%, 32.304382%, 99.702454%)" offset="0.796875"/><stop stop-opacity="1" stop-color="rgb(96.507263%, 32.250977%, 99.850464%)" offset="0.8125"/><stop stop-opacity="1" stop-color="rgb(96.499634%, 32.199097%, 100%)" offset="0.875"/><stop stop-opacity="1" stop-color="rgb(96.499634%, 32.199097%, 100%)" offset="1"/></linearGradient></defs><g clip-path="url(#4afa22ffbc)"><g clip-path="url(#af6b6de9cc)"><path fill="url(#222d852dfd)" d="M 71.628906 80.4375 L 71.628906 271.3125 L 303.496094 271.3125 L 303.496094 80.4375 Z M 71.628906 80.4375 " fill-rule="nonzero"/></g></g><g fill="#ffffff" fill-opacity="1"><g transform="translate(5.505527, 305.179139)"><g><path d="M 11.171875 -20.484375 C 12.953125 -20.484375 14.5 -20.191406 15.8125 -19.609375 C 17.132812 -19.023438 18.144531 -18.1875 18.84375 -17.09375 C 19.550781 -16 19.90625 -14.703125 19.90625 -13.203125 C 19.90625 -11.710938 19.550781 -10.414062 18.84375 -9.3125 C 18.144531 -8.21875 17.132812 -7.375 15.8125 -6.78125 C 14.5 -6.195312 12.953125 -5.90625 11.171875 -5.90625 L 6.5625 -5.90625 L 6.5625 0 L 2.75 0 L 2.75 -20.484375 Z M 11 -9.125 C 12.65625 -9.125 13.910156 -9.472656 14.765625 -10.171875 C 15.628906 -10.878906 16.0625 -11.890625 16.0625 -13.203125 C 16.0625 -14.503906 15.628906 -15.503906 14.765625 -16.203125 C 13.910156 -16.910156 12.65625 -17.265625 11 -17.265625 L 6.5625 -17.265625 L 6.5625 -9.125 Z M 11 -9.125 "/></g></g></g><g fill="#ffffff" fill-opacity="1"><g transform="translate(26.74948, 305.179139)"><g><path d="M 2.40625 -21.71875 L 6.0625 -21.71875 L 6.0625 0 L 2.40625 0 Z M 2.40625 -21.71875 "/></g></g></g><g fill="#ffffff" fill-opacity="1"><g transform="translate(35.206091, 305.179139)"><g><path d="M 8.375 -15.796875 C 10.675781 -15.796875 12.4375 -15.242188 13.65625 -14.140625 C 14.875 -13.046875 15.484375 -11.382812 15.484375 -9.15625 L 15.484375 0 L 12.03125 0 L 12.03125 -1.90625 C 11.582031 -1.21875 10.941406 -0.691406 10.109375 -0.328125 C 9.285156 0.0234375 8.285156 0.203125 7.109375 0.203125 C 5.941406 0.203125 4.914062 0.00390625 4.03125 -0.390625 C 3.15625 -0.796875 2.476562 -1.351562 2 -2.0625 C 1.519531 -2.769531 1.28125 -3.578125 1.28125 -4.484375 C 1.28125 -5.878906 1.800781 -7 2.84375 -7.84375 C 3.894531 -8.695312 5.539062 -9.125 7.78125 -9.125 L 11.828125 -9.125 L 11.828125 -9.359375 C 11.828125 -10.453125 11.5 -11.289062 10.84375 -11.875 C 10.1875 -12.46875 9.21875 -12.765625 7.9375 -12.765625 C 7.050781 -12.765625 6.179688 -12.625 5.328125 -12.34375 C 4.484375 -12.070312 3.769531 -11.691406 3.1875 -11.203125 L 1.75 -13.875 C 2.570312 -14.5 3.554688 -14.972656 4.703125 -15.296875 C 5.859375 -15.628906 7.082031 -15.796875 8.375 -15.796875 Z M 7.875 -2.453125 C 8.789062 -2.453125 9.601562 -2.660156 10.3125 -3.078125 C 11.03125 -3.503906 11.535156 -4.109375 11.828125 -4.890625 L 11.828125 -6.703125 L 8.046875 -6.703125 C 5.941406 -6.703125 4.890625 -6.007812 4.890625 -4.625 C 4.890625 -3.957031 5.148438 -3.425781 5.671875 -3.03125 C 6.203125 -2.644531 6.9375 -2.453125 7.875 -2.453125 Z M 7.875 -2.453125 "/></g></g></g><g fill="#ffffff" fill-opacity="1"><g transform="translate(52.967915, 305.179139)"><g><path d="M 11.796875 -0.84375 C 11.367188 -0.5 10.847656 -0.238281 10.234375 -0.0625 C 9.617188 0.113281 8.96875 0.203125 8.28125 0.203125 C 6.5625 0.203125 5.234375 -0.242188 4.296875 -1.140625 C 3.359375 -2.035156 2.890625 -3.34375 2.890625 -5.0625 L 2.890625 -12.578125 L 0.328125 -12.578125 L 0.328125 -15.515625 L 2.890625 -15.515625 L 2.890625 -19.078125 L 6.5625 -19.078125 L 6.5625 -15.515625 L 10.734375 -15.515625 L 10.734375 -12.578125 L 6.5625 -12.578125 L 6.5625 -5.15625 C 6.5625 -4.394531 6.742188 -3.8125 7.109375 -3.40625 C 7.484375 -3.007812 8.019531 -2.8125 8.71875 -2.8125 C 9.539062 -2.8125 10.222656 -3.023438 10.765625 -3.453125 Z M 11.796875 -0.84375 "/></g></g></g><g fill="#ffffff" fill-opacity="1"><g transform="translate(65.374855, 305.179139)"><g><path d="M 8.375 -15.796875 C 10.675781 -15.796875 12.4375 -15.242188 13.65625 -14.140625 C 14.875 -13.046875 15.484375 -11.382812 15.484375 -9.15625 L 15.484375 0 L 12.03125 0 L 12.03125 -1.90625 C 11.582031 -1.21875 10.941406 -0.691406 10.109375 -0.328125 C 9.285156 0.0234375 8.285156 0.203125 7.109375 0.203125 C 5.941406 0.203125 4.914062 0.00390625 4.03125 -0.390625 C 3.15625 -0.796875 2.476562 -1.351562 2 -2.0625 C 1.519531 -2.769531 1.28125 -3.578125 1.28125 -4.484375 C 1.28125 -5.878906 1.800781 -7 2.84375 -7.84375 C 3.894531 -8.695312 5.539062 -9.125 7.78125 -9.125 L 11.828125 -9.125 L 11.828125 -9.359375 C 11.828125 -10.453125 11.5 -11.289062 10.84375 -11.875 C 10.1875 -12.46875 9.21875 -12.765625 7.9375 -12.765625 C 7.050781 -12.765625 6.179688 -12.625 5.328125 -12.34375 C 4.484375 -12.070312 3.769531 -11.691406 3.1875 -11.203125 L 1.75 -13.875 C 2.570312 -14.5 3.554688 -14.972656 4.703125 -15.296875 C 5.859375 -15.628906 7.082031 -15.796875 8.375 -15.796875 Z M 7.875 -2.453125 C 8.789062 -2.453125 9.601562 -2.660156 10.3125 -3.078125 C 11.03125 -3.503906 11.535156 -4.109375 11.828125 -4.890625 L 11.828125 -6.703125 L 8.046875 -6.703125 C 5.941406 -6.703125 4.890625 -6.007812 4.890625 -4.625 C 4.890625 -3.957031 5.148438 -3.425781 5.671875 -3.03125 C 6.203125 -2.644531 6.9375 -2.453125 7.875 -2.453125 Z M 7.875 -2.453125 "/></g></g></g><g fill="#ffffff" fill-opacity="1"><g transform="translate(83.136679, 305.179139)"><g><path d="M 8.75 -18.96875 C 7.207031 -18.96875 6.4375 -18.128906 6.4375 -16.453125 L 6.4375 -15.515625 L 10.734375 -15.515625 L 10.734375 -12.578125 L 6.5625 -12.578125 L 6.5625 0 L 2.890625 0 L 2.890625 -12.578125 L 0.328125 -12.578125 L 0.328125 -15.515625 L 2.890625 -15.515625 L 2.890625 -16.5 C 2.890625 -18.175781 3.378906 -19.5 4.359375 -20.46875 C 5.335938 -21.4375 6.710938 -21.921875 8.484375 -21.921875 C 9.890625 -21.921875 10.992188 -21.640625 11.796875 -21.078125 L 10.765625 -18.3125 C 10.140625 -18.75 9.46875 -18.96875 8.75 -18.96875 Z M 8.75 -18.96875 "/></g></g></g><g fill="#ffffff" fill-opacity="1"><g transform="translate(93.934225, 305.179139)"><g><path d="M 9.421875 0.203125 C 7.835938 0.203125 6.410156 -0.132812 5.140625 -0.8125 C 3.878906 -1.5 2.890625 -2.453125 2.171875 -3.671875 C 1.460938 -4.890625 1.109375 -6.269531 1.109375 -7.8125 C 1.109375 -9.351562 1.460938 -10.726562 2.171875 -11.9375 C 2.890625 -13.144531 3.878906 -14.085938 5.140625 -14.765625 C 6.410156 -15.453125 7.835938 -15.796875 9.421875 -15.796875 C 11.023438 -15.796875 12.457031 -15.453125 13.71875 -14.765625 C 14.988281 -14.085938 15.976562 -13.144531 16.6875 -11.9375 C 17.40625 -10.726562 17.765625 -9.351562 17.765625 -7.8125 C 17.765625 -6.269531 17.40625 -4.890625 16.6875 -3.671875 C 15.976562 -2.453125 14.988281 -1.5 13.71875 -0.8125 C 12.457031 -0.132812 11.023438 0.203125 9.421875 0.203125 Z M 9.421875 -2.921875 C 10.765625 -2.921875 11.875 -3.367188 12.75 -4.265625 C 13.632812 -5.171875 14.078125 -6.351562 14.078125 -7.8125 C 14.078125 -9.28125 13.632812 -10.460938 12.75 -11.359375 C 11.875 -12.253906 10.765625 -12.703125 9.421875 -12.703125 C 8.078125 -12.703125 6.96875 -12.253906 6.09375 -11.359375 C 5.226562 -10.460938 4.796875 -9.28125 4.796875 -7.8125 C 4.796875 -6.351562 5.226562 -5.171875 6.09375 -4.265625 C 6.96875 -3.367188 8.078125 -2.921875 9.421875 -2.921875 Z M 9.421875 -2.921875 "/></g></g></g><g fill="#ffffff" fill-opacity="1"><g transform="translate(112.807991, 305.179139)"><g><path d="M 5.875 -13.34375 C 6.9375 -14.976562 8.789062 -15.796875 11.4375 -15.796875 L 11.4375 -12.328125 C 11.125 -12.378906 10.84375 -12.40625 10.59375 -12.40625 C 9.164062 -12.40625 8.050781 -11.988281 7.25 -11.15625 C 6.457031 -10.332031 6.0625 -9.140625 6.0625 -7.578125 L 6.0625 0 L 2.40625 0 L 2.40625 -15.625 L 5.875 -15.625 Z M 5.875 -13.34375 "/></g></g></g><g fill="#ffffff" fill-opacity="1"><g transform="translate(125.097881, 305.179139)"><g><path d="M 22.125 -15.796875 C 24.09375 -15.796875 25.648438 -15.222656 26.796875 -14.078125 C 27.953125 -12.941406 28.53125 -11.234375 28.53125 -8.953125 L 28.53125 0 L 24.875 0 L 24.875 -8.484375 C 24.875 -9.847656 24.570312 -10.875 23.96875 -11.5625 C 23.363281 -12.257812 22.492188 -12.609375 21.359375 -12.609375 C 20.128906 -12.609375 19.144531 -12.203125 18.40625 -11.390625 C 17.664062 -10.585938 17.296875 -9.4375 17.296875 -7.9375 L 17.296875 0 L 13.640625 0 L 13.640625 -8.484375 C 13.640625 -9.847656 13.335938 -10.875 12.734375 -11.5625 C 12.128906 -12.257812 11.257812 -12.609375 10.125 -12.609375 C 8.875 -12.609375 7.882812 -12.207031 7.15625 -11.40625 C 6.425781 -10.613281 6.0625 -9.457031 6.0625 -7.9375 L 6.0625 0 L 2.40625 0 L 2.40625 -15.625 L 5.875 -15.625 L 5.875 -13.640625 C 6.46875 -14.335938 7.203125 -14.867188 8.078125 -15.234375 C 8.953125 -15.609375 9.925781 -15.796875 11 -15.796875 C 12.175781 -15.796875 13.21875 -15.578125 14.125 -15.140625 C 15.03125 -14.703125 15.742188 -14.054688 16.265625 -13.203125 C 16.910156 -14.015625 17.738281 -14.648438 18.75 -15.109375 C 19.769531 -15.566406 20.894531 -15.796875 22.125 -15.796875 Z M 22.125 -15.796875 "/></g></g></g><g fill="#ffffff" fill-opacity="1"><g transform="translate(155.910398, 305.179139)"><g><path d="M 8.375 -15.796875 C 10.675781 -15.796875 12.4375 -15.242188 13.65625 -14.140625 C 14.875 -13.046875 15.484375 -11.382812 15.484375 -9.15625 L 15.484375 0 L 12.03125 0 L 12.03125 -1.90625 C 11.582031 -1.21875 10.941406 -0.691406 10.109375 -0.328125 C 9.285156 0.0234375 8.285156 0.203125 7.109375 0.203125 C 5.941406 0.203125 4.914062 0.00390625 4.03125 -0.390625 C 3.15625 -0.796875 2.476562 -1.351562 2 -2.0625 C 1.519531 -2.769531 1.28125 -3.578125 1.28125 -4.484375 C 1.28125 -5.878906 1.800781 -7 2.84375 -7.84375 C 3.894531 -8.695312 5.539062 -9.125 7.78125 -9.125 L 11.828125 -9.125 L 11.828125 -9.359375 C 11.828125 -10.453125 11.5 -11.289062 10.84375 -11.875 C 10.1875 -12.46875 9.21875 -12.765625 7.9375 -12.765625 C 7.050781 -12.765625 6.179688 -12.625 5.328125 -12.34375 C 4.484375 -12.070312 3.769531 -11.691406 3.1875 -11.203125 L 1.75 -13.875 C 2.570312 -14.5 3.554688 -14.972656 4.703125 -15.296875 C 5.859375 -15.628906 7.082031 -15.796875 8.375 -15.796875 Z M 7.875 -2.453125 C 8.789062 -2.453125 9.601562 -2.660156 10.3125 -3.078125 C 11.03125 -3.503906 11.535156 -4.109375 11.828125 -4.890625 L 11.828125 -6.703125 L 8.046875 -6.703125 C 5.941406 -6.703125 4.890625 -6.007812 4.890625 -4.625 C 4.890625 -3.957031 5.148438 -3.425781 5.671875 -3.03125 C 6.203125 -2.644531 6.9375 -2.453125 7.875 -2.453125 Z M 7.875 -2.453125 "/></g></g></g><g fill="#ffffff" fill-opacity="1"><g transform="translate(173.672222, 305.179139)"><g/></g></g><g fill="#ffffff" fill-opacity="1"><g transform="translate(181.748432, 305.179139)"><g><path d="M 17.703125 -21.71875 L 17.703125 0 L 14.1875 0 L 14.1875 -2.015625 C 13.582031 -1.273438 12.835938 -0.71875 11.953125 -0.34375 C 11.066406 0.0195312 10.085938 0.203125 9.015625 0.203125 C 7.515625 0.203125 6.160156 -0.125 4.953125 -0.78125 C 3.753906 -1.445312 2.8125 -2.390625 2.125 -3.609375 C 1.445312 -4.828125 1.109375 -6.226562 1.109375 -7.8125 C 1.109375 -9.394531 1.445312 -10.789062 2.125 -12 C 2.8125 -13.207031 3.753906 -14.140625 4.953125 -14.796875 C 6.160156 -15.460938 7.515625 -15.796875 9.015625 -15.796875 C 10.046875 -15.796875 10.988281 -15.617188 11.84375 -15.265625 C 12.707031 -14.921875 13.441406 -14.398438 14.046875 -13.703125 L 14.046875 -21.71875 Z M 9.453125 -2.921875 C 10.328125 -2.921875 11.113281 -3.117188 11.8125 -3.515625 C 12.519531 -3.921875 13.078125 -4.492188 13.484375 -5.234375 C 13.898438 -5.972656 14.109375 -6.832031 14.109375 -7.8125 C 14.109375 -8.789062 13.898438 -9.648438 13.484375 -10.390625 C 13.078125 -11.128906 12.519531 -11.695312 11.8125 -12.09375 C 11.113281 -12.5 10.328125 -12.703125 9.453125 -12.703125 C 8.578125 -12.703125 7.785156 -12.5 7.078125 -12.09375 C 6.378906 -11.695312 5.820312 -11.128906 5.40625 -10.390625 C 5 -9.648438 4.796875 -8.789062 4.796875 -7.8125 C 4.796875 -6.832031 5 -5.972656 5.40625 -5.234375 C 5.820312 -4.492188 6.378906 -3.921875 7.078125 -3.515625 C 7.785156 -3.117188 8.578125 -2.921875 9.453125 -2.921875 Z M 9.453125 -2.921875 "/></g></g></g><g fill="#ffffff" fill-opacity="1"><g transform="translate(201.851179, 305.179139)"><g><path d="M 9.421875 0.203125 C 7.835938 0.203125 6.410156 -0.132812 5.140625 -0.8125 C 3.878906 -1.5 2.890625 -2.453125 2.171875 -3.671875 C 1.460938 -4.890625 1.109375 -6.269531 1.109375 -7.8125 C 1.109375 -9.351562 1.460938 -10.726562 2.171875 -11.9375 C 2.890625 -13.144531 3.878906 -14.085938 5.140625 -14.765625 C 6.410156 -15.453125 7.835938 -15.796875 9.421875 -15.796875 C 11.023438 -15.796875 12.457031 -15.453125 13.71875 -14.765625 C 14.988281 -14.085938 15.976562 -13.144531 16.6875 -11.9375 C 17.40625 -10.726562 17.765625 -9.351562 17.765625 -7.8125 C 17.765625 -6.269531 17.40625 -4.890625 16.6875 -3.671875 C 15.976562 -2.453125 14.988281 -1.5 13.71875 -0.8125 C 12.457031 -0.132812 11.023438 0.203125 9.421875 0.203125 Z M 9.421875 -2.921875 C 10.765625 -2.921875 11.875 -3.367188 12.75 -4.265625 C 13.632812 -5.171875 14.078125 -6.351562 14.078125 -7.8125 C 14.078125 -9.28125 13.632812 -10.460938 12.75 -11.359375 C 11.875 -12.253906 10.765625 -12.703125 9.421875 -12.703125 C 8.078125 -12.703125 6.96875 -12.253906 6.09375 -11.359375 C 5.226562 -10.460938 4.796875 -9.28125 4.796875 -7.8125 C 4.796875 -6.351562 5.226562 -5.171875 6.09375 -4.265625 C 6.96875 -3.367188 8.078125 -2.921875 9.421875 -2.921875 Z M 9.421875 -2.921875 "/></g></g></g><g fill="#ffffff" fill-opacity="1"><g transform="translate(220.724935, 305.179139)"><g><path d="M 7.234375 0.203125 C 5.960938 0.203125 4.722656 0.0351562 3.515625 -0.296875 C 2.304688 -0.628906 1.335938 -1.046875 0.609375 -1.546875 L 2.015625 -4.328125 C 2.722656 -3.859375 3.566406 -3.484375 4.546875 -3.203125 C 5.535156 -2.921875 6.507812 -2.78125 7.46875 -2.78125 C 9.644531 -2.78125 10.734375 -3.351562 10.734375 -4.5 C 10.734375 -5.050781 10.457031 -5.429688 9.90625 -5.640625 C 9.351562 -5.859375 8.460938 -6.066406 7.234375 -6.265625 C 5.941406 -6.460938 4.890625 -6.6875 4.078125 -6.9375 C 3.273438 -7.1875 2.570312 -7.628906 1.96875 -8.265625 C 1.375 -8.898438 1.078125 -9.785156 1.078125 -10.921875 C 1.078125 -12.398438 1.695312 -13.582031 2.9375 -14.46875 C 4.175781 -15.351562 5.847656 -15.796875 7.953125 -15.796875 C 9.023438 -15.796875 10.097656 -15.675781 11.171875 -15.4375 C 12.253906 -15.195312 13.132812 -14.867188 13.8125 -14.453125 L 12.40625 -11.671875 C 11.082031 -12.453125 9.59375 -12.84375 7.9375 -12.84375 C 6.863281 -12.84375 6.046875 -12.679688 5.484375 -12.359375 C 4.929688 -12.035156 4.65625 -11.613281 4.65625 -11.09375 C 4.65625 -10.507812 4.953125 -10.09375 5.546875 -9.84375 C 6.140625 -9.601562 7.0625 -9.375 8.3125 -9.15625 C 9.5625 -8.96875 10.582031 -8.742188 11.375 -8.484375 C 12.175781 -8.234375 12.863281 -7.804688 13.4375 -7.203125 C 14.019531 -6.597656 14.3125 -5.738281 14.3125 -4.625 C 14.3125 -3.15625 13.675781 -1.984375 12.40625 -1.109375 C 11.132812 -0.234375 9.410156 0.203125 7.234375 0.203125 Z M 7.234375 0.203125 "/></g></g></g><g fill="#ffffff" fill-opacity="1"><g transform="translate(235.794697, 305.179139)"><g/></g></g><g fill="#ff914d" fill-opacity="1"><g transform="translate(243.876605, 305.179139)"><g><path d="M 11.171875 -20.484375 C 12.953125 -20.484375 14.5 -20.191406 15.8125 -19.609375 C 17.132812 -19.023438 18.144531 -18.1875 18.84375 -17.09375 C 19.550781 -16 19.90625 -14.703125 19.90625 -13.203125 C 19.90625 -11.710938 19.550781 -10.414062 18.84375 -9.3125 C 18.144531 -8.21875 17.132812 -7.375 15.8125 -6.78125 C 14.5 -6.195312 12.953125 -5.90625 11.171875 -5.90625 L 6.5625 -5.90625 L 6.5625 0 L 2.75 0 L 2.75 -20.484375 Z M 11 -9.125 C 12.65625 -9.125 13.910156 -9.472656 14.765625 -10.171875 C 15.628906 -10.878906 16.0625 -11.890625 16.0625 -13.203125 C 16.0625 -14.503906 15.628906 -15.503906 14.765625 -16.203125 C 13.910156 -16.910156 12.65625 -17.265625 11 -17.265625 L 6.5625 -17.265625 L 6.5625 -9.125 Z M 11 -9.125 "/></g></g></g><g fill="#ff914d" fill-opacity="1"><g transform="translate(265.120558, 305.179139)"><g><path d="M 5.875 -13.34375 C 6.9375 -14.976562 8.789062 -15.796875 11.4375 -15.796875 L 11.4375 -12.328125 C 11.125 -12.378906 10.84375 -12.40625 10.59375 -12.40625 C 9.164062 -12.40625 8.050781 -11.988281 7.25 -11.15625 C 6.457031 -10.332031 6.0625 -9.140625 6.0625 -7.578125 L 6.0625 0 L 2.40625 0 L 2.40625 -15.625 L 5.875 -15.625 Z M 5.875 -13.34375 "/></g></g></g><g fill="#ff914d" fill-opacity="1"><g transform="translate(277.410447, 305.179139)"><g><path d="M 9.421875 0.203125 C 7.835938 0.203125 6.410156 -0.132812 5.140625 -0.8125 C 3.878906 -1.5 2.890625 -2.453125 2.171875 -3.671875 C 1.460938 -4.890625 1.109375 -6.269531 1.109375 -7.8125 C 1.109375 -9.351562 1.460938 -10.726562 2.171875 -11.9375 C 2.890625 -13.144531 3.878906 -14.085938 5.140625 -14.765625 C 6.410156 -15.453125 7.835938 -15.796875 9.421875 -15.796875 C 11.023438 -15.796875 12.457031 -15.453125 13.71875 -14.765625 C 14.988281 -14.085938 15.976562 -13.144531 16.6875 -11.9375 C 17.40625 -10.726562 17.765625 -9.351562 17.765625 -7.8125 C 17.765625 -6.269531 17.40625 -4.890625 16.6875 -3.671875 C 15.976562 -2.453125 14.988281 -1.5 13.71875 -0.8125 C 12.457031 -0.132812 11.023438 0.203125 9.421875 0.203125 Z M 9.421875 -2.921875 C 10.765625 -2.921875 11.875 -3.367188 12.75 -4.265625 C 13.632812 -5.171875 14.078125 -6.351562 14.078125 -7.8125 C 14.078125 -9.28125 13.632812 -10.460938 12.75 -11.359375 C 11.875 -12.253906 10.765625 -12.703125 9.421875 -12.703125 C 8.078125 -12.703125 6.96875 -12.253906 6.09375 -11.359375 C 5.226562 -10.460938 4.796875 -9.28125 4.796875 -7.8125 C 4.796875 -6.351562 5.226562 -5.171875 6.09375 -4.265625 C 6.96875 -3.367188 8.078125 -2.921875 9.421875 -2.921875 Z M 9.421875 -2.921875 "/></g></g></g><g fill="#ff914d" fill-opacity="1"><g transform="translate(296.284214, 305.179139)"><g><path d="M 0.796875 5.875 C -0.742188 5.875 -1.914062 5.570312 -2.71875 4.96875 L -1.671875 2.25 C -1.117188 2.664062 -0.40625 2.875 0.46875 2.875 C 1.15625 2.875 1.675781 2.660156 2.03125 2.234375 C 2.394531 1.816406 2.578125 1.195312 2.578125 0.375 L 2.578125 -15.625 L 6.234375 -15.625 L 6.234375 0.296875 C 6.234375 2.023438 5.753906 3.382812 4.796875 4.375 C 3.835938 5.375 2.503906 5.875 0.796875 5.875 Z M 4.390625 -18.203125 C 3.722656 -18.203125 3.164062 -18.410156 2.71875 -18.828125 C 2.269531 -19.253906 2.046875 -19.773438 2.046875 -20.390625 C 2.046875 -21.015625 2.269531 -21.535156 2.71875 -21.953125 C 3.164062 -22.378906 3.722656 -22.59375 4.390625 -22.59375 C 5.054688 -22.59375 5.613281 -22.390625 6.0625 -21.984375 C 6.507812 -21.585938 6.734375 -21.085938 6.734375 -20.484375 C 6.734375 -19.835938 6.515625 -19.296875 6.078125 -18.859375 C 5.640625 -18.421875 5.078125 -18.203125 4.390625 -18.203125 Z M 4.390625 -18.203125 "/></g></g></g><g fill="#ff914d" fill-opacity="1"><g transform="translate(304.9164, 305.179139)"><g><path d="M 17.09375 -7.71875 C 17.09375 -7.46875 17.070312 -7.109375 17.03125 -6.640625 L 4.765625 -6.640625 C 4.984375 -5.492188 5.546875 -4.582031 6.453125 -3.90625 C 7.359375 -3.226562 8.484375 -2.890625 9.828125 -2.890625 C 11.546875 -2.890625 12.960938 -3.457031 14.078125 -4.59375 L 16.03125 -2.34375 C 15.332031 -1.5 14.445312 -0.863281 13.375 -0.4375 C 12.300781 -0.0078125 11.09375 0.203125 9.75 0.203125 C 8.03125 0.203125 6.515625 -0.132812 5.203125 -0.8125 C 3.898438 -1.5 2.890625 -2.453125 2.171875 -3.671875 C 1.460938 -4.890625 1.109375 -6.269531 1.109375 -7.8125 C 1.109375 -9.332031 1.453125 -10.703125 2.140625 -11.921875 C 2.835938 -13.140625 3.800781 -14.085938 5.03125 -14.765625 C 6.257812 -15.453125 7.644531 -15.796875 9.1875 -15.796875 C 10.707031 -15.796875 12.066406 -15.457031 13.265625 -14.78125 C 14.472656 -14.113281 15.410156 -13.171875 16.078125 -11.953125 C 16.753906 -10.734375 17.09375 -9.320312 17.09375 -7.71875 Z M 9.1875 -12.875 C 8.019531 -12.875 7.03125 -12.523438 6.21875 -11.828125 C 5.40625 -11.140625 4.910156 -10.222656 4.734375 -9.078125 L 13.609375 -9.078125 C 13.453125 -10.203125 12.972656 -11.113281 12.171875 -11.8125 C 11.367188 -12.519531 10.375 -12.875 9.1875 -12.875 Z M 9.1875 -12.875 "/></g></g></g><g fill="#ff914d" fill-opacity="1"><g transform="translate(323.11714, 305.179139)"><g><path d="M 11.796875 -0.84375 C 11.367188 -0.5 10.847656 -0.238281 10.234375 -0.0625 C 9.617188 0.113281 8.96875 0.203125 8.28125 0.203125 C 6.5625 0.203125 5.234375 -0.242188 4.296875 -1.140625 C 3.359375 -2.035156 2.890625 -3.34375 2.890625 -5.0625 L 2.890625 -12.578125 L 0.328125 -12.578125 L 0.328125 -15.515625 L 2.890625 -15.515625 L 2.890625 -19.078125 L 6.5625 -19.078125 L 6.5625 -15.515625 L 10.734375 -15.515625 L 10.734375 -12.578125 L 6.5625 -12.578125 L 6.5625 -5.15625 C 6.5625 -4.394531 6.742188 -3.8125 7.109375 -3.40625 C 7.484375 -3.007812 8.019531 -2.8125 8.71875 -2.8125 C 9.539062 -2.8125 10.222656 -3.023438 10.765625 -3.453125 Z M 11.796875 -0.84375 "/></g></g></g><g fill="#ff914d" fill-opacity="1"><g transform="translate(335.524079, 305.179139)"><g><path d="M 9.421875 0.203125 C 7.835938 0.203125 6.410156 -0.132812 5.140625 -0.8125 C 3.878906 -1.5 2.890625 -2.453125 2.171875 -3.671875 C 1.460938 -4.890625 1.109375 -6.269531 1.109375 -7.8125 C 1.109375 -9.351562 1.460938 -10.726562 2.171875 -11.9375 C 2.890625 -13.144531 3.878906 -14.085938 5.140625 -14.765625 C 6.410156 -15.453125 7.835938 -15.796875 9.421875 -15.796875 C 11.023438 -15.796875 12.457031 -15.453125 13.71875 -14.765625 C 14.988281 -14.085938 15.976562 -13.144531 16.6875 -11.9375 C 17.40625 -10.726562 17.765625 -9.351562 17.765625 -7.8125 C 17.765625 -6.269531 17.40625 -4.890625 16.6875 -3.671875 C 15.976562 -2.453125 14.988281 -1.5 13.71875 -0.8125 C 12.457031 -0.132812 11.023438 0.203125 9.421875 0.203125 Z M 9.421875 -2.921875 C 10.765625 -2.921875 11.875 -3.367188 12.75 -4.265625 C 13.632812 -5.171875 14.078125 -6.351562 14.078125 -7.8125 C 14.078125 -9.28125 13.632812 -10.460938 12.75 -11.359375 C 11.875 -12.253906 10.765625 -12.703125 9.421875 -12.703125 C 8.078125 -12.703125 6.96875 -12.253906 6.09375 -11.359375 C 5.226562 -10.460938 4.796875 -9.28125 4.796875 -7.8125 C 4.796875 -6.351562 5.226562 -5.171875 6.09375 -4.265625 C 6.96875 -3.367188 8.078125 -2.921875 9.421875 -2.921875 Z M 9.421875 -2.921875 "/></g></g></g><g fill="#ff914d" fill-opacity="1"><g transform="translate(354.397846, 305.179139)"><g><path d="M 7.234375 0.203125 C 5.960938 0.203125 4.722656 0.0351562 3.515625 -0.296875 C 2.304688 -0.628906 1.335938 -1.046875 0.609375 -1.546875 L 2.015625 -4.328125 C 2.722656 -3.859375 3.566406 -3.484375 4.546875 -3.203125 C 5.535156 -2.921875 6.507812 -2.78125 7.46875 -2.78125 C 9.644531 -2.78125 10.734375 -3.351562 10.734375 -4.5 C 10.734375 -5.050781 10.457031 -5.429688 9.90625 -5.640625 C 9.351562 -5.859375 8.460938 -6.066406 7.234375 -6.265625 C 5.941406 -6.460938 4.890625 -6.6875 4.078125 -6.9375 C 3.273438 -7.1875 2.570312 -7.628906 1.96875 -8.265625 C 1.375 -8.898438 1.078125 -9.785156 1.078125 -10.921875 C 1.078125 -12.398438 1.695312 -13.582031 2.9375 -14.46875 C 4.175781 -15.351562 5.847656 -15.796875 7.953125 -15.796875 C 9.023438 -15.796875 10.097656 -15.675781 11.171875 -15.4375 C 12.253906 -15.195312 13.132812 -14.867188 13.8125 -14.453125 L 12.40625 -11.671875 C 11.082031 -12.453125 9.59375 -12.84375 7.9375 -12.84375 C 6.863281 -12.84375 6.046875 -12.679688 5.484375 -12.359375 C 4.929688 -12.035156 4.65625 -11.613281 4.65625 -11.09375 C 4.65625 -10.507812 4.953125 -10.09375 5.546875 -9.84375 C 6.140625 -9.601562 7.0625 -9.375 8.3125 -9.15625 C 9.5625 -8.96875 10.582031 -8.742188 11.375 -8.484375 C 12.175781 -8.234375 12.863281 -7.804688 13.4375 -7.203125 C 14.019531 -6.597656 14.3125 -5.738281 14.3125 -4.625 C 14.3125 -3.15625 13.675781 -1.984375 12.40625 -1.109375 C 11.132812 -0.234375 9.410156 0.203125 7.234375 0.203125 Z M 7.234375 0.203125 "/></g></g></g><g fill="#f652ff" fill-opacity="1"><g transform="translate(90.056303, 330.679137)"><g><path d="M 2.75 -20.484375 L 6.5625 -20.484375 L 6.5625 0 L 2.75 0 Z M 2.75 -20.484375 "/></g></g></g><g fill="#f652ff" fill-opacity="1"><g transform="translate(99.390767, 330.679137)"><g><path d="M 11.265625 -15.796875 C 13.234375 -15.796875 14.8125 -15.21875 16 -14.0625 C 17.195312 -12.914062 17.796875 -11.210938 17.796875 -8.953125 L 17.796875 0 L 14.140625 0 L 14.140625 -8.484375 C 14.140625 -9.847656 13.816406 -10.875 13.171875 -11.5625 C 12.523438 -12.257812 11.609375 -12.609375 10.421875 -12.609375 C 9.078125 -12.609375 8.015625 -12.203125 7.234375 -11.390625 C 6.453125 -10.585938 6.0625 -9.425781 6.0625 -7.90625 L 6.0625 0 L 2.40625 0 L 2.40625 -15.625 L 5.875 -15.625 L 5.875 -13.609375 C 6.488281 -14.328125 7.253906 -14.867188 8.171875 -15.234375 C 9.085938 -15.609375 10.117188 -15.796875 11.265625 -15.796875 Z M 11.265625 -15.796875 "/></g></g></g><g fill="#f652ff" fill-opacity="1"><g transform="translate(119.43499, 330.679137)"><g><path d="M 11.796875 -0.84375 C 11.367188 -0.5 10.847656 -0.238281 10.234375 -0.0625 C 9.617188 0.113281 8.96875 0.203125 8.28125 0.203125 C 6.5625 0.203125 5.234375 -0.242188 4.296875 -1.140625 C 3.359375 -2.035156 2.890625 -3.34375 2.890625 -5.0625 L 2.890625 -12.578125 L 0.328125 -12.578125 L 0.328125 -15.515625 L 2.890625 -15.515625 L 2.890625 -19.078125 L 6.5625 -19.078125 L 6.5625 -15.515625 L 10.734375 -15.515625 L 10.734375 -12.578125 L 6.5625 -12.578125 L 6.5625 -5.15625 C 6.5625 -4.394531 6.742188 -3.8125 7.109375 -3.40625 C 7.484375 -3.007812 8.019531 -2.8125 8.71875 -2.8125 C 9.539062 -2.8125 10.222656 -3.023438 10.765625 -3.453125 Z M 11.796875 -0.84375 "/></g></g></g><g fill="#f652ff" fill-opacity="1"><g transform="translate(131.841929, 330.679137)"><g><path d="M 17.09375 -7.71875 C 17.09375 -7.46875 17.070312 -7.109375 17.03125 -6.640625 L 4.765625 -6.640625 C 4.984375 -5.492188 5.546875 -4.582031 6.453125 -3.90625 C 7.359375 -3.226562 8.484375 -2.890625 9.828125 -2.890625 C 11.546875 -2.890625 12.960938 -3.457031 14.078125 -4.59375 L 16.03125 -2.34375 C 15.332031 -1.5 14.445312 -0.863281 13.375 -0.4375 C 12.300781 -0.0078125 11.09375 0.203125 9.75 0.203125 C 8.03125 0.203125 6.515625 -0.132812 5.203125 -0.8125 C 3.898438 -1.5 2.890625 -2.453125 2.171875 -3.671875 C 1.460938 -4.890625 1.109375 -6.269531 1.109375 -7.8125 C 1.109375 -9.332031 1.453125 -10.703125 2.140625 -11.921875 C 2.835938 -13.140625 3.800781 -14.085938 5.03125 -14.765625 C 6.257812 -15.453125 7.644531 -15.796875 9.1875 -15.796875 C 10.707031 -15.796875 12.066406 -15.457031 13.265625 -14.78125 C 14.472656 -14.113281 15.410156 -13.171875 16.078125 -11.953125 C 16.753906 -10.734375 17.09375 -9.320312 17.09375 -7.71875 Z M 9.1875 -12.875 C 8.019531 -12.875 7.03125 -12.523438 6.21875 -11.828125 C 5.40625 -11.140625 4.910156 -10.222656 4.734375 -9.078125 L 13.609375 -9.078125 C 13.453125 -10.203125 12.972656 -11.113281 12.171875 -11.8125 C 11.367188 -12.519531 10.375 -12.875 9.1875 -12.875 Z M 9.1875 -12.875 "/></g></g></g><g fill="#f652ff" fill-opacity="1"><g transform="translate(150.042669, 330.679137)"><g><path d="M 17.90625 -15.625 L 17.90625 -2.375 C 17.90625 3.125 15.097656 5.875 9.484375 5.875 C 7.984375 5.875 6.554688 5.679688 5.203125 5.296875 C 3.859375 4.921875 2.75 4.375 1.875 3.65625 L 3.515625 0.90625 C 4.191406 1.46875 5.050781 1.921875 6.09375 2.265625 C 7.144531 2.609375 8.207031 2.78125 9.28125 2.78125 C 11 2.78125 12.253906 2.390625 13.046875 1.609375 C 13.847656 0.828125 14.25 -0.359375 14.25 -1.953125 L 14.25 -2.78125 C 13.625 -2.09375 12.863281 -1.570312 11.96875 -1.21875 C 11.070312 -0.875 10.085938 -0.703125 9.015625 -0.703125 C 7.535156 -0.703125 6.191406 -1.019531 4.984375 -1.65625 C 3.785156 -2.289062 2.835938 -3.179688 2.140625 -4.328125 C 1.453125 -5.484375 1.109375 -6.800781 1.109375 -8.28125 C 1.109375 -9.757812 1.453125 -11.070312 2.140625 -12.21875 C 2.835938 -13.363281 3.785156 -14.242188 4.984375 -14.859375 C 6.191406 -15.484375 7.535156 -15.796875 9.015625 -15.796875 C 10.148438 -15.796875 11.175781 -15.609375 12.09375 -15.234375 C 13.019531 -14.867188 13.796875 -14.304688 14.421875 -13.546875 L 14.421875 -15.625 Z M 9.5625 -3.796875 C 10.945312 -3.796875 12.082031 -4.210938 12.96875 -5.046875 C 13.863281 -5.878906 14.3125 -6.957031 14.3125 -8.28125 C 14.3125 -9.59375 13.863281 -10.65625 12.96875 -11.46875 C 12.082031 -12.289062 10.945312 -12.703125 9.5625 -12.703125 C 8.164062 -12.703125 7.019531 -12.289062 6.125 -11.46875 C 5.238281 -10.65625 4.796875 -9.59375 4.796875 -8.28125 C 4.796875 -6.957031 5.238281 -5.878906 6.125 -5.046875 C 7.019531 -4.210938 8.164062 -3.796875 9.5625 -3.796875 Z M 9.5625 -3.796875 "/></g></g></g><g fill="#f652ff" fill-opacity="1"><g transform="translate(170.350254, 330.679137)"><g><path d="M 5.875 -13.34375 C 6.9375 -14.976562 8.789062 -15.796875 11.4375 -15.796875 L 11.4375 -12.328125 C 11.125 -12.378906 10.84375 -12.40625 10.59375 -12.40625 C 9.164062 -12.40625 8.050781 -11.988281 7.25 -11.15625 C 6.457031 -10.332031 6.0625 -9.140625 6.0625 -7.578125 L 6.0625 0 L 2.40625 0 L 2.40625 -15.625 L 5.875 -15.625 Z M 5.875 -13.34375 "/></g></g></g><g fill="#f652ff" fill-opacity="1"><g transform="translate(182.640143, 330.679137)"><g><path d="M 8.375 -15.796875 C 10.675781 -15.796875 12.4375 -15.242188 13.65625 -14.140625 C 14.875 -13.046875 15.484375 -11.382812 15.484375 -9.15625 L 15.484375 0 L 12.03125 0 L 12.03125 -1.90625 C 11.582031 -1.21875 10.941406 -0.691406 10.109375 -0.328125 C 9.285156 0.0234375 8.285156 0.203125 7.109375 0.203125 C 5.941406 0.203125 4.914062 0.00390625 4.03125 -0.390625 C 3.15625 -0.796875 2.476562 -1.351562 2 -2.0625 C 1.519531 -2.769531 1.28125 -3.578125 1.28125 -4.484375 C 1.28125 -5.878906 1.800781 -7 2.84375 -7.84375 C 3.894531 -8.695312 5.539062 -9.125 7.78125 -9.125 L 11.828125 -9.125 L 11.828125 -9.359375 C 11.828125 -10.453125 11.5 -11.289062 10.84375 -11.875 C 10.1875 -12.46875 9.21875 -12.765625 7.9375 -12.765625 C 7.050781 -12.765625 6.179688 -12.625 5.328125 -12.34375 C 4.484375 -12.070312 3.769531 -11.691406 3.1875 -11.203125 L 1.75 -13.875 C 2.570312 -14.5 3.554688 -14.972656 4.703125 -15.296875 C 5.859375 -15.628906 7.082031 -15.796875 8.375 -15.796875 Z M 7.875 -2.453125 C 8.789062 -2.453125 9.601562 -2.660156 10.3125 -3.078125 C 11.03125 -3.503906 11.535156 -4.109375 11.828125 -4.890625 L 11.828125 -6.703125 L 8.046875 -6.703125 C 5.941406 -6.703125 4.890625 -6.007812 4.890625 -4.625 C 4.890625 -3.957031 5.148438 -3.425781 5.671875 -3.03125 C 6.203125 -2.644531 6.9375 -2.453125 7.875 -2.453125 Z M 7.875 -2.453125 "/></g></g></g><g fill="#f652ff" fill-opacity="1"><g transform="translate(200.401968, 330.679137)"><g><path d="M 17.703125 -21.71875 L 17.703125 0 L 14.1875 0 L 14.1875 -2.015625 C 13.582031 -1.273438 12.835938 -0.71875 11.953125 -0.34375 C 11.066406 0.0195312 10.085938 0.203125 9.015625 0.203125 C 7.515625 0.203125 6.160156 -0.125 4.953125 -0.78125 C 3.753906 -1.445312 2.8125 -2.390625 2.125 -3.609375 C 1.445312 -4.828125 1.109375 -6.226562 1.109375 -7.8125 C 1.109375 -9.394531 1.445312 -10.789062 2.125 -12 C 2.8125 -13.207031 3.753906 -14.140625 4.953125 -14.796875 C 6.160156 -15.460938 7.515625 -15.796875 9.015625 -15.796875 C 10.046875 -15.796875 10.988281 -15.617188 11.84375 -15.265625 C 12.707031 -14.921875 13.441406 -14.398438 14.046875 -13.703125 L 14.046875 -21.71875 Z M 9.453125 -2.921875 C 10.328125 -2.921875 11.113281 -3.117188 11.8125 -3.515625 C 12.519531 -3.921875 13.078125 -4.492188 13.484375 -5.234375 C 13.898438 -5.972656 14.109375 -6.832031 14.109375 -7.8125 C 14.109375 -8.789062 13.898438 -9.648438 13.484375 -10.390625 C 13.078125 -11.128906 12.519531 -11.695312 11.8125 -12.09375 C 11.113281 -12.5 10.328125 -12.703125 9.453125 -12.703125 C 8.578125 -12.703125 7.785156 -12.5 7.078125 -12.09375 C 6.378906 -11.695312 5.820312 -11.128906 5.40625 -10.390625 C 5 -9.648438 4.796875 -8.789062 4.796875 -7.8125 C 4.796875 -6.832031 5 -5.972656 5.40625 -5.234375 C 5.820312 -4.492188 6.378906 -3.921875 7.078125 -3.515625 C 7.785156 -3.117188 8.578125 -2.921875 9.453125 -2.921875 Z M 9.453125 -2.921875 "/></g></g></g><g fill="#f652ff" fill-opacity="1"><g transform="translate(220.504715, 330.679137)"><g><path d="M 9.421875 0.203125 C 7.835938 0.203125 6.410156 -0.132812 5.140625 -0.8125 C 3.878906 -1.5 2.890625 -2.453125 2.171875 -3.671875 C 1.460938 -4.890625 1.109375 -6.269531 1.109375 -7.8125 C 1.109375 -9.351562 1.460938 -10.726562 2.171875 -11.9375 C 2.890625 -13.144531 3.878906 -14.085938 5.140625 -14.765625 C 6.410156 -15.453125 7.835938 -15.796875 9.421875 -15.796875 C 11.023438 -15.796875 12.457031 -15.453125 13.71875 -14.765625 C 14.988281 -14.085938 15.976562 -13.144531 16.6875 -11.9375 C 17.40625 -10.726562 17.765625 -9.351562 17.765625 -7.8125 C 17.765625 -6.269531 17.40625 -4.890625 16.6875 -3.671875 C 15.976562 -2.453125 14.988281 -1.5 13.71875 -0.8125 C 12.457031 -0.132812 11.023438 0.203125 9.421875 0.203125 Z M 9.421875 -2.921875 C 10.765625 -2.921875 11.875 -3.367188 12.75 -4.265625 C 13.632812 -5.171875 14.078125 -6.351562 14.078125 -7.8125 C 14.078125 -9.28125 13.632812 -10.460938 12.75 -11.359375 C 11.875 -12.253906 10.765625 -12.703125 9.421875 -12.703125 C 8.078125 -12.703125 6.96875 -12.253906 6.09375 -11.359375 C 5.226562 -10.460938 4.796875 -9.28125 4.796875 -7.8125 C 4.796875 -6.351562 5.226562 -5.171875 6.09375 -4.265625 C 6.96875 -3.367188 8.078125 -2.921875 9.421875 -2.921875 Z M 9.421875 -2.921875 "/></g></g></g><g fill="#f652ff" fill-opacity="1"><g transform="translate(239.378482, 330.679137)"><g><path d="M 5.875 -13.34375 C 6.9375 -14.976562 8.789062 -15.796875 11.4375 -15.796875 L 11.4375 -12.328125 C 11.125 -12.378906 10.84375 -12.40625 10.59375 -12.40625 C 9.164062 -12.40625 8.050781 -11.988281 7.25 -11.15625 C 6.457031 -10.332031 6.0625 -9.140625 6.0625 -7.578125 L 6.0625 0 L 2.40625 0 L 2.40625 -15.625 L 5.875 -15.625 Z M 5.875 -13.34375 "/></g></g></g><g fill="#f652ff" fill-opacity="1"><g transform="translate(251.668371, 330.679137)"><g><path d="M 17.09375 -7.71875 C 17.09375 -7.46875 17.070312 -7.109375 17.03125 -6.640625 L 4.765625 -6.640625 C 4.984375 -5.492188 5.546875 -4.582031 6.453125 -3.90625 C 7.359375 -3.226562 8.484375 -2.890625 9.828125 -2.890625 C 11.546875 -2.890625 12.960938 -3.457031 14.078125 -4.59375 L 16.03125 -2.34375 C 15.332031 -1.5 14.445312 -0.863281 13.375 -0.4375 C 12.300781 -0.0078125 11.09375 0.203125 9.75 0.203125 C 8.03125 0.203125 6.515625 -0.132812 5.203125 -0.8125 C 3.898438 -1.5 2.890625 -2.453125 2.171875 -3.671875 C 1.460938 -4.890625 1.109375 -6.269531 1.109375 -7.8125 C 1.109375 -9.332031 1.453125 -10.703125 2.140625 -11.921875 C 2.835938 -13.140625 3.800781 -14.085938 5.03125 -14.765625 C 6.257812 -15.453125 7.644531 -15.796875 9.1875 -15.796875 C 10.707031 -15.796875 12.066406 -15.457031 13.265625 -14.78125 C 14.472656 -14.113281 15.410156 -13.171875 16.078125 -11.953125 C 16.753906 -10.734375 17.09375 -9.320312 17.09375 -7.71875 Z M 9.1875 -12.875 C 8.019531 -12.875 7.03125 -12.523438 6.21875 -11.828125 C 5.40625 -11.140625 4.910156 -10.222656 4.734375 -9.078125 L 13.609375 -9.078125 C 13.453125 -10.203125 12.972656 -11.113281 12.171875 -11.8125 C 11.367188 -12.519531 10.375 -12.875 9.1875 -12.875 Z M 9.1875 -12.875 "/></g></g></g><g fill="#f652ff" fill-opacity="1"><g transform="translate(269.869111, 330.679137)"><g><path d="M 7.234375 0.203125 C 5.960938 0.203125 4.722656 0.0351562 3.515625 -0.296875 C 2.304688 -0.628906 1.335938 -1.046875 0.609375 -1.546875 L 2.015625 -4.328125 C 2.722656 -3.859375 3.566406 -3.484375 4.546875 -3.203125 C 5.535156 -2.921875 6.507812 -2.78125 7.46875 -2.78125 C 9.644531 -2.78125 10.734375 -3.351562 10.734375 -4.5 C 10.734375 -5.050781 10.457031 -5.429688 9.90625 -5.640625 C 9.351562 -5.859375 8.460938 -6.066406 7.234375 -6.265625 C 5.941406 -6.460938 4.890625 -6.6875 4.078125 -6.9375 C 3.273438 -7.1875 2.570312 -7.628906 1.96875 -8.265625 C 1.375 -8.898438 1.078125 -9.785156 1.078125 -10.921875 C 1.078125 -12.398438 1.695312 -13.582031 2.9375 -14.46875 C 4.175781 -15.351562 5.847656 -15.796875 7.953125 -15.796875 C 9.023438 -15.796875 10.097656 -15.675781 11.171875 -15.4375 C 12.253906 -15.195312 13.132812 -14.867188 13.8125 -14.453125 L 12.40625 -11.671875 C 11.082031 -12.453125 9.59375 -12.84375 7.9375 -12.84375 C 6.863281 -12.84375 6.046875 -12.679688 5.484375 -12.359375 C 4.929688 -12.035156 4.65625 -11.613281 4.65625 -11.09375 C 4.65625 -10.507812 4.953125 -10.09375 5.546875 -9.84375 C 6.140625 -9.601562 7.0625 -9.375 8.3125 -9.15625 C 9.5625 -8.96875 10.582031 -8.742188 11.375 -8.484375 C 12.175781 -8.234375 12.863281 -7.804688 13.4375 -7.203125 C 14.019531 -6.597656 14.3125 -5.738281 14.3125 -4.625 C 14.3125 -3.15625 13.675781 -1.984375 12.40625 -1.109375 C 11.132812 -0.234375 9.410156 0.203125 7.234375 0.203125 Z M 7.234375 0.203125 "/></g></g></g><g fill="#ffffff" fill-opacity="1"><g transform="translate(96.715904, 65.320837)"><g><path d="M 12.234375 0.34375 C 10.148438 0.34375 8.257812 -0.109375 6.5625 -1.015625 C 4.875 -1.921875 3.546875 -3.175781 2.578125 -4.78125 C 1.617188 -6.394531 1.140625 -8.21875 1.140625 -10.25 C 1.140625 -12.269531 1.617188 -14.082031 2.578125 -15.6875 C 3.546875 -17.300781 4.875 -18.5625 6.5625 -19.46875 C 8.257812 -20.382812 10.160156 -20.84375 12.265625 -20.84375 C 14.035156 -20.84375 15.640625 -20.53125 17.078125 -19.90625 C 18.515625 -19.28125 19.71875 -18.378906 20.6875 -17.203125 L 17.640625 -14.40625 C 16.253906 -16 14.539062 -16.796875 12.5 -16.796875 C 11.226562 -16.796875 10.09375 -16.515625 9.09375 -15.953125 C 8.101562 -15.398438 7.328125 -14.625 6.765625 -13.625 C 6.210938 -12.632812 5.9375 -11.507812 5.9375 -10.25 C 5.9375 -8.976562 6.210938 -7.84375 6.765625 -6.84375 C 7.328125 -5.851562 8.101562 -5.078125 9.09375 -4.515625 C 10.09375 -3.960938 11.226562 -3.6875 12.5 -3.6875 C 14.539062 -3.6875 16.253906 -4.492188 17.640625 -6.109375 L 20.6875 -3.3125 C 19.71875 -2.113281 18.507812 -1.203125 17.0625 -0.578125 C 15.613281 0.0351562 14.003906 0.34375 12.234375 0.34375 Z M 12.234375 0.34375 "/></g></g></g><g fill="#ffffff" fill-opacity="1"><g transform="translate(118.164694, 65.320837)"><g><path d="M 9.59375 0.234375 C 7.9375 0.234375 6.445312 -0.109375 5.125 -0.796875 C 3.8125 -1.492188 2.785156 -2.457031 2.046875 -3.6875 C 1.304688 -4.914062 0.9375 -6.3125 0.9375 -7.875 C 0.9375 -9.4375 1.304688 -10.832031 2.046875 -12.0625 C 2.785156 -13.289062 3.8125 -14.25 5.125 -14.9375 C 6.445312 -15.632812 7.9375 -15.984375 9.59375 -15.984375 C 11.257812 -15.984375 12.742188 -15.632812 14.046875 -14.9375 C 15.359375 -14.25 16.382812 -13.289062 17.125 -12.0625 C 17.863281 -10.832031 18.234375 -9.4375 18.234375 -7.875 C 18.234375 -6.3125 17.863281 -4.914062 17.125 -3.6875 C 16.382812 -2.457031 15.359375 -1.492188 14.046875 -0.796875 C 12.742188 -0.109375 11.257812 0.234375 9.59375 0.234375 Z M 9.59375 -3.515625 C 10.769531 -3.515625 11.734375 -3.90625 12.484375 -4.6875 C 13.234375 -5.476562 13.609375 -6.539062 13.609375 -7.875 C 13.609375 -9.195312 13.234375 -10.253906 12.484375 -11.046875 C 11.734375 -11.835938 10.769531 -12.234375 9.59375 -12.234375 C 8.425781 -12.234375 7.460938 -11.835938 6.703125 -11.046875 C 5.941406 -10.253906 5.5625 -9.195312 5.5625 -7.875 C 5.5625 -6.539062 5.941406 -5.476562 6.703125 -4.6875 C 7.460938 -3.90625 8.425781 -3.515625 9.59375 -3.515625 Z M 9.59375 -3.515625 "/></g></g></g><g fill="#ffffff" fill-opacity="1"><g transform="translate(137.331075, 65.320837)"><g><path d="M 11.671875 -15.984375 C 13.628906 -15.984375 15.207031 -15.394531 16.40625 -14.21875 C 17.601562 -13.050781 18.203125 -11.316406 18.203125 -9.015625 L 18.203125 0 L 13.640625 0 L 13.640625 -8.3125 C 13.640625 -9.5625 13.363281 -10.492188 12.8125 -11.109375 C 12.269531 -11.722656 11.484375 -12.03125 10.453125 -12.03125 C 9.296875 -12.03125 8.375 -11.671875 7.6875 -10.953125 C 7.007812 -10.242188 6.671875 -9.1875 6.671875 -7.78125 L 6.671875 0 L 2.109375 0 L 2.109375 -15.75 L 6.46875 -15.75 L 6.46875 -13.90625 C 7.070312 -14.5625 7.820312 -15.070312 8.71875 -15.4375 C 9.613281 -15.800781 10.597656 -15.984375 11.671875 -15.984375 Z M 11.671875 -15.984375 "/></g></g></g><g fill="#ffffff" fill-opacity="1"><g transform="translate(157.550873, 65.320837)"><g><path d="M 17.53125 -7.8125 C 17.53125 -7.75 17.5 -7.335938 17.4375 -6.578125 L 5.53125 -6.578125 C 5.75 -5.609375 6.253906 -4.835938 7.046875 -4.265625 C 7.847656 -3.703125 8.84375 -3.421875 10.03125 -3.421875 C 10.851562 -3.421875 11.582031 -3.539062 12.21875 -3.78125 C 12.851562 -4.03125 13.441406 -4.421875 13.984375 -4.953125 L 16.421875 -2.3125 C 14.929688 -0.613281 12.765625 0.234375 9.921875 0.234375 C 8.148438 0.234375 6.578125 -0.109375 5.203125 -0.796875 C 3.835938 -1.492188 2.785156 -2.457031 2.046875 -3.6875 C 1.304688 -4.914062 0.9375 -6.3125 0.9375 -7.875 C 0.9375 -9.414062 1.300781 -10.804688 2.03125 -12.046875 C 2.757812 -13.285156 3.765625 -14.25 5.046875 -14.9375 C 6.328125 -15.632812 7.753906 -15.984375 9.328125 -15.984375 C 10.867188 -15.984375 12.265625 -15.648438 13.515625 -14.984375 C 14.765625 -14.316406 15.742188 -13.363281 16.453125 -12.125 C 17.171875 -10.882812 17.53125 -9.445312 17.53125 -7.8125 Z M 9.359375 -12.53125 C 8.328125 -12.53125 7.457031 -12.234375 6.75 -11.640625 C 6.050781 -11.054688 5.625 -10.257812 5.46875 -9.25 L 13.234375 -9.25 C 13.078125 -10.238281 12.644531 -11.03125 11.9375 -11.625 C 11.238281 -12.226562 10.378906 -12.53125 9.359375 -12.53125 Z M 9.359375 -12.53125 "/></g></g></g><g fill="#ffffff" fill-opacity="1"><g transform="translate(176.014975, 65.320837)"><g><path d="M 9.71875 0.234375 C 8.039062 0.234375 6.53125 -0.109375 5.1875 -0.796875 C 3.851562 -1.492188 2.8125 -2.457031 2.0625 -3.6875 C 1.3125 -4.914062 0.9375 -6.3125 0.9375 -7.875 C 0.9375 -9.4375 1.3125 -10.832031 2.0625 -12.0625 C 2.8125 -13.289062 3.851562 -14.25 5.1875 -14.9375 C 6.53125 -15.632812 8.039062 -15.984375 9.71875 -15.984375 C 11.375 -15.984375 12.820312 -15.632812 14.0625 -14.9375 C 15.300781 -14.25 16.203125 -13.257812 16.765625 -11.96875 L 13.234375 -10.0625 C 12.410156 -11.507812 11.226562 -12.234375 9.6875 -12.234375 C 8.5 -12.234375 7.515625 -11.84375 6.734375 -11.0625 C 5.953125 -10.28125 5.5625 -9.21875 5.5625 -7.875 C 5.5625 -6.53125 5.953125 -5.46875 6.734375 -4.6875 C 7.515625 -3.90625 8.5 -3.515625 9.6875 -3.515625 C 11.25 -3.515625 12.429688 -4.234375 13.234375 -5.671875 L 16.765625 -3.75 C 16.203125 -2.5 15.300781 -1.519531 14.0625 -0.8125 C 12.820312 -0.113281 11.375 0.234375 9.71875 0.234375 Z M 9.71875 0.234375 "/></g></g></g><g fill="#ffffff" fill-opacity="1"><g transform="translate(193.30861, 65.320837)"><g><path d="M 12.265625 -0.765625 C 11.816406 -0.429688 11.265625 -0.179688 10.609375 -0.015625 C 9.953125 0.148438 9.265625 0.234375 8.546875 0.234375 C 6.671875 0.234375 5.21875 -0.242188 4.1875 -1.203125 C 3.164062 -2.160156 2.65625 -3.566406 2.65625 -5.421875 L 2.65625 -11.875 L 0.234375 -11.875 L 0.234375 -15.390625 L 2.65625 -15.390625 L 2.65625 -19.234375 L 7.234375 -19.234375 L 7.234375 -15.390625 L 11.15625 -15.390625 L 11.15625 -11.875 L 7.234375 -11.875 L 7.234375 -5.46875 C 7.234375 -4.8125 7.398438 -4.300781 7.734375 -3.9375 C 8.078125 -3.570312 8.5625 -3.390625 9.1875 -3.390625 C 9.90625 -3.390625 10.519531 -3.585938 11.03125 -3.984375 Z M 12.265625 -0.765625 "/></g></g></g><g fill="#ffffff" fill-opacity="1"><g transform="translate(206.037427, 65.320837)"><g><path d="M 17.53125 -7.8125 C 17.53125 -7.75 17.5 -7.335938 17.4375 -6.578125 L 5.53125 -6.578125 C 5.75 -5.609375 6.253906 -4.835938 7.046875 -4.265625 C 7.847656 -3.703125 8.84375 -3.421875 10.03125 -3.421875 C 10.851562 -3.421875 11.582031 -3.539062 12.21875 -3.78125 C 12.851562 -4.03125 13.441406 -4.421875 13.984375 -4.953125 L 16.421875 -2.3125 C 14.929688 -0.613281 12.765625 0.234375 9.921875 0.234375 C 8.148438 0.234375 6.578125 -0.109375 5.203125 -0.796875 C 3.835938 -1.492188 2.785156 -2.457031 2.046875 -3.6875 C 1.304688 -4.914062 0.9375 -6.3125 0.9375 -7.875 C 0.9375 -9.414062 1.300781 -10.804688 2.03125 -12.046875 C 2.757812 -13.285156 3.765625 -14.25 5.046875 -14.9375 C 6.328125 -15.632812 7.753906 -15.984375 9.328125 -15.984375 C 10.867188 -15.984375 12.265625 -15.648438 13.515625 -14.984375 C 14.765625 -14.316406 15.742188 -13.363281 16.453125 -12.125 C 17.171875 -10.882812 17.53125 -9.445312 17.53125 -7.8125 Z M 9.359375 -12.53125 C 8.328125 -12.53125 7.457031 -12.234375 6.75 -11.640625 C 6.050781 -11.054688 5.625 -10.257812 5.46875 -9.25 L 13.234375 -9.25 C 13.078125 -10.238281 12.644531 -11.03125 11.9375 -11.625 C 11.238281 -12.226562 10.378906 -12.53125 9.359375 -12.53125 Z M 9.359375 -12.53125 "/></g></g></g><g fill="#ffffff" fill-opacity="1"><g transform="translate(224.501529, 65.320837)"><g><path d="M 1.515625 -10.0625 L 9.796875 -10.0625 L 9.796875 -6.40625 L 1.515625 -6.40625 Z M 1.515625 -10.0625 "/></g></g></g><g fill="#ffffff" fill-opacity="1"><g transform="translate(235.796527, 65.320837)"><g><path d="M 7.40625 0.234375 C 6.09375 0.234375 4.8125 0.0703125 3.5625 -0.25 C 2.320312 -0.570312 1.328125 -0.976562 0.578125 -1.46875 L 2.109375 -4.734375 C 2.804688 -4.285156 3.648438 -3.921875 4.640625 -3.640625 C 5.640625 -3.359375 6.617188 -3.21875 7.578125 -3.21875 C 9.515625 -3.21875 10.484375 -3.695312 10.484375 -4.65625 C 10.484375 -5.101562 10.21875 -5.421875 9.6875 -5.609375 C 9.15625 -5.804688 8.347656 -5.972656 7.265625 -6.109375 C 5.972656 -6.304688 4.90625 -6.53125 4.0625 -6.78125 C 3.226562 -7.039062 2.503906 -7.492188 1.890625 -8.140625 C 1.273438 -8.785156 0.96875 -9.703125 0.96875 -10.890625 C 0.96875 -11.878906 1.253906 -12.757812 1.828125 -13.53125 C 2.398438 -14.300781 3.238281 -14.898438 4.34375 -15.328125 C 5.445312 -15.765625 6.75 -15.984375 8.25 -15.984375 C 9.363281 -15.984375 10.472656 -15.859375 11.578125 -15.609375 C 12.679688 -15.367188 13.59375 -15.035156 14.3125 -14.609375 L 12.796875 -11.359375 C 11.410156 -12.140625 9.894531 -12.53125 8.25 -12.53125 C 7.28125 -12.53125 6.550781 -12.390625 6.0625 -12.109375 C 5.570312 -11.835938 5.328125 -11.488281 5.328125 -11.0625 C 5.328125 -10.570312 5.585938 -10.226562 6.109375 -10.03125 C 6.640625 -9.84375 7.484375 -9.660156 8.640625 -9.484375 C 9.921875 -9.265625 10.96875 -9.03125 11.78125 -8.78125 C 12.601562 -8.539062 13.316406 -8.097656 13.921875 -7.453125 C 14.535156 -6.816406 14.84375 -5.921875 14.84375 -4.765625 C 14.84375 -3.796875 14.546875 -2.929688 13.953125 -2.171875 C 13.367188 -1.410156 12.515625 -0.816406 11.390625 -0.390625 C 10.273438 0.0234375 8.945312 0.234375 7.40625 0.234375 Z M 7.40625 0.234375 "/></g></g></g><g fill="#ffffff" fill-opacity="1"><g transform="translate(251.334467, 65.320837)"><g><path d="M 17.53125 -7.8125 C 17.53125 -7.75 17.5 -7.335938 17.4375 -6.578125 L 5.53125 -6.578125 C 5.75 -5.609375 6.253906 -4.835938 7.046875 -4.265625 C 7.847656 -3.703125 8.84375 -3.421875 10.03125 -3.421875 C 10.851562 -3.421875 11.582031 -3.539062 12.21875 -3.78125 C 12.851562 -4.03125 13.441406 -4.421875 13.984375 -4.953125 L 16.421875 -2.3125 C 14.929688 -0.613281 12.765625 0.234375 9.921875 0.234375 C 8.148438 0.234375 6.578125 -0.109375 5.203125 -0.796875 C 3.835938 -1.492188 2.785156 -2.457031 2.046875 -3.6875 C 1.304688 -4.914062 0.9375 -6.3125 0.9375 -7.875 C 0.9375 -9.414062 1.300781 -10.804688 2.03125 -12.046875 C 2.757812 -13.285156 3.765625 -14.25 5.046875 -14.9375 C 6.328125 -15.632812 7.753906 -15.984375 9.328125 -15.984375 C 10.867188 -15.984375 12.265625 -15.648438 13.515625 -14.984375 C 14.765625 -14.316406 15.742188 -13.363281 16.453125 -12.125 C 17.171875 -10.882812 17.53125 -9.445312 17.53125 -7.8125 Z M 9.359375 -12.53125 C 8.328125 -12.53125 7.457031 -12.234375 6.75 -11.640625 C 6.050781 -11.054688 5.625 -10.257812 5.46875 -9.25 L 13.234375 -9.25 C 13.078125 -10.238281 12.644531 -11.03125 11.9375 -11.625 C 11.238281 -12.226562 10.378906 -12.53125 9.359375 -12.53125 Z M 9.359375 -12.53125 "/></g></g></g><g fill="#ffffff" fill-opacity="1"><g transform="translate(269.798569, 65.320837)"><g><path d="M 1.515625 -20.484375 L 6.96875 -20.484375 L 6.0625 -7.109375 L 2.421875 -7.109375 Z M 4.25 0.234375 C 3.445312 0.234375 2.773438 -0.0195312 2.234375 -0.53125 C 1.703125 -1.050781 1.4375 -1.679688 1.4375 -2.421875 C 1.4375 -3.171875 1.695312 -3.789062 2.21875 -4.28125 C 2.75 -4.78125 3.425781 -5.03125 4.25 -5.03125 C 5.0625 -5.03125 5.726562 -4.78125 6.25 -4.28125 C 6.78125 -3.789062 7.046875 -3.171875 7.046875 -2.421875 C 7.046875 -1.679688 6.773438 -1.050781 6.234375 -0.53125 C 5.703125 -0.0195312 5.039062 0.234375 4.25 0.234375 Z M 4.25 0.234375 "/></g></g></g></svg>